<svg width="25" height="24" viewBox="0 0 25 24" fill="none" xmlns="http://www.w3.org/2000/svg">
<path d="M12.3789 2C9.75891 2 7.62891 4.13 7.62891 6.75C7.62891 9.32 9.63891 11.4 12.2589 11.49C12.3389 11.48 12.4189 11.48 12.4789 11.49C12.4989 11.49 12.5089 11.49 12.5289 11.49C12.5389 11.49 12.5389 11.49 12.5489 11.49C15.1089 11.4 17.1189 9.32 17.1289 6.75C17.1289 4.13 14.9989 2 12.3789 2Z" fill="#9BB0B9"/>
<path d="M17.4589 14.1509C14.6689 12.2909 10.1189 12.2909 7.30887 14.1509C6.03887 15.0009 5.33887 16.1509 5.33887 17.3809C5.33887 18.6109 6.03887 19.7509 7.29887 20.5909C8.69887 21.5309 10.5389 22.0009 12.3789 22.0009C14.2189 22.0009 16.0589 21.5309 17.4589 20.5909C18.7189 19.7409 19.4189 18.6009 19.4189 17.3609C19.4089 16.1309 18.7189 14.9909 17.4589 14.1509Z" fill="#325B6C"/>
</svg>
