<svg width="25" height="24" viewBox="0 0 25 24" fill="none" xmlns="http://www.w3.org/2000/svg">
<path d="M12.539 10.87C12.439 10.86 12.319 10.86 12.209 10.87C9.82896 10.79 7.93896 8.84 7.93896 6.44C7.93896 3.99 9.91896 2 12.379 2C14.829 2 16.819 3.99 16.819 6.44C16.809 8.84 14.919 10.79 12.539 10.87Z" stroke="#BDBDBD" stroke-width="1.5" stroke-linecap="round" stroke-linejoin="round"/>
<path d="M7.53888 14.56C5.11888 16.18 5.11888 18.82 7.53888 20.43C10.2889 22.27 14.7989 22.27 17.5489 20.43C19.9689 18.81 19.9689 16.17 17.5489 14.56C14.8089 12.73 10.2989 12.73 7.53888 14.56Z" stroke="#BDBDBD" stroke-width="1.5" stroke-linecap="round" stroke-linejoin="round"/>
</svg>
