<svg width="25" height="24" viewBox="0 0 25 24" fill="none" xmlns="http://www.w3.org/2000/svg">
<path d="M20.4189 6.81969L14.6589 2.78969C13.0889 1.68969 10.6789 1.74969 9.1689 2.91969L4.1589 6.82969C3.1589 7.60969 2.3689 9.20969 2.3689 10.4697V17.3697C2.3689 19.9197 4.4389 21.9997 6.9889 21.9997H17.7689C20.3189 21.9997 22.3889 19.9297 22.3889 17.3797V10.5997C22.3889 9.24969 21.5189 7.58969 20.4189 6.81969Z" fill="#325B6C"/>
<path d="M12.3789 18.75C11.9689 18.75 11.6289 18.41 11.6289 18V15C11.6289 14.59 11.9689 14.25 12.3789 14.25C12.7889 14.25 13.1289 14.59 13.1289 15V18C13.1289 18.41 12.7889 18.75 12.3789 18.75Z" fill="#9BB0B9"/>
</svg>
