<svg width="25" height="24" viewBox="0 0 25 24" fill="none" xmlns="http://www.w3.org/2000/svg">
<path d="M19.8789 12.5C19.8789 11.12 20.9989 10 22.3789 10V9C22.3789 5 21.3789 4 17.3789 4H7.37891C3.37891 4 2.37891 5 2.37891 9V9.5C3.75891 9.5 4.87891 10.62 4.87891 12C4.87891 13.38 3.75891 14.5 2.37891 14.5V15C2.37891 19 3.37891 20 7.37891 20H17.3789C21.3789 20 22.3789 19 22.3789 15C20.9989 15 19.8789 13.88 19.8789 12.5Z" stroke="#BDBDBD" stroke-width="1.5" stroke-linecap="round" stroke-linejoin="round"/>
<path d="M10.3789 4L10.3789 20" stroke="#BDBDBD" stroke-width="1.5" stroke-linecap="round" stroke-linejoin="round" stroke-dasharray="5 5"/>
</svg>
