<svg width="25" height="24" viewBox="0 0 25 24" fill="none" xmlns="http://www.w3.org/2000/svg">
<path d="M10.3789 9.08V6.25C9.96891 6.25 9.62891 5.91 9.62891 5.5V3.25H7.37891C2.96891 3.25 1.62891 4.59 1.62891 9V9.5C1.62891 9.91 1.96891 10.25 2.37891 10.25C3.33891 10.25 4.12891 11.04 4.12891 12C4.12891 12.96 3.33891 13.75 2.37891 13.75C1.96891 13.75 1.62891 14.09 1.62891 14.5V15C1.62891 19.41 2.96891 20.75 7.37891 20.75H9.62891V18.5C9.62891 18.09 9.96891 17.75 10.3789 17.75V14.92C9.96891 14.92 9.62891 14.58 9.62891 14.17V9.83C9.62891 9.42 9.96891 9.08 10.3789 9.08Z" fill="#9BB0B9"/>
<path d="M20.6289 12.5C20.6289 13.46 21.4189 14.25 22.3789 14.25C22.7889 14.25 23.1289 14.59 23.1289 15C23.1289 19.41 21.7889 20.75 17.3789 20.75H11.1289V18.5C11.1289 18.09 10.7889 17.75 10.3789 17.75V14.92C10.7889 14.92 11.1289 14.58 11.1289 14.17V9.83C11.1289 9.42 10.7889 9.08 10.3789 9.08V6.25C10.7889 6.25 11.1289 5.91 11.1289 5.5V3.25H17.3789C21.7889 3.25 23.1289 4.59 23.1289 9V10C23.1289 10.41 22.7889 10.75 22.3789 10.75C21.4189 10.75 20.6289 11.54 20.6289 12.5Z" fill="#325B6C"/>
</svg>
