<svg width="25" height="25" viewBox="0 0 25 25" fill="none" xmlns="http://www.w3.org/2000/svg">
<path opacity="0.4" d="M14.0842 2.73633C14.5542 2.73633 14.9442 3.11633 14.9442 3.59633V21.8863C14.9442 22.3563 14.5642 22.7463 14.0842 22.7463C8.19423 22.7463 4.08423 18.6363 4.08423 12.7463C4.08423 6.85633 8.20423 2.73633 14.0842 2.73633Z" fill="#FE6D73"/>
<path d="M21.3841 12.2765L18.5441 9.42648C18.2541 9.13648 17.7741 9.13648 17.4841 9.42648C17.1941 9.71648 17.1941 10.1965 17.4841 10.4865L19.0441 12.0465H9.47412C9.06412 12.0465 8.72412 12.3865 8.72412 12.7965C8.72412 13.2065 9.06412 13.5465 9.47412 13.5465H19.0441L17.4841 15.1065C17.1941 15.3965 17.1941 15.8765 17.4841 16.1665C17.6341 16.3165 17.8241 16.3865 18.0141 16.3865C18.2041 16.3865 18.3941 16.3165 18.5441 16.1665L21.3841 13.3165C21.6741 13.0365 21.6741 12.5665 21.3841 12.2765Z" fill="#FE6D73"/>
</svg>
