<svg width="19" height="18" viewBox="0 0 19 18" fill="none" xmlns="http://www.w3.org/2000/svg">
<path d="M9.00446 4.83002V7.32752" stroke="#292D32" stroke-width="1.5" stroke-miterlimit="10" stroke-linecap="round"/>
<path d="M9.01947 1.5C6.25947 1.5 4.02447 3.735 4.02447 6.495V8.07C4.02447 8.58 3.81447 9.345 3.55197 9.78L2.59947 11.37C2.01447 12.3525 2.41947 13.4475 3.49947 13.8075C7.08447 15 10.962 15 14.547 13.8075C15.5595 13.47 15.9945 12.285 15.447 11.37L14.4945 9.78C14.232 9.345 14.022 8.5725 14.022 8.07V6.495C14.0145 3.75 11.7645 1.5 9.01947 1.5Z" stroke="#292D32" stroke-width="1.5" stroke-miterlimit="10" stroke-linecap="round"/>
<path d="M11.502 14.115C11.502 15.4875 10.377 16.6125 9.00446 16.6125C8.32196 16.6125 7.69196 16.3275 7.24196 15.8775C6.79196 15.4275 6.50696 14.7975 6.50696 14.115" stroke="#292D32" stroke-width="1.5" stroke-miterlimit="10"/>
</svg>
