<svg width="25" height="25" viewBox="0 0 25 25" fill="none" xmlns="http://www.w3.org/2000/svg">
<path opacity="0.4" d="M16.8442 2.06934H8.84424C4.84424 2.06934 2.84424 4.06934 2.84424 8.06934V21.0693C2.84424 21.6193 3.29424 22.0693 3.84424 22.0693H16.8442C20.8442 22.0693 22.8442 20.0693 22.8442 16.0693V8.06934C22.8442 4.06934 20.8442 2.06934 16.8442 2.06934Z" fill="#325B6C"/>
<path d="M17.8442 8.81934H7.84424C7.43424 8.81934 7.09424 9.15934 7.09424 9.56934C7.09424 9.97934 7.43424 10.3193 7.84424 10.3193H17.8442C18.2542 10.3193 18.5942 9.97934 18.5942 9.56934C18.5942 9.15934 18.2542 8.81934 17.8442 8.81934Z" fill="#325B6C"/>
<path d="M14.8442 13.8193H7.84424C7.43424 13.8193 7.09424 14.1593 7.09424 14.5693C7.09424 14.9793 7.43424 15.3193 7.84424 15.3193H14.8442C15.2542 15.3193 15.5942 14.9793 15.5942 14.5693C15.5942 14.1593 15.2542 13.8193 14.8442 13.8193Z" fill="#325B6C"/>
</svg>
