<svg width="21" height="21" viewBox="0 0 21 21" fill="none" xmlns="http://www.w3.org/2000/svg">
<path d="M7.90706 10.6036C7.88206 10.6036 7.8654 10.6036 7.8404 10.6036C7.79873 10.5952 7.7404 10.5952 7.6904 10.6036C5.27373 10.5286 3.44873 8.62858 3.44873 6.28691C3.44873 3.90358 5.3904 1.96191 7.77373 1.96191C10.1571 1.96191 12.0987 3.90358 12.0987 6.28691C12.0904 8.62858 10.2571 10.5286 7.93206 10.6036C7.92373 10.6036 7.9154 10.6036 7.90706 10.6036ZM7.77373 3.21191C6.08206 3.21191 4.69873 4.59525 4.69873 6.28691C4.69873 7.95358 5.99873 9.29525 7.65706 9.35358C7.70706 9.34525 7.8154 9.34525 7.92373 9.35358C9.55706 9.27858 10.8404 7.93691 10.8487 6.28691C10.8487 4.59525 9.4654 3.21191 7.77373 3.21191Z" fill="#292D32"/>
<path d="M14.0569 10.7122C14.0319 10.7122 14.0069 10.7122 13.9819 10.7039C13.6402 10.7372 13.2902 10.4956 13.2569 10.1539C13.2236 9.81224 13.4319 9.50391 13.7736 9.46224C13.8736 9.45391 13.9819 9.45391 14.0736 9.45391C15.2902 9.38724 16.2402 8.38724 16.2402 7.16224C16.2402 5.89557 15.2152 4.87057 13.9486 4.87057C13.6069 4.87891 13.3236 4.59557 13.3236 4.25391C13.3236 3.91224 13.6069 3.62891 13.9486 3.62891C15.8986 3.62891 17.4902 5.22057 17.4902 7.17057C17.4902 9.08724 15.9902 10.6372 14.0819 10.7122C14.0736 10.7122 14.0652 10.7122 14.0569 10.7122Z" fill="#292D32"/>
<path d="M7.91527 19.7122C6.28193 19.7122 4.64027 19.2956 3.3986 18.4622C2.24027 17.6956 1.60693 16.6456 1.60693 15.5039C1.60693 14.3622 2.24027 13.3039 3.3986 12.5289C5.8986 10.8706 9.9486 10.8706 12.4319 12.5289C13.5819 13.2956 14.2236 14.3456 14.2236 15.4872C14.2236 16.6289 13.5903 17.6872 12.4319 18.4622C11.1819 19.2956 9.5486 19.7122 7.91527 19.7122ZM4.09027 13.5789C3.29027 14.1122 2.85693 14.7956 2.85693 15.5122C2.85693 16.2206 3.2986 16.9039 4.09027 17.4289C6.16527 18.8206 9.66527 18.8206 11.7403 17.4289C12.5403 16.8956 12.9736 16.2122 12.9736 15.4956C12.9736 14.7872 12.5319 14.1039 11.7403 13.5789C9.66527 12.1956 6.16527 12.1956 4.09027 13.5789Z" fill="#292D32"/>
<path d="M15.5569 18.2121C15.2652 18.2121 15.0069 18.0121 14.9486 17.7121C14.8819 17.3704 15.0986 17.0454 15.4319 16.9704C15.9569 16.8621 16.4402 16.6538 16.8152 16.3621C17.2902 16.0038 17.5486 15.5538 17.5486 15.0788C17.5486 14.6038 17.2902 14.1538 16.8236 13.8038C16.4569 13.5204 15.9986 13.3204 15.4569 13.1954C15.1236 13.1204 14.9069 12.7871 14.9819 12.4454C15.0569 12.1121 15.3902 11.8954 15.7319 11.9704C16.4486 12.1288 17.0736 12.4121 17.5819 12.8038C18.3569 13.3871 18.7986 14.2121 18.7986 15.0788C18.7986 15.9454 18.3486 16.7704 17.5736 17.3621C17.0569 17.7621 16.4069 18.0538 15.6902 18.1954C15.6402 18.2121 15.5986 18.2121 15.5569 18.2121Z" fill="#292D32"/>
</svg>
