<svg width="24" height="25" viewBox="0 0 24 25" fill="none" xmlns="http://www.w3.org/2000/svg">
<path opacity="0.4" d="M7.65006 20.9445C7.62006 20.9445 7.58006 20.9645 7.55006 20.9645C5.61006 20.0045 4.03006 18.4145 3.06006 16.4745C3.06006 16.4445 3.08006 16.4045 3.08006 16.3745C4.30006 16.7345 5.56006 17.0045 6.81006 17.2145C7.03006 18.4745 7.29006 19.7245 7.65006 20.9445Z" fill="#325B6C"/>
<path opacity="0.4" d="M20.94 16.4845C19.95 18.4745 18.3 20.0845 16.29 21.0545C16.67 19.7845 16.99 18.5045 17.2 17.2145C18.46 17.0045 19.7 16.7345 20.92 16.3745C20.91 16.4145 20.94 16.4545 20.94 16.4845Z" fill="#325B6C"/>
<path opacity="0.4" d="M21.02 7.74465C19.76 7.36465 18.49 7.05465 17.2 6.83465C16.99 5.54465 16.68 4.26465 16.29 3.01465C18.36 4.00465 20.03 5.67465 21.02 7.74465Z" fill="#325B6C"/>
<path opacity="0.4" d="M7.64998 3.12473C7.28998 4.34473 7.02998 5.58473 6.81998 6.84473C5.52998 7.04473 4.24998 7.36473 2.97998 7.74473C3.94998 5.73473 5.55998 4.08473 7.54998 3.09473C7.57998 3.09473 7.61998 3.12473 7.64998 3.12473Z" fill="#325B6C"/>
<path d="M15.49 6.62467C13.17 6.36467 10.83 6.36467 8.51001 6.62467C8.76001 5.25467 9.08001 3.88467 9.53001 2.56467C9.55001 2.48467 9.54001 2.42467 9.55001 2.34467C10.34 2.15467 11.15 2.03467 12 2.03467C12.84 2.03467 13.66 2.15467 14.44 2.34467C14.45 2.42467 14.45 2.48467 14.47 2.56467C14.92 3.89467 15.24 5.25467 15.49 6.62467Z" fill="#325B6C"/>
<path d="M6.59 15.5244C5.21 15.2744 3.85 14.9544 2.53 14.5044C2.45 14.4844 2.39 14.4944 2.31 14.4844C2.12 13.6944 2 12.8844 2 12.0344C2 11.1944 2.12 10.3744 2.31 9.59443C2.39 9.58443 2.45 9.58443 2.53 9.56443C3.86 9.12443 5.21 8.79443 6.59 8.54443C6.34 10.8644 6.34 13.2044 6.59 15.5244Z" fill="#325B6C"/>
<path d="M21.9999 12.0344C21.9999 12.8844 21.8799 13.6944 21.6899 14.4844C21.6099 14.4944 21.5499 14.4844 21.4699 14.5044C20.1399 14.9444 18.7799 15.2744 17.4099 15.5244C17.6699 13.2044 17.6699 10.8644 17.4099 8.54443C18.7799 8.79443 20.1499 9.11443 21.4699 9.56443C21.5499 9.58443 21.6099 9.59443 21.6899 9.59443C21.8799 10.3844 21.9999 11.1944 21.9999 12.0344Z" fill="#325B6C"/>
<path d="M15.49 17.4448C15.24 18.8248 14.92 20.1848 14.47 21.5048C14.45 21.5848 14.45 21.6448 14.44 21.7248C13.66 21.9148 12.84 22.0348 12 22.0348C11.15 22.0348 10.34 21.9148 9.55001 21.7248C9.54001 21.6448 9.55001 21.5848 9.53001 21.5048C9.09001 20.1748 8.76001 18.8248 8.51001 17.4448C9.67001 17.5748 10.83 17.6648 12 17.6648C13.17 17.6648 14.34 17.5748 15.49 17.4448Z" fill="#325B6C"/>
<path d="M15.7633 15.798C13.2622 16.1136 10.7378 16.1136 8.23667 15.798C7.92111 13.2969 7.92111 10.7724 8.23667 8.27134C10.7378 7.95578 13.2622 7.95578 15.7633 8.27134C16.0789 10.7724 16.0789 13.2969 15.7633 15.798Z" fill="#325B6C"/>
</svg>
