<svg width="25" height="25" viewBox="0 0 25 25" fill="none" xmlns="http://www.w3.org/2000/svg">
<path d="M12.8442 12.2012C15.6057 12.2012 17.8442 9.9626 17.8442 7.20117C17.8442 4.43975 15.6057 2.20117 12.8442 2.20117C10.0828 2.20117 7.84424 4.43975 7.84424 7.20117C7.84424 9.9626 10.0828 12.2012 12.8442 12.2012Z" fill="#325B6C"/>
<path opacity="0.4" d="M12.8442 14.7012C7.83418 14.7012 3.75415 18.0612 3.75415 22.2012C3.75415 22.4812 3.97415 22.7012 4.25415 22.7012H21.4342C21.7142 22.7012 21.9342 22.4812 21.9342 22.2012C21.9342 18.0612 17.8542 14.7012 12.8442 14.7012Z" fill="#325B6C"/>
<path d="M22.2743 14.941C21.3743 14.041 20.6643 14.331 20.0543 14.941L16.5143 18.481C16.3743 18.621 16.2443 18.881 16.2143 19.071L16.0243 20.421C15.9543 20.911 16.2943 21.251 16.7843 21.181L18.1343 20.991C18.3243 20.961 18.5943 20.831 18.7243 20.691L22.2643 17.151C22.8843 16.551 23.1743 15.841 22.2743 14.941Z" fill="#325B6C"/>
</svg>
