<svg width="25" height="25" viewBox="0 0 25 25" fill="none" xmlns="http://www.w3.org/2000/svg">
<path opacity="0.4" d="M19.1743 6.57283L7.43433 18.3128C6.99433 18.7528 6.25432 18.6928 5.89432 18.1728C4.65432 16.3628 3.92432 14.2228 3.92432 12.0228V7.63283C3.92432 6.81283 4.54432 5.88283 5.30432 5.57283L10.8743 3.29283C12.1343 2.77283 13.5343 2.77283 14.7943 3.29283L18.8343 4.94283C19.5043 5.21283 19.6743 6.07283 19.1743 6.57283Z" fill="#325B6C"/>
<path d="M20.1142 7.94295C20.7642 7.39295 21.7543 7.86294 21.7543 8.71294V12.0229C21.7543 16.9129 18.2043 21.4929 13.3543 22.8329C13.0243 22.9229 12.6643 22.9229 12.3243 22.8329C10.9043 22.4329 9.58424 21.763 8.45424 20.883C7.97424 20.513 7.92425 19.813 8.34425 19.383C10.5243 17.153 16.9042 10.653 20.1142 7.94295Z" fill="#325B6C"/>
</svg>
