<svg width="20" height="21" viewBox="0 0 20 21" fill="none" xmlns="http://www.w3.org/2000/svg">
<g clip-path="url(#clip0_69_697)">
<path d="M19.7613 10.7302C19.7613 10.0504 19.7061 9.36699 19.5886 8.69824H10.1562V12.5491H15.5577C15.3335 13.791 14.6134 14.8897 13.5588 15.5878V18.0864H16.7813C18.6736 16.3448 19.7613 13.7726 19.7613 10.7302Z" fill="#4285F4"/>
<path d="M10.1562 20.5008C12.8533 20.5008 15.1277 19.6152 16.7849 18.0867L13.5624 15.588C12.6659 16.198 11.5084 16.5434 10.1599 16.5434C7.55104 16.5434 5.33902 14.7833 4.54534 12.417H1.21997V14.9928C2.91756 18.3696 6.37522 20.5008 10.1562 20.5008V20.5008Z" fill="#34A853"/>
<path d="M4.5417 12.4173C4.12281 11.1753 4.12281 9.83044 4.5417 8.58848V6.0127H1.22C-0.198334 8.83834 -0.198334 12.1674 1.22 14.993L4.5417 12.4173V12.4173Z" fill="#FBBC04"/>
<path d="M10.1562 4.45805C11.5819 4.436 12.9598 4.97247 13.9923 5.95722L16.8474 3.10218C15.0396 1.40459 12.6401 0.471278 10.1562 0.500674C6.37522 0.500674 2.91756 2.63185 1.21997 6.01234L4.54167 8.58813C5.33167 6.21811 7.54736 4.45805 10.1562 4.45805Z" fill="#EA4335"/>
</g>
<defs>
<clipPath id="clip0_69_697">
<rect width="20" height="20" fill="white" transform="translate(0 0.5)"/>
</clipPath>
</defs>
</svg>
