<svg width="21" height="25" viewBox="0 0 21 25" fill="none" xmlns="http://www.w3.org/2000/svg">
<path fill-rule="evenodd" clip-rule="evenodd" d="M18.6838 21.58C19.3918 20.5 19.6558 19.948 20.1957 18.7361C16.2118 17.2241 15.5758 11.5482 19.5118 9.37622C18.3118 7.86425 16.6198 6.98828 15.0239 6.98828C13.8719 6.98828 13.0799 7.28829 12.3719 7.56428C11.7719 7.79228 11.2319 7.99626 10.5599 7.99626C9.83995 7.99626 9.20396 7.76828 8.53197 7.52829C7.79999 7.26429 7.032 6.98828 6.07202 6.98828C4.28405 6.98828 2.3761 8.08026 1.16412 9.95222C-0.539845 12.5922 -0.239848 17.5361 2.5081 21.76C3.49208 23.272 4.81205 24.9639 6.52802 24.9879C7.248 24.9999 7.71599 24.7839 8.23198 24.556C8.81997 24.292 9.45595 24.0039 10.5719 24.0039C11.6879 23.9919 12.3119 24.292 12.8999 24.556C13.4039 24.7839 13.8599 24.9999 14.5679 24.9879C16.3078 24.9639 17.6998 23.092 18.6838 21.58Z" fill="black"/>
<path fill-rule="evenodd" clip-rule="evenodd" d="M14.7716 0.988281C14.9636 2.30826 14.4236 3.61624 13.7156 4.52823C12.9596 5.51221 11.6397 6.28017 10.3677 6.23217C10.1397 4.9602 10.7277 3.65222 11.4477 2.77623C12.2517 1.81625 13.6076 1.07228 14.7716 0.988281Z" fill="black"/>
</svg>
