<svg width="52" height="52" viewBox="0 0 52 52" fill="none" xmlns="http://www.w3.org/2000/svg">
<rect x="0.404785" y="0.39209" width="50.73" height="50.73" rx="8" fill="#FAFAFA"/>
<path fill-rule="evenodd" clip-rule="evenodd" d="M30.4798 23.8289C30.4798 24.3284 30.8798 24.7279 31.3798 24.7279C31.8798 24.7279 32.2898 24.3284 32.2898 23.8289C32.2898 23.3295 31.8798 22.9199 31.3798 22.9199C30.8798 22.9199 30.4798 23.3295 30.4798 23.8289ZM28.5398 29.8622C27.8298 30.5714 26.8498 31.0109 25.7698 31.0109C24.7198 31.0109 23.7398 30.6014 22.9898 29.8622C22.2498 29.113 21.8398 28.1341 21.8398 27.0853C21.8298 26.0464 22.2398 25.0675 22.9798 24.3184C23.7298 23.5692 24.7198 23.1597 25.7698 23.1597C26.8198 23.1597 27.8098 23.5692 28.5498 24.3084C29.2898 25.0575 29.6998 26.0464 29.6998 27.0853C29.6898 28.1741 29.2498 29.153 28.5398 29.8622ZM25.7698 24.658C25.1198 24.658 24.5098 24.9077 24.0398 25.3772C23.5798 25.8367 23.3298 26.446 23.3398 27.0753V27.0853C23.3398 27.7346 23.5898 28.3439 24.0498 28.8034C24.5098 29.2629 25.1198 29.5126 25.7698 29.5126C27.1098 29.5126 28.1898 28.4238 28.1998 27.0853C28.1998 26.436 27.9498 25.8267 27.4898 25.3672C27.0298 24.9077 26.4198 24.658 25.7698 24.658Z" fill="#325B6C"/>
<path opacity="0.4" d="M31.2098 19.9932L31.1098 19.7735C30.8398 19.2041 30.5298 18.5448 30.3398 18.1653C29.8798 17.2663 29.0898 16.7668 28.1198 16.7568H23.4098C22.4398 16.7668 21.6598 17.2663 21.1998 18.1653C20.9998 18.5648 20.6598 19.284 20.3798 19.8734L20.3198 19.9932C20.2898 20.0732 20.2098 20.1131 20.1298 20.1131C17.7198 20.1131 15.7698 22.0709 15.7698 24.4683V30.4017C15.7698 32.799 17.7198 34.7568 20.1298 34.7568H31.4098C33.8098 34.7568 35.7698 32.799 35.7698 30.4017V24.4683C35.7698 22.0709 33.8098 20.1131 31.4098 20.1131C31.3198 20.1131 31.2498 20.0632 31.2098 19.9932Z" fill="#325B6C"/>
</svg>
