<svg width="30" height="29" viewBox="0 0 30 29" fill="none" xmlns="http://www.w3.org/2000/svg">
<circle cx="15.0281" cy="14.6638" r="14.0339" fill="#325B6C"/>
<path d="M11.364 21.6567H18.6923C20.6222 21.6567 21.3914 20.4749 21.4823 19.0344L21.846 13.2585C21.9438 11.7481 20.7411 10.4684 19.2237 10.4684C18.7972 10.4684 18.4056 10.2237 18.2098 9.8461L17.7063 8.83217C17.3846 8.19584 16.5455 7.67139 15.8323 7.67139H14.231C13.5107 7.67139 12.6716 8.19584 12.3499 8.83217L11.8465 9.8461C11.6507 10.2237 11.2591 10.4684 10.8325 10.4684C9.31513 10.4684 8.1124 11.7481 8.21029 13.2585L8.57391 19.0344C8.65782 20.4749 9.43401 21.6567 11.364 21.6567Z" stroke="white" stroke-linecap="round" stroke-linejoin="round"/>
<path d="M13.9792 11.8672H16.077" stroke="white" stroke-linecap="round" stroke-linejoin="round"/>
<path d="M15.0281 18.8597C16.2798 18.8597 17.3007 17.8387 17.3007 16.5871C17.3007 15.3354 16.2798 14.3145 15.0281 14.3145C13.7764 14.3145 12.7555 15.3354 12.7555 16.5871C12.7555 17.8387 13.7764 18.8597 15.0281 18.8597Z" stroke="white" stroke-linecap="round" stroke-linejoin="round"/>
</svg>
