<svg width="51" height="52" viewBox="0 0 51 52" fill="none" xmlns="http://www.w3.org/2000/svg">
<rect x="0.135132" y="0.39209" width="50.73" height="50.73" rx="8" fill="#FAFAFA"/>
<path opacity="0.4" d="M29.8327 35.7568H21.1661C17.7768 35.7568 15.4999 33.3797 15.4999 29.8411V21.6736C15.4999 18.1349 17.7768 15.7568 21.1661 15.7568H29.8337C33.223 15.7568 35.4999 18.1349 35.4999 21.6736V29.8411C35.4999 33.3797 33.223 35.7568 29.8327 35.7568" fill="#325B6C"/>
<path fill-rule="evenodd" clip-rule="evenodd" d="M24.7449 22.4318C24.7449 23.8018 23.6299 24.9168 22.2599 24.9168C20.8889 24.9168 19.7749 23.8018 19.7749 22.4318C19.7749 21.0618 20.8889 19.9458 22.2599 19.9458C23.6299 19.9458 24.7449 21.0618 24.7449 22.4318ZM32.9003 27.8444C33.1333 28.0704 33.3003 28.3284 33.4103 28.6034C33.7433 29.4354 33.5703 30.4354 33.2143 31.2594C32.7923 32.2404 31.9843 32.9814 30.9663 33.3054C30.5143 33.4504 30.0403 33.5124 29.5673 33.5124H21.1863C20.3523 33.5124 19.6143 33.3184 19.0093 32.9544C18.6303 32.7264 18.5633 32.2014 18.8443 31.8594C19.3143 31.2894 19.7783 30.7174 20.2463 30.1404C21.1383 29.0364 21.7393 28.7164 22.4073 28.9974C22.6783 29.1134 22.9503 29.2884 23.2303 29.4724C23.9763 29.9664 25.0133 30.6444 26.3793 29.9084C27.313 29.3978 27.855 28.5242 28.3267 27.7637L28.3363 27.7484C28.368 27.6975 28.3995 27.6466 28.4309 27.5959C28.5913 27.3367 28.7493 27.0814 28.9283 26.8464C29.1503 26.5554 29.9743 25.6454 31.0393 26.2934C31.7183 26.7014 32.2893 27.2534 32.9003 27.8444Z" fill="#325B6C"/>
</svg>
