<svg width="88" height="88" viewBox="0 0 88 88" fill="none" xmlns="http://www.w3.org/2000/svg">
<rect x="0.572876" width="87.1769" height="87.1769" fill="#1B313A"/>
<path d="M44.1324 60.8079H19.0702C17.9929 60.8079 17.2212 60.1856 17.056 59.1807C17.037 59.0466 17.0295 58.911 17.0333 58.7756V43.3137C17.0333 42.0622 17.83 41.2769 19.0883 41.2769H69.2399C70.5005 41.2769 71.2903 42.0644 71.2903 43.3137V58.7394C71.2903 60.0113 70.5028 60.7921 69.2218 60.7921L44.1324 60.8079ZM44.8544 51.9612C44.8657 51.8187 44.8657 51.7349 44.877 51.6738L46.0719 44.2733C46.0901 44.218 46.0938 44.159 46.0826 44.1019C46.0714 44.0448 46.0457 43.9915 46.0079 43.9472C45.9702 43.9029 45.9218 43.869 45.8672 43.8488C45.8126 43.8287 45.7537 43.8228 45.6963 43.832C44.7027 43.832 43.7069 43.832 42.7134 43.832C42.5278 43.832 42.4667 43.8931 42.4418 44.0583C42.3355 44.7915 42.2155 45.5225 42.1024 46.2535C41.7689 48.3839 41.4347 50.5143 41.0998 52.6447L40.3054 57.7255C40.2896 57.7791 40.2874 57.8358 40.299 57.8905C40.3105 57.9452 40.3355 57.9961 40.3716 58.0388C40.4077 58.0814 40.4539 58.1144 40.506 58.1348C40.558 58.1552 40.6143 58.1623 40.6698 58.1555C41.6724 58.1555 42.6749 58.1555 43.6798 58.1555C43.8224 58.1555 43.8767 58.1216 43.9061 57.9677C44.0011 57.2887 44.1143 56.6301 44.2229 55.9625L44.4696 54.4371C44.5941 54.5028 44.6145 54.6046 44.6575 54.6883C45.2459 55.7747 45.8305 56.8632 46.4114 57.9541C46.436 58.0195 46.4815 58.0749 46.5409 58.1117C46.6002 58.1485 46.6701 58.1647 46.7396 58.1578C47.9164 58.1578 49.091 58.1578 50.2656 58.1578C50.3307 58.1685 50.3975 58.158 50.4562 58.1278C50.5148 58.0977 50.5623 58.0494 50.5915 57.9903C50.6257 57.9345 50.641 57.8692 50.6353 57.804C50.6296 57.7388 50.6032 57.6772 50.5598 57.6282C49.6885 56.2703 48.8239 54.9124 47.9481 53.5545C47.9209 53.5268 47.9001 53.4934 47.8872 53.4568C47.8743 53.4201 47.8696 53.3811 47.8735 53.3424C47.8774 53.3037 47.8897 53.2664 47.9097 53.233C47.9296 53.1997 47.9566 53.1711 47.9888 53.1494C49.3151 51.8436 50.6322 50.5264 51.9539 49.216C52.0114 49.1757 52.0524 49.1158 52.069 49.0475C52.0857 48.9792 52.0769 48.9072 52.0444 48.8449C51.9788 48.6797 51.8815 48.6661 51.7344 48.6661C50.6028 48.6661 49.4712 48.6887 48.3396 48.6661C48.169 48.6545 47.9981 48.686 47.8427 48.7576C47.6873 48.8291 47.5524 48.9385 47.4502 49.0757C46.6174 50.0059 45.7551 50.9451 44.8544 51.9499V51.9612ZM57.7996 54.4009C58.8497 54.4009 59.8976 54.4009 60.9477 54.4009C61.1197 54.4009 61.1921 54.3715 61.217 54.1746C61.2931 53.6462 61.3061 53.1106 61.2555 52.5791C61.0292 50.6961 60.0764 49.3541 58.2817 48.6661C57.5282 48.4001 56.7255 48.3027 55.9303 48.3809C54.1197 48.5099 52.6758 49.2862 51.714 50.8546C50.9649 52.0699 50.8087 53.4164 51.0215 54.7992C51.2478 56.3495 52.0603 57.4924 53.5291 58.1125C54.4343 58.4642 55.4095 58.5983 56.3761 58.504C57.6472 58.4583 58.866 57.9864 59.8365 57.1642C60.1035 56.9379 60.1149 56.7591 59.8682 56.5147C59.4291 56.0711 58.9893 55.6291 58.5487 55.1885C58.1663 54.8038 58.1663 54.8038 57.7566 55.141C57.1841 55.614 56.5549 55.9467 55.7854 55.9059C54.9526 55.8629 54.5022 55.4533 54.4139 54.6589C54.3936 54.4756 54.4139 54.3919 54.6403 54.3941C55.6949 54.4077 56.745 54.4009 57.7996 54.4009ZM31.6715 53.6948C31.6666 54.0531 31.6916 54.4112 31.7461 54.7653C32.0766 56.5192 33.0407 57.7504 34.772 58.2755C36.0914 58.676 37.3995 58.4565 38.6805 58.0242C38.8163 57.979 38.823 57.8726 38.8389 57.7685C38.9898 56.8783 39.1354 55.9882 39.2757 55.098C39.296 54.9622 39.3096 54.849 39.1489 54.7585C39.0932 54.7173 39.0249 54.6965 38.9556 54.6998C38.8863 54.7031 38.8203 54.7302 38.7687 54.7766C38.2694 55.1596 37.6577 55.3672 37.0283 55.3673C36.2159 55.356 35.641 54.8966 35.4939 54.1452C35.4441 53.8326 35.4441 53.5141 35.4939 53.2014C35.5194 52.9217 35.6033 52.6504 35.7403 52.4051C35.8773 52.1599 36.0643 51.9461 36.2892 51.7778C36.5141 51.6094 36.7719 51.4902 37.0458 51.4278C37.3197 51.3655 37.6037 51.3614 37.8793 51.4158C38.3899 51.5369 38.8502 51.8137 39.1965 52.2079C39.241 52.2559 39.2994 52.2888 39.3636 52.3018C39.4277 52.3148 39.4944 52.3073 39.554 52.2803C39.7057 52.2419 39.7396 52.1423 39.7623 52.0088C39.8822 51.2325 39.9886 50.4562 40.1357 49.6845C40.1699 49.5717 40.1629 49.4504 40.1161 49.3423C40.0693 49.2341 39.9856 49.1461 39.8799 49.0938C38.2595 48.0301 35.6818 48.0663 33.9731 49.2205C32.3617 50.2978 31.6737 51.8639 31.6647 53.6948H31.6715ZM26.0136 51.4181C26.2761 51.4181 26.4933 51.4181 26.7106 51.4181C26.8306 51.4181 26.8917 51.3864 26.9098 51.2619C27.0207 50.5309 27.1361 49.7999 27.247 49.0689C27.2877 48.7951 27.1474 48.6457 26.8736 48.6434C26.5997 48.6412 26.2919 48.6253 26.0045 48.6434C25.7171 48.6615 25.6877 48.5801 25.7329 48.3334C25.8461 47.7133 25.9411 47.0887 26.043 46.464C26.0973 46.1245 25.9728 45.9797 25.622 45.9797C24.6376 45.9797 23.6508 45.9797 22.6663 45.9797C22.5079 45.9797 22.44 46.0227 22.4242 46.1834C22.3201 46.9348 22.1979 47.6839 22.096 48.433C22.0734 48.5846 22.0259 48.6593 21.8697 48.6457C21.4895 48.6321 21.1093 48.6457 20.7381 48.6457C20.6023 48.6457 20.5571 48.6887 20.5367 48.8245C20.4326 49.5487 20.3104 50.2707 20.204 50.9926C20.1893 51.046 20.1878 51.1023 20.1998 51.1564C20.2118 51.2105 20.2369 51.2608 20.2728 51.303C20.3088 51.3452 20.3545 51.378 20.406 51.3984C20.4575 51.4189 20.5133 51.4264 20.5684 51.4203C20.849 51.4203 21.1297 51.4339 21.4103 51.4203C21.623 51.4068 21.6366 51.4837 21.6049 51.6693C21.279 53.6805 20.9592 55.6939 20.6453 57.7097C20.6001 57.9948 20.7381 58.1487 21.0256 58.1487C22.01 58.1487 22.9945 58.1487 23.9812 58.1487C24.16 58.1487 24.2234 58.1057 24.2528 57.9224C24.5448 56.0236 24.848 54.1271 25.1581 52.2283C25.1988 51.9703 25.1581 51.6308 25.3074 51.4747C25.4568 51.3185 25.7759 51.4452 25.9977 51.4181H26.0136ZM67.2483 51.4181C67.4746 51.4181 67.6829 51.4181 67.8979 51.4181C68.0246 51.4181 68.0744 51.3728 68.0925 51.2551C68.2034 50.5241 68.3188 49.7931 68.4274 49.0621C68.4659 48.7928 68.3233 48.6457 68.045 48.6434C67.7666 48.6412 67.4294 48.6253 67.1239 48.6434C66.8975 48.6615 66.8772 48.5665 66.8975 48.3809C67.0084 47.7404 67.1103 47.1 67.2121 46.4572C67.2642 46.1268 67.142 45.9797 66.8115 45.9797C65.8248 45.9797 64.8403 45.9797 63.8559 45.9797C63.668 45.9797 63.6137 46.0385 63.5888 46.2173C63.4892 46.9597 63.3625 47.6997 63.2652 48.442C63.2425 48.5982 63.1814 48.6502 63.0208 48.6457C62.6519 48.6321 62.2807 48.6457 61.9095 48.6457C61.767 48.6457 61.7081 48.6774 61.6832 48.8335C61.5836 49.5487 61.4569 50.2593 61.3551 50.9722C61.3121 51.2574 61.4433 51.4249 61.7262 51.4249C62.0091 51.4249 62.2694 51.4384 62.5387 51.4249C62.765 51.409 62.7854 51.4724 62.7514 51.6806C62.4255 53.6827 62.1072 55.6872 61.7964 57.6938C61.7466 58.0129 61.8756 58.1465 62.2083 58.1465C63.1656 58.1465 64.1252 58.1465 65.0825 58.1465C65.3088 58.1465 65.3812 58.074 65.4152 57.859C65.723 55.8516 66.0421 53.8464 66.3521 51.8413C66.4177 51.4158 66.411 51.4158 66.8274 51.4158L67.2483 51.4181ZM29.4106 48.6457H28.0527C27.6679 48.6457 27.6747 48.6457 27.6159 49.0214C27.4461 50.1168 27.2719 51.2144 27.0999 52.3098C26.8177 54.1112 26.5363 55.912 26.2557 57.7119C26.2394 57.7654 26.2368 57.822 26.248 57.8768C26.2592 57.9315 26.2839 57.9826 26.3199 58.0253C26.3559 58.0681 26.402 58.1011 26.454 58.1215C26.5061 58.1419 26.5624 58.1489 26.6178 58.1419C27.6227 58.1419 28.6252 58.1419 29.6301 58.1419C29.8157 58.1419 29.8677 58.0831 29.8949 57.9156C30.1212 56.3631 30.3837 54.8128 30.6304 53.2626C30.8522 51.873 31.0725 50.4826 31.2912 49.0915C31.3365 48.8109 31.1939 48.6548 30.902 48.6525L29.4106 48.6457ZM29.8315 44.2529C29.5784 44.249 29.327 44.2954 29.0919 44.3893C28.8568 44.4832 28.6426 44.6228 28.4618 44.8C28.281 44.9772 28.1372 45.1885 28.0386 45.4217C27.94 45.6549 27.8886 45.9053 27.8875 46.1585C27.8832 46.4137 27.93 46.6673 28.025 46.9042C28.1199 47.1412 28.2613 47.3568 28.4406 47.5385C28.62 47.7202 28.8338 47.8642 29.0695 47.9623C29.3052 48.0603 29.5581 48.1103 29.8134 48.1093C30.071 48.1148 30.327 48.0686 30.5664 47.9734C30.8059 47.8782 31.0238 47.736 31.2073 47.5552C31.3909 47.3744 31.5363 47.1587 31.6351 46.9207C31.7338 46.6828 31.7839 46.4274 31.7823 46.1698C31.7865 45.9141 31.7386 45.6601 31.6416 45.4235C31.5446 45.1868 31.4005 44.9723 31.218 44.793C31.0356 44.6137 30.8186 44.4734 30.5802 44.3806C30.3419 44.2877 30.0871 44.2443 29.8315 44.2529V44.2529Z" fill="white"/>
<path d="M46.2191 34.9264C46.0109 36.248 45.7981 37.5675 45.599 38.8914C45.565 39.1177 45.5062 39.1924 45.2663 39.1879C44.4267 39.1698 43.5848 39.1879 42.7451 39.1879C42.4102 39.1879 42.3219 39.0906 42.3717 38.7647C42.5935 37.3283 42.8198 35.895 43.0507 34.4647C43.062 34.3923 43.0733 34.3221 43.0801 34.2497C43.1502 33.3286 42.6048 32.9054 41.7222 33.1905C41.542 33.253 41.3776 33.354 41.2404 33.4865C41.1032 33.619 40.9965 33.7798 40.9278 33.9577C40.6993 34.5284 40.5545 35.129 40.4978 35.7411C40.3326 36.8206 40.1651 37.9024 40.009 38.9842C39.9841 39.1585 39.9139 39.2105 39.7464 39.1992C38.8887 39.1992 38.0287 39.1992 37.171 39.1992C36.8858 39.1992 36.7885 39.0793 36.8337 38.7941C36.9107 38.3166 36.9854 37.8368 37.0601 37.3389C37.0193 37.3638 36.9899 37.3728 36.9786 37.3909C36.2431 38.5836 35.1296 39.1856 33.7898 39.4278C32.355 39.6767 30.9789 39.5409 29.7161 38.7488C29.1853 38.4031 28.7073 37.9823 28.2971 37.4996C28.2759 37.4807 28.2589 37.4575 28.2472 37.4316C28.2356 37.4056 28.2296 37.3775 28.2296 37.3491C28.2296 37.3206 28.2356 37.2925 28.2472 37.2666C28.2589 37.2406 28.2759 37.2175 28.2971 37.1986C28.8018 36.4811 29.2997 35.7592 29.8021 35.0418C29.824 34.9943 29.8581 34.9536 29.901 34.9237C29.9438 34.8938 29.9938 34.8758 30.0459 34.8717C30.098 34.8676 30.1502 34.8773 30.1973 34.9001C30.2443 34.9228 30.2845 34.9577 30.3136 35.001C30.6615 35.3688 31.0583 35.6871 31.4927 35.947C31.9326 36.2047 32.4361 36.3333 32.9456 36.3182C33.2011 36.3194 33.4505 36.2402 33.6585 36.0919C33.7434 36.0356 33.8149 35.9615 33.868 35.8746C33.9212 35.7878 33.9546 35.6903 33.9661 35.5891C33.9775 35.488 33.9666 35.3855 33.9342 35.289C33.9018 35.1925 33.8487 35.1042 33.7785 35.0305C33.4966 34.735 33.1649 34.4914 32.7985 34.3108C32.4048 34.0845 32.0019 33.8876 31.6194 33.6454C29.8429 32.5251 29.3563 30.6829 30.4177 28.8452C31.2415 27.4059 32.5632 26.7858 34.1858 26.7496C35.5842 26.7248 36.9418 27.2209 37.9947 28.1414C38.1056 28.2342 38.126 28.2998 38.0491 28.4288C37.6281 29.1349 37.2207 29.8501 36.8066 30.5585C36.6572 30.8119 36.5124 30.8391 36.2861 30.658C35.9046 30.3243 35.4711 30.0553 35.0029 29.8614C34.6923 29.7249 34.3419 29.7096 34.0206 29.8184C33.4141 30.0447 33.3213 30.5947 33.8215 30.9998C34.1036 31.2137 34.4069 31.398 34.7267 31.5497C35.1617 31.7712 35.5827 32.0191 35.9873 32.292C36.7161 32.7899 37.2886 33.4055 37.4697 34.3289C37.6191 34.2542 37.5851 34.1275 37.601 34.0369C37.9993 31.5656 38.3931 29.0942 38.7823 26.6228C38.8117 26.435 38.8661 26.3648 39.0675 26.3693C39.9071 26.3807 40.749 26.3693 41.5886 26.3693C41.91 26.3693 41.9983 26.487 41.944 26.822C41.695 28.3172 41.4476 29.8139 41.2016 31.3121C41.2016 31.3528 41.2017 31.3958 41.1858 31.4864C41.3397 31.3596 41.4619 31.26 41.5886 31.1627C42.0332 30.8071 42.5629 30.5737 43.1254 30.4855C43.6878 30.3974 44.2635 30.4577 44.7955 30.6603C45.8479 31.0134 46.3345 31.8326 46.4182 32.9076C46.4386 33.1588 46.4182 33.4146 46.4182 33.6658C46.4044 33.6805 46.3967 33.6999 46.3967 33.7201C46.3967 33.7403 46.4044 33.7597 46.4182 33.7744L46.3775 34.098C46.2936 34.3673 46.2405 34.6452 46.2191 34.9264Z" fill="white"/>
<path d="M60.1194 31.3457C60.2235 31.3457 60.2507 31.271 60.3005 31.2258C60.6161 30.9321 60.9958 30.7159 61.4094 30.5942C61.8229 30.4724 62.2592 30.4484 62.6836 30.5242C62.9687 30.5695 63.0412 30.6872 62.9778 30.9768C62.9144 31.2665 62.8352 31.6037 62.7515 31.9907C63.2194 31.4511 63.8145 31.0365 64.4828 30.7845C66.1598 30.2119 67.7983 30.2119 69.2762 31.3276C69.7319 31.6743 70.1046 32.1183 70.3669 32.6273C70.6292 33.1363 70.7746 33.6974 70.7925 34.2697C70.817 34.6853 70.8109 35.1021 70.7744 35.5167C70.7585 35.7272 70.6906 35.7996 70.4643 35.7996C68.6289 35.7883 66.7935 35.7996 64.9603 35.7861C64.6887 35.7861 64.6435 35.8653 64.6797 36.1074C64.6946 36.3914 64.8149 36.6596 65.0171 36.8597C65.2192 37.0597 65.4887 37.1772 65.7728 37.1892C66.5015 37.2775 67.0945 36.9855 67.6308 36.5306C68.0518 36.1753 68.0541 36.1753 68.432 36.5646C68.8099 36.9538 69.1766 37.3273 69.5477 37.7097C69.8012 37.9723 69.7944 38.0854 69.507 38.3253C68.4071 39.2442 67.1126 39.5429 65.7139 39.5022C65.0163 39.4982 64.3278 39.3438 63.6952 39.0495C62.4414 38.4317 61.8077 37.3861 61.638 36.0327C61.5259 35.1964 61.6032 34.3456 61.8643 33.5433C61.9051 33.4188 61.9028 33.3758 61.7579 33.3509C60.744 33.1834 60.0719 33.5772 59.7392 34.5481C59.488 35.2904 59.4473 36.0735 59.316 36.8362C59.1938 37.5491 59.0897 38.2642 58.9856 38.9794C58.9607 39.1401 58.8996 39.1853 58.7411 39.1831C57.8721 39.1831 57.0053 39.1831 56.1363 39.1831C55.8805 39.1831 55.7651 39.0563 55.8013 38.8209C56.2177 36.2002 56.6319 33.5787 57.0438 30.9565C57.0755 30.7483 57.1479 30.6939 57.3493 30.6962C58.1369 30.7098 58.9335 30.6962 59.7098 30.6962C60.133 30.6962 60.1986 30.7732 60.1353 31.1896C60.1239 31.2416 60.1239 31.2937 60.1194 31.3457ZM66.3386 33.7605C66.7256 33.7605 67.1148 33.7492 67.5018 33.7605C67.7463 33.7605 67.7508 33.679 67.6761 33.4935C67.6174 33.3365 67.5249 33.1944 67.4053 33.0771C67.2856 32.9598 67.1417 32.8701 66.9836 32.8145C66.6163 32.6918 66.2174 32.704 65.8582 32.8487C65.4991 32.9934 65.2033 33.2613 65.0237 33.6044C64.9603 33.7334 64.992 33.7605 65.1187 33.7605C65.5261 33.7583 65.9312 33.7605 66.3386 33.7605V33.7605Z" fill="white"/>
<path d="M23.8522 30.1602C24.2913 30.1602 24.7417 30.1602 25.192 30.1602C25.3504 30.1602 25.3505 30.0335 25.3844 29.9339C25.7126 29.0422 26.0384 28.1528 26.3553 27.2566C26.3696 27.1844 26.4113 27.1205 26.4716 27.0783C26.5319 27.0361 26.6062 27.0189 26.6789 27.0303C27.2492 27.0461 27.8105 27.0303 28.3876 27.0303C28.6773 27.0303 28.7882 27.1932 28.6886 27.4648C28.3944 28.2886 28.1024 29.1146 27.7969 29.9362C27.7268 30.1263 27.7652 30.1625 27.9576 30.1625C28.4532 30.1625 28.9511 30.1625 29.449 30.1625C29.7297 30.1625 29.8383 30.3186 29.7432 30.5789C29.5441 31.1311 29.3381 31.6811 29.1435 32.2333C29.1315 32.2893 29.0986 32.3387 29.0516 32.3715C29.0045 32.4043 28.9468 32.4179 28.89 32.4098C28.3016 32.4098 27.7132 32.4098 27.1248 32.4098C26.9958 32.4098 26.8984 32.4256 26.86 32.5705C26.7378 32.9484 26.6042 33.3241 26.4639 33.7021C26.3983 33.8718 26.4639 33.8831 26.6065 33.8808C27.1315 33.8808 27.6566 33.8808 28.1907 33.8808C28.4781 33.8808 28.589 34.0461 28.4917 34.3176C28.3016 34.8427 28.1025 35.3677 27.9282 35.9018C27.9103 35.9776 27.8638 36.0435 27.7984 36.0857C27.733 36.1279 27.6538 36.1431 27.5774 36.1282C27.0003 36.1146 26.4209 36.1282 25.8415 36.1282C25.7763 36.1182 25.7097 36.1338 25.6557 36.1718C25.6018 36.2097 25.5645 36.2671 25.5519 36.3318C25.235 37.2371 24.9001 38.1424 24.5855 39.0635C24.5696 39.1457 24.522 39.2183 24.4529 39.2657C24.3839 39.3132 24.299 39.3315 24.2166 39.317C23.6667 39.3011 23.1144 39.317 22.5622 39.317C22.2499 39.317 22.1458 39.1653 22.2499 38.8643C22.5396 38.0383 22.827 37.21 23.1258 36.3884C23.1937 36.2006 23.2027 36.1146 22.956 36.1304C22.6213 36.1497 22.2858 36.1497 21.9512 36.1304C21.9146 36.1235 21.8771 36.1239 21.8407 36.1316C21.8043 36.1393 21.7697 36.154 21.739 36.175C21.7083 36.1961 21.6821 36.2229 21.6618 36.2541C21.6415 36.2853 21.6276 36.3202 21.6208 36.3567C21.3084 37.262 20.9758 38.1673 20.6634 39.0725C20.6001 39.2513 20.5299 39.3328 20.324 39.326C19.7627 39.3079 19.1924 39.326 18.6424 39.326C18.3301 39.326 18.226 39.1744 18.3301 38.8734C18.6243 38.0383 18.914 37.2032 19.2173 36.3703C19.2807 36.1938 19.2671 36.144 19.0611 36.144C18.5564 36.1576 18.0495 36.144 17.5425 36.144C17.2506 36.144 17.1397 35.9833 17.2393 35.7163C17.4384 35.1731 17.6444 34.6345 17.8345 34.0891C17.8407 34.0567 17.8533 34.0258 17.8714 33.9983C17.8896 33.9707 17.913 33.947 17.9404 33.9285C17.9677 33.91 17.9984 33.8971 18.0307 33.8905C18.063 33.8839 18.0963 33.8837 18.1287 33.8899C18.7058 33.8899 19.2852 33.8899 19.8645 33.8899C19.9299 33.9012 19.997 33.8864 20.0516 33.8488C20.1062 33.8111 20.1438 33.7536 20.1565 33.6885C20.2787 33.3173 20.4122 32.9529 20.5503 32.5908C20.6046 32.4505 20.5729 32.4188 20.4303 32.4211C19.8872 32.4211 19.3463 32.4211 18.8031 32.4211C18.4885 32.4211 18.3844 32.2717 18.4931 31.9685C18.69 31.4344 18.8914 30.9048 19.0792 30.3662C19.0919 30.3011 19.1295 30.2435 19.1841 30.2059C19.2387 30.1682 19.3058 30.1535 19.3712 30.1647C19.9596 30.1761 20.548 30.1647 21.1342 30.176C21.2166 30.1885 21.3006 30.1683 21.3682 30.1197C21.4359 30.071 21.4819 29.9979 21.4963 29.9158C21.7996 29.0535 22.1254 28.2026 22.4197 27.3403C22.4285 27.2903 22.4474 27.2426 22.4752 27.2C22.5031 27.1575 22.5392 27.1211 22.5816 27.0929C22.6239 27.0648 22.6715 27.0455 22.7214 27.0363C22.7714 27.0271 22.8227 27.0281 22.8723 27.0393C23.4041 27.0597 23.9382 27.0393 24.4723 27.0393C24.7824 27.0393 24.8888 27.1932 24.7824 27.4919C24.4882 28.3157 24.1917 29.1395 23.8998 29.9656C23.8522 30.0154 23.807 30.0697 23.8522 30.1602ZM23.2186 33.8876C23.4268 33.8876 23.635 33.8876 23.8409 33.8876C23.8934 33.8977 23.9477 33.8867 23.9921 33.857C24.0366 33.8274 24.0676 33.7815 24.0786 33.7292C24.2098 33.3445 24.3388 32.9597 24.4859 32.5841C24.5606 32.3985 24.4859 32.3917 24.3366 32.3939C23.9405 32.3939 23.5422 32.3939 23.1461 32.3939C23.0935 32.3857 23.0398 32.3977 22.9957 32.4275C22.9516 32.4574 22.9205 32.5028 22.9085 32.5546C22.7772 32.9394 22.6437 33.3218 22.4989 33.6998C22.4446 33.8424 22.4627 33.8967 22.6233 33.8876C22.8157 33.8763 23.0149 33.8876 23.2118 33.8876H23.2186Z" fill="white"/>
<path d="M46.4386 34.0617C46.6729 32.926 47.3175 31.9165 48.2491 31.226C48.7879 30.8084 49.4274 30.5404 50.1029 30.449C50.7784 30.3577 51.466 30.4461 52.0965 30.7054C52.5568 30.9083 52.9675 31.2087 53.3005 31.5858C53.3457 31.3142 53.391 31.0879 53.4204 30.8616C53.4362 30.7371 53.4838 30.6941 53.6082 30.6964C54.4682 30.6964 55.326 30.6964 56.186 30.6964C56.4123 30.6964 56.5141 30.8412 56.4779 31.0675C56.0638 33.6906 55.6428 36.309 55.2377 38.932C55.2038 39.1583 55.1132 39.1832 54.9254 39.181C54.1582 39.181 53.3887 39.181 52.6215 39.181C52.239 39.181 52.1689 39.095 52.2141 38.708C52.2141 38.6469 52.2549 38.5858 52.2141 38.5224C52.1146 38.5337 52.067 38.6197 51.9878 38.6718C51.5878 39.0074 51.1192 39.2516 50.6149 39.3872C50.1106 39.5229 49.5828 39.5467 49.0683 39.4571C47.7104 39.2308 46.9274 38.3436 46.4861 37.1011C46.3499 36.6794 46.2737 36.2405 46.2598 35.7976C46.2892 35.6542 46.2892 35.5064 46.2598 35.363L46.2801 34.9285C46.348 34.6388 46.3933 34.3514 46.4386 34.0617ZM49.5346 35.105C49.5346 35.9469 49.8989 36.5059 50.5485 36.6892C50.8867 36.799 51.2511 36.7985 51.5891 36.6879C51.9271 36.5773 52.2212 36.3622 52.4291 36.0737C52.6293 35.8098 52.7691 35.5053 52.8387 35.1815C52.9083 34.8577 52.906 34.5226 52.832 34.1998C52.7845 33.9342 52.6562 33.6897 52.4647 33.4997C52.2731 33.3097 52.0275 33.1835 51.7615 33.1383C51.3941 33.0476 51.0071 33.0807 50.6604 33.2325C50.3138 33.3844 50.027 33.6464 49.8446 33.978C49.6479 34.3215 49.5412 34.7092 49.5346 35.105V35.105Z" fill="white"/>
<path d="M54.7625 52.1172C54.9255 51.6962 55.2439 51.3539 55.6521 51.161C56.0602 50.9682 56.5268 50.9394 56.9555 51.0806C57.1487 51.1461 57.3232 51.2572 57.4643 51.4046C57.6054 51.552 57.7088 51.7312 57.7657 51.9271C57.8087 52.0583 57.7929 52.1217 57.6277 52.1194C56.6817 52.1149 55.7334 52.1172 54.7625 52.1172Z" fill="white"/>
<path d="M46.3141 34.8448C46.3141 34.8448 46.1172 35.8021 46.3594 36.506C46.6016 37.2098 47.6426 36.6259 47.6426 36.6259L47.8689 34.5234L46.3141 34.8448Z" fill="white"/>
<path d="M46.3186 32.3555C46.3186 32.3555 46.6309 33.1023 46.0516 35.9878C45.4722 38.8734 44.972 35.0826 44.972 35.0826L45.1101 33.2449L46.3186 32.3555Z" fill="white"/>
</svg>
