<svg width="52" height="52" viewBox="0 0 52 52" fill="none" xmlns="http://www.w3.org/2000/svg">
<rect x="0.865234" y="0.39209" width="50.73" height="50.73" rx="8" fill="#FAFAFA"/>
<path opacity="0.4" d="M31.1146 18.8717H28.1715C27.4383 18.8765 26.7422 18.5504 26.2776 17.9843L25.3084 16.6445C24.8516 16.0734 24.1555 15.7458 23.4234 15.7571H21.3428C17.6084 15.7571 16.2302 17.9488 16.2302 21.6757V25.7042C16.2256 26.1472 36.2259 26.1467 36.2272 25.7042V24.5329C36.2449 20.8061 34.9023 18.8717 31.1146 18.8717Z" fill="#325B6C"/>
<path fill-rule="evenodd" clip-rule="evenodd" d="M35.0624 20.3001C35.3823 20.6742 35.6295 21.1045 35.7915 21.569C36.1101 22.5237 36.2575 23.527 36.2271 24.5327V29.7858C36.2259 30.2282 36.1932 30.6701 36.1293 31.1079C36.0078 31.8806 35.7359 32.6222 35.3291 33.2908C35.1421 33.6137 34.9151 33.9119 34.6534 34.1781C33.4685 35.2655 31.8952 35.8315 30.2876 35.7487H22.1608C20.5507 35.8309 18.9748 35.2652 17.7862 34.1781C17.5276 33.9113 17.3036 33.6132 17.1194 33.2908C16.715 32.6227 16.4489 31.8804 16.3369 31.1079C16.2657 30.6708 16.23 30.2286 16.2302 29.7858V24.5327C16.2301 24.094 16.2538 23.6556 16.3014 23.2195C16.3114 23.143 16.3264 23.0677 16.3412 22.9932C16.366 22.869 16.3903 22.747 16.3903 22.625C16.4805 22.0986 16.6452 21.5878 16.8793 21.1076C17.5728 19.6257 18.9955 18.8715 21.325 18.8715H31.1057C32.4104 18.7706 33.7055 19.1634 34.7334 19.9718C34.8518 20.0722 34.9618 20.182 35.0624 20.3001ZM21.2006 29.2977H31.2657H31.2835C31.5043 29.3073 31.7198 29.2283 31.8819 29.0782C32.0439 28.9282 32.139 28.7196 32.146 28.4991C32.1584 28.3053 32.0946 28.1143 31.9681 27.9667C31.8226 27.7684 31.592 27.6501 31.3457 27.6473H21.2006C20.7439 27.6473 20.3737 28.0168 20.3737 28.4725C20.3737 28.9283 20.7439 29.2977 21.2006 29.2977Z" fill="#325B6C"/>
</svg>
