<svg width="65" height="41" viewBox="0 0 65 41" fill="none" xmlns="http://www.w3.org/2000/svg">
<path d="M34.038 10.1173C33.7999 11.6351 33.5566 13.1504 33.3289 14.6708C33.2901 14.9307 33.2228 15.0165 32.9485 15.0113C31.9884 14.9905 31.0258 15.0113 30.0657 15.0113C29.6828 15.0113 29.5818 14.8995 29.6388 14.5253C29.8924 12.8757 30.1511 11.2297 30.4151 9.58704C30.428 9.50387 30.441 9.4233 30.4487 9.34013C30.529 8.2823 29.9053 7.79628 28.8961 8.12376C28.69 8.19553 28.502 8.31153 28.3452 8.4637C28.1883 8.61586 28.0664 8.80053 27.9878 9.00485C27.7265 9.66018 27.5609 10.35 27.4961 11.0529C27.3072 12.2927 27.1157 13.535 26.9372 14.7774C26.9087 14.9775 26.8285 15.0373 26.637 15.0243C25.6562 15.0243 24.6729 15.0243 23.6921 15.0243C23.366 15.0243 23.2548 14.8866 23.3065 14.5591C23.3945 14.0107 23.4799 13.4597 23.5653 12.8879C23.5187 12.9165 23.4851 12.9268 23.4721 12.9476C22.6311 14.3174 21.3579 15.0087 19.826 15.2868C18.1853 15.5727 16.612 15.4168 15.168 14.5071C14.5611 14.11 14.0146 13.6268 13.5455 13.0724C13.5212 13.0507 13.5018 13.0241 13.4885 12.9943C13.4751 12.9645 13.4683 12.9322 13.4683 12.8996C13.4683 12.8669 13.4751 12.8346 13.4885 12.8048C13.5018 12.775 13.5212 12.7484 13.5455 12.7267C14.1226 11.9028 14.6919 11.0737 15.2664 10.2498C15.2914 10.1953 15.3304 10.1485 15.3794 10.1142C15.4284 10.0799 15.4856 10.0592 15.5451 10.0545C15.6047 10.0497 15.6644 10.061 15.7182 10.0871C15.772 10.1132 15.8179 10.1532 15.8512 10.203C16.249 10.6254 16.7027 10.9909 17.1994 11.2894C17.7024 11.5853 18.2781 11.733 18.8608 11.7157C19.1529 11.7171 19.4381 11.6262 19.6759 11.4558C19.7729 11.3912 19.8547 11.306 19.9155 11.2063C19.9762 11.1065 20.0145 10.9946 20.0275 10.8784C20.0406 10.7622 20.0282 10.6446 19.9911 10.5337C19.9541 10.4229 19.8933 10.3215 19.8131 10.2368C19.4907 9.89746 19.1114 9.61769 18.6926 9.4103C18.2423 9.1504 17.7817 8.92428 17.3443 8.64618C15.3129 7.35963 14.7566 5.24399 15.9702 3.13354C16.9122 1.48053 18.4234 0.768387 20.2788 0.726802C21.8778 0.698345 23.4301 1.26807 24.634 2.32523C24.7608 2.43179 24.7841 2.50716 24.6961 2.65531C24.2148 3.46622 23.749 4.28753 23.2755 5.10104C23.1047 5.39214 22.9391 5.42333 22.6803 5.2154C22.2441 4.83218 21.7485 4.52315 21.213 4.30052C20.858 4.14375 20.4573 4.12613 20.0899 4.25115C19.3964 4.51105 19.2903 5.14262 19.8622 5.60786C20.1847 5.85352 20.5316 6.06516 20.8973 6.23943C21.3947 6.49376 21.876 6.77845 22.3387 7.09193C23.172 7.66373 23.8267 8.37067 24.0337 9.4311C24.2045 9.34533 24.1657 9.19978 24.1838 9.09582C24.6392 6.25763 25.0895 3.41944 25.5346 0.581255C25.5682 0.365532 25.6303 0.284954 25.8606 0.290152C26.8207 0.303147 27.7833 0.290152 28.7434 0.290152C29.1109 0.290152 29.2118 0.425304 29.1497 0.809967C28.865 2.52709 28.5821 4.24594 28.3009 5.96653C28.3009 6.01331 28.3009 6.0627 28.2828 6.16666C28.4588 6.02111 28.5985 5.90675 28.7434 5.79499C29.2517 5.38657 29.8574 5.1185 30.5005 5.0173C31.1436 4.9161 31.8019 4.98528 32.4102 5.218C33.6136 5.62345 34.1699 6.56432 34.2657 7.79888C34.289 8.08738 34.2657 8.38107 34.2657 8.66957C34.2499 8.68645 34.241 8.70876 34.241 8.73195C34.241 8.75513 34.2499 8.77745 34.2657 8.79432L34.2191 9.16599C34.1232 9.47521 34.0624 9.79432 34.038 10.1173Z" fill="#264653"/>
<path d="M49.9322 6.00581C50.0512 6.00581 50.0823 5.92003 50.1392 5.86805C50.5002 5.53083 50.9342 5.2825 51.4071 5.14267C51.88 5.00284 52.3788 4.97534 52.8641 5.06234C53.1902 5.11432 53.273 5.24947 53.2005 5.58216C53.1281 5.91484 53.0375 6.3021 52.9418 6.74654C53.4768 6.1268 54.1572 5.65069 54.9214 5.36123C56.8389 4.70367 58.7125 4.70367 60.4023 5.98501C60.9234 6.38312 61.3495 6.89304 61.6494 7.47758C61.9494 8.06211 62.1156 8.70653 62.136 9.36381C62.1641 9.84104 62.1572 10.3197 62.1154 10.7959C62.0972 11.0376 62.0196 11.1208 61.7608 11.1208C59.6622 11.1078 57.5635 11.1208 55.4674 11.1052C55.1569 11.1052 55.1051 11.1962 55.1465 11.4743C55.1636 11.8004 55.3012 12.1084 55.5323 12.3382C55.7634 12.5679 56.0715 12.7028 56.3964 12.7166C57.2297 12.818 57.9077 12.4827 58.521 11.9603C59.0023 11.5522 59.0049 11.5522 59.437 11.9993C59.8692 12.4463 60.2884 12.8752 60.7128 13.3144C61.0026 13.6159 60.9948 13.7458 60.6662 14.0213C59.4085 15.0766 57.9284 15.4196 56.3291 15.3729C55.5314 15.3683 54.7441 15.191 54.0208 14.853C52.5872 14.1435 51.8627 12.9427 51.6686 11.3885C51.5404 10.4281 51.6288 9.45097 51.9274 8.5295C51.9739 8.38655 51.9713 8.33717 51.8057 8.30858C50.6464 8.11625 49.8778 8.56849 49.4974 9.68349C49.2102 10.536 49.1636 11.4353 49.0135 12.3112C48.8738 13.1299 48.7548 13.9512 48.6357 14.7725C48.6073 14.957 48.5374 15.009 48.3562 15.0064C47.3625 15.0064 46.3714 15.0064 45.3777 15.0064C45.0853 15.0064 44.9533 14.8608 44.9947 14.5905C45.4709 11.5808 45.9444 8.57022 46.4154 5.55876C46.4516 5.31965 46.5345 5.25727 46.7648 5.25987C47.6653 5.27546 48.5762 5.25987 49.4638 5.25987C49.9477 5.25987 50.0228 5.34824 49.9503 5.82647C49.9374 5.88625 49.9374 5.94603 49.9322 6.00581ZM57.0433 8.77902C57.4858 8.77902 57.9309 8.76602 58.3735 8.77902C58.6529 8.77902 58.6581 8.68545 58.5727 8.47232C58.5056 8.29208 58.3998 8.12884 58.263 7.99411C58.1262 7.85939 57.9616 7.75646 57.7809 7.6926C57.3609 7.55172 56.9048 7.56563 56.4941 7.73185C56.0835 7.89806 55.7452 8.20572 55.5399 8.59968C55.4674 8.74783 55.5036 8.77902 55.6486 8.77902C56.1143 8.77642 56.5775 8.77902 57.0433 8.77902V8.77902Z" fill="#264653"/>
<path d="M8.46336 4.64371C8.96539 4.64371 9.48035 4.64371 9.99531 4.64371C10.1765 4.64371 10.1765 4.49817 10.2153 4.38381C10.5905 3.35977 10.9631 2.33834 11.3254 1.3091C11.3418 1.22619 11.3894 1.15284 11.4584 1.1044C11.5274 1.05596 11.6123 1.03618 11.6955 1.0492C12.3476 1.06739 12.9893 1.0492 13.6492 1.0492C13.9805 1.0492 14.1073 1.23633 13.9934 1.54822C13.657 2.49428 13.3232 3.44294 12.9738 4.3864C12.8936 4.60473 12.9376 4.64631 13.1576 4.64631C13.7243 4.64631 14.2936 4.64631 14.8629 4.64631C15.1838 4.64631 15.308 4.82565 15.1993 5.12454C14.9716 5.75871 14.7361 6.39029 14.5135 7.02447C14.4998 7.08885 14.4622 7.14558 14.4084 7.18321C14.3546 7.22084 14.2886 7.23656 14.2237 7.22719C13.5509 7.22719 12.8781 7.22719 12.2053 7.22719C12.0578 7.22719 11.9465 7.24539 11.9025 7.41173C11.7627 7.84577 11.6101 8.27722 11.4496 8.71126C11.3746 8.90619 11.4496 8.91919 11.6127 8.91659C12.213 8.91659 12.8134 8.91659 13.4241 8.91659C13.7527 8.91659 13.8795 9.10632 13.7683 9.41821C13.5509 10.0212 13.3232 10.6242 13.1239 11.2376C13.1035 11.3246 13.0503 11.4002 12.9755 11.4487C12.9007 11.4972 12.8102 11.5146 12.7228 11.4975C12.0629 11.4819 11.4005 11.4975 10.738 11.4975C10.6634 11.486 10.5873 11.5039 10.5255 11.5475C10.4638 11.5911 10.4213 11.657 10.4068 11.7314C10.0445 12.771 9.66149 13.8106 9.30179 14.8685C9.28357 14.9629 9.22914 15.0463 9.15023 15.1007C9.07132 15.1552 8.97426 15.1763 8.87999 15.1596C8.25116 15.1414 7.61975 15.1596 6.98834 15.1596C6.63123 15.1596 6.51219 14.9854 6.63123 14.6397C6.96246 13.6911 7.2911 12.7398 7.63269 11.7964C7.71032 11.5806 7.72067 11.4819 7.43861 11.5001C7.05593 11.5222 6.67231 11.5222 6.28964 11.5001C6.24784 11.4922 6.20489 11.4926 6.16327 11.5014C6.12164 11.5102 6.08216 11.5272 6.04707 11.5513C6.01198 11.5755 5.98197 11.6063 5.95876 11.6421C5.93556 11.6779 5.91961 11.718 5.91184 11.76C5.55473 12.7996 5.17432 13.8392 4.81721 14.8789C4.74475 15.0842 4.66453 15.1778 4.42904 15.17C3.78728 15.1492 3.13517 15.17 2.50634 15.17C2.14923 15.17 2.03019 14.9958 2.14923 14.6501C2.48564 13.6911 2.81688 12.732 3.16364 11.7756C3.2361 11.5728 3.22057 11.5157 2.98509 11.5157C2.40802 11.5313 1.82835 11.5157 1.2487 11.5157C0.914874 11.5157 0.788083 11.3311 0.901944 11.0244C1.12967 10.4007 1.36514 9.78208 1.58251 9.15571C1.58964 9.1185 1.60401 9.08307 1.62478 9.05144C1.64554 9.01981 1.67232 8.9926 1.70356 8.97136C1.7348 8.95013 1.76988 8.93527 1.80684 8.92766C1.84379 8.92005 1.88189 8.91982 1.91893 8.92699C2.57881 8.92699 3.24127 8.92699 3.90374 8.92699C3.97845 8.93994 4.05524 8.92298 4.11764 8.87974C4.18004 8.8365 4.22309 8.77042 4.23755 8.69567C4.37729 8.26942 4.52996 7.85097 4.68782 7.43512C4.74992 7.27398 4.7137 7.23759 4.55068 7.24019C3.92961 7.24019 3.31114 7.24019 2.69008 7.24019C2.33038 7.24019 2.21134 7.06865 2.33556 6.72038C2.56069 6.10699 2.79099 5.49881 3.00578 4.88023C3.02024 4.80548 3.0633 4.7394 3.1257 4.69616C3.18811 4.65292 3.2649 4.63596 3.33961 4.64891C4.01242 4.66191 4.68524 4.64891 5.35546 4.66191C5.44967 4.67625 5.54573 4.65301 5.6231 4.59716C5.70047 4.5413 5.75302 4.45727 5.76951 4.36301C6.11627 3.37277 6.4889 2.39551 6.82531 1.40527C6.83543 1.3478 6.85706 1.293 6.88888 1.24417C6.9207 1.19535 6.96205 1.15351 7.01043 1.12119C7.05882 1.08888 7.11323 1.06676 7.17037 1.05617C7.22751 1.04558 7.28618 1.04675 7.34286 1.05959C7.95098 1.08299 8.56169 1.05959 9.1724 1.05959C9.52693 1.05959 9.64855 1.23633 9.52693 1.57941C9.19052 2.52547 8.85153 3.47153 8.51771 4.42019C8.46337 4.47737 8.41161 4.53975 8.46336 4.64371ZM7.73879 8.92439C7.97687 8.92439 8.21494 8.92439 8.45043 8.92439C8.51042 8.93591 8.57252 8.92329 8.62334 8.88926C8.67417 8.85523 8.70965 8.80251 8.72214 8.74245C8.87223 8.30061 9.01973 7.85877 9.18793 7.42732C9.27333 7.2142 9.18794 7.2064 9.01715 7.209C8.56429 7.209 8.10884 7.209 7.65598 7.209C7.59585 7.19955 7.5344 7.21333 7.48398 7.24757C7.43357 7.28181 7.39794 7.33397 7.38427 7.39353C7.23418 7.83538 7.08151 8.27462 6.91589 8.70866C6.85378 8.87241 6.87448 8.93478 7.05821 8.92439C7.27817 8.91139 7.50589 8.92439 7.73102 8.92439H7.73879Z" fill="#264653"/>
<path d="M34.289 9.12424C34.557 7.82 35.294 6.66062 36.3592 5.8676C36.9753 5.38808 37.7065 5.08031 38.4789 4.97536C39.2513 4.8704 40.0376 4.97197 40.7584 5.26981C41.2847 5.50281 41.7544 5.84777 42.1351 6.28085C42.1869 5.96896 42.2386 5.70905 42.2723 5.44915C42.2904 5.3062 42.3447 5.25682 42.487 5.25941C43.4704 5.25941 44.4511 5.25941 45.4345 5.25941C45.6933 5.25941 45.8097 5.42576 45.7683 5.68566C45.2947 8.69799 44.8134 11.7051 44.3502 14.7174C44.3114 14.9773 44.2079 15.0059 43.9931 15.0033C43.1159 15.0033 42.236 15.0033 41.3588 15.0033C40.9214 15.0033 40.8412 14.9046 40.893 14.4601C40.893 14.39 40.9396 14.3198 40.893 14.247C40.7791 14.26 40.7248 14.3588 40.6342 14.4186C40.1768 14.804 39.641 15.0844 39.0644 15.2402C38.4878 15.396 37.8842 15.4234 37.296 15.3204C35.7433 15.0605 34.848 14.0417 34.3434 12.6148C34.1876 12.1304 34.1005 11.6265 34.0846 11.1177C34.1183 10.9531 34.1183 10.7833 34.0846 10.6187L34.1079 10.1197C34.1855 9.787 34.2373 9.45692 34.289 9.12424ZM37.8291 10.3224C37.8291 11.2893 38.2457 11.9312 38.9884 12.1418C39.3752 12.2678 39.7918 12.2673 40.1783 12.1402C40.5648 12.0132 40.9011 11.7662 41.1388 11.4348C41.3677 11.1318 41.5276 10.782 41.6072 10.4102C41.6867 10.0383 41.6841 9.65349 41.5994 9.28278C41.5452 8.97775 41.3985 8.69698 41.1794 8.47881C40.9604 8.26064 40.6796 8.11571 40.3754 8.06382C39.9554 7.95961 39.5128 7.99764 39.1164 8.172C38.7201 8.34637 38.3922 8.6473 38.1836 9.02807C37.9586 9.42258 37.8367 9.86784 37.8291 10.3224V10.3224Z" fill="#264653"/>
<path d="M33.397 40.4302H4.74014C3.50837 40.4302 2.62594 39.7155 2.43703 38.5615C2.41538 38.4074 2.40673 38.2518 2.41116 38.0963V20.3394C2.41116 18.9021 3.32206 18.0002 4.76085 18.0002H62.1055C63.5469 18.0002 64.45 18.9047 64.45 20.3394V38.0547C64.45 39.5154 63.5495 40.4121 62.0848 40.4121L33.397 40.4302ZM34.2225 30.2705C34.2354 30.1067 34.2354 30.0106 34.2483 29.9404L35.6147 21.4414C35.6355 21.3779 35.6396 21.3101 35.6268 21.2446C35.614 21.179 35.5846 21.1178 35.5415 21.0669C35.4984 21.016 35.4429 20.9771 35.3805 20.954C35.3181 20.9308 35.2508 20.9241 35.1851 20.9346C34.0491 20.9346 32.9105 20.9346 31.7744 20.9346C31.5623 20.9346 31.4924 21.0048 31.4639 21.1945C31.3423 22.0366 31.2051 22.8761 31.0758 23.7156C30.6945 26.1622 30.3124 28.6088 29.9294 31.0554L29.0211 36.8903C29.003 36.9519 29.0005 37.017 29.0137 37.0798C29.0269 37.1426 29.0554 37.2011 29.0968 37.2501C29.1381 37.2991 29.1909 37.3369 29.2504 37.3603C29.3099 37.3837 29.3743 37.3919 29.4377 37.3841C30.5841 37.3841 31.7304 37.3841 32.8794 37.3841C33.0424 37.3841 33.1045 37.3451 33.1382 37.1684C33.2469 36.3887 33.3763 35.6324 33.5005 34.8656L33.7825 33.1139C33.9249 33.1892 33.9482 33.3062 33.9973 33.4024C34.6701 34.6499 35.3386 35.9001 36.0028 37.1528C36.031 37.2279 36.083 37.2915 36.1509 37.3338C36.2187 37.3761 36.2986 37.3947 36.3781 37.3867C37.7237 37.3867 39.0667 37.3867 40.4098 37.3867C40.4842 37.399 40.5606 37.387 40.6277 37.3523C40.6948 37.3177 40.749 37.2623 40.7824 37.1944C40.8215 37.1303 40.8391 37.0553 40.8326 36.9805C40.8261 36.9056 40.7958 36.8348 40.7462 36.7785C39.7499 35.2191 38.7614 33.6597 37.7599 32.1002C37.7288 32.0684 37.705 32.0301 37.6902 31.988C37.6755 31.9459 37.6702 31.901 37.6746 31.8566C37.6791 31.8122 37.6932 31.7694 37.716 31.731C37.7388 31.6927 37.7697 31.6599 37.8065 31.635C39.3229 30.1353 40.829 28.6227 42.3402 27.1178C42.4061 27.0715 42.4528 27.0027 42.4719 26.9242C42.4909 26.8458 42.4809 26.7631 42.4438 26.6915C42.3687 26.5018 42.2574 26.4862 42.0892 26.4862C40.7954 26.4862 39.5015 26.5122 38.2076 26.4862C38.0124 26.473 37.8171 26.5091 37.6394 26.5913C37.4618 26.6735 37.3075 26.7991 37.1906 26.9567C36.2383 28.0249 35.2524 29.1035 34.2225 30.2575V30.2705ZM49.0244 33.0723C50.2251 33.0723 51.4233 33.0723 52.624 33.0723C52.8207 33.0723 52.9035 33.0385 52.9319 32.8124C53.019 32.2055 53.0338 31.5904 52.9759 30.98C52.7172 28.8176 51.6277 27.2763 49.5756 26.4862C48.7141 26.1807 47.7962 26.0689 46.8869 26.1587C44.8167 26.3069 43.1657 27.1984 42.0659 28.9995C41.2094 30.3952 41.0308 31.9417 41.2741 33.5297C41.5329 35.3101 42.4619 36.6226 44.1413 37.3348C45.1764 37.7386 46.2915 37.8926 47.3967 37.7844C48.8501 37.7318 50.2437 37.1899 51.3534 36.2457C51.6588 35.9858 51.6717 35.7805 51.3896 35.4998C50.8876 34.9904 50.3847 34.4827 49.881 33.9767C49.4436 33.5349 49.4436 33.5349 48.9753 33.9222C48.3206 34.4654 47.6012 34.8474 46.7213 34.8007C45.769 34.7513 45.2541 34.2808 45.1531 33.3686C45.1298 33.158 45.1531 33.0619 45.4119 33.0645C46.6178 33.0801 47.8185 33.0723 49.0244 33.0723ZM19.1488 32.2614C19.1432 32.6728 19.1718 33.084 19.2342 33.4907C19.612 35.505 20.7144 36.9189 22.694 37.5219C24.2027 37.9819 25.6984 37.7298 27.1631 37.2334C27.3183 37.1814 27.3261 37.0593 27.3442 36.9397C27.5167 35.9174 27.6832 34.8951 27.8436 33.8728C27.8669 33.7168 27.8825 33.5869 27.6987 33.4829C27.635 33.4356 27.5569 33.4117 27.4777 33.4155C27.3985 33.4193 27.323 33.4505 27.264 33.5037C26.693 33.9435 25.9936 34.182 25.274 34.1821C24.345 34.1691 23.6877 33.6415 23.5195 32.7786C23.4625 32.4196 23.4625 32.0538 23.5195 31.6948C23.5486 31.3735 23.6446 31.0619 23.8012 30.7802C23.9579 30.4986 24.1717 30.2531 24.4289 30.0598C24.686 29.8664 24.9807 29.7295 25.294 29.6579C25.6072 29.5863 25.9319 29.5816 26.247 29.6441C26.8308 29.7831 27.3571 30.101 27.7531 30.5538C27.8039 30.6089 27.8708 30.6466 27.9441 30.6615C28.0175 30.6765 28.0937 30.6679 28.1619 30.6369C28.3353 30.5928 28.3741 30.4784 28.4 30.325C28.5372 29.4336 28.6588 28.5421 28.827 27.6558C28.8661 27.5263 28.8581 27.387 28.8046 27.2628C28.751 27.1386 28.6554 27.0375 28.5346 26.9774C26.6817 25.7559 23.7343 25.7975 21.7805 27.123C19.938 28.3602 19.1514 30.1587 19.141 32.2614H19.1488ZM12.6794 29.6467C12.9796 29.6467 13.228 29.6467 13.4764 29.6467C13.6136 29.6467 13.6834 29.6103 13.7041 29.4674C13.8309 28.6279 13.9629 27.7884 14.0897 26.9489C14.1363 26.6344 13.9758 26.4628 13.6627 26.4602C13.3496 26.4576 12.9977 26.4394 12.669 26.4602C12.3404 26.481 12.3067 26.3875 12.3585 26.1042C12.4879 25.392 12.5966 24.6747 12.713 23.9573C12.7751 23.5675 12.6328 23.4011 12.2317 23.4011C11.106 23.4011 9.97777 23.4011 8.85209 23.4011C8.67095 23.4011 8.59331 23.4505 8.5752 23.635C8.45616 24.4979 8.31642 25.3582 8.19997 26.2185C8.17409 26.3927 8.11975 26.4784 7.9412 26.4628C7.50645 26.4472 7.07171 26.4628 6.64732 26.4628C6.49205 26.4628 6.44029 26.5122 6.417 26.6682C6.29797 27.4999 6.15824 28.329 6.03661 29.1581C6.01975 29.2194 6.01811 29.284 6.03183 29.3461C6.04554 29.4083 6.0742 29.4661 6.1153 29.5146C6.1564 29.563 6.20868 29.6007 6.26759 29.6241C6.3265 29.6476 6.39024 29.6563 6.45324 29.6493C6.77412 29.6493 7.09501 29.6649 7.41589 29.6493C7.65914 29.6337 7.67466 29.7221 7.63843 29.9352C7.2658 32.2449 6.90006 34.5572 6.54123 36.8721C6.48947 37.1996 6.64732 37.3763 6.97597 37.3763C8.10164 37.3763 9.22732 37.3763 10.3556 37.3763C10.56 37.3763 10.6325 37.327 10.6661 37.1164C10.9999 34.9358 11.3467 32.7578 11.7012 30.5772C11.7478 30.2809 11.7012 29.891 11.872 29.7117C12.0428 29.5323 12.4077 29.6779 12.6613 29.6467H12.6794ZM59.8283 29.6467C60.0871 29.6467 60.3252 29.6467 60.571 29.6467C60.7159 29.6467 60.7728 29.5947 60.7935 29.4596C60.9203 28.6201 61.0523 27.7806 61.1765 26.9411C61.2205 26.6318 61.0575 26.4628 60.7392 26.4602C60.4209 26.4576 60.0353 26.4394 59.686 26.4602C59.4272 26.481 59.4039 26.3719 59.4272 26.1587C59.554 25.4232 59.6705 24.6877 59.7869 23.9495C59.8464 23.5701 59.7067 23.4011 59.3289 23.4011C58.2006 23.4011 57.0749 23.4011 55.9493 23.4011C55.7345 23.4011 55.6724 23.4687 55.6439 23.674C55.5301 24.5265 55.3851 25.3764 55.2739 26.2289C55.248 26.4082 55.1781 26.468 54.9944 26.4628C54.5726 26.4472 54.1482 26.4628 53.7238 26.4628C53.5608 26.4628 53.4935 26.4992 53.465 26.6785C53.3512 27.4999 53.2063 28.316 53.0898 29.1347C53.0406 29.4622 53.1907 29.6545 53.5142 29.6545C53.8377 29.6545 54.1353 29.6701 54.4432 29.6545C54.702 29.6363 54.7253 29.7091 54.6864 29.9482C54.3138 32.2475 53.9498 34.5494 53.5944 36.8539C53.5375 37.2204 53.685 37.3737 54.0654 37.3737C55.16 37.3737 56.2572 37.3737 57.3518 37.3737C57.6106 37.3737 57.6934 37.2906 57.7322 37.0437C58.0842 34.7383 58.449 32.4355 58.8036 30.1327C58.8786 29.6441 58.8708 29.6441 59.347 29.6441L59.8283 29.6467ZM16.5636 26.4628H15.011C14.571 26.4628 14.5788 26.4628 14.5115 26.8943C14.3174 28.1522 14.1182 29.4128 13.9215 30.6707C13.5989 32.7396 13.2772 34.8076 12.9563 36.8747C12.9376 36.9361 12.9346 37.0012 12.9474 37.0641C12.9602 37.1269 12.9885 37.1856 13.0297 37.2346C13.0708 37.2837 13.1236 37.3217 13.183 37.3451C13.2425 37.3685 13.3069 37.3765 13.3703 37.3685C14.5193 37.3685 15.6657 37.3685 16.8146 37.3685C17.0268 37.3685 17.0863 37.301 17.1174 37.1086C17.3762 35.3257 17.6763 33.5453 17.9584 31.7649C18.212 30.1691 18.4639 28.5724 18.714 26.9748C18.7658 26.6526 18.6028 26.4732 18.2689 26.4706L16.5636 26.4628ZM17.0449 21.418C16.7555 21.4136 16.468 21.4668 16.1992 21.5746C15.9304 21.6825 15.6855 21.8428 15.4788 22.0463C15.2721 22.2498 15.1076 22.4925 14.9948 22.7603C14.8821 23.0281 14.8234 23.3157 14.8221 23.6064C14.8172 23.8996 14.8707 24.1907 14.9793 24.4629C15.0879 24.735 15.2495 24.9826 15.4545 25.1913C15.6596 25.3999 15.9041 25.5654 16.1736 25.6779C16.4431 25.7905 16.7323 25.8479 17.0242 25.8468C17.3188 25.8531 17.6115 25.8 17.8853 25.6907C18.159 25.5814 18.4082 25.4181 18.6181 25.2105C18.8279 25.0029 18.9943 24.7551 19.1072 24.4818C19.2201 24.2085 19.2774 23.9153 19.2756 23.6194C19.2803 23.3257 19.2255 23.0341 19.1146 22.7623C19.0037 22.4905 18.8389 22.2442 18.6303 22.0383C18.4217 21.8324 18.1736 21.6713 17.901 21.5646C17.6285 21.458 17.3372 21.4081 17.0449 21.418V21.418Z" fill="#264653"/>
<path d="M44.9873 30.5072C45.1737 30.0237 45.5378 29.6307 46.0044 29.4091C46.4711 29.1876 47.0046 29.1545 47.4948 29.3168C47.7157 29.392 47.9153 29.5196 48.0766 29.6888C48.2379 29.8581 48.3561 30.0639 48.4212 30.2888C48.4704 30.4396 48.4523 30.5124 48.2634 30.5098C47.1817 30.5046 46.0975 30.5072 44.9873 30.5072Z" fill="#264653"/>
<path d="M34.1469 10.0237C34.1469 10.0237 33.9217 11.1231 34.1986 11.9314C34.4755 12.7398 35.6659 12.0692 35.6659 12.0692L35.9247 9.65466L34.1469 10.0237Z" fill="#264653"/>
<path d="M34.1519 7.16467C34.1519 7.16467 34.509 8.02237 33.8465 11.3362C33.1841 14.65 32.6122 10.2966 32.6122 10.2966L32.77 8.18611L34.1519 7.16467Z" fill="#264653"/>
</svg>
