<svg width="287" height="243" viewBox="0 0 287 243" fill="none" xmlns="http://www.w3.org/2000/svg">
<g clip-path="url(#clip0_1017_1249)">
<path d="M233.739 117.281C233.739 120.695 233.596 124.075 233.31 127.421C233.084 130.032 232.777 132.62 232.388 135.184C231.974 137.9 231.466 140.582 230.866 143.232V143.235C230.473 144.979 230.042 146.709 229.572 148.424C228.209 153.411 226.514 158.301 224.499 163.06C224.061 164.095 223.608 165.124 223.141 166.145C221.376 170.012 219.398 173.778 217.219 177.427C211.106 187.673 203.476 196.926 194.591 204.869C193.629 205.727 192.654 206.571 191.666 207.401C170.686 224.988 144.206 234.604 116.869 234.561C52.3234 234.561 0 182.054 0 117.281C0 52.5076 52.3234 2.31906e-05 116.869 2.31906e-05C143.265 -0.0417432 168.891 8.92432 189.538 25.4261C190.506 26.1958 191.462 26.9827 192.405 27.787C197.01 31.7054 201.306 35.9735 205.258 40.5535H205.261C223.666 61.8443 233.78 89.0949 233.739 117.281Z" fill="#F2F2F2"/>
<path d="M34.4997 137.54C23.3665 130.89 14.9637 118.463 16.0546 105.508C26.233 115.284 39.5292 121.132 53.5906 122.017C59.0148 122.339 65.0811 122.13 69.0739 125.828C71.5584 128.129 72.7149 131.594 72.9046 134.981C73.0942 138.369 72.418 141.738 71.7453 145.063L71.9768 145.878C59.021 145.927 45.6329 144.189 34.4997 137.54Z" fill="#E6E6E6"/>
<path d="M16.326 105.494C20.7868 115.28 28.2069 123.407 37.5324 128.72C39.5372 129.847 41.6686 130.814 43.9335 131.263C46.1446 131.683 48.4274 131.501 50.545 130.737C52.5336 130.064 54.4901 129.144 56.6071 128.968C58.8386 128.782 60.9045 129.646 62.5276 131.16C64.5135 133.011 65.718 135.468 66.8128 137.912C68.0283 140.625 69.248 143.463 71.5785 145.415C71.8608 145.651 71.4787 146.077 71.1968 145.841C67.1422 142.446 66.4803 136.76 63.2393 132.762C61.7269 130.896 59.6451 129.476 57.172 129.514C55.0093 129.546 52.991 130.493 50.9833 131.192C48.8752 131.926 46.7634 132.27 44.5378 131.948C42.2612 131.617 40.0876 130.732 38.063 129.662C33.4898 127.202 29.3305 124.035 25.7375 120.279C21.6131 116.014 18.2461 111.073 15.7821 105.669C15.6297 105.334 16.1747 105.161 16.326 105.494Z" fill="white"/>
<path d="M34.4293 127.187C33.3286 128.636 31.7504 129.645 29.9766 130.035C28.2028 130.424 26.3488 130.167 24.7459 129.312C24.4222 129.137 24.6769 128.624 25.001 128.799C26.4922 129.599 28.2192 129.837 29.8702 129.471C31.5212 129.105 32.9876 128.159 34.0046 126.804C34.226 126.51 34.6494 126.894 34.4293 127.187Z" fill="white"/>
<path d="M49.5815 131.211C49.1182 127.516 47.2839 124.131 44.4444 121.732C44.1629 121.495 44.5449 121.069 44.826 121.306C47.7763 123.808 49.678 127.334 50.1517 131.181C50.1966 131.548 49.6261 131.576 49.5815 131.211Z" fill="white"/>
<path d="M22.3212 115.745C22.8635 115.273 23.2806 114.674 23.5351 114.001C23.7895 113.327 23.8733 112.601 23.7789 111.887C23.7294 111.521 24.2999 111.493 24.3491 111.857C24.4497 112.646 24.3562 113.448 24.0768 114.192C23.7973 114.937 23.3404 115.601 22.7459 116.128C22.6941 116.182 22.6235 116.215 22.5486 116.219C22.4737 116.223 22.4001 116.198 22.3427 116.15C22.2868 116.099 22.2531 116.028 22.2491 115.952C22.245 115.876 22.271 115.802 22.3212 115.745Z" fill="white"/>
<path d="M52.0918 80.4091C52.1292 80.6367 52.1665 80.8643 52.2083 81.0941C52.7267 84.1516 53.4918 87.1617 54.496 90.0949C54.57 90.3229 54.6485 90.5529 54.7289 90.7783C57.2234 97.8191 60.9987 104.334 65.8631 109.992C67.8008 112.241 69.9062 114.34 72.1612 116.269C75.2755 118.932 78.8634 121.572 80.8601 125.011C81.0725 125.368 81.2626 125.737 81.4294 126.117L72.9489 145.531C72.9076 145.565 72.8705 145.602 72.8291 145.637L72.5258 146.427C72.4026 146.336 72.2768 146.239 72.1535 146.147C72.0818 146.095 72.012 146.038 71.9403 145.985C71.8931 145.948 71.846 145.912 71.8013 145.881C71.7856 145.869 71.7699 145.857 71.7585 145.847C71.7139 145.817 71.6756 145.784 71.6353 145.756C70.9304 145.213 70.228 144.665 69.5282 144.111C69.5238 144.109 69.5238 144.109 69.5213 144.102C64.2 139.866 59.1844 135.146 55.0422 129.812C54.9176 129.652 54.7885 129.489 54.6678 129.32C52.814 126.905 51.1599 124.343 49.7221 121.658C48.9395 120.185 48.2317 118.673 47.6014 117.129C45.9805 113.135 44.9957 108.91 44.6832 104.608C44.0614 96.0338 46.1792 87.3552 51.6676 80.8983C51.8081 80.7332 51.9468 80.5722 52.0918 80.4091Z" fill="#E6E6E6"/>
<path d="M52.3182 80.5608C50.0086 91.0697 51.0573 102.042 55.3154 111.919C56.2404 114.029 57.3619 116.089 58.9011 117.816C60.4143 119.487 62.346 120.722 64.4954 121.391C66.487 122.055 68.6008 122.503 70.3969 123.641C72.29 124.841 73.4211 126.779 73.8092 128.968C74.2841 131.646 73.7717 134.336 73.1796 136.948C72.5221 139.849 71.7934 142.852 72.4834 145.818C72.567 146.178 72.0064 146.287 71.923 145.928C70.7224 140.767 73.6052 135.828 73.4162 130.677C73.3281 128.274 72.5176 125.882 70.5205 124.418C68.7741 123.137 66.5947 122.674 64.5724 122.019C62.4489 121.331 60.5559 120.33 58.9726 118.728C57.353 117.089 56.1489 115.068 55.1742 112.991C52.9987 108.263 51.5775 103.222 50.9625 98.0518C50.2281 92.1548 50.5043 86.1752 51.7791 80.3716C51.8582 80.0125 52.3968 80.204 52.3182 80.5608Z" fill="white"/>
<path d="M53.7578 108.819C52.0095 109.311 50.1439 109.164 48.4941 108.403C46.8443 107.642 45.5178 106.317 44.7515 104.665C44.5975 104.33 45.1087 104.075 45.2628 104.41C45.9736 105.949 47.2094 107.183 48.7471 107.889C50.2848 108.594 52.0232 108.725 53.6485 108.257C54.0018 108.156 54.1091 108.719 53.7578 108.819Z" fill="white"/>
<path d="M63.4415 121.187C65.2888 117.957 65.8548 114.146 65.0268 110.515C64.9444 110.155 65.505 110.046 65.5872 110.405C66.4419 114.185 65.8448 118.15 63.9151 121.507C63.7309 121.827 63.2583 121.505 63.4415 121.187Z" fill="white"/>
<path d="M50.9548 92.368C51.6708 92.3191 52.3635 92.0925 52.9706 91.7086C53.5778 91.3246 54.0804 90.7954 54.4333 90.1684C54.6133 89.8463 55.0858 90.1685 54.9069 90.4885C54.5138 91.1794 53.958 91.7632 53.2881 92.1889C52.6182 92.6146 51.8547 92.8692 51.0642 92.9304C50.9901 92.9425 50.9143 92.9258 50.8521 92.8837C50.7899 92.8417 50.746 92.7774 50.7293 92.7041C50.7152 92.6295 50.731 92.5524 50.7732 92.4895C50.8154 92.4266 50.8807 92.3829 50.9548 92.368Z" fill="white"/>
<path d="M80.9564 27.1822L95.2608 195.221L66.6521 197.38V29.3202C70.0611 27.0565 74.9546 26.7023 80.9564 27.1822Z" fill="#CCCCCC"/>
<path d="M151.565 27.1822L137.261 195.221L165.869 197.38V29.3202C162.46 27.0565 157.567 26.7023 151.565 27.1822Z" fill="#CCCCCC"/>
<path d="M161.586 204.325H70.6314C69.1729 204.323 67.7747 203.741 66.7434 202.706C65.7121 201.671 65.132 200.268 65.1304 198.804V31.7863C65.132 30.3228 65.7121 28.9196 66.7434 27.8847C67.7747 26.8498 69.1729 26.2677 70.6314 26.266H161.586C163.044 26.2677 164.442 26.8498 165.474 27.8847C166.505 28.9196 167.085 30.3228 167.087 31.7863V198.805C167.085 200.268 166.505 201.671 165.474 202.706C164.442 203.741 163.044 204.323 161.586 204.325ZM70.6314 28.0985C69.657 28.0996 68.723 28.4885 68.034 29.1798C67.3451 29.8712 66.9575 30.8086 66.9565 31.7863V198.805C66.9575 199.782 67.3451 200.72 68.034 201.411C68.7229 202.102 69.657 202.491 70.6314 202.492H161.586C162.56 202.491 163.494 202.102 164.183 201.411C164.872 200.72 165.26 199.782 165.261 198.805V31.7863C165.26 30.8086 164.872 29.8712 164.183 29.1798C163.494 28.4885 162.56 28.0996 161.586 28.0985L70.6314 28.0985Z" fill="#CCCCCC"/>
<path d="M166.174 54.0591H66.0435V55.8916H166.174V54.0591Z" fill="#CCCCCC"/>
<path d="M166.174 84.601H66.0435V86.4335H166.174V84.601Z" fill="#CCCCCC"/>
<path d="M98.5367 27.1823H96.7106V110.562H98.5367V27.1823Z" fill="#CCCCCC"/>
<path d="M135.507 27.1823H133.68V110.562H135.507V27.1823Z" fill="#CCCCCC"/>
<path d="M177.587 209.364H57.6738C55.4944 209.364 53.4043 208.496 51.8632 206.949C50.3222 205.403 49.4564 203.305 49.4564 201.118C49.4564 198.931 50.3222 196.834 51.8632 195.287C53.4043 193.741 55.4944 192.872 57.6738 192.872H177.587C179.766 192.872 181.856 193.741 183.397 195.287C184.938 196.834 185.804 198.931 185.804 201.118C185.804 203.305 184.938 205.403 183.397 206.949C181.856 208.496 179.766 209.364 177.587 209.364Z" fill="#CCCCCC"/>
<path d="M166.174 106.286H66.6521V112.394H166.174V106.286Z" fill="#CCCCCC"/>
<path d="M98.82 125.726L98.6937 125.665C91.9094 122.376 83.025 122.379 69.8862 125.675L69.746 125.711L69.7039 125.572C68.314 120.998 66.7395 115.818 69.6974 113.27C69.7388 105.792 76.2756 99.7191 84.3047 99.7191C92.3322 99.7191 98.8681 105.788 98.9119 113.265C103.312 116.641 101.215 121.63 98.8911 125.604L98.82 125.726Z" fill="#264653"/>
<path d="M140.519 109.712C140.398 110.318 140.145 110.89 139.779 111.388C139.414 111.885 138.944 112.296 138.403 112.592C137.862 112.887 137.262 113.06 136.648 113.098C136.033 113.136 135.417 113.038 134.844 112.812L110.868 136.99L108.729 129.482L132.542 107.03C132.985 106.089 133.756 105.343 134.71 104.935C135.664 104.527 136.735 104.484 137.718 104.815C138.701 105.146 139.529 105.827 140.046 106.73C140.562 107.632 140.731 108.694 140.519 109.712Z" fill="#FFB6B6"/>
<path d="M81.2632 132.989C81.2632 132.989 79.088 137.936 84.4553 140.987C89.8227 144.037 108.582 139.822 111.626 139.234C114.67 138.645 126.038 121.572 126.038 121.572L124.431 113.199L109.353 126.334L81.2632 132.989Z" fill="#FE6D73"/>
<path d="M77.3043 160.345L77.6086 166.148C77.6086 166.148 76.7104 171.288 77.4491 172.397C78.1824 173.501 98.1906 173.64 98.1906 173.64C98.1906 173.64 99.5126 166.489 100.651 160.229L77.3043 160.345Z" fill="#FFB6B6"/>
<path d="M134.83 237.072L139.013 236.224L137.816 219.269L131.642 220.521L134.83 237.072Z" fill="#FFB6B6"/>
<path d="M140.822 215.008L144.71 213.253L139.666 197.031L133.927 199.621L140.822 215.008Z" fill="#FFB6B6"/>
<path d="M144.209 205.867L136.887 210.028L118.83 180.908C106.153 189.479 93.7571 193.583 81.2608 195.773C77.0358 196.528 72.7282 196.146 71.9171 191.83C71.8792 191.629 71.849 191.426 71.8264 191.222C71.3275 186.508 77.1703 180.466 77.913 174.699L93.9035 173.736L95.8754 176.273L114.368 164.864C118.087 162.569 122.978 163.81 125.293 167.636C125.415 167.838 125.529 168.045 125.633 168.257L144.209 205.867Z" fill="#264653"/>
<path d="M139.728 225.456L131.35 226.237L116.159 195.06C101.095 197.66 86.8834 198.493 74.5912 195.348C70.4294 194.297 67.8854 189.985 68.909 185.715C68.9569 185.516 69.0122 185.318 69.075 185.123C70.5461 180.619 74.3971 177.432 77.4311 172.478L99.5927 172.815L97.1174 181.386L118.646 178.59C122.975 178.028 126.929 181.173 127.477 185.614C127.506 185.849 127.525 186.085 127.534 186.321L139.728 225.456Z" fill="#264653"/>
<path d="M85.9575 121.293C90.9274 121.293 94.9564 117.25 94.9564 112.263C94.9564 107.275 90.9274 103.232 85.9575 103.232C80.9876 103.232 76.9586 107.275 76.9586 112.263C76.9586 117.25 80.9876 121.293 85.9575 121.293Z" fill="#FFB6B6"/>
<path d="M80.6819 124.553L88.933 125.527C89.281 125.568 89.6075 125.717 89.8671 125.954C90.1267 126.19 90.3064 126.501 90.3812 126.845L91.6934 132.87L99.8732 142.537C99.8732 142.537 102.81 148.064 101.709 154.328C100.608 160.591 100.123 165.246 100.123 165.246C100.123 165.246 78.1812 173.502 77.4469 172.396C76.7126 171.291 76.4743 166.27 76.4743 166.27L73.537 133.477C73.537 133.477 76.8414 127.951 78.6773 127.951C79.8621 127.911 79.7101 125.235 80.6819 124.553Z" fill="#FE6D73"/>
<path d="M100.347 167.262C101.504 167.262 102.442 166.132 102.442 164.739C102.442 163.345 101.504 162.216 100.347 162.216C99.1896 162.216 98.2516 163.345 98.2516 164.739C98.2516 166.132 99.1896 167.262 100.347 167.262Z" fill="#FE6D73"/>
<path d="M132.754 232.707L139.132 229.5L140.333 232.313L148.398 233.949C148.796 234.03 149.158 234.236 149.431 234.538C149.704 234.84 149.874 235.222 149.916 235.628C149.958 236.033 149.869 236.442 149.663 236.793C149.457 237.145 149.144 237.421 148.771 237.581L140.979 240.933L138.447 238.727L139.112 241.736L136.174 243L132.754 232.707Z" fill="#264653"/>
<path d="M138.997 213.658L145.317 210.339L146.568 213.131L154.659 214.624C155.059 214.698 155.425 214.898 155.703 215.195C155.982 215.492 156.158 215.871 156.207 216.276C156.256 216.68 156.174 217.09 155.974 217.445C155.775 217.8 155.467 218.082 155.096 218.249L147.365 221.738L144.795 219.577L145.512 222.574L142.597 223.889L138.997 213.658Z" fill="#264653"/>
<path d="M80.8162 109.43C78.4387 109.434 76.1184 108.699 74.1736 107.327L74.1086 107.281V107.202C74.1113 104.894 75.0259 102.682 76.6521 101.05C78.2782 99.418 80.4829 98.5001 82.7825 98.4974H86.4347C88.7344 98.5001 90.9391 99.418 92.5652 101.05C94.1913 102.682 95.106 104.894 95.1086 107.202C95.1062 107.73 94.8984 108.236 94.5294 108.613C94.1605 108.99 93.6595 109.207 93.1333 109.219L81.0214 109.428C80.953 109.429 80.8844 109.43 80.8162 109.43Z" fill="#264653"/>
<path d="M95.7173 105.53C96.8818 104.855 97.0764 103.006 96.1519 101.399C95.2275 99.7921 93.534 99.0365 92.3694 99.7112C91.2049 100.386 91.0103 102.235 91.9348 103.842C92.8593 105.449 94.5527 106.205 95.7173 105.53Z" fill="#264653"/>
<path d="M77.5042 103.738C78.8116 102.426 79.1006 100.588 78.1498 99.6342C77.1989 98.68 75.3683 98.9701 74.0609 100.282C72.7535 101.594 72.4644 103.431 73.4153 104.385C74.3661 105.34 76.1968 105.05 77.5042 103.738Z" fill="#264653"/>
<path d="M157.146 186.305H148.164C147.962 186.305 147.761 186.349 147.577 186.434C147.393 186.519 147.23 186.644 147.099 186.799C146.768 186.738 146.427 186.757 146.104 186.854C145.782 186.95 145.486 187.123 145.243 187.356C144.999 187.59 144.814 187.878 144.703 188.197C144.592 188.516 144.558 188.857 144.604 189.192C144.65 189.527 144.774 189.846 144.966 190.123C145.159 190.401 145.414 190.628 145.712 190.788C146.009 190.947 146.339 191.033 146.676 191.039C147.013 191.045 147.346 190.971 147.649 190.823L148.394 193.252C148.482 193.54 148.66 193.792 148.902 193.971C149.143 194.15 149.435 194.246 149.735 194.246H155.575C155.875 194.246 156.168 194.15 156.409 193.971C156.65 193.792 156.828 193.54 156.917 193.252L158.488 188.128C158.552 187.917 158.567 187.694 158.53 187.477C158.493 187.26 158.406 187.054 158.275 186.877C158.145 186.7 157.975 186.556 157.779 186.456C157.582 186.357 157.366 186.305 157.146 186.305ZM146.72 190.428C146.317 190.428 145.93 190.268 145.644 189.981C145.359 189.695 145.199 189.306 145.199 188.901C145.199 188.496 145.359 188.108 145.644 187.822C145.93 187.535 146.317 187.374 146.72 187.374C146.748 187.374 146.774 187.381 146.802 187.382C146.741 187.628 146.748 187.886 146.823 188.128L147.466 190.225C147.239 190.357 146.982 190.427 146.72 190.428Z" fill="#264653"/>
<path d="M117.038 179.675C116.424 179.732 115.806 179.654 115.226 179.445C114.646 179.236 114.119 178.902 113.682 178.467C113.245 178.031 112.908 177.505 112.695 176.925C112.482 176.345 112.399 175.725 112.451 175.109L82.4913 158.998L89.0442 154.787L117.31 171.237C118.335 171.393 119.268 171.921 119.931 172.721C120.595 173.521 120.942 174.537 120.909 175.577C120.875 176.618 120.463 177.609 119.749 178.365C119.036 179.12 118.071 179.586 117.038 179.675Z" fill="#FFB6B6"/>
<path d="M77.8163 129.39C77.8163 129.39 72.47 128.718 71.0979 134.753C69.7257 140.788 79.1314 157.612 80.5665 160.37C82.0016 163.127 101.561 169.157 101.561 169.157L109.093 165.209L92.2289 154.484L77.8163 129.39Z" fill="#FE6D73"/>
<path d="M115.5 104.453H117.326C118.214 104.453 119.065 104.807 119.693 105.437C120.321 106.067 120.674 106.922 120.674 107.813H112.152C112.152 106.922 112.505 106.067 113.133 105.437C113.76 104.807 114.612 104.453 115.5 104.453Z" fill="#CCCCCC"/>
<path d="M57.5953 41.7707C67.5866 41.7707 75.6862 33.6426 75.6862 23.6161C75.6862 13.5895 67.5866 5.46143 57.5953 5.46143C47.6039 5.46143 39.5043 13.5895 39.5043 23.6161C39.5043 33.6426 47.6039 41.7707 57.5953 41.7707Z" fill="#FF6584"/>
<path d="M112.985 22.67C108.198 17.6299 102.637 13.0319 96.0547 10.6022C94.2211 9.9225 92.3198 9.44305 90.3839 9.17212C90.3683 9.16998 90.3536 9.17315 90.3381 9.17188C90.3066 9.16374 90.2747 9.15745 90.2425 9.15304C87.5348 8.80689 84.7865 8.9734 82.1401 9.64392C80.8459 9.96983 79.5833 10.4112 78.3675 10.9628C77.1474 11.5601 75.9651 12.2325 74.8275 12.976C72.4197 14.4224 69.7686 15.4149 67.005 15.9045C65.6179 16.1551 64.2129 16.2935 62.8036 16.3183C61.5809 16.343 60.4277 16.3856 59.2692 16.8289C58.0316 17.2959 56.92 18.0467 56.0229 19.0214C55.1259 19.9961 54.4683 21.1678 54.1026 22.4428C54.0744 22.5563 54.0829 22.6759 54.1269 22.7843C54.1708 22.8927 54.248 22.9843 54.3471 23.0458C54.6605 23.271 54.966 23.5266 55.2953 23.7273C55.5882 23.8618 55.9011 23.9474 56.2215 23.9808C56.745 24.0916 57.2691 24.1992 57.794 24.3036C59.7274 24.688 61.6689 25.0283 63.6184 25.3245C67.5632 25.9238 71.5293 26.3459 75.5167 26.5909C83.5045 27.0764 91.5198 26.8347 99.4642 25.8686C103.929 25.3259 108.364 24.5562 112.751 23.5625C112.839 23.5364 112.92 23.4878 112.985 23.4213C113.049 23.3547 113.096 23.2726 113.119 23.1828C113.143 23.093 113.143 22.9986 113.119 22.9088C113.096 22.8189 113.05 22.7367 112.985 22.67Z" fill="#E6E6E6"/>
<path d="M58.4538 34.8084C56.6202 34.1287 54.719 33.6492 52.7831 33.3783C52.7675 33.3762 52.7528 33.3793 52.7373 33.3781C52.7058 33.3699 52.6738 33.3636 52.6416 33.3592C49.934 33.0131 47.1857 33.1796 44.5392 33.8501C43.2451 34.176 41.9825 34.6174 40.7667 35.1689C39.5465 35.7663 38.3643 36.4387 37.2267 37.1822C34.8188 38.6286 32.1678 39.6211 29.4042 40.1107C28.017 40.3613 26.6121 40.4997 25.2028 40.5245C23.98 40.5491 22.8269 40.5918 21.6683 41.0351C20.4308 41.5021 19.3192 42.2529 18.4221 43.2276C17.5251 44.2023 16.8675 45.3739 16.5018 46.6489C16.4736 46.7625 16.4821 46.8821 16.526 46.9905C16.57 47.0989 16.6471 47.1904 16.7463 47.252C17.0597 47.4772 17.3652 47.7328 17.6945 47.9334C17.9874 48.068 18.3002 48.1536 18.6207 48.1869C19.1441 48.2978 19.6683 48.4054 20.1931 48.5097C22.1266 48.8942 24.0681 49.2345 26.0176 49.5306C29.9624 50.1299 33.9284 50.552 37.9158 50.797C45.9037 51.2826 53.919 51.0408 61.8634 50.0748C66.3282 49.5321 70.7627 48.7624 75.1498 47.7686C75.2386 47.7426 75.3192 47.6939 75.3838 47.6274C75.4484 47.5609 75.4947 47.4787 75.5183 47.389C75.542 47.2992 75.5421 47.2048 75.5186 47.1149C75.4952 47.0251 75.449 46.9428 75.3846 46.8762C70.5969 41.836 65.0364 37.2381 58.4538 34.8084Z" fill="#E6E6E6"/>
<path d="M188.915 170.148L175.003 151.808L164.026 158.036L187.287 185.757L188.915 170.148Z" fill="#264653"/>
<path d="M220.962 140.334C221.271 148.02 222.458 155.645 224.499 163.06C224.061 164.095 223.608 165.123 223.142 166.145C221.376 170.012 219.398 173.778 217.219 177.427C211.106 187.673 203.476 196.926 194.591 204.869C193.629 205.727 192.654 206.571 191.666 207.401C186.032 199.606 182.992 191.006 181.79 182.155C181.638 181.031 181.513 179.895 181.419 178.765V178.758C181.188 176.012 181.114 173.255 181.196 170.5C181.199 170.28 181.205 170.057 181.215 169.834C181.321 166.89 181.586 163.94 181.985 161.017V161.014C182.03 160.678 182.076 160.342 182.128 160.006C182.274 158.998 182.438 157.99 182.618 156.988C183.663 151.211 185.121 145.516 186.982 139.949V139.946C187.034 139.784 187.085 139.625 187.143 139.466C187.344 138.862 187.548 138.263 187.758 137.664C187.771 137.617 187.787 137.572 187.807 137.527C188.078 136.745 188.355 135.969 188.638 135.2C188.714 134.986 188.793 134.772 188.875 134.558C189.195 133.7 189.52 132.848 189.852 132.008C189.955 131.739 190.062 131.47 190.169 131.205C190.251 131 190.33 130.796 190.415 130.594V130.591C190.899 129.391 191.389 128.214 191.885 127.06C193.276 123.817 194.706 120.766 196.1 117.953L196.103 117.95C201.889 106.304 207.148 98.7418 207.148 98.7418L226.897 105.156C224.542 109.349 222.718 115.534 221.72 122.83C220.951 128.63 220.697 134.486 220.962 140.331L220.962 140.334Z" fill="#264653"/>
<path d="M188.138 138.468C188.023 138.196 187.892 137.93 187.758 137.664C187.064 136.316 186.17 135.08 185.107 133.999C184.949 133.838 184.785 133.676 184.614 133.523C182.781 131.828 180.552 130.625 178.132 130.024C175.713 129.423 173.182 129.444 170.772 130.084L170.76 130.09L170.669 130.114L170.69 130.218C170.781 130.702 170.914 131.177 171.086 131.639C171.132 131.764 171.183 131.883 171.235 132.002C171.256 132.057 171.284 132.106 171.308 132.161C171.308 132.161 171.305 132.164 171.311 132.164C171.311 132.167 171.314 132.17 171.314 132.173C171.372 132.286 171.427 132.402 171.488 132.512C171.363 132.393 171.244 132.271 171.128 132.146C171.016 132.029 170.912 131.907 170.809 131.785C170.454 131.37 170.134 130.927 169.85 130.46L169.801 130.377L169.716 130.411C168.568 130.81 167.472 131.349 166.454 132.014L166.344 132.087C165.566 132.6 164.69 132.942 163.772 133.093C162.854 133.243 161.915 133.198 161.015 132.961C159.597 132.594 158.118 132.527 156.672 132.764C155.227 133.001 153.846 133.537 152.618 134.338C151.805 134.871 151.069 135.514 150.433 136.25C150.378 136.314 150.323 136.382 150.268 136.446C150.153 136.586 150.043 136.73 149.937 136.876C148.793 138.411 148.09 140.231 147.907 142.139L147.901 142.209L147.958 142.249C148.988 142.957 150.153 143.444 151.379 143.678C150.609 143.786 149.829 143.806 149.054 143.736H149.051C148.7 143.707 148.35 143.658 148.004 143.59L147.94 143.577H147.937L147.858 143.562L147.87 143.709C147.961 145.575 148.546 147.383 149.565 148.947L149.596 148.989C149.607 149.005 149.617 149.021 149.626 149.038C150.058 149.701 150.417 150.409 150.698 151.149C151.409 152.988 151.566 154.996 151.148 156.924C150.675 158.986 150.832 161.143 151.599 163.114C152.365 165.085 153.706 166.779 155.445 167.974C156.974 169.029 158.754 169.656 160.604 169.791C160.857 169.813 161.112 169.825 161.368 169.825C162.832 169.83 164.28 169.527 165.62 168.936L165.668 168.918L165.681 168.863C165.938 168.028 166.3 167.23 166.758 166.487C166.608 167.073 166.533 167.675 166.533 168.28V168.481L166.706 168.38C166.855 168.292 167.008 168.197 167.145 168.109C167.967 167.57 168.711 166.92 169.357 166.178C169.61 165.885 169.865 165.601 170.133 165.317L170.136 165.314C170.657 164.758 171.208 164.214 171.78 163.695C172.997 162.598 174.3 161.6 175.675 160.711C177.05 159.826 178.487 159.042 179.976 158.366H179.979C180.146 158.286 180.317 158.21 180.484 158.137C181.225 157.813 181.939 157.429 182.618 156.988C182.642 156.973 182.663 156.961 182.685 156.946C185.627 155.012 187.79 152.094 188.788 148.71C189.787 145.327 189.557 141.697 188.138 138.468Z" fill="#FE6D73"/>
<path opacity="0.15" d="M151.65 161.261C151.566 161.632 151.504 162.007 151.461 162.386C150.894 160.589 150.812 158.673 151.223 156.834C151.286 156.553 151.334 156.268 151.371 155.982C151.933 157.685 152.03 159.508 151.65 161.261Z" fill="#264653"/>
<path opacity="0.15" d="M151.88 148.012C150.978 148.138 150.064 148.142 149.161 148.025C148.925 147.578 148.721 147.114 148.551 146.637C149.556 147.318 150.688 147.786 151.88 148.012Z" fill="#264653"/>
<path opacity="0.15" d="M149.089 143.638C148.756 144.492 148.535 145.386 148.431 146.297C148.153 145.429 147.99 144.529 147.944 143.619L147.936 143.472L148.08 143.5C148.414 143.563 148.751 143.609 149.089 143.638Z" fill="#264653"/>
<path opacity="0.15" d="M152.697 134.248C153.923 133.445 155.303 132.909 156.748 132.671C158.193 132.434 159.671 132.501 161.089 132.869C161.989 133.107 162.929 133.153 163.847 133.003C164.766 132.852 165.643 132.51 166.421 131.996L166.531 131.924C167.548 131.257 168.643 130.717 169.791 130.316L169.879 130.286L169.927 130.366C170.381 131.119 170.931 131.809 171.563 132.42C171.179 131.702 170.91 130.928 170.766 130.126L170.746 130.02L170.85 129.992C173.109 129.392 175.478 129.337 177.763 129.83C180.049 130.324 182.185 131.353 183.999 132.833C185.812 134.313 187.251 136.202 188.199 138.346C189.146 140.491 189.575 142.829 189.45 145.172C188.971 143.262 188.119 141.467 186.943 139.89C185.767 138.313 184.291 136.987 182.601 135.986C180.911 134.986 179.039 134.333 177.095 134.064C175.151 133.794 173.173 133.915 171.276 134.419L171.172 134.446L171.193 134.552C171.337 135.354 171.606 136.128 171.99 136.846C171.358 136.236 170.808 135.545 170.354 134.792L170.306 134.712L170.218 134.743C169.07 135.143 167.975 135.683 166.957 136.35L166.847 136.423C166.069 136.936 165.193 137.279 164.274 137.429C163.355 137.579 162.415 137.534 161.515 137.295C159.159 136.681 156.664 136.907 154.455 137.933C152.246 138.96 150.46 140.723 149.402 142.923C148.931 142.695 148.474 142.439 148.035 142.156L147.975 142.118L147.982 142.048C148.134 140.476 148.636 138.958 149.452 137.608C150.268 136.257 151.377 135.109 152.697 134.248Z" fill="#264653"/>
<path d="M265.841 56.2092L265.552 56.0168L265.342 56.2917C263.717 58.3451 262.424 60.6425 261.511 63.0994C261.637 60.269 262.13 57.4671 262.978 54.7646L263.069 54.4805L262.807 54.3309C259.402 52.3958 255.773 50.886 252.003 49.8351L251.592 49.7252C248.702 48.9294 246.012 47.5313 243.697 45.6221C241.381 43.7129 239.493 41.3353 238.155 38.6446C235.046 32.4692 230.133 27.3923 224.074 24.0913C218.014 20.7903 211.096 19.4223 204.242 20.1698H204.238C204.165 20.1759 204.089 20.1851 204.016 20.1942C203.892 20.2065 203.77 20.2217 203.648 20.237C203.398 20.2706 203.155 20.3042 202.912 20.3408C202.705 20.3714 202.495 20.405 202.288 20.4416C202.178 20.4569 202.072 20.4752 201.965 20.4966C201.858 20.5149 201.749 20.5332 201.642 20.5546H201.639C199.596 20.9425 197.593 21.5202 195.656 22.2802H195.653V22.2833L195.163 22.4757C194.658 22.6834 194.156 22.9033 193.659 23.1354C193.547 23.1873 193.437 23.2423 193.325 23.2942C193.294 23.3095 193.261 23.3248 193.23 23.3431C192.911 23.4958 192.594 23.6546 192.281 23.8226C192.235 23.844 192.189 23.8684 192.144 23.8928L191.852 24.0486C191.209 24.3968 190.578 24.7663 189.958 25.1573C189.907 25.1878 189.858 25.2184 189.806 25.2519C189.752 25.2886 189.694 25.3253 189.639 25.3619C189.605 25.3802 189.572 25.4047 189.538 25.426C189.444 25.4841 189.353 25.5452 189.262 25.6093C189.079 25.7284 188.896 25.8506 188.717 25.9758C188.531 26.101 188.348 26.2323 188.166 26.3637L187.983 26.495L188.017 26.721C188.047 26.9073 188.075 27.0936 188.108 27.2769C188.139 27.4601 188.169 27.6403 188.202 27.8205C188.254 28.1229 188.312 28.4222 188.37 28.7123C188.409 28.9048 188.446 29.0941 188.489 29.2804C188.528 29.4728 188.571 29.6652 188.616 29.8577C188.705 30.2547 188.799 30.6395 188.899 31.0183C188.948 31.2076 189 31.397 189.055 31.5833C189.085 31.6963 189.115 31.8093 189.149 31.9192C189.173 31.9956 189.198 32.0719 189.222 32.1483C189.228 32.1727 189.234 32.2002 189.243 32.2277C189.25 32.2536 189.258 32.2791 189.268 32.3041C189.301 32.4171 189.335 32.527 189.368 32.6339C189.386 32.6919 189.405 32.75 189.426 32.805C189.469 32.9363 189.514 33.0707 189.56 33.1989C189.609 33.3455 189.66 33.4921 189.712 33.6357C189.724 33.6723 189.736 33.7059 189.748 33.7426C189.758 33.7701 189.767 33.7976 189.779 33.8251C189.791 33.8556 189.803 33.8892 189.815 33.9197C189.867 34.0572 189.919 34.1977 189.974 34.3351C189.992 34.384 190.01 34.4359 190.032 34.4848C190.525 35.729 191.131 36.9251 191.842 38.0582C191.054 37.3801 190.295 36.6614 189.566 35.9019C188.44 34.7276 187.402 33.4709 186.462 32.1422C186.385 32.0384 186.309 31.9315 186.239 31.8246C186.096 31.6199 185.956 31.4153 185.819 31.2076C185.673 30.9938 185.533 30.7709 185.396 30.551C185.305 30.4044 185.214 30.2547 185.125 30.1081C185.037 29.9676 184.955 29.8302 184.876 29.6897L184.639 29.2804H184.635V29.2835L184.301 29.6133C184.167 29.7447 184.033 29.876 183.902 30.0073C179.811 34.1375 176.848 39.2544 175.298 44.8659L175.252 45.0339L175.207 45.208C175.119 45.5195 175.03 45.8219 174.936 46.1303V46.1334C174.845 46.4388 174.747 46.7442 174.644 47.0435C174.549 47.3276 174.452 47.6086 174.349 47.8896C174.315 47.9842 174.279 48.0789 174.239 48.1736C174.175 48.3568 174.105 48.537 174.035 48.7203C174.002 48.8028 173.968 48.8883 173.935 48.9707C173.852 49.1723 173.77 49.3739 173.688 49.5724C173.676 49.603 173.661 49.6366 173.645 49.6671C173.621 49.7282 173.594 49.7893 173.569 49.8473C173.505 49.9939 173.439 50.1435 173.375 50.2901C173.329 50.3848 173.286 50.4826 173.244 50.5772C173.225 50.62 173.204 50.6628 173.186 50.7055C173.073 50.9499 172.958 51.1911 172.836 51.4294C172.699 51.7104 172.559 51.9913 172.41 52.2662C172.279 52.5228 172.142 52.7732 171.999 53.0237C171.752 53.4665 171.494 53.9063 171.226 54.3339C171.122 54.4988 171.019 54.6638 170.912 54.8287C170.888 54.8684 170.864 54.9081 170.839 54.9447C170.751 55.0883 170.66 55.2257 170.566 55.3662C170.502 55.4609 170.438 55.5556 170.374 55.6472C170.267 55.8121 170.155 55.971 170.039 56.1267C170.009 56.1756 169.975 56.2214 169.942 56.2672C169.771 56.5054 169.601 56.7375 169.427 56.9697C169.421 56.9727 169.421 56.9758 169.418 56.9788C169.412 56.9788 169.412 56.9819 169.409 56.9849C169.333 57.0857 169.257 57.1865 169.178 57.2842C169.074 57.4278 168.962 57.5683 168.849 57.7057C168.666 57.9378 168.475 58.173 168.28 58.4021C168.274 58.4082 168.271 58.4143 168.265 58.4174C167.256 59.6063 166.164 60.7209 164.996 61.7525C164.975 61.7709 164.959 61.7892 164.938 61.8044C164.774 61.948 164.609 62.0915 164.439 62.232C164.369 62.2901 164.299 62.3481 164.229 62.4061C164.113 62.5039 163.995 62.6016 163.879 62.6902C163.865 62.7042 163.85 62.7165 163.833 62.7268C163.73 62.8123 163.629 62.8917 163.526 62.9711C163.401 63.0719 163.276 63.1666 163.149 63.2613C162.546 63.7194 161.927 64.1521 161.292 64.5593C161.198 64.6235 161.097 64.6876 161 64.7487C160.942 64.7853 160.884 64.822 160.829 64.8525C160.598 64.9961 160.367 65.1366 160.136 65.2709C159.904 65.4084 159.667 65.5397 159.432 65.668C158.93 65.9429 158.434 66.23 157.95 66.5293C157.707 66.682 157.463 66.8347 157.223 66.9905C156.267 67.6135 155.347 68.2803 154.462 68.9909C153.578 69.702 152.73 70.4573 151.921 71.2541C151.821 71.3518 151.72 71.4526 151.62 71.5565C151.419 71.755 151.224 71.9566 151.039 72.1581C150.74 72.4666 150.454 72.7842 150.171 73.1049C148.679 74.8044 147.357 76.6479 146.227 78.6086C145.659 79.5876 145.143 80.5958 144.681 81.6291C144.331 82.4019 144.011 83.1929 143.722 83.9931C143.53 84.5276 143.351 85.0671 143.183 85.6118C143.101 85.8836 143.022 86.1585 142.946 86.4334C142.687 87.3649 142.471 88.3056 142.295 89.2493C142.152 90.0068 142.036 90.7653 141.948 91.5247C141.902 91.9065 141.866 92.2883 141.832 92.667C141.754 93.5978 141.714 94.5296 141.712 95.4622C141.707 98.2602 142.045 101.048 142.721 103.763C142.87 104.361 143.035 104.957 143.217 105.55C143.308 105.846 143.406 106.139 143.503 106.432C143.749 107.165 144.022 107.891 144.322 108.61C144.501 109.04 144.69 109.468 144.888 109.893C146.145 112.591 147.749 115.113 149.66 117.394C149.973 117.769 150.297 118.139 150.631 118.502C150.634 118.502 150.631 118.505 150.631 118.505C151.459 119.412 152.336 120.272 153.257 121.083H153.26C153.629 121.41 154.003 121.727 154.383 122.033C154.386 122.03 154.386 122.033 154.386 122.033C154.77 122.345 155.156 122.644 155.552 122.934C155.75 123.078 155.951 123.221 156.155 123.365C156.553 123.649 156.96 123.922 157.375 124.186H157.378C157.792 124.455 158.212 124.711 158.638 124.956C159.493 125.448 160.37 125.909 161.271 126.327L161.423 126.397L161.578 126.327C163.023 125.675 164.512 125.127 166.034 124.687C166.369 124.589 166.706 124.501 167.041 124.415C167.887 124.204 168.739 124.027 169.598 123.884C168.761 124.305 167.954 124.781 167.181 125.31C166.582 125.716 165.991 126.159 165.398 126.648C165.2 126.81 165.002 126.978 164.804 127.149L164.311 127.576L164.929 127.781C165.154 127.854 165.379 127.928 165.605 127.995C165.912 128.092 166.216 128.181 166.515 128.264C167.166 128.447 167.821 128.609 168.481 128.749C168.642 128.783 168.8 128.816 168.962 128.85C169.275 128.911 169.592 128.972 169.908 129.027C169.921 129.03 169.934 129.032 169.948 129.033C170.276 129.088 170.608 129.14 170.937 129.186C171.549 129.274 172.16 129.345 172.772 129.397C172.839 129.406 172.906 129.409 172.976 129.412C173.125 129.424 173.271 129.436 173.42 129.445C173.749 129.467 174.081 129.482 174.412 129.494C174.437 129.494 174.458 129.497 174.482 129.497C174.65 129.504 174.817 129.51 174.985 129.513C174.985 129.513 174.985 129.516 174.988 129.513C175.155 129.516 175.322 129.519 175.49 129.519H176.415C176.589 129.519 176.762 129.522 176.939 129.522C177.182 129.522 177.429 129.525 177.672 129.528C177.736 129.528 177.803 129.531 177.87 129.531C178.259 129.537 178.649 129.546 179.039 129.555C179.063 129.555 179.087 129.558 179.112 129.558C179.501 129.571 179.891 129.583 180.28 129.601C180.366 129.604 180.451 129.607 180.539 129.613C180.913 129.629 181.288 129.647 181.662 129.668C181.769 129.675 181.878 129.684 181.988 129.69C182.271 129.705 182.557 129.723 182.84 129.745C183.007 129.754 183.172 129.766 183.339 129.781C184.015 129.833 184.687 129.891 185.363 129.959C185.588 129.977 185.813 130.001 186.039 130.026C186.641 130.09 187.246 130.16 187.852 130.237C188.123 130.267 188.394 130.304 188.665 130.34C188.695 130.343 188.726 130.346 188.756 130.353C189.091 130.398 189.423 130.444 189.758 130.493C189.977 130.524 190.196 130.557 190.415 130.591C190.64 130.624 190.865 130.658 191.091 130.698C191.212 130.716 191.334 130.737 191.459 130.759C191.751 130.805 192.046 130.853 192.342 130.908C192.368 130.911 192.395 130.915 192.421 130.921C193.048 131.031 193.678 131.147 194.305 131.272C194.673 131.342 195.038 131.415 195.403 131.492C195.689 131.55 195.975 131.611 196.262 131.672C196.31 131.681 196.359 131.693 196.408 131.706C196.419 131.709 196.43 131.711 196.441 131.712C196.873 131.806 197.309 131.904 197.741 132.008C199.241 132.356 200.74 132.743 202.236 133.169C202.58 133.263 202.924 133.364 203.268 133.465C203.414 133.508 203.557 133.55 203.7 133.593C203.998 133.682 204.293 133.77 204.592 133.865C204.853 133.944 205.118 134.027 205.38 134.112C205.544 134.164 205.709 134.216 205.873 134.271C206.129 134.35 206.384 134.433 206.637 134.522C206.853 134.589 207.066 134.659 207.279 134.735C207.583 134.836 207.891 134.94 208.195 135.05C208.283 135.08 208.375 135.111 208.463 135.145C208.834 135.273 209.205 135.404 209.577 135.542C209.939 135.673 210.301 135.807 210.66 135.942C210.91 136.036 211.159 136.128 211.406 136.226C211.683 136.333 211.96 136.44 212.234 136.55C212.629 136.705 213.028 136.864 213.424 137.026C213.789 137.173 214.151 137.322 214.516 137.478C214.583 137.505 214.653 137.533 214.72 137.564C215.037 137.695 215.353 137.832 215.667 137.97C215.871 138.055 216.072 138.144 216.272 138.232C217.149 138.617 218.024 139.015 218.899 139.427H218.902C219.45 139.686 220.007 139.934 220.567 140.169C220.698 140.224 220.829 140.279 220.962 140.331C221.185 140.425 221.41 140.514 221.635 140.605C221.781 140.664 221.927 140.722 222.076 140.777C222.292 140.862 222.512 140.945 222.731 141.024C222.962 141.109 223.19 141.195 223.425 141.274C223.507 141.305 223.589 141.332 223.674 141.363C223.945 141.455 224.216 141.546 224.49 141.635C224.517 141.644 224.545 141.653 224.575 141.662C224.861 141.754 225.147 141.845 225.436 141.931C225.459 141.94 225.483 141.947 225.506 141.952C225.817 142.047 226.133 142.139 226.447 142.227C226.909 142.356 227.375 142.478 227.841 142.591C227.926 142.612 228.011 142.633 228.096 142.652C228.346 142.713 228.592 142.771 228.842 142.826C229.107 142.887 229.375 142.942 229.639 142.997C229.907 143.052 230.175 143.107 230.44 143.156C230.583 143.183 230.726 143.211 230.866 143.235L231.24 143.299C231.499 143.345 231.758 143.385 232.019 143.428C232.027 143.427 232.034 143.428 232.041 143.431C232.336 143.476 232.628 143.519 232.923 143.556C233.206 143.596 233.489 143.629 233.772 143.663C233.83 143.669 233.891 143.675 233.952 143.681C234.186 143.709 234.421 143.736 234.655 143.757C234.722 143.764 234.789 143.77 234.856 143.776C235.087 143.797 235.318 143.818 235.55 143.834C235.596 143.84 235.643 143.843 235.69 143.843C235.897 143.861 236.104 143.877 236.311 143.886C236.457 143.898 236.6 143.904 236.746 143.913C236.822 143.916 236.895 143.919 236.971 143.922C237.172 143.935 237.373 143.941 237.577 143.947C237.823 143.956 238.07 143.962 238.313 143.968C238.608 143.974 238.907 143.977 239.202 143.977H239.208C239.497 143.977 239.789 143.974 240.079 143.968H240.188L240.508 143.959C240.672 143.956 240.836 143.95 240.998 143.944C241.308 143.932 241.615 143.916 241.923 143.898C242.045 143.892 242.169 143.883 242.291 143.877C242.346 143.873 242.404 143.867 242.459 143.864C242.65 143.852 242.839 143.84 243.031 143.825C243.229 143.809 243.429 143.791 243.627 143.77C243.883 143.745 244.139 143.718 244.394 143.69C244.595 143.669 244.796 143.644 244.994 143.62C245.02 143.618 245.047 143.614 245.073 143.608C245.265 143.586 245.456 143.562 245.645 143.534C245.87 143.504 246.092 143.47 246.315 143.437C246.339 143.434 246.36 143.431 246.385 143.428C246.768 143.366 247.155 143.305 247.541 143.235C247.946 143.162 248.351 143.082 248.752 143C248.902 142.969 249.048 142.936 249.197 142.905C249.279 142.887 249.364 142.872 249.443 142.853C249.568 142.826 249.69 142.798 249.812 142.768C249.833 142.765 249.857 142.759 249.879 142.756C250.049 142.719 250.216 142.676 250.387 142.633C250.728 142.551 251.062 142.465 251.397 142.374C251.546 142.337 251.695 142.298 251.839 142.258C251.881 142.246 251.924 142.233 251.963 142.221C252.581 142.047 253.194 141.863 253.802 141.668C254.069 141.583 254.334 141.494 254.599 141.4C255.168 141.204 255.732 140.998 256.291 140.783C256.44 140.728 256.589 140.667 256.739 140.609C256.958 140.52 257.177 140.431 257.393 140.343C257.588 140.26 257.782 140.178 257.98 140.092C258.078 140.053 258.175 140.01 258.272 139.967C258.565 139.839 258.857 139.708 259.146 139.576C259.341 139.485 259.532 139.396 259.724 139.304C260.029 139.158 260.33 139.008 260.631 138.859C260.707 138.819 260.78 138.779 260.853 138.742C261.045 138.645 261.237 138.544 261.432 138.446C261.739 138.281 262.046 138.116 262.351 137.945C262.454 137.89 262.555 137.832 262.658 137.774C262.993 137.585 263.325 137.393 263.653 137.197C264.381 136.76 265.098 136.304 265.805 135.829C265.982 135.713 266.158 135.591 266.332 135.471C266.66 135.245 266.983 135.013 267.305 134.781C267.339 134.757 267.369 134.732 267.403 134.711C267.564 134.592 267.725 134.473 267.887 134.351C268.222 134.097 268.553 133.84 268.885 133.578C268.891 133.575 268.9 133.566 268.909 133.56C269.059 133.44 269.208 133.321 269.354 133.202C269.807 132.833 270.255 132.457 270.693 132.069C270.909 131.883 271.122 131.69 271.332 131.498C271.49 131.354 271.649 131.211 271.804 131.064C272.117 130.768 272.425 130.475 272.729 130.175C272.881 130.029 273.03 129.876 273.182 129.723C273.332 129.571 273.484 129.418 273.633 129.262C273.685 129.21 273.736 129.155 273.788 129.1C273.94 128.939 274.092 128.774 274.245 128.612C274.375 128.471 274.503 128.325 274.634 128.178C274.853 127.934 275.075 127.689 275.292 127.442C275.303 127.428 275.315 127.415 275.328 127.402C275.34 127.387 275.352 127.375 275.362 127.363H275.358C279.782 122.229 283.069 116.211 285.002 109.707C286.934 103.203 287.469 96.3616 286.569 89.635C285.669 82.9084 283.356 76.4502 279.783 70.6879C276.21 64.9256 271.458 59.9905 265.841 56.2092Z" fill="#FE6D73"/>
<g opacity="0.15">
<path d="M204.239 20.1675C204.846 22.3544 205.759 24.4439 206.95 26.3735C204.955 24.6539 203.173 22.7007 201.641 20.5556C202.502 20.3923 203.368 20.2629 204.239 20.1675Z" fill="#264653"/>
<path d="M174.542 53.9886C172.289 55.2223 170.183 56.708 168.263 58.4173C171.504 54.5714 173.873 50.0642 175.205 45.2081C175.221 45.1498 175.238 45.091 175.253 45.0326L175.299 44.8673C176.899 39.0716 180.006 33.8065 184.299 29.6106L184.637 29.2805L184.875 29.6884C186.191 31.9344 187.766 34.0171 189.568 35.8935C186.807 43.7103 181.436 50.2161 174.542 53.9886Z" fill="#264653"/>
<path d="M190.407 33.185L190.362 33.3503C190.346 33.4087 190.33 33.4675 190.313 33.5258C190.225 33.8472 190.13 34.1662 190.033 34.4838C189.07 31.9813 188.394 29.377 188.017 26.7212L187.982 26.4958L188.166 26.3634C190.482 24.6934 192.998 23.3212 195.654 22.2789C193.269 25.5703 191.492 29.2641 190.407 33.185Z" fill="#264653"/>
<path d="M159.433 65.6709C161.427 64.5759 163.293 63.2616 164.996 61.7522C161.593 65.7283 159.154 70.4413 157.869 75.5217C156.585 80.6022 156.49 85.9121 157.592 91.0354C158.695 96.1588 160.965 100.956 164.224 105.052C167.483 109.148 171.643 112.431 176.377 114.644L176.531 114.715L176.685 114.645C179.242 113.486 181.939 112.664 184.707 112.201C182.979 113.084 181.369 114.181 179.913 115.467L179.421 115.894L180.038 116.099C180.572 116.276 181.105 116.438 181.623 116.583C184.669 117.434 187.818 117.857 190.98 117.839C205.346 117.747 219.823 121.08 234.009 127.745C236.442 128.886 238.965 129.822 241.553 130.543C252.831 133.694 264.87 132.561 275.367 127.36C269.449 134.228 261.711 139.271 253.051 141.902C244.392 144.533 235.166 144.646 226.445 142.225C223.857 141.505 221.334 140.569 218.901 139.427C204.715 132.762 190.237 129.429 175.872 129.521C172.71 129.539 169.561 129.116 166.515 128.265C165.997 128.121 165.463 127.958 164.93 127.781L164.312 127.576L164.805 127.149C166.26 125.864 167.871 124.766 169.599 123.883C166.831 124.346 164.134 125.168 161.577 126.328L161.423 126.397L161.269 126.326C155.583 123.67 150.745 119.481 147.293 114.226C143.842 108.971 141.913 102.857 141.723 96.5662C141.532 90.2754 143.087 84.0552 146.215 78.5997C149.342 73.1443 153.919 68.6682 159.433 65.6709Z" fill="#264653"/>
</g>
<path d="M224.038 79.1173C223.8 80.6351 223.557 82.1504 223.329 83.6708C223.29 83.9307 223.223 84.0165 222.949 84.0113C221.988 83.9905 221.026 84.0113 220.066 84.0113C219.683 84.0113 219.582 83.8995 219.639 83.5253C219.892 81.8757 220.151 80.2297 220.415 78.587C220.428 78.5039 220.441 78.4233 220.449 78.3401C220.529 77.2823 219.905 76.7963 218.896 77.1238C218.69 77.1955 218.502 77.3115 218.345 77.4637C218.188 77.6159 218.066 77.8005 217.988 78.0048C217.727 78.6602 217.561 79.35 217.496 80.0529C217.307 81.2927 217.116 82.535 216.937 83.7774C216.909 83.9775 216.828 84.0373 216.637 84.0243C215.656 84.0243 214.673 84.0243 213.692 84.0243C213.366 84.0243 213.255 83.8866 213.307 83.5591C213.395 83.0107 213.48 82.4597 213.565 81.8879C213.519 81.9165 213.485 81.9268 213.472 81.9476C212.631 83.3174 211.358 84.0087 209.826 84.2868C208.185 84.5727 206.612 84.4168 205.168 83.5071C204.561 83.11 204.015 82.6268 203.546 82.0724C203.521 82.0507 203.502 82.0241 203.488 81.9943C203.475 81.9645 203.468 81.9322 203.468 81.8996C203.468 81.8669 203.475 81.8346 203.488 81.8048C203.502 81.775 203.521 81.7484 203.546 81.7267C204.123 80.9028 204.692 80.0737 205.266 79.2498C205.291 79.1953 205.33 79.1485 205.379 79.1142C205.428 79.0799 205.486 79.0592 205.545 79.0545C205.605 79.0497 205.664 79.061 205.718 79.0871C205.772 79.1132 205.818 79.1532 205.851 79.203C206.249 79.6254 206.703 79.9909 207.199 80.2894C207.702 80.5853 208.278 80.733 208.861 80.7157C209.153 80.7171 209.438 80.6262 209.676 80.4558C209.773 80.3912 209.855 80.306 209.915 80.2063C209.976 80.1065 210.014 79.9946 210.028 79.8784C210.041 79.7622 210.028 79.6446 209.991 79.5337C209.954 79.4229 209.893 79.3215 209.813 79.2368C209.491 78.8975 209.111 78.6177 208.693 78.4103C208.242 78.1504 207.782 77.9243 207.344 77.6462C205.313 76.3596 204.757 74.244 205.97 72.1335C206.912 70.4805 208.423 69.7684 210.279 69.7268C211.878 69.6983 213.43 70.2681 214.634 71.3252C214.761 71.4318 214.784 71.5072 214.696 71.6553C214.215 72.4662 213.749 73.2875 213.275 74.101C213.105 74.3921 212.939 74.4233 212.68 74.2154C212.244 73.8322 211.748 73.5231 211.213 73.3005C210.858 73.1437 210.457 73.1261 210.09 73.2511C209.396 73.5111 209.29 74.1426 209.862 74.6079C210.185 74.8535 210.532 75.0652 210.897 75.2394C211.395 75.4938 211.876 75.7785 212.339 76.0919C213.172 76.6637 213.827 77.3707 214.034 78.4311C214.204 78.3453 214.166 78.1998 214.184 78.0958C214.639 75.2576 215.089 72.4194 215.535 69.5813C215.568 69.3655 215.63 69.285 215.861 69.2902C216.821 69.3031 217.783 69.2902 218.743 69.2902C219.111 69.2902 219.212 69.4253 219.15 69.81C218.865 71.5271 218.582 73.2459 218.301 74.9665C218.301 75.0133 218.301 75.0627 218.283 75.1667C218.459 75.0211 218.598 74.9068 218.743 74.795C219.252 74.3866 219.857 74.1185 220.501 74.0173C221.144 73.9161 221.802 73.9853 222.41 74.218C223.614 74.6235 224.17 75.5643 224.266 76.7989C224.289 77.0874 224.266 77.3811 224.266 77.6696C224.25 77.6864 224.241 77.7088 224.241 77.7319C224.241 77.7551 224.25 77.7774 224.266 77.7943L224.219 78.166C224.123 78.4752 224.062 78.7943 224.038 79.1173Z" fill="white"/>
<path d="M239.932 75.0058C240.051 75.0058 240.082 74.92 240.139 74.8681C240.5 74.5308 240.934 74.2825 241.407 74.1427C241.88 74.0028 242.379 73.9753 242.864 74.0623C243.19 74.1143 243.273 74.2495 243.201 74.5822C243.128 74.9148 243.037 75.3021 242.942 75.7465C243.477 75.1268 244.157 74.6507 244.921 74.3612C246.839 73.7037 248.712 73.7037 250.402 74.985C250.923 75.3831 251.349 75.893 251.649 76.4776C251.949 77.0621 252.116 77.7065 252.136 78.3638C252.164 78.841 252.157 79.3197 252.115 79.7959C252.097 80.0376 252.02 80.1208 251.761 80.1208C249.662 80.1078 247.563 80.1208 245.467 80.1052C245.157 80.1052 245.105 80.1962 245.147 80.4743C245.164 80.8004 245.301 81.1084 245.532 81.3382C245.763 81.5679 246.072 81.7028 246.396 81.7166C247.23 81.818 247.908 81.4827 248.521 80.9603C249.002 80.5522 249.005 80.5522 249.437 80.9993C249.869 81.4463 250.288 81.8752 250.713 82.3144C251.003 82.6159 250.995 82.7458 250.666 83.0213C249.409 84.0766 247.928 84.4196 246.329 84.3729C245.531 84.3683 244.744 84.191 244.021 83.853C242.587 83.1435 241.863 81.9427 241.669 80.3885C241.54 79.4281 241.629 78.451 241.927 77.5295C241.974 77.3866 241.971 77.3372 241.806 77.3086C240.646 77.1162 239.878 77.5685 239.497 78.6835C239.21 79.536 239.164 80.4353 239.014 81.3112C238.874 82.1299 238.755 82.9512 238.636 83.7725C238.607 83.957 238.537 84.009 238.356 84.0064C237.363 84.0064 236.371 84.0064 235.378 84.0064C235.085 84.0064 234.953 83.8608 234.995 83.5905C235.471 80.5808 235.944 77.5702 236.415 74.5588C236.452 74.3196 236.534 74.2573 236.765 74.2599C237.665 74.2755 238.576 74.2599 239.464 74.2599C239.948 74.2599 240.023 74.3482 239.95 74.8265C239.937 74.8862 239.937 74.946 239.932 75.0058ZM247.043 77.779C247.486 77.779 247.931 77.766 248.373 77.779C248.653 77.779 248.658 77.6854 248.573 77.4723C248.506 77.2921 248.4 77.1288 248.263 76.9941C248.126 76.8594 247.962 76.7565 247.781 76.6926C247.361 76.5517 246.905 76.5656 246.494 76.7318C246.083 76.8981 245.745 77.2057 245.54 77.5997C245.467 77.7478 245.504 77.779 245.649 77.779C246.114 77.7764 246.578 77.779 247.043 77.779V77.779Z" fill="white"/>
<path d="M198.463 73.6437C198.965 73.6437 199.48 73.6437 199.995 73.6437C200.176 73.6437 200.176 73.4982 200.215 73.3838C200.591 72.3598 200.963 71.3383 201.325 70.3091C201.342 70.2262 201.389 70.1528 201.458 70.1044C201.527 70.056 201.612 70.0362 201.695 70.0492C202.348 70.0674 202.989 70.0492 203.649 70.0492C203.98 70.0492 204.107 70.2363 203.993 70.5482C203.657 71.4943 203.323 72.4429 202.974 73.3864C202.894 73.6047 202.938 73.6463 203.158 73.6463C203.724 73.6463 204.294 73.6463 204.863 73.6463C205.184 73.6463 205.308 73.8256 205.199 74.1245C204.972 74.7587 204.736 75.3903 204.514 76.0245C204.5 76.0888 204.462 76.1456 204.408 76.1832C204.355 76.2208 204.289 76.2366 204.224 76.2272C203.551 76.2272 202.878 76.2272 202.205 76.2272C202.058 76.2272 201.946 76.2454 201.902 76.4117C201.763 76.8458 201.61 77.2772 201.45 77.7113C201.375 77.9062 201.45 77.9192 201.613 77.9166C202.213 77.9166 202.813 77.9166 203.424 77.9166C203.753 77.9166 203.88 78.1063 203.768 78.4182C203.551 79.0212 203.323 79.6242 203.124 80.2376C203.103 80.3246 203.05 80.4002 202.976 80.4487C202.901 80.4972 202.81 80.5146 202.723 80.4975C202.063 80.4819 201.4 80.4975 200.738 80.4975C200.663 80.486 200.587 80.5039 200.526 80.5475C200.464 80.5911 200.421 80.657 200.407 80.7314C200.044 81.771 199.661 82.8106 199.302 83.8685C199.284 83.9629 199.229 84.0463 199.15 84.1007C199.071 84.1552 198.974 84.1763 198.88 84.1596C198.251 84.1414 197.62 84.1596 196.988 84.1596C196.631 84.1596 196.512 83.9854 196.631 83.6397C196.962 82.6911 197.291 81.7398 197.633 80.7964C197.71 80.5806 197.721 80.4819 197.439 80.5001C197.056 80.5222 196.672 80.5222 196.29 80.5001C196.248 80.4922 196.205 80.4926 196.163 80.5014C196.122 80.5102 196.082 80.5272 196.047 80.5513C196.012 80.5755 195.982 80.6063 195.959 80.6421C195.936 80.6779 195.92 80.718 195.912 80.76C195.555 81.7996 195.174 82.8392 194.817 83.8789C194.745 84.0842 194.665 84.1778 194.429 84.17C193.787 84.1492 193.135 84.17 192.506 84.17C192.149 84.17 192.03 83.9958 192.149 83.6501C192.486 82.6911 192.817 81.732 193.164 80.7756C193.236 80.5728 193.221 80.5157 192.985 80.5157C192.408 80.5313 191.828 80.5157 191.249 80.5157C190.915 80.5157 190.788 80.3311 190.902 80.0244C191.13 79.4007 191.365 78.7821 191.583 78.1557C191.59 78.1185 191.604 78.0831 191.625 78.0514C191.646 78.0198 191.672 77.9926 191.704 77.9714C191.735 77.9501 191.77 77.9353 191.807 77.9277C191.844 77.92 191.882 77.9198 191.919 77.927C192.579 77.927 193.241 77.927 193.904 77.927C193.978 77.9399 194.055 77.923 194.118 77.8797C194.18 77.8365 194.223 77.7704 194.238 77.6957C194.377 77.2694 194.53 76.851 194.688 76.4351C194.75 76.274 194.714 76.2376 194.551 76.2402C193.93 76.2402 193.311 76.2402 192.69 76.2402C192.33 76.2402 192.211 76.0687 192.336 75.7204C192.561 75.107 192.791 74.4988 193.006 73.8802C193.02 73.8055 193.063 73.7394 193.126 73.6962C193.188 73.6529 193.265 73.636 193.34 73.6489C194.012 73.6619 194.685 73.6489 195.355 73.6619C195.45 73.6762 195.546 73.653 195.623 73.5972C195.7 73.5413 195.753 73.4573 195.77 73.363C196.116 72.3728 196.489 71.3955 196.825 70.4053C196.835 70.3478 196.857 70.293 196.889 70.2442C196.921 70.1953 196.962 70.1535 197.01 70.1212C197.059 70.0889 197.113 70.0668 197.17 70.0562C197.228 70.0456 197.286 70.0467 197.343 70.0596C197.951 70.083 198.562 70.0596 199.172 70.0596C199.527 70.0596 199.649 70.2363 199.527 70.5794C199.191 71.5255 198.852 72.4715 198.518 73.4202C198.463 73.4774 198.412 73.5398 198.463 73.6437ZM197.739 77.9244C197.977 77.9244 198.215 77.9244 198.45 77.9244C198.51 77.9359 198.573 77.9233 198.623 77.8893C198.674 77.8552 198.71 77.8025 198.722 77.7425C198.872 77.3006 199.02 76.8588 199.188 76.4273C199.273 76.2142 199.188 76.2064 199.017 76.209C198.564 76.209 198.109 76.209 197.656 76.209C197.596 76.1996 197.534 76.2133 197.484 76.2476C197.434 76.2818 197.398 76.334 197.384 76.3935C197.234 76.8354 197.082 77.2746 196.916 77.7087C196.854 77.8724 196.874 77.9348 197.058 77.9244C197.278 77.9114 197.506 77.9244 197.731 77.9244H197.739Z" fill="white"/>
<path d="M224.289 78.1242C224.557 76.82 225.294 75.6606 226.359 74.8676C226.975 74.3881 227.707 74.0803 228.479 73.9754C229.251 73.8704 230.038 73.972 230.758 74.2698C231.285 74.5028 231.754 74.8478 232.135 75.2809C232.187 74.969 232.239 74.7091 232.272 74.4491C232.29 74.3062 232.345 74.2568 232.487 74.2594C233.47 74.2594 234.451 74.2594 235.434 74.2594C235.693 74.2594 235.81 74.4258 235.768 74.6857C235.295 77.698 234.813 80.7051 234.35 83.7174C234.311 83.9773 234.208 84.0059 233.993 84.0033C233.116 84.0033 232.236 84.0033 231.359 84.0033C230.921 84.0033 230.841 83.9046 230.893 83.4601C230.893 83.39 230.94 83.3198 230.893 83.247C230.779 83.26 230.725 83.3588 230.634 83.4186C230.177 83.804 229.641 84.0844 229.064 84.2402C228.488 84.396 227.884 84.4234 227.296 84.3204C225.743 84.0605 224.848 83.0417 224.343 81.6148C224.188 81.1304 224.1 80.6265 224.085 80.1177C224.118 79.9531 224.118 79.7833 224.085 79.6187L224.108 79.1197C224.186 78.787 224.237 78.4569 224.289 78.1242ZM227.829 79.3224C227.829 80.2893 228.246 80.9312 228.988 81.1418C229.375 81.2678 229.792 81.2673 230.178 81.1402C230.565 81.0132 230.901 80.7662 231.139 80.4348C231.368 80.1318 231.528 79.782 231.607 79.4102C231.687 79.0383 231.684 78.6535 231.599 78.2828C231.545 77.9778 231.399 77.697 231.179 77.4788C230.96 77.2606 230.68 77.1157 230.375 77.0638C229.955 76.9596 229.513 76.9976 229.116 77.172C228.72 77.3464 228.392 77.6473 228.184 78.0281C227.959 78.4226 227.837 78.8678 227.829 79.3224V79.3224Z" fill="white"/>
<path d="M223.397 109.43H194.74C193.508 109.43 192.626 108.716 192.437 107.562C192.415 107.407 192.407 107.252 192.411 107.096V89.3394C192.411 87.9021 193.322 87.0002 194.761 87.0002H252.106C253.547 87.0002 254.45 87.9047 254.45 89.3394V107.055C254.45 108.515 253.55 109.412 252.085 109.412L223.397 109.43ZM224.222 99.2705C224.235 99.1067 224.235 99.0106 224.248 98.9404L225.615 90.4414C225.635 90.3779 225.64 90.3101 225.627 90.2446C225.614 90.179 225.585 90.1178 225.541 90.0669C225.498 90.016 225.443 89.9771 225.381 89.954C225.318 89.9308 225.251 89.9241 225.185 89.9346C224.049 89.9346 222.91 89.9346 221.774 89.9346C221.562 89.9346 221.492 90.0048 221.464 90.1945C221.342 91.0366 221.205 91.8761 221.076 92.7156C220.694 95.1622 220.312 97.6088 219.929 100.055L219.021 105.89C219.003 105.952 219 106.017 219.014 106.08C219.027 106.143 219.055 106.201 219.097 106.25C219.138 106.299 219.191 106.337 219.25 106.36C219.31 106.384 219.374 106.392 219.438 106.384C220.584 106.384 221.73 106.384 222.879 106.384C223.042 106.384 223.105 106.345 223.138 106.168C223.247 105.389 223.376 104.632 223.5 103.866L223.783 102.114C223.925 102.189 223.948 102.306 223.997 102.402C224.67 103.65 225.339 104.9 226.003 106.153C226.031 106.228 226.083 106.292 226.151 106.334C226.219 106.376 226.299 106.395 226.378 106.387C227.724 106.387 229.067 106.387 230.41 106.387C230.484 106.399 230.561 106.387 230.628 106.352C230.695 106.318 230.749 106.262 230.782 106.194C230.822 106.13 230.839 106.055 230.833 105.98C230.826 105.906 230.796 105.835 230.746 105.779C229.75 104.219 228.761 102.66 227.76 101.1C227.729 101.068 227.705 101.03 227.69 100.988C227.676 100.946 227.67 100.901 227.675 100.857C227.679 100.812 227.693 100.769 227.716 100.731C227.739 100.693 227.77 100.66 227.807 100.635C229.323 99.1353 230.829 97.6227 232.34 96.1178C232.406 96.0715 232.453 96.0027 232.472 95.9242C232.491 95.8458 232.481 95.7631 232.444 95.6915C232.369 95.5018 232.257 95.4862 232.089 95.4862C230.795 95.4862 229.501 95.5122 228.208 95.4862C228.012 95.473 227.817 95.5091 227.639 95.5913C227.462 95.6735 227.307 95.7991 227.191 95.9567C226.238 97.0249 225.252 98.1035 224.222 99.2575V99.2705ZM239.024 102.072C240.225 102.072 241.423 102.072 242.624 102.072C242.821 102.072 242.903 102.038 242.932 101.812C243.019 101.206 243.034 100.59 242.976 99.98C242.717 97.8176 241.628 96.2763 239.576 95.4862C238.714 95.1807 237.796 95.0689 236.887 95.1587C234.817 95.3069 233.166 96.1984 232.066 97.9995C231.209 99.3952 231.031 100.942 231.274 102.53C231.533 104.31 232.462 105.623 234.141 106.335C235.176 106.739 236.292 106.893 237.397 106.784C238.85 106.732 240.244 106.19 241.353 105.246C241.659 104.986 241.672 104.781 241.39 104.5C240.888 103.99 240.385 103.483 239.881 102.977C239.444 102.535 239.444 102.535 238.975 102.922C238.321 103.465 237.601 103.847 236.721 103.801C235.769 103.751 235.254 103.281 235.153 102.369C235.13 102.158 235.153 102.062 235.412 102.064C236.618 102.08 237.819 102.072 239.024 102.072ZM209.149 101.261C209.143 101.673 209.172 102.084 209.234 102.491C209.612 104.505 210.714 105.919 212.694 106.522C214.203 106.982 215.698 106.73 217.163 106.233C217.318 106.181 217.326 106.059 217.344 105.94C217.517 104.917 217.683 103.895 217.844 102.873C217.867 102.717 217.882 102.587 217.699 102.483C217.635 102.436 217.557 102.412 217.478 102.416C217.398 102.419 217.323 102.45 217.264 102.504C216.693 102.944 215.994 103.182 215.274 103.182C214.345 103.169 213.688 102.641 213.519 101.779C213.463 101.42 213.463 101.054 213.519 100.695C213.549 100.373 213.645 100.062 213.801 99.7802C213.958 99.4986 214.172 99.2531 214.429 99.0598C214.686 98.8664 214.981 98.7295 215.294 98.6579C215.607 98.5863 215.932 98.5816 216.247 98.6441C216.831 98.7831 217.357 99.101 217.753 99.5538C217.804 99.6089 217.871 99.6466 217.944 99.6615C218.018 99.6765 218.094 99.6679 218.162 99.6369C218.335 99.5928 218.374 99.4784 218.4 99.325C218.537 98.4336 218.659 97.5421 218.827 96.6558C218.866 96.5263 218.858 96.387 218.805 96.2628C218.751 96.1386 218.655 96.0375 218.535 95.9774C216.682 94.7559 213.734 94.7975 211.781 96.123C209.938 97.3602 209.151 99.1587 209.141 101.261H209.149ZM202.679 98.6467C202.98 98.6467 203.228 98.6467 203.476 98.6467C203.614 98.6467 203.683 98.6103 203.704 98.4674C203.831 97.6279 203.963 96.7884 204.09 95.9489C204.136 95.6344 203.976 95.4628 203.663 95.4602C203.35 95.4576 202.998 95.4394 202.669 95.4602C202.34 95.481 202.307 95.3875 202.359 95.1042C202.488 94.392 202.597 93.6747 202.713 92.9573C202.775 92.5675 202.633 92.4011 202.232 92.4011C201.106 92.4011 199.978 92.4011 198.852 92.4011C198.671 92.4011 198.593 92.4505 198.575 92.635C198.456 93.4979 198.316 94.3582 198.2 95.2185C198.174 95.3927 198.12 95.4784 197.941 95.4628C197.506 95.4472 197.072 95.4628 196.647 95.4628C196.492 95.4628 196.44 95.5122 196.417 95.6682C196.298 96.4999 196.158 97.329 196.037 98.1581C196.02 98.2194 196.018 98.284 196.032 98.3461C196.046 98.4083 196.074 98.4661 196.115 98.5146C196.156 98.563 196.209 98.6007 196.268 98.6241C196.326 98.6476 196.39 98.6563 196.453 98.6493C196.774 98.6493 197.095 98.6649 197.416 98.6493C197.659 98.6337 197.675 98.7221 197.638 98.9352C197.266 101.245 196.9 103.557 196.541 105.872C196.489 106.2 196.647 106.376 196.976 106.376C198.102 106.376 199.227 106.376 200.356 106.376C200.56 106.376 200.632 106.327 200.666 106.116C201 103.936 201.347 101.758 201.701 99.5772C201.748 99.2809 201.701 98.891 201.872 98.7117C202.043 98.5323 202.408 98.6779 202.661 98.6467H202.679ZM249.828 98.6467C250.087 98.6467 250.325 98.6467 250.571 98.6467C250.716 98.6467 250.773 98.5947 250.794 98.4596C250.92 97.6201 251.052 96.7806 251.177 95.9411C251.221 95.6318 251.058 95.4628 250.739 95.4602C250.421 95.4576 250.035 95.4394 249.686 95.4602C249.427 95.481 249.404 95.3719 249.427 95.1587C249.554 94.4232 249.67 93.6877 249.787 92.9495C249.846 92.5701 249.707 92.4011 249.329 92.4011C248.201 92.4011 247.075 92.4011 245.949 92.4011C245.734 92.4011 245.672 92.4687 245.644 92.674C245.53 93.5265 245.385 94.3764 245.274 95.2289C245.248 95.4082 245.178 95.468 244.994 95.4628C244.573 95.4472 244.148 95.4628 243.724 95.4628C243.561 95.4628 243.493 95.4992 243.465 95.6785C243.351 96.4999 243.206 97.316 243.09 98.1347C243.041 98.4622 243.191 98.6545 243.514 98.6545C243.838 98.6545 244.135 98.6701 244.443 98.6545C244.702 98.6363 244.725 98.7091 244.686 98.9482C244.314 101.247 243.95 103.549 243.594 105.854C243.537 106.22 243.685 106.374 244.065 106.374C245.16 106.374 246.257 106.374 247.352 106.374C247.611 106.374 247.693 106.291 247.732 106.044C248.084 103.738 248.449 101.435 248.804 99.1327C248.879 98.6441 248.871 98.6441 249.347 98.6441L249.828 98.6467ZM206.564 95.4628H205.011C204.571 95.4628 204.579 95.4628 204.512 95.8943C204.317 97.1522 204.118 98.4128 203.922 99.6707C203.599 101.74 203.277 103.808 202.956 105.875C202.938 105.936 202.935 106.001 202.947 106.064C202.96 106.127 202.989 106.186 203.03 106.235C203.071 106.284 203.124 106.322 203.183 106.345C203.243 106.368 203.307 106.377 203.37 106.369C204.519 106.369 205.666 106.369 206.815 106.369C207.027 106.369 207.086 106.301 207.117 106.109C207.376 104.326 207.676 102.545 207.958 100.765C208.212 99.1691 208.464 97.5724 208.714 95.9748C208.766 95.6526 208.603 95.4732 208.269 95.4706L206.564 95.4628ZM207.045 90.418C206.755 90.4136 206.468 90.4668 206.199 90.5746C205.93 90.6825 205.686 90.8428 205.479 91.0463C205.272 91.2498 205.108 91.4925 204.995 91.7603C204.882 92.0281 204.823 92.3157 204.822 92.6064C204.817 92.8996 204.871 93.1907 204.979 93.4629C205.088 93.735 205.249 93.9826 205.455 94.1913C205.66 94.3999 205.904 94.5654 206.174 94.6779C206.443 94.7905 206.732 94.8479 207.024 94.8468C207.319 94.8531 207.612 94.8 207.885 94.6907C208.159 94.5814 208.408 94.4181 208.618 94.2105C208.828 94.0029 208.994 93.7551 209.107 93.4818C209.22 93.2085 209.277 92.9153 209.276 92.6194C209.28 92.3257 209.226 92.0341 209.115 91.7623C209.004 91.4905 208.839 91.2442 208.63 91.0383C208.422 90.8324 208.174 90.6713 207.901 90.5646C207.629 90.458 207.337 90.4081 207.045 90.418V90.418Z" fill="white"/>
<path d="M234.987 99.5072C235.174 99.0237 235.538 98.6307 236.004 98.4091C236.471 98.1876 237.005 98.1545 237.495 98.3168C237.716 98.392 237.915 98.5196 238.077 98.6888C238.238 98.8581 238.356 99.0639 238.421 99.2888C238.47 99.4396 238.452 99.5124 238.263 99.5098C237.182 99.5046 236.097 99.5072 234.987 99.5072Z" fill="white"/>
<path d="M224.147 79.0237C224.147 79.0237 223.922 80.1231 224.199 80.9314C224.476 81.7398 225.666 81.0692 225.666 81.0692L225.925 78.6547L224.147 79.0237Z" fill="white"/>
<path d="M224.152 76.1647C224.152 76.1647 224.509 77.0224 223.847 80.3362C223.184 83.65 222.612 79.2966 222.612 79.2966L222.77 77.1861L224.152 76.1647Z" fill="white"/>
<path d="M73.7013 113.201C72.1895 113.201 70.9596 111.356 70.9596 109.088C70.9596 106.82 72.1895 104.975 73.7013 104.975C75.2131 104.975 76.443 106.82 76.443 109.088C76.443 111.356 75.2131 113.201 73.7013 113.201Z" fill="#FE6D73"/>
<path d="M98.1481 113.201C96.6363 113.201 95.4064 111.356 95.4064 109.088C95.4064 106.82 96.6363 104.975 98.1481 104.975C99.6598 104.975 100.89 106.82 100.89 109.088C100.89 111.356 99.6598 113.201 98.1481 113.201Z" fill="#FE6D73"/>
<path d="M98.9174 112.557C98.863 112.557 98.8094 112.544 98.761 112.519C98.7126 112.495 98.6708 112.459 98.6391 112.414C98.6074 112.37 98.5866 112.319 98.5785 112.265C98.5704 112.212 98.5753 112.157 98.5926 112.105C99.2476 110.157 99.4446 108.085 99.1684 106.048C98.8922 104.012 98.1501 102.067 96.9999 100.364C95.8496 98.661 94.3222 97.2463 92.5364 96.2297C90.7505 95.213 88.7542 94.6219 86.7028 94.5022C84.6513 94.3825 82.5998 94.7375 80.7079 95.5395C78.8159 96.3416 77.1343 97.5691 75.7939 99.1267C74.4534 100.684 73.4902 102.53 72.979 104.52C72.4678 106.511 72.4225 108.592 72.8465 110.603C72.865 110.692 72.8475 110.784 72.7979 110.86C72.7483 110.936 72.6705 110.989 72.5817 111.008C72.4929 111.027 72.4003 111.01 72.3242 110.96C72.2481 110.911 72.1948 110.833 72.1758 110.744C71.7297 108.63 71.7771 106.442 72.3144 104.349C72.8517 102.256 73.8643 100.316 75.2736 98.6779C76.6829 97.0402 78.4508 95.7495 80.4401 94.9062C82.4293 94.0629 84.5862 93.6897 86.7432 93.8156C88.9001 93.9415 90.9989 94.5631 92.8766 95.6321C94.7542 96.7011 96.36 98.1887 97.5692 99.9793C98.7784 101.77 99.5583 103.815 99.8485 105.956C100.139 108.097 99.9311 110.276 99.2421 112.324C99.2192 112.392 99.1755 112.451 99.1173 112.493C99.059 112.535 98.9891 112.557 98.9174 112.557Z" fill="#FE6D73"/>
</g>
<defs>
<clipPath id="clip0_1017_1249">
<rect width="287" height="243" fill="white"/>
</clipPath>
</defs>
</svg>
