<svg width="241" height="153" viewBox="0 0 241 153" fill="none" xmlns="http://www.w3.org/2000/svg">
<path d="M120.372 152.905H9.63219C4.87219 152.905 1.46217 150.155 0.732169 145.715C0.64849 145.122 0.615062 144.523 0.632193 143.925V75.6045C0.632193 70.0745 4.15221 66.6045 9.71221 66.6045H231.312C236.882 66.6045 240.372 70.0845 240.372 75.6045V143.765C240.372 149.385 236.892 152.835 231.232 152.835L120.372 152.905ZM123.562 113.815C123.612 113.185 123.612 112.815 123.662 112.545L128.942 79.8445C129.022 79.6003 129.039 79.3395 128.989 79.0871C128.94 78.8348 128.826 78.5995 128.659 78.4037C128.493 78.2079 128.279 78.0582 128.037 77.9691C127.796 77.8799 127.536 77.8542 127.282 77.8945C122.892 77.8945 118.492 77.8945 114.102 77.8945C113.282 77.8945 113.012 78.1645 112.902 78.8945C112.432 82.1345 111.902 85.3645 111.402 88.5945C109.929 98.0079 108.452 107.421 106.972 116.835L103.462 139.285C103.392 139.521 103.383 139.772 103.434 140.014C103.485 140.255 103.595 140.48 103.755 140.669C103.914 140.857 104.118 141.003 104.348 141.093C104.578 141.183 104.827 141.214 105.072 141.185C109.502 141.185 113.932 141.185 118.372 141.185C119.002 141.185 119.242 141.035 119.372 140.355C119.792 137.355 120.292 134.445 120.772 131.495L121.862 124.755C122.412 125.045 122.502 125.495 122.692 125.865C125.292 130.665 127.876 135.475 130.442 140.295C130.551 140.583 130.752 140.828 131.014 140.991C131.276 141.154 131.585 141.225 131.892 141.195C137.092 141.195 142.282 141.195 147.472 141.195C147.76 141.242 148.055 141.195 148.314 141.062C148.574 140.929 148.783 140.716 148.912 140.455C149.063 140.208 149.131 139.919 149.106 139.631C149.081 139.343 148.964 139.071 148.772 138.855C144.922 132.855 141.102 126.855 137.232 120.855C137.112 120.732 137.02 120.585 136.963 120.423C136.906 120.261 136.885 120.088 136.903 119.917C136.92 119.746 136.974 119.582 137.062 119.434C137.15 119.287 137.27 119.161 137.412 119.065C143.272 113.295 149.092 107.475 154.932 101.685C155.186 101.506 155.367 101.242 155.441 100.94C155.514 100.638 155.476 100.32 155.332 100.045C155.042 99.3145 154.612 99.2545 153.962 99.2545C148.962 99.2545 143.962 99.3545 138.962 99.2545C138.208 99.2036 137.453 99.3425 136.767 99.6587C136.08 99.975 135.484 100.458 135.032 101.065C131.352 105.175 127.542 109.325 123.562 113.765V113.815ZM180.762 124.595C185.402 124.595 190.032 124.595 194.672 124.595C195.432 124.595 195.752 124.465 195.862 123.595C196.199 121.26 196.256 118.893 196.032 116.545C195.032 108.225 190.822 102.295 182.892 99.2545C179.563 98.0791 176.016 97.649 172.502 97.9945C164.502 98.5645 158.122 101.995 153.872 108.925C150.562 114.295 149.872 120.245 150.812 126.355C151.812 133.205 155.402 138.255 161.892 140.995C165.892 142.548 170.201 143.141 174.472 142.725C180.089 142.522 185.474 140.437 189.762 136.805C190.942 135.805 190.992 135.015 189.902 133.935C187.962 131.975 186.019 130.021 184.072 128.075C182.382 126.375 182.382 126.375 180.572 127.865C178.042 129.955 175.262 131.425 171.862 131.245C168.182 131.055 166.192 129.245 165.802 125.735C165.712 124.925 165.802 124.555 166.802 124.565C171.462 124.625 176.102 124.595 180.762 124.595ZM65.3122 121.475C65.2908 123.058 65.4012 124.64 65.6422 126.205C67.1022 133.955 71.3622 139.395 79.0122 141.715C84.8422 143.485 90.6222 142.515 96.2822 140.605C96.8822 140.405 96.9122 139.935 96.9822 139.475C97.6488 135.541 98.2922 131.608 98.9122 127.675C99.0022 127.075 99.0622 126.575 98.3522 126.175C98.1059 125.992 97.8041 125.901 97.498 125.915C97.1919 125.93 96.9001 126.05 96.6722 126.255C94.4657 127.947 91.7628 128.864 88.9822 128.865C85.3922 128.815 82.8522 126.785 82.2022 123.465C81.9821 122.083 81.9821 120.676 82.2022 119.295C82.3146 118.058 82.6855 116.86 83.2908 115.776C83.8962 114.692 84.7226 113.748 85.7163 113.004C86.71 112.26 87.849 111.733 89.0593 111.458C90.2697 111.182 91.5244 111.164 92.7422 111.405C94.9982 111.939 97.032 113.163 98.5622 114.905C98.7588 115.117 99.0171 115.262 99.3006 115.319C99.5841 115.377 99.8785 115.344 100.142 115.225C100.812 115.055 100.962 114.615 101.062 114.025C101.592 110.595 102.062 107.165 102.712 103.755C102.863 103.256 102.833 102.72 102.626 102.242C102.419 101.764 102.049 101.375 101.582 101.145C94.4222 96.4445 83.0322 96.6045 75.4822 101.705C68.3622 106.465 65.3222 113.385 65.2822 121.475H65.3122ZM40.3122 111.415C41.4722 111.415 42.4322 111.415 43.3922 111.415C43.9222 111.415 44.1922 111.275 44.2722 110.725C44.7622 107.495 45.2722 104.265 45.7622 101.035C45.9422 99.8245 45.3222 99.1645 44.1122 99.1545C42.9022 99.1445 41.5422 99.0745 40.2722 99.1545C39.0022 99.2345 38.8722 98.8745 39.0722 97.7845C39.5722 95.0445 39.9922 92.2845 40.4422 89.5245C40.6822 88.0245 40.1322 87.3845 38.5822 87.3845C34.2322 87.3845 29.8722 87.3845 25.5222 87.3845C24.8222 87.3845 24.5222 87.5745 24.4522 88.2845C23.9922 91.6045 23.4522 94.9145 23.0022 98.2245C22.9022 98.8945 22.6922 99.2245 22.0022 99.1645C20.3222 99.1045 18.6422 99.1645 17.0022 99.1645C16.4022 99.1645 16.2022 99.3545 16.1122 99.9545C15.6522 103.155 15.1122 106.345 14.6422 109.535C14.5771 109.771 14.5707 110.019 14.6237 110.258C14.6767 110.497 14.7875 110.72 14.9463 110.906C15.1051 111.093 15.3071 111.237 15.5348 111.328C15.7624 111.418 16.0087 111.451 16.2522 111.425C17.4922 111.425 18.7322 111.485 19.9722 111.425C20.9122 111.365 20.9722 111.705 20.8322 112.525C19.3922 121.411 17.9789 130.308 16.5922 139.215C16.3922 140.475 17.0022 141.155 18.2722 141.155C22.6222 141.155 26.9722 141.155 31.3322 141.155C32.1222 141.155 32.4022 140.965 32.5322 140.155C33.8222 131.765 35.1622 123.385 36.5322 114.995C36.7122 113.855 36.5322 112.355 37.1922 111.665C37.8522 110.975 39.2622 111.535 40.2422 111.415H40.3122ZM222.512 111.415C223.512 111.415 224.432 111.415 225.382 111.415C225.942 111.415 226.162 111.215 226.242 110.695C226.732 107.465 227.242 104.235 227.722 101.005C227.892 99.8145 227.262 99.1645 226.032 99.1545C224.802 99.1445 223.312 99.0745 221.962 99.1545C220.962 99.2345 220.872 98.8145 220.962 97.9945C221.452 95.1645 221.902 92.3345 222.352 89.4945C222.582 88.0345 222.042 87.3845 220.582 87.3845C216.222 87.3845 211.872 87.3845 207.522 87.3845C206.692 87.3845 206.452 87.6445 206.342 88.4345C205.902 91.7145 205.342 94.9845 204.912 98.2645C204.812 98.9545 204.542 99.1845 203.832 99.1645C202.202 99.1045 200.562 99.1645 198.922 99.1645C198.292 99.1645 198.032 99.3045 197.922 99.9945C197.482 103.155 196.922 106.295 196.472 109.445C196.282 110.705 196.862 111.445 198.112 111.445C199.362 111.445 200.512 111.505 201.702 111.445C202.702 111.375 202.792 111.655 202.642 112.575C201.202 121.421 199.795 130.278 198.422 139.145C198.202 140.555 198.772 141.145 200.242 141.145C204.472 141.145 208.712 141.145 212.942 141.145C213.942 141.145 214.262 140.825 214.412 139.875C215.772 131.005 217.182 122.145 218.552 113.285C218.842 111.405 218.812 111.405 220.652 111.405L222.512 111.415ZM55.3222 99.1645H49.3222C47.6222 99.1645 47.6522 99.1645 47.3922 100.825C46.6422 105.665 45.8722 110.515 45.1122 115.355C43.8655 123.315 42.6222 131.271 41.3822 139.225C41.3102 139.461 41.2985 139.711 41.348 139.953C41.3976 140.195 41.5068 140.421 41.6658 140.609C41.8249 140.798 42.0286 140.944 42.2585 141.034C42.4885 141.124 42.7372 141.155 42.9822 141.125C47.4222 141.125 51.8522 141.125 56.2922 141.125C57.1122 141.125 57.3422 140.865 57.4622 140.125C58.4622 133.265 59.6222 126.415 60.7122 119.565C61.6922 113.425 62.6655 107.281 63.6322 101.135C63.8322 99.8945 63.2022 99.2045 61.9122 99.1945L55.3222 99.1645ZM57.1822 79.7545C56.0637 79.7373 54.9528 79.9421 53.914 80.3571C52.8752 80.772 51.9289 81.3889 51.1301 82.1719C50.3312 82.955 49.6956 83.8887 49.2599 84.919C48.8243 85.9494 48.5974 87.0559 48.5922 88.1745C48.5736 89.3024 48.7801 90.4226 49.1998 91.4697C49.6195 92.5167 50.2439 93.4695 51.0364 94.2722C51.8289 95.075 52.7736 95.7115 53.8151 96.1446C54.8567 96.5777 55.9742 96.7987 57.1022 96.7945C58.2404 96.8186 59.3717 96.6143 60.4296 96.1938C61.4875 95.7733 62.4504 95.1451 63.2614 94.3462C64.0724 93.5473 64.7151 92.594 65.1515 91.5425C65.5879 90.4911 65.8091 89.3629 65.8022 88.2245C65.8204 87.0945 65.6088 85.9725 65.1802 84.9267C64.7515 83.8809 64.1148 82.9331 63.3086 82.141C62.5024 81.3489 61.5436 80.7288 60.4905 80.3186C59.4373 79.9083 58.3118 79.7164 57.1822 79.7545V79.7545Z" fill="white"/>
<path d="M129.592 38.5445C128.672 44.3845 127.732 50.2145 126.852 56.0645C126.702 57.0645 126.442 57.3945 125.382 57.3745C121.672 57.2945 117.952 57.3745 114.242 57.3745C112.762 57.3745 112.372 56.9445 112.592 55.5045C113.572 49.1579 114.572 42.8245 115.592 36.5045C115.642 36.1845 115.692 35.8745 115.722 35.5545C116.032 31.4845 113.622 29.6145 109.722 30.8745C108.926 31.1507 108.199 31.597 107.593 32.1824C106.987 32.7679 106.516 33.4784 106.212 34.2645C105.203 36.786 104.563 39.4401 104.312 42.1445C103.582 46.9145 102.842 51.6945 102.152 56.4745C102.042 57.2445 101.732 57.4745 100.992 57.4245C97.2022 57.4245 93.4022 57.4245 89.6122 57.4245C88.3522 57.4245 87.9222 56.8945 88.1222 55.6345C88.4622 53.5245 88.7922 51.4045 89.1222 49.2045C88.9422 49.3145 88.8122 49.3545 88.7622 49.4345C85.5122 54.7045 80.5921 57.3645 74.6721 58.4345C68.3321 59.5345 62.2521 58.9345 56.6721 55.4345C54.3267 53.9068 52.2148 52.0475 50.4022 49.9145C50.3083 49.831 50.2332 49.7286 50.1817 49.614C50.1303 49.4994 50.1037 49.3752 50.1037 49.2495C50.1037 49.1239 50.1303 48.9997 50.1817 48.8851C50.2332 48.7705 50.3083 48.668 50.4022 48.5845C52.6322 45.4145 54.8322 42.2245 57.0522 39.0545C57.1488 38.8449 57.2996 38.6648 57.4889 38.5327C57.6783 38.4006 57.8994 38.3214 58.1295 38.303C58.3596 38.2847 58.5905 38.328 58.7983 38.4284C59.0062 38.5289 59.1835 38.6828 59.3122 38.8745C60.8496 40.4995 62.6026 41.9059 64.5222 43.0545C66.4659 44.1929 68.6907 44.7612 70.9422 44.6945C72.0711 44.6999 73.1731 44.3501 74.0922 43.6945C74.4672 43.446 74.7832 43.1183 75.0179 42.7345C75.2527 42.3507 75.4005 41.9202 75.451 41.4731C75.5015 41.0261 75.4535 40.5734 75.3103 40.1469C75.1671 39.7204 74.9322 39.3305 74.6222 39.0045C73.3764 37.6989 71.9108 36.6225 70.2922 35.8245C68.5522 34.8245 66.7722 33.9545 65.0822 32.8845C57.2322 27.9345 55.0822 19.7945 59.7722 11.6745C63.4122 5.31452 69.2521 2.57454 76.4221 2.41454C82.6009 2.30505 88.5997 4.4971 93.2522 8.56453C93.7422 8.97453 93.8322 9.26452 93.4922 9.83452C91.6322 12.9545 89.8322 16.1145 88.0022 19.2445C87.3422 20.3645 86.7022 20.4845 85.7022 19.6845C84.0166 18.2101 82.1014 17.0211 80.0322 16.1645C78.66 15.5613 77.1118 15.4936 75.6922 15.9745C73.0122 16.9745 72.6022 19.4045 74.8122 21.1945C76.0585 22.1397 77.3989 22.954 78.8122 23.6245C80.7341 24.603 82.5943 25.6984 84.3822 26.9045C87.6022 29.1045 90.1322 31.8245 90.9322 35.9045C91.5922 35.5745 91.4422 35.0145 91.5122 34.6145C93.2722 23.6945 95.0121 12.7745 96.7321 1.85454C96.8621 1.02454 97.1022 0.714516 97.9922 0.734516C101.702 0.784516 105.422 0.734516 109.132 0.734516C110.552 0.734516 110.942 1.25452 110.702 2.73452C109.602 9.34118 108.509 15.9545 107.422 22.5745C107.422 22.7545 107.422 22.9445 107.352 23.3445C108.032 22.7845 108.572 22.3445 109.132 21.9145C111.097 20.3431 113.437 19.3117 115.922 18.9223C118.408 18.533 120.951 18.7991 123.302 19.6945C127.952 21.2545 130.102 24.8745 130.472 29.6245C130.562 30.7345 130.472 31.8645 130.472 32.9745C130.411 33.0395 130.377 33.1253 130.377 33.2145C130.377 33.3037 130.411 33.3896 130.472 33.4545L130.292 34.8845C129.922 36.0742 129.687 37.302 129.592 38.5445Z" fill="white"/>
<path d="M191.012 22.7245C191.472 22.7245 191.592 22.3945 191.812 22.1945C193.207 20.897 194.884 19.9416 196.712 19.4036C198.539 18.8656 200.467 18.7598 202.342 19.0945C203.602 19.2945 203.922 19.8145 203.642 21.0945C203.362 22.3745 203.012 23.8645 202.642 25.5745C204.71 23.19 207.339 21.3582 210.292 20.2445C217.702 17.7145 224.942 17.7145 231.472 22.6445C233.486 24.1763 235.132 26.1382 236.292 28.3872C237.451 30.6362 238.093 33.1156 238.172 35.6445C238.28 37.4807 238.254 39.3223 238.092 41.1545C238.022 42.0845 237.722 42.4045 236.722 42.4045C228.612 42.3545 220.502 42.4045 212.402 42.3445C211.202 42.3445 211.002 42.6945 211.162 43.7645C211.228 45.0194 211.76 46.2045 212.653 47.0884C213.546 47.9723 214.737 48.4915 215.992 48.5445C219.212 48.9345 221.832 47.6445 224.202 45.6345C226.062 44.0645 226.072 44.0645 227.742 45.7845C229.412 47.5045 231.032 49.1545 232.672 50.8445C233.792 52.0045 233.762 52.5045 232.492 53.5645C227.632 57.6245 221.912 58.9445 215.732 58.7645C212.65 58.7469 209.607 58.0647 206.812 56.7645C201.272 54.0345 198.472 49.4145 197.722 43.4345C197.227 39.7392 197.569 35.9799 198.722 32.4345C198.902 31.8845 198.892 31.6945 198.252 31.5845C193.772 30.8445 190.802 32.5845 189.332 36.8745C188.222 40.1545 188.042 43.6145 187.462 46.9845C186.922 50.1345 186.462 53.2945 186.002 56.4545C185.892 57.1645 185.622 57.3645 184.922 57.3545C181.082 57.3545 177.252 57.3545 173.412 57.3545C172.282 57.3545 171.772 56.7945 171.932 55.7545C173.772 44.1745 175.602 32.5912 177.422 21.0045C177.562 20.0845 177.882 19.8445 178.772 19.8545C182.252 19.9145 185.772 19.8545 189.202 19.8545C191.072 19.8545 191.362 20.1945 191.082 22.0345C191.032 22.2645 191.032 22.4945 191.012 22.7245ZM218.492 33.3945C220.202 33.3945 221.922 33.3445 223.632 33.3945C224.712 33.3945 224.732 33.0345 224.402 32.2145C224.143 31.521 223.734 30.893 223.205 30.3746C222.677 29.8562 222.041 29.4602 221.342 29.2145C219.719 28.6725 217.957 28.726 216.37 29.3655C214.783 30.005 213.476 31.1887 212.682 32.7045C212.402 33.2745 212.542 33.3945 213.102 33.3945C214.902 33.3845 216.692 33.3945 218.492 33.3945V33.3945Z" fill="white"/>
<path d="M30.7622 17.4845C32.7022 17.4845 34.6922 17.4845 36.6822 17.4845C37.3822 17.4845 37.3822 16.9245 37.5322 16.4845C38.9822 12.5445 40.4222 8.61453 41.8222 4.65453C41.8854 4.33552 42.0695 4.05331 42.336 3.86693C42.6025 3.68056 42.9308 3.60445 43.2522 3.65453C45.7722 3.72453 48.2522 3.65453 50.8022 3.65453C52.0822 3.65453 52.5722 4.37454 52.1322 5.57454C50.8322 9.21454 49.5422 12.8645 48.1922 16.4945C47.8822 17.3345 48.0522 17.4945 48.9022 17.4945C51.0922 17.4945 53.2922 17.4945 55.4922 17.4945C56.7322 17.4945 57.2122 18.1845 56.7922 19.3345C55.9122 21.7745 55.0022 24.2045 54.1422 26.6445C54.089 26.8922 53.9438 27.1105 53.7359 27.2553C53.528 27.4001 53.273 27.4606 53.0222 27.4245C50.4222 27.4245 47.8222 27.4245 45.2222 27.4245C44.6522 27.4245 44.2222 27.4945 44.0522 28.1345C43.5122 29.8045 42.9222 31.4645 42.3022 33.1345C42.0122 33.8845 42.3022 33.9345 42.9322 33.9245C45.2522 33.9245 47.5722 33.9245 49.9322 33.9245C51.2022 33.9245 51.6922 34.6545 51.2622 35.8545C50.4222 38.1745 49.5422 40.4945 48.7722 42.8545C48.6933 43.1893 48.4877 43.4804 48.1987 43.6669C47.9097 43.8533 47.5597 43.9206 47.2222 43.8545C44.6722 43.7945 42.1122 43.8545 39.5522 43.8545C39.2639 43.8104 38.9697 43.8794 38.7312 44.0471C38.4926 44.2149 38.3282 44.4683 38.2722 44.7545C36.8722 48.7545 35.3922 52.7545 34.0022 56.8245C33.9317 57.1877 33.7214 57.5087 33.4165 57.7182C33.1115 57.9277 32.7365 58.009 32.3722 57.9445C29.9422 57.8745 27.5022 57.9445 25.0622 57.9445C23.6822 57.9445 23.2222 57.2745 23.6822 55.9445C24.9622 52.2945 26.2322 48.6345 27.5522 45.0045C27.8522 44.1745 27.8922 43.7945 26.8022 43.8645C25.3234 43.9495 23.8409 43.9495 22.3622 43.8645C22.2006 43.8342 22.0347 43.8359 21.8738 43.8698C21.713 43.9036 21.5604 43.9688 21.4248 44.0617C21.2892 44.1546 21.1732 44.2733 21.0835 44.4111C20.9939 44.5488 20.9322 44.7029 20.9022 44.8645C19.5222 48.8645 18.0522 52.8645 16.6722 56.8645C16.3922 57.6545 16.0822 58.0145 15.1722 57.9845C12.6922 57.9045 10.1722 57.9845 7.74216 57.9845C6.36216 57.9845 5.90215 57.3145 6.36215 55.9845C7.66215 52.2945 8.9422 48.6045 10.2822 44.9245C10.5622 44.1445 10.5022 43.9245 9.59219 43.9245C7.36219 43.9845 5.12217 43.9245 2.88217 43.9245C1.59217 43.9245 1.10221 43.2145 1.54221 42.0345C2.42221 39.6345 3.33215 37.2545 4.17215 34.8445C4.19972 34.7014 4.25523 34.5651 4.33548 34.4434C4.41574 34.3217 4.51921 34.217 4.63992 34.1353C4.76064 34.0536 4.89623 33.9964 5.03903 33.9671C5.18183 33.9378 5.32906 33.9369 5.4722 33.9645C8.0222 33.9645 10.5822 33.9645 13.1422 33.9645C13.4309 34.0144 13.7276 33.9491 13.9688 33.7828C14.2099 33.6164 14.3763 33.3621 14.4322 33.0745C14.9722 31.4345 15.5622 29.8245 16.1722 28.2245C16.4122 27.6045 16.2722 27.4645 15.6422 27.4745C13.2422 27.4745 10.8522 27.4745 8.45218 27.4745C7.06218 27.4745 6.60218 26.8145 7.08218 25.4745C7.95218 23.1145 8.84215 20.7745 9.67215 18.3945C9.72804 18.1069 9.89444 17.8527 10.1356 17.6863C10.3767 17.5199 10.6735 17.4547 10.9622 17.5045C13.5622 17.5545 16.1622 17.5045 18.7522 17.5545C19.1162 17.6097 19.4874 17.5203 19.7864 17.3054C20.0854 17.0905 20.2885 16.7672 20.3522 16.4045C21.6922 12.5945 23.1322 8.83453 24.4322 5.02453C24.4713 4.80343 24.5549 4.59258 24.6778 4.40471C24.8008 4.21685 24.9606 4.05587 25.1476 3.93154C25.3345 3.80721 25.5448 3.7221 25.7656 3.68136C25.9864 3.64062 26.2131 3.64512 26.4322 3.69454C28.7822 3.78454 31.1422 3.69454 33.5022 3.69454C34.8722 3.69454 35.3422 4.37454 34.8722 5.69454C33.5722 9.33454 32.2622 12.9745 30.9722 16.6245C30.7622 16.8445 30.5622 17.0845 30.7622 17.4845ZM27.9622 33.9545C28.8822 33.9545 29.8022 33.9545 30.7122 33.9545C30.944 33.9989 31.184 33.9503 31.3804 33.8194C31.5768 33.6885 31.7139 33.4856 31.7622 33.2545C32.3422 31.5545 32.9122 29.8545 33.5622 28.1945C33.8922 27.3745 33.5622 27.3445 32.9022 27.3545C31.1522 27.3545 29.3922 27.3545 27.6422 27.3545C27.4098 27.3182 27.1723 27.3712 26.9775 27.503C26.7827 27.6347 26.645 27.8354 26.5922 28.0645C26.0122 29.7645 25.4222 31.4545 24.7822 33.1245C24.5422 33.7545 24.6222 33.9945 25.3322 33.9545C26.1822 33.9045 27.0622 33.9545 27.9322 33.9545H27.9622Z" fill="white"/>
<path d="M130.562 34.7245C131.598 29.7064 134.446 25.2457 138.562 22.1945C140.943 20.3496 143.769 19.1654 146.753 18.7616C149.738 18.3578 152.777 18.7486 155.562 19.8945C157.596 20.791 159.411 22.1182 160.882 23.7845C161.082 22.5845 161.282 21.5845 161.412 20.5845C161.482 20.0345 161.692 19.8445 162.242 19.8545C166.042 19.8545 169.832 19.8545 173.632 19.8545C174.632 19.8545 175.082 20.4945 174.922 21.4945C173.092 33.0845 171.232 44.6545 169.442 56.2445C169.292 57.2445 168.892 57.3545 168.062 57.3445C164.672 57.3445 161.272 57.3445 157.882 57.3445C156.192 57.3445 155.882 56.9645 156.082 55.2545C156.082 54.9845 156.262 54.7145 156.082 54.4345C155.642 54.4845 155.432 54.8645 155.082 55.0945C153.314 56.5776 151.244 57.6565 149.016 58.2559C146.788 58.8553 144.455 58.9606 142.182 58.5645C136.182 57.5645 132.722 53.6445 130.772 48.1545C130.17 46.291 129.834 44.3519 129.772 42.3945C129.902 41.7611 129.902 41.1079 129.772 40.4745L129.862 38.5545C130.162 37.2745 130.362 36.0045 130.562 34.7245ZM144.242 39.3345C144.242 43.0545 145.852 45.5245 148.722 46.3345C150.217 46.8195 151.827 46.8174 153.32 46.3286C154.814 45.8398 156.114 44.8894 157.032 43.6145C157.917 42.4487 158.534 41.103 158.842 39.6723C159.15 38.2416 159.139 36.7608 158.812 35.3345C158.603 34.1609 158.036 33.0807 157.189 32.2412C156.343 31.4018 155.258 30.8442 154.082 30.6445C152.459 30.2436 150.749 30.3899 149.217 31.0608C147.685 31.7316 146.418 32.8895 145.612 34.3545C144.743 35.8724 144.271 37.5855 144.242 39.3345V39.3345Z" fill="white"/>
<path d="M167.342 114.505C168.062 112.645 169.469 111.132 171.273 110.28C173.076 109.427 175.138 109.3 177.032 109.925C177.886 110.214 178.657 110.705 179.28 111.356C179.904 112.007 180.36 112.799 180.612 113.665C180.802 114.245 180.732 114.525 180.002 114.515C175.822 114.495 171.632 114.505 167.342 114.505Z" fill="white"/>
<path d="M130.012 38.1845C130.012 38.1845 129.142 42.4145 130.212 45.5245C131.282 48.6345 135.882 46.0545 135.882 46.0545L136.882 36.7645L130.012 38.1845Z" fill="white"/>
<path d="M130.032 27.1845C130.032 27.1845 131.412 30.4845 128.852 43.2345C126.292 55.9845 124.082 39.2345 124.082 39.2345L124.692 31.1145L130.032 27.1845Z" fill="white"/>
</svg>
