<svg width="376" height="168" viewBox="0 0 376 168" fill="none" xmlns="http://www.w3.org/2000/svg">
<mask id="mask0_54_112" style="mask-type:alpha" maskUnits="userSpaceOnUse" x="0" y="0" width="376" height="168">
<rect x="0.5" y="0.800781" width="375" height="166.349" fill="#F9DA02"/>
</mask>
<g mask="url(#mask0_54_112)">
<rect x="0.5" y="0.800781" width="375" height="166.349" fill="#EAEAEA"/>
<path fill-rule="evenodd" clip-rule="evenodd" d="M381.837 126.32C403.235 172.903 391.812 224.21 374.011 272.283C349.008 339.804 334.766 434.018 263.674 445.424C192.429 456.855 155.517 366.178 104.06 315.595C54.9153 267.284 -28.6185 233.319 -21.861 164.737C-15.126 96.3837 67.2301 67.8265 130.99 42.2882C176.526 24.049 224.252 31.9467 270.765 47.5282C316.05 62.6984 361.901 82.9221 381.837 126.32Z" fill="#F6F6F6"/>
<path d="M139.756 77.0327H138.452V41.2684C138.452 35.7786 136.272 30.5136 132.39 26.6318C128.508 22.7499 123.243 20.5691 117.753 20.5691H41.9799C39.2616 20.569 36.57 21.1044 34.0586 22.1446C31.5472 23.1848 29.2653 24.7095 27.3432 26.6315C25.4211 28.5536 23.8963 30.8355 22.856 33.3468C21.8158 35.8581 21.2803 38.5498 21.2803 41.268V237.474C21.2803 240.192 21.8157 242.884 22.8559 245.395C23.8962 247.906 25.4209 250.188 27.343 252.11C29.2651 254.033 31.5469 255.557 34.0583 256.598C36.5696 257.638 39.2613 258.173 41.9796 258.173H117.752C123.242 258.173 128.507 255.992 132.389 252.11C136.271 248.229 138.451 242.964 138.451 237.474V102.49H139.755L139.756 77.0327Z" fill="#325B6C"/>
<path d="M134.231 40.882V239.86C134.23 244.022 132.577 248.014 129.634 250.957C126.691 253.901 122.7 255.555 118.537 255.557H41.2098C37.0459 255.557 33.0522 253.904 30.1072 250.96C27.1622 248.016 25.5071 244.024 25.5059 239.86V40.882C25.5071 36.7182 27.1622 32.7254 30.107 29.7818C33.0519 26.8382 37.0453 25.1849 41.2091 25.1854H50.5894C50.1288 26.3181 49.9535 27.5466 50.0789 28.7628C50.2043 29.9791 50.6265 31.146 51.3084 32.1609C51.9904 33.1758 52.9112 34.0076 53.99 34.5833C55.0687 35.1589 56.2723 35.4608 57.4951 35.4624H101.581C102.804 35.4608 104.007 35.1589 105.086 34.5833C106.165 34.0076 107.086 33.1758 107.768 32.1609C108.449 31.146 108.872 29.9791 108.997 28.7628C109.122 27.5466 108.947 26.3181 108.487 25.1854H118.534C122.697 25.1861 126.688 26.8397 129.632 29.7826C132.575 32.7254 134.23 36.7167 134.231 40.879V40.882Z" fill="white"/>
<path d="M122.498 46.1754H37.376V87.4377H122.498V46.1754Z" fill="white"/>
<path d="M51.2053 65.9896C54.6058 65.9896 57.3624 63.2329 57.3624 59.8324C57.3624 56.4319 54.6058 53.6752 51.2053 53.6752C47.8048 53.6752 45.0481 56.4319 45.0481 59.8324C45.0481 63.2329 47.8048 65.9896 51.2053 65.9896Z" fill="#325B6C"/>
<path d="M51.2051 59.4008C51.0855 59.4008 50.9863 59.3016 50.9863 59.182V58.2108C50.9863 58.0912 51.0855 57.992 51.2051 57.992C51.3247 57.992 51.4238 58.0912 51.4238 58.2108V59.182C51.4238 59.3045 51.3247 59.4008 51.2051 59.4008Z" fill="white"/>
<path d="M51.2108 62.2678C50.4583 62.2678 49.7087 62.1483 48.9942 61.9091C48.7287 61.8216 48.5275 61.632 48.44 61.3928C48.3525 61.1537 48.3817 60.8795 48.5246 60.6403L48.895 60.022C48.9767 59.8849 49.0496 59.6283 49.0496 59.4678V58.8553C49.0496 57.6624 50.0179 56.6941 51.2108 56.6941C52.4037 56.6941 53.3721 57.6624 53.3721 58.8553V59.4678C53.3721 59.6253 53.445 59.8849 53.5267 60.022L53.8971 60.6403C54.0342 60.8678 54.0575 61.1391 53.9671 61.387C53.8767 61.6349 53.6783 61.8245 53.4275 61.9091C52.7129 62.1512 51.9633 62.2678 51.2108 62.2678ZM51.2108 57.1345C50.26 57.1345 49.4871 57.9074 49.4871 58.8583V59.4708C49.4871 59.707 49.3937 60.0483 49.2712 60.2495L48.9008 60.8708C48.825 60.9962 48.8075 61.1303 48.8512 61.247C48.895 61.3637 48.9942 61.4512 49.1342 61.4978C50.4758 61.9441 51.9517 61.9441 53.2933 61.4978C53.4187 61.457 53.515 61.3637 53.5587 61.2412C53.6054 61.1187 53.5908 60.9845 53.5237 60.8708L53.1533 60.2524C53.0308 60.0512 52.9375 59.7099 52.9375 59.4737V58.8612C52.9346 57.9074 52.1617 57.1345 51.2108 57.1345Z" fill="white"/>
<path d="M51.2051 63.0116C50.8931 63.0116 50.5868 62.8833 50.3651 62.6616C50.1435 62.4399 50.0151 62.1337 50.0151 61.8216H50.4526C50.4526 62.0199 50.5343 62.2124 50.6743 62.3524C50.8143 62.4924 51.0068 62.5741 51.2051 62.5741C51.6193 62.5741 51.9576 62.2358 51.9576 61.8216H52.3951C52.3951 62.4778 51.8614 63.0116 51.2051 63.0116Z" fill="white"/>
<path d="M65.4251 55.7276C65.1529 55.7276 64.8919 55.8357 64.6995 56.0282C64.507 56.2206 64.3989 56.4816 64.3989 56.7538C64.3989 57.026 64.507 57.287 64.6995 57.4794C64.8919 57.6719 65.1529 57.78 65.4251 57.78H113.803C114.075 57.7793 114.335 57.6709 114.527 57.4785C114.719 57.2861 114.826 57.0255 114.826 56.7538C114.826 56.4821 114.719 56.2214 114.527 56.0291C114.335 55.8367 114.075 55.7283 113.803 55.7276H65.4251Z" fill="#F6F6F6"/>
<path d="M65.4249 61.8848C65.2901 61.8843 65.1564 61.9104 65.0317 61.9617C64.9069 62.0129 64.7934 62.0882 64.6978 62.1833C64.6022 62.2784 64.5262 62.3915 64.4743 62.5159C64.4224 62.6404 64.3956 62.7739 64.3953 62.9088C64.395 63.0437 64.4213 63.1773 64.4727 63.302C64.524 63.4267 64.5995 63.54 64.6948 63.6355C64.79 63.731 64.9031 63.8068 65.0277 63.8586C65.1522 63.9103 65.2857 63.937 65.4206 63.9372H86.242C86.3768 63.9372 86.5102 63.9106 86.6347 63.859C86.7592 63.8075 86.8723 63.7319 86.9676 63.6366C87.0629 63.5413 87.1385 63.4282 87.1901 63.3037C87.2417 63.1792 87.2682 63.0457 87.2682 62.911C87.2682 62.7762 87.2417 62.6428 87.1901 62.5183C87.1385 62.3938 87.0629 62.2806 86.9676 62.1853C86.8723 62.09 86.7592 62.0145 86.6347 61.9629C86.5102 61.9113 86.3768 61.8848 86.242 61.8848H65.4249Z" fill="#F6F6F6"/>
<path d="M46.4822 71.7284C45.7016 71.7284 45.0664 72.1888 45.0664 72.7546C45.0664 73.3204 45.7016 73.7808 46.4822 73.7808H113.229C114.009 73.7808 114.644 73.3204 114.644 72.7546C114.644 72.1888 114.009 71.7284 113.229 71.7284H46.4822Z" fill="#F6F6F6"/>
<path d="M46.4822 77.8854C45.7016 77.8854 45.0664 78.3458 45.0664 78.9116C45.0664 79.4774 45.7016 79.9378 46.4822 79.9378H97.8645C98.6451 79.9378 99.2803 79.4774 99.2803 78.9116C99.2803 78.3458 98.6451 77.8854 97.8645 77.8854H46.4822Z" fill="#F6F6F6"/>
<path d="M123.364 88.3032H36.5112V45.3096H123.364V88.3032ZM38.2425 86.5719H121.633V47.0409H38.2425V86.5719Z" fill="#F6F6F6"/>
<path d="M123.035 95.2186H37.9131V136.481H123.035V95.2186Z" fill="white"/>
<path d="M51.7424 115.033C55.1429 115.033 57.8995 112.276 57.8995 108.876C57.8995 105.475 55.1429 102.718 51.7424 102.718C48.3419 102.718 45.5852 105.475 45.5852 108.876C45.5852 112.276 48.3419 115.033 51.7424 115.033Z" fill="#325B6C"/>
<path d="M51.7422 108.444C51.6226 108.444 51.5234 108.345 51.5234 108.225V107.254C51.5234 107.134 51.6226 107.035 51.7422 107.035C51.8618 107.035 51.9609 107.134 51.9609 107.254V108.225C51.9609 108.348 51.8618 108.444 51.7422 108.444Z" fill="white"/>
<path d="M51.7479 111.311C50.9954 111.311 50.2459 111.191 49.5313 110.952C49.2659 110.865 49.0646 110.675 48.9771 110.436C48.8896 110.197 48.9188 109.923 49.0617 109.684L49.4321 109.065C49.5138 108.928 49.5867 108.671 49.5867 108.511V107.899C49.5867 106.706 50.555 105.737 51.7479 105.737C52.9409 105.737 53.9092 106.706 53.9092 107.899V108.511C53.9092 108.669 53.9821 108.928 54.0638 109.065L54.4342 109.684C54.5713 109.911 54.5946 110.182 54.5042 110.43C54.4138 110.678 54.2154 110.868 53.9646 110.952C53.25 111.194 52.5004 111.311 51.7479 111.311ZM51.7479 106.178C50.7971 106.178 50.0242 106.951 50.0242 107.901V108.514C50.0242 108.75 49.9309 109.091 49.8084 109.293L49.4379 109.914C49.3621 110.039 49.3446 110.174 49.3884 110.29C49.4321 110.407 49.5313 110.494 49.6713 110.541C51.0129 110.987 52.4888 110.987 53.8304 110.541C53.9559 110.5 54.0521 110.407 54.0959 110.284C54.1425 110.162 54.1279 110.028 54.0609 109.914L53.6904 109.296C53.5679 109.094 53.4746 108.753 53.4746 108.517V107.904C53.4717 106.951 52.6988 106.178 51.7479 106.178Z" fill="white"/>
<path d="M51.7422 112.055C51.4302 112.055 51.1239 111.926 50.9022 111.705C50.6806 111.483 50.5522 111.177 50.5522 110.865H50.9897C50.9897 111.063 51.0714 111.256 51.2114 111.396C51.3514 111.536 51.5439 111.617 51.7422 111.617C52.1564 111.617 52.4947 111.279 52.4947 110.865H52.9322C52.9322 111.521 52.3985 112.055 51.7422 112.055Z" fill="white"/>
<path d="M65.9622 104.771C65.6901 104.771 65.429 104.879 65.2366 105.071C65.0441 105.264 64.936 105.525 64.936 105.797C64.936 106.069 65.0441 106.33 65.2366 106.523C65.429 106.715 65.6901 106.823 65.9622 106.823H114.34C114.612 106.823 114.872 106.714 115.064 106.522C115.256 106.329 115.364 106.069 115.364 105.797C115.364 105.525 115.256 105.265 115.064 105.072C114.872 104.88 114.612 104.771 114.34 104.771H65.9622Z" fill="#F6F6F6"/>
<path d="M65.962 110.928C65.8272 110.928 65.6935 110.954 65.5688 111.005C65.444 111.056 65.3306 111.131 65.2349 111.227C65.1393 111.322 65.0634 111.435 65.0114 111.559C64.9595 111.684 64.9327 111.817 64.9324 111.952C64.9321 112.087 64.9584 112.22 65.0098 112.345C65.0612 112.47 65.1366 112.583 65.2319 112.679C65.3271 112.774 65.4402 112.85 65.5648 112.902C65.6893 112.954 65.8228 112.98 65.9577 112.98H86.7791C86.9139 112.98 87.0473 112.954 87.1718 112.902C87.2963 112.851 87.4095 112.775 87.5047 112.68C87.6 112.585 87.6756 112.471 87.7272 112.347C87.7788 112.222 87.8053 112.089 87.8053 111.954C87.8053 111.819 87.7788 111.686 87.7272 111.561C87.6756 111.437 87.6 111.324 87.5047 111.229C87.4095 111.133 87.2963 111.058 87.1718 111.006C87.0473 110.955 86.9139 110.928 86.7791 110.928H65.962Z" fill="#F6F6F6"/>
<path d="M47.0193 120.772C46.2387 120.772 45.6035 121.232 45.6035 121.798C45.6035 122.364 46.2387 122.824 47.0193 122.824H113.766C114.546 122.824 115.182 122.364 115.182 121.798C115.182 121.232 114.546 120.772 113.766 120.772H47.0193Z" fill="#F6F6F6"/>
<path d="M47.0193 126.929C46.2387 126.929 45.6035 127.389 45.6035 127.955C45.6035 128.521 46.2387 128.981 47.0193 128.981H98.4016C99.1822 128.981 99.8174 128.521 99.8174 127.955C99.8174 127.389 99.1822 126.929 98.4016 126.929H47.0193Z" fill="#F6F6F6"/>
<path d="M123.901 137.346H37.0483V94.3528H123.901V137.346ZM38.7796 135.615H122.17V96.0841H38.7796V135.615Z" fill="#F6F6F6"/>
<path d="M123.035 147.443H37.9136V188.706H123.035V147.443Z" fill="white"/>
<path d="M51.7429 167.257C55.1434 167.257 57.9 164.501 57.9 161.1C57.9 157.7 55.1434 154.943 51.7429 154.943C48.3424 154.943 45.5857 157.7 45.5857 161.1C45.5857 164.501 48.3424 167.257 51.7429 167.257Z" fill="#325B6C"/>
<path d="M51.7427 160.669C51.6231 160.669 51.5239 160.569 51.5239 160.45V159.479C51.5239 159.359 51.6231 159.26 51.7427 159.26C51.8623 159.26 51.9614 159.359 51.9614 159.479V160.45C51.9614 160.572 51.8623 160.669 51.7427 160.669Z" fill="white"/>
<path d="M51.7484 163.536C50.9959 163.536 50.2463 163.416 49.5318 163.177C49.2663 163.089 49.0651 162.9 48.9776 162.661C48.8901 162.421 48.9193 162.147 49.0622 161.908L49.4326 161.29C49.5143 161.153 49.5872 160.896 49.5872 160.736V160.123C49.5872 158.93 50.5555 157.962 51.7484 157.962C52.9413 157.962 53.9097 158.93 53.9097 160.123V160.736C53.9097 160.893 53.9826 161.153 54.0643 161.29L54.4347 161.908C54.5718 162.136 54.5951 162.407 54.5047 162.655C54.4143 162.903 54.2159 163.092 53.9651 163.177C53.2505 163.419 52.5009 163.536 51.7484 163.536ZM51.7484 158.402C50.7976 158.402 50.0247 159.175 50.0247 160.126V160.739C50.0247 160.975 49.9313 161.316 49.8088 161.517L49.4384 162.139C49.3626 162.264 49.3451 162.398 49.3888 162.515C49.4326 162.631 49.5318 162.719 49.6718 162.766C51.0134 163.212 52.4893 163.212 53.8309 162.766C53.9563 162.725 54.0526 162.631 54.0963 162.509C54.143 162.386 54.1284 162.252 54.0613 162.139L53.6909 161.52C53.5684 161.319 53.4751 160.978 53.4751 160.741V160.129C53.4722 159.175 52.6993 158.402 51.7484 158.402Z" fill="white"/>
<path d="M51.7427 164.279C51.4307 164.279 51.1244 164.151 50.9027 163.929C50.6811 163.708 50.5527 163.401 50.5527 163.089H50.9902C50.9902 163.288 51.0719 163.48 51.2119 163.62C51.3519 163.76 51.5444 163.842 51.7427 163.842C52.1569 163.842 52.4952 163.504 52.4952 163.089H52.9327C52.9327 163.746 52.399 164.279 51.7427 164.279Z" fill="white"/>
<path d="M65.9627 156.995C65.6905 156.995 65.4295 157.104 65.2371 157.296C65.0446 157.488 64.9365 157.749 64.9365 158.022C64.9365 158.294 65.0446 158.555 65.2371 158.747C65.4295 158.94 65.6905 159.048 65.9627 159.048H114.34C114.612 159.047 114.873 158.939 115.064 158.746C115.256 158.554 115.364 158.293 115.364 158.022C115.364 157.75 115.256 157.489 115.064 157.297C114.873 157.105 114.612 156.996 114.34 156.995H65.9627Z" fill="#F6F6F6"/>
<path d="M65.9625 163.153C65.8277 163.152 65.694 163.178 65.5693 163.229C65.4445 163.281 65.331 163.356 65.2354 163.451C65.1398 163.546 65.0638 163.659 65.0119 163.784C64.96 163.908 64.9331 164.042 64.9329 164.177C64.9326 164.311 64.9589 164.445 65.0103 164.57C65.0616 164.694 65.1371 164.808 65.2324 164.903C65.3276 164.999 65.4407 165.075 65.5653 165.126C65.6898 165.178 65.8233 165.205 65.9582 165.205H86.7796C86.9144 165.205 87.0478 165.178 87.1723 165.127C87.2968 165.075 87.4099 165 87.5052 164.904C87.6005 164.809 87.6761 164.696 87.7277 164.571C87.7793 164.447 87.8058 164.314 87.8058 164.179C87.8058 164.044 87.7793 163.911 87.7277 163.786C87.6761 163.662 87.6005 163.548 87.5052 163.453C87.4099 163.358 87.2968 163.282 87.1723 163.231C87.0478 163.179 86.9144 163.153 86.7796 163.153H65.9625Z" fill="#F6F6F6"/>
<path d="M123.902 189.571H37.0488V146.577H123.902V189.571ZM38.7801 187.84H122.17V148.309H38.7801V187.84Z" fill="#F6F6F6"/>
<path fill-rule="evenodd" clip-rule="evenodd" d="M175.079 109.4L175.84 118.933L190.283 122.365L201.305 127.322L210.047 134.948L214.228 131.516L219.549 119.695L225.63 118.551L247.675 120.839L255.276 123.127L252.616 136.092L249.955 145.625L294.044 142.956L292.524 120.839L283.402 100.629L247.294 83.0886L220.309 86.5205L201.305 107.493L192.943 112.069L178.12 111.306" fill="#FE6D73"/>
<path d="M134.487 133.664C135.647 133.594 137.546 130.562 138.351 129.054L142.171 148.548H140.897C140.649 148.518 139.896 148.17 138.878 147.011C137.859 145.852 132.512 143.221 129.965 142.05L126.321 139.372C126.219 137.572 126.075 133.726 126.321 132.742C126.629 131.513 133.039 133.752 134.487 133.664Z" fill="#F6F6F6"/>
<path fill-rule="evenodd" clip-rule="evenodd" d="M356.873 21.7769C359.844 25.3878 355.467 30.4941 352.986 33.0137C351.782 34.237 350.783 35.6507 349.606 36.9044C348.443 38.1432 346.983 39.1183 345.938 40.3142C344.842 41.5702 343.576 42.9447 342.659 44.3577C342.079 45.2529 341.218 46.2527 340.929 47.2916C340.515 48.7855 340.861 47.9226 341.409 48.7673C341.968 49.6298 342.157 49.6796 342.347 50.882C342.531 52.0509 342.793 52.9062 343.424 53.9048C344.465 55.5497 345.588 57.0961 346.322 58.9147C347.297 61.3335 347.987 63.7892 348.764 66.2775C349.067 67.248 349.27 68.3595 349.759 69.2536C350.453 70.5237 350.551 70.4172 351.585 69.625C354.669 67.2606 357.789 64.7612 361.005 62.5077C362.847 61.2168 364.76 59.9528 366.704 58.8219C368.039 58.0457 370.906 56.6643 371.574 55.2235C372.459 53.313 371.081 51.5598 372.978 49.8005C374.214 48.6548 376.228 48.0196 377.838 47.7413C380.113 47.3482 382.627 47.9097 384.9 48.1131C387.197 48.3184 389.444 48.0948 391.698 47.6246C395.148 46.905 401.775 42.9231 404.01 47.7067C404.988 49.7997 404.327 52.119 404.143 54.2645C403.983 56.1343 403.435 58.1194 402.27 59.6575C400.938 61.4148 399.001 61.5068 396.985 61.9736C394.604 62.5244 392.161 62.7252 389.777 63.2627C388.603 63.5272 387.445 63.6561 386.239 63.7116C385.166 63.7614 383.619 63.3265 382.677 63.4638C381.784 63.5938 382.089 64.1575 381.462 64.5483C381.208 64.7068 380.69 64.5931 380.531 64.7209C380.095 65.0714 379.969 65.3766 379.651 66.0114C378.641 68.0281 377.114 69.9937 375.815 71.8412C374.722 73.3975 373.455 75.3031 372.169 76.6917C369.442 79.6363 366.794 82.8807 364.102 85.9576C362.733 87.523 361.091 89.1883 359.499 90.534C359.008 90.9495 358.016 91.3232 357.765 91.9048C357.407 92.7339 358.381 94.5585 358.608 95.3918C359.148 97.3731 359.222 99.4193 359.795 101.371C360.344 103.237 360.543 105.272 360.665 107.217C360.94 111.613 361.541 115.783 361.4 120.183C361.278 123.977 361.139 127.615 359.822 131.34C358.622 134.73 355.03 138.421 351.689 139.67C349.7 140.414 347.853 141.09 345.851 141.494C343.875 141.892 341.792 142.3 339.83 142.861C336.189 143.901 332.351 144.627 328.569 144.983C323.729 145.439 318.68 145.483 313.853 145.315C311.651 145.239 309.389 145.234 307.216 145.241C304.964 145.247 302.844 145.691 300.593 145.927C292.651 146.76 284.258 146.091 276.32 146.905C272.397 147.308 268.48 148.083 264.488 148.129C260.915 148.17 257.292 147.935 253.797 147.919C252.689 147.914 251.723 148.003 250.616 147.748C250.032 147.614 249.211 147.092 248.621 147.393C248.106 147.656 247.718 148.764 247.398 149.235C246.701 150.268 245.851 151.096 244.953 151.952C241.389 155.348 237.858 156.492 233.181 157.737C231.034 158.309 229.974 158.607 228.171 159.915C226.703 160.98 225.217 161.745 223.526 162.373C220.211 163.605 216.302 162.652 213.186 161.584C211.677 161.066 210.091 160.596 208.55 159.982C206.45 159.145 204.718 157.756 202.648 156.901C202.886 159.109 200.491 159.851 199.764 161.334C199.295 162.293 199.58 163.798 199.079 164.882C198.615 165.887 197.897 166.838 196.778 167.101C195.253 167.459 192.527 165.762 191.455 164.772C190.861 164.223 190.33 162.759 189.602 162.516C188.652 162.197 186.911 163.603 186.012 163.92C181.709 165.438 177.35 166.155 172.731 165.55C168.05 164.937 163.76 163.275 159.37 161.699C150.774 158.612 143.292 153.531 136.561 147.413C136.187 147.073 135.643 146.77 135.385 146.323C135.159 145.934 135.179 145.014 135.032 144.796C134.593 144.149 133.936 144.263 133.114 144.201C130.572 144.009 128.553 143.396 126.584 141.693C123.483 139.012 122.337 132.762 127.089 131.102C128.304 130.678 129.641 130.593 130.897 130.855C131.415 130.963 133.342 132.13 133.834 132.052C134.58 131.934 134.435 130.973 134.633 130.46C135.136 129.159 135.844 128.014 136.697 126.911C138.114 125.076 139.842 123.232 141.614 121.739C143.54 120.117 145.661 119.397 147.953 118.499C149.498 117.894 152.513 116.855 154.148 117.396C156.279 118.101 155.236 120.429 153.894 121.244C151.976 122.407 149.675 122.884 147.733 124.061C145.588 125.361 143.63 127.14 141.668 128.702C140.089 129.958 138.721 131.509 137.117 132.714C136.691 133.034 135.997 133.592 135.865 133.769C135.819 133.83 135.875 134.327 135.665 134.548C134.732 135.527 134.95 135.417 133.545 135.073C131.888 134.668 127.934 133.751 126.817 135.805C125.812 137.653 129.926 139.319 131.277 139.883C133.26 140.71 133.723 141.541 135.14 143.117C136.592 144.733 139.003 145.831 140.821 147.036C144.751 149.639 149.169 151.486 153.378 153.555C157.473 155.567 161.876 157.016 166.144 158.424C168.72 159.274 171.808 160.186 174.512 160.448C177.237 160.712 179.792 160.267 182.466 159.747C183.535 159.539 184.342 159.38 185.46 158.986C185.958 158.81 186.77 158.784 187.165 158.477C187.778 158.001 187.523 157.62 187.632 156.807C188.107 153.24 190.581 157.222 191.676 158.41C192.521 159.326 193.353 160.453 194.466 161.034C195.86 161.761 196.102 161.418 196.559 160.219C197.414 157.973 197.735 155.42 200.967 155.749C198.416 153.566 195.984 151.712 193.8 149.088C191.645 146.5 189.631 143.719 187.565 141.059C185.871 138.879 184.396 135.871 182.197 134.151C181.502 133.608 179.39 132.355 178.586 132.381C177.382 132.421 176.314 134.387 175.017 134.55C173.585 134.731 172.926 134.231 172.517 133.069C172.093 131.862 173.107 130.474 172.764 129.597C172.669 129.353 172.059 129.061 171.871 128.707C171.588 128.174 171.567 127.474 171.652 126.885C171.778 126.005 172.089 125.646 172.023 124.762C171.946 123.733 171.495 122.981 171.85 121.906C172.222 120.776 173.369 120.157 174.084 119.323C175.167 118.06 174.614 117.108 174.18 115.485C173.249 112.014 172.164 108.582 171.22 105.113C169.049 105.8 166.926 106.578 164.744 107.219C162.645 107.835 160.047 108.388 158.099 109.359C156.929 109.943 157.254 109.407 157.34 110.703C157.396 111.543 157.75 112.481 157.915 113.308C158.219 114.837 158.352 118.782 159.549 119.513C160.274 119.955 161.441 119.312 162.238 120.206C162.909 120.957 162.708 122.05 163.112 122.885C163.363 123.404 163.849 123.602 164.151 124.079C164.782 125.076 164.715 125.915 164.826 127.033C164.896 127.736 164.788 129.845 165.138 130.392C165.605 131.121 166.531 130.995 167.311 131.222C169.277 131.794 171.089 132.79 172.758 133.952C173.625 135.012 179.827 141.216 177.133 142.006C175.833 142.387 173.531 139.457 172.595 138.66C171.144 137.426 169.625 136.615 167.855 135.934C163.537 134.273 159.63 132.78 154.928 133.47C152.912 133.765 150.463 134.658 148.437 134.461C146.399 134.264 146.927 132.446 148.202 131.431C149.341 130.524 150.927 130.779 151.428 129.258C151.932 127.722 151.39 125.78 152.2 124.24C152.892 122.925 154.522 121.561 155.781 120.799C156.329 120.467 157.27 120.235 157.557 119.746C157.792 119.345 156.823 117.044 156.689 116.565C156.031 114.222 155.314 111.877 154.757 109.508C154.24 107.313 154.106 106.175 156.418 105.378C159.947 104.162 163.647 103.593 167.178 102.475C166.552 100.844 164.596 102.216 163.191 102.16C161.47 102.091 159.478 101.524 157.839 100.995C154.118 99.7945 151.587 96.8006 151.012 92.9399C150.885 92.093 151.284 90.3945 150.975 89.6457C150.684 88.9382 149.862 88.5942 149.261 88.0901C147.711 86.7916 146.339 85.0087 145.503 83.1636C144.665 81.3142 144.607 79.2368 145.094 77.2851C145.362 76.2097 145.513 76.0619 145.134 75.045C144.695 73.8689 143.979 72.8216 143.575 71.6127C142.912 69.633 142.55 67.4985 142.586 65.4078C142.627 63.0623 143.568 62.0101 144.191 59.9422C144.683 58.3099 144.012 56.0538 144.124 54.2424C144.268 51.9247 144.861 50.0628 145.885 47.9998C147.459 44.8302 149.951 41.4326 153.195 39.7706C153.836 39.4418 154.89 39.4224 155.463 39.0404C156.175 38.5656 156.231 37.8657 156.51 37.034C157.175 35.0505 158.005 33.4436 159.443 31.9273C164.106 27.0094 172.277 25.2676 178.83 25.6828C180.007 25.7576 181.128 26.3145 182.244 25.9872C183.017 25.7603 183.835 24.9552 184.632 24.6218C185.64 24.1998 186.65 23.9531 187.735 23.8452C189.878 23.6315 191.621 23.8573 193.595 24.5807C194.341 24.8541 195.055 25.1525 195.79 25.449C196.95 25.9177 196.884 25.6945 197.975 25.4771C200.149 25.0441 201.399 25.3646 203.325 26.2925C203.838 26.5396 204.651 26.7232 205.092 27.0695C205.717 27.5602 205.972 29.0515 206.668 29.3298C207.053 29.4845 208.247 28.9154 208.744 28.8345C209.622 28.6912 210.482 28.8174 211.355 28.8079C212.902 28.7911 214.537 28.8485 215.949 29.5799C217.013 30.1304 218.293 31.1925 219.209 31.8999C220.476 32.8784 221.268 34.7285 222.85 35.2409C223.47 35.4416 224.141 35.2386 224.773 35.4097C225.598 35.6324 226.39 36.23 227.058 36.7577C228.208 37.665 229.179 39.7744 230.35 40.1431C231.131 40.3895 232.346 40.1325 233.24 40.3876C234.362 40.7076 235.292 41.1714 236.123 42.0203C237.709 43.6396 238.158 46.0334 238.225 48.229C238.244 48.8209 237.879 50.4897 238.233 51.015C238.548 51.4811 239.735 51.7498 240.218 52.2281C241.728 53.7231 242.41 56.2146 242.562 58.2627C242.737 60.5998 242.134 62.2469 241.718 64.4833C241.459 65.8772 241.125 64.9843 242.301 65.8054C243.109 66.3691 243.667 66.7633 244.19 67.6483C245.285 69.4984 245.561 71.6796 245.38 73.7883C245.154 76.4192 243.82 78.3799 243.22 80.8691C245.985 80.8691 248.963 81.5997 251.663 82.1094C252.66 82.2976 253.432 82.8454 254.316 83.2848C255.08 83.6638 255.649 83.7079 256.369 83.9592C258.112 84.567 257.775 84.4655 258.988 83.2217C263.818 78.267 270.693 75.2757 277.626 75.373C281.493 75.427 285.234 75.9376 288.849 77.3296C290.348 77.9063 292.013 78.5282 293.343 79.4329C294.883 80.4813 295.112 80.4692 297.148 80.5117C304.52 80.6645 311.673 84.624 317.038 89.4233C317.518 86.2043 322.746 84.2739 325.277 82.9397C326.143 82.4839 326.937 82.2463 327.363 81.3921C327.761 80.5927 327.738 78.9482 328.004 78.0066C328.493 76.2774 329.058 74.1616 329.013 72.338C328.887 67.0583 327.665 61.8029 327.507 56.5111C327.467 55.1821 327.316 53.6904 327.493 52.3744C327.635 51.3142 328.119 50.6532 327.423 49.6716C326.103 47.8086 323.667 47.3433 322.849 44.8907C321.529 40.9384 323.796 36.8968 326.891 34.546C328.673 33.1927 330.414 32.9061 331.842 31.0088C333.129 29.2994 334.216 27.2778 335.682 25.7238C336.912 24.4211 338.032 22.6755 339.441 21.5913C340.885 20.4798 343.007 19.7283 344.732 19.2003C348.873 17.9322 353.959 18.2347 356.873 21.7769ZM227.418 121.063C226.455 121.104 225.485 121.213 224.52 121.211C223.933 121.211 222.568 120.894 222.039 121.117C220.982 121.565 220.126 124.013 219.632 124.99C218.032 128.157 216.771 131.478 215.21 134.657C214.397 136.311 213.185 137.399 211.268 137.425C209.12 137.455 208.11 136.079 206.747 134.667C204.029 131.851 200.371 129.43 196.998 127.471C193.354 125.356 189.009 123.306 184.861 122.559C182.098 122.061 175.769 119.916 174.088 123.382C174.947 123.267 178.226 122.765 178.365 124.218C178.469 125.309 174.436 125.495 173.938 127.204C174.992 127.122 178.632 126.106 178.888 127.673C179.024 128.507 177.503 128.926 176.968 129.207C175.908 129.765 175.27 130.344 174.435 131.182C175.723 131.182 176.992 130.088 178.215 130.202C178.719 130.25 179.326 131.004 179.784 131.234C180.435 131.559 181.138 131.722 181.856 131.811C183.418 132.004 184.364 131.563 185.61 132.581C186.729 133.495 187.892 134.702 188.923 135.719C191.122 137.891 192.933 140.647 194.82 143.088C197.15 146.1 199.569 148.492 202.668 150.749C205.191 152.586 207.748 153.775 210.606 155.127C213.411 156.454 216.937 157.992 220.118 158.065C222.656 158.124 225.828 157.31 228.137 156.227C229.48 155.597 229.969 155.597 231.312 155.348C233.398 154.961 235.813 153.841 237.744 152.963C243.808 150.204 247.651 144.191 250.385 138.305C251.941 134.955 252.913 131.682 253.562 128.058C253.915 126.084 254.223 125.62 252.3 124.804C250.357 123.979 248.257 123.469 246.235 122.887C240.304 121.179 233.543 120.802 227.418 121.063ZM241.908 85.336C241.303 85.6086 240.981 88.5182 240.709 89.1663C239.497 92.0588 237.348 93.8636 234.195 94.1647C233.216 94.2582 231.62 93.3672 230.919 93.7884C229.98 94.3525 229.81 97.0488 228.799 97.9334C227.869 98.748 225.931 99.609 224.737 99.9223C223.816 100.164 222.902 100.097 221.985 99.8846C221.461 99.7634 220.462 99.1164 219.949 99.3604C219.076 99.7763 218.665 101.991 217.669 102.742C216.212 103.84 213.898 104.653 212.114 104.633C210.275 104.612 208.057 103.158 206.419 103.506C204.475 103.919 204.73 105.728 203.882 107.141C202.079 110.144 200.031 112.73 196.79 114.163C193.284 115.714 188.259 115.911 184.583 115.122C182.584 114.693 180.578 114.087 178.891 112.941C177.547 112.028 176.539 110.812 175.294 109.781L175.09 109.616L175.101 109.652C175.128 109.749 175.156 109.842 175.185 109.934C175.778 111.824 176.041 115.177 177.219 116.719C178.272 118.098 181.931 118.175 183.693 118.361C188.414 118.858 192.473 119.963 196.638 122.332C200.623 124.598 204.264 127.341 207.715 130.298C208.424 130.905 208.991 131.878 209.848 132.269C211.249 132.907 211.135 132.162 211.506 130.915C212.266 128.357 213.071 125.83 214.229 123.419C214.725 122.386 215.853 121.105 216.095 120.008C216.327 118.955 215.851 117.806 216.013 116.676C216.421 113.82 217.71 111.385 219.326 109.075C220.448 107.472 223.804 104.742 223.375 108.777C223.059 111.757 220.883 114.396 220.348 117.324C221.997 117.016 223.033 117.106 224.518 117.2C226.544 117.328 228.847 116.535 230.936 116.528C234.94 116.516 238.884 116.777 242.82 117.49C244.643 117.821 246.378 118.195 248.136 118.818C249.517 119.308 251.353 120.869 252.824 120.988C253.89 121.075 253.519 121.214 253.809 120.304C254.078 119.46 253.789 117.941 253.735 117.055C253.612 115.051 253.132 113.1 252.883 111.109C252.776 110.254 251.756 106.692 252.832 106.002C254.479 104.946 255.167 109.091 255.377 109.833C256.451 113.639 257.141 117.389 257.109 121.368C257.081 124.809 256.853 128.117 256.209 131.539C255.829 133.559 255.131 135.5 254.348 137.395C253.935 138.394 251.516 142.177 251.852 142.844C252.122 143.378 256.233 142.448 256.865 142.394C259.116 142.201 261.372 142.336 263.625 142.202C266.955 142.004 270.31 142.044 273.499 141.457C275.4 141.107 277.418 141.442 279.317 141.454C281.412 141.468 283.437 141.274 285.546 141.474C287.147 141.626 289.55 142.471 291.095 142.12C292.677 141.76 292.21 140.701 292.221 139.091C292.247 135.2 291.9 130.723 291.031 126.94C290.573 124.945 289.957 123.015 289.628 120.987C289.299 118.959 289.316 116.766 288.704 114.802C287.619 111.317 284.636 108.292 282.164 105.717C279.621 103.066 276.792 101.142 273.672 99.2414C271.02 97.6262 268.218 96.1095 265.345 94.8459C261.897 93.3292 257.981 92.394 254.785 90.3972C252.126 88.7356 248.279 87.0972 245.211 86.3278C244.726 86.2062 242.251 85.1817 241.908 85.336ZM336.629 53.1271C334.417 53.438 330.281 52.3573 330.283 55.4079C330.284 57.0813 330.839 58.836 330.997 60.5101C331.182 62.4857 331.054 64.4738 331.355 66.4417C331.842 69.6273 332.557 72.5692 332.317 75.8421C332.056 79.3998 331.315 82.8184 331.384 86.427C331.45 89.8612 331.265 93.1726 332.896 96.3239C333.585 97.6544 334.144 99.2175 334.901 100.462C335.789 101.921 336.558 102.349 338.145 102.936C339.139 103.304 341.586 103.783 342.23 104.775C343.159 106.207 341.918 106.786 340.695 106.737C336.92 106.587 333.043 104.902 329.504 103.672C327.838 103.092 326.235 102.363 324.598 101.731C323.291 101.225 322.224 101.051 321.035 100.189C318.136 98.0889 315.899 95.1861 313.04 93.0319C307.632 88.9565 301.149 86.5232 294.356 85.8013C292.609 85.6154 291.256 85.6991 289.505 85.8473C288.537 85.9294 287.578 85.9557 286.619 86.1336C286.066 86.2366 283.983 87.2261 283.551 87.0204C280.741 85.6846 288.697 81.6183 289.592 81.3959C288.462 80.5995 286.114 80.7368 284.757 80.5596C283.026 80.3331 281.343 80.1122 279.595 80.2076C277.151 80.3414 274.551 80.2692 272.152 80.7968C269.147 81.4575 266.3 82.4721 263.584 83.8957C262.677 84.3709 261.402 84.9487 261.411 86.2731C261.419 87.5176 261.914 87.3139 263.126 87.5895C266.391 88.3327 269.412 90.4964 272.32 92.1451C275.413 93.8975 278.493 95.8666 281.363 97.9665C286.865 101.992 290.004 107.785 292.448 114.081C293.712 117.337 294.628 121.14 295.008 124.611C295.432 128.472 295.078 132.355 295.381 136.213C295.452 137.124 295.574 140.762 296.261 141.329C296.783 141.759 299.373 140.99 300.103 140.94C303.154 140.73 306.224 140.75 309.217 140.578C315.543 140.213 322.029 140.722 328.413 140.347C331.624 140.158 334.733 139.706 337.882 139.058C340.809 138.456 344.457 138.384 347.127 136.993C352.267 134.315 355.4 127.858 355.626 122.392C355.87 116.466 355.466 110.017 354.221 104.114C353.569 101.018 353.003 98.0721 352.235 95.0132C351.376 91.5885 350.411 88.1787 349.467 84.7962C347.842 78.9741 345.313 73.5499 344.103 67.5825C343.437 64.3001 342.493 60.8682 341.508 57.6644C341.145 56.4837 340.429 54.2405 339.584 53.3434C338.696 52.4014 337.951 52.9416 336.629 53.1271ZM156.281 124.037C154.948 124.889 153.987 126.806 154.048 128.387C154.048 130.473 155.78 129.584 157.412 129.66C158.405 129.706 162.079 130.725 162.725 129.741C163.496 128.566 161.177 129.091 160.883 128.461C160.289 127.186 163.011 126.648 162.679 125.543C162.346 124.439 159.58 126.988 158.988 125.705C158.439 124.518 161.232 123.491 160.804 122.673C160.44 121.98 156.752 123.735 156.281 124.037ZM162.067 113.167C162.06 114.056 161.754 115.239 160.649 115.057C159.268 114.831 158.85 112.181 158.724 111.178C159.608 107.876 162.082 111.142 162.067 113.167ZM202.15 84.7887C200.554 85.0388 200.374 85.7534 199.627 86.8501C199.287 86.5787 199.076 86.2187 198.994 85.7702C195.221 87.4701 191.294 88.7983 187.201 89.4267C182.641 90.1273 177.884 89.0671 173.25 88.6353C172.65 88.5794 170.81 87.8381 170.321 88.1323C169.917 88.376 169.923 90.4211 169.89 90.8165C169.665 93.5109 170.179 95.8913 170.575 98.5283C170.68 99.2304 170.577 100.751 171.13 101.35C171.519 101.771 172.212 101.618 172.705 102.254C174.033 103.97 174.448 107.294 175.06 109.507L175.075 109.56L175.078 109.521C175.267 107.265 177.031 108.424 178.343 109.015C180.316 109.905 182.383 110.38 184.517 110.679C186.233 110.92 188.18 111.495 189.941 111.403C191.79 111.307 194.064 110.575 195.864 110.048C197.57 109.549 198.511 108.47 199.688 107.079C200.813 105.752 202.036 104.842 203.25 103.657C206.307 100.673 205.47 94.4882 202.814 91.5669C204.963 90.4641 208.689 88.04 205.421 85.5812C204.577 84.9453 203.168 84.629 202.15 84.7887ZM175.075 109.56L175.072 109.601L175.09 109.616L175.075 109.56ZM185.543 104.436C186.39 104.501 186.999 105.138 186.776 106.016C186.494 107.125 184.566 107.82 183.602 107.881C181.046 108.187 183.464 104.279 185.543 104.436ZM177.473 100.168C177.565 100.812 177.474 101.214 178.032 101.423C178.459 101.583 179.266 101.254 179.79 101.476C180.314 101.698 180.331 101.833 180.652 102.355C180.288 103.495 178.617 104.784 177.276 104.098C175.609 103.246 175.453 99.8847 175.91 98.45C176.685 96.0187 177.336 99.2076 177.473 100.168ZM325.743 87.3299C325.047 87.5827 324.433 88.2992 323.811 88.6892C322.156 89.7266 320.346 90.2774 318.761 91.4133C319.893 92.6347 320.486 94.2909 321.591 95.4663C322.283 96.2019 323.124 96.2836 323.956 96.6827C326.388 97.8494 329.249 99.4904 331.935 100.048C330.362 98.2082 329.364 96.5436 328.431 94.308C328.097 93.5086 327.678 92.6632 327.428 91.833C327.07 90.6439 327.262 89.3856 326.959 88.2122C326.631 86.9455 327.083 86.8433 325.743 87.3299ZM172.886 94.2954C173.593 95.1301 174.137 97.0114 174.197 98.0773C173.451 101.65 170.954 96.7206 171.03 95.1206C171.1 93.645 171.875 93.1025 172.886 94.2954ZM179.652 92.3403C180.864 93.3739 181.259 95.1001 181.385 96.5263C181.522 98.0724 181.169 98.7296 179.629 97.7359C178.28 96.8658 177.606 94.5493 177.536 93.1918C177.536 91.6446 178.478 91.3386 179.652 92.3403ZM204.03 87.9152C204.333 89.5285 200.76 91.1866 201.343 88.6602C201.226 87.0481 203.709 86.2061 204.03 87.9152ZM372.718 58.7189C370.019 62.0135 366.751 64.1054 363.375 66.5949C360.383 68.8005 357.535 71.1832 354.297 73.0139C353.346 73.5518 351.788 73.8647 351.616 74.8637C351.455 75.803 353.198 78.3256 353.601 79.344C354.961 82.7785 355.965 86.3031 357.029 89.8471C360.198 84.9069 363.395 79.8845 367.28 75.4175C370.708 71.4755 374.225 67.3507 377.222 63.103C375.408 61.998 373.905 60.474 372.718 58.7189ZM392.498 51.1211C389.493 52.0604 386.031 52.5892 382.899 52.2691C381.479 52.1239 380.08 52.003 378.646 51.9144C377.573 51.8483 375.758 51.3249 374.835 52.152C373.961 52.934 374.067 54.4903 374.512 55.4623C374.799 56.0906 375.198 56.1921 375.459 56.7125C375.543 56.8802 375.294 57.1698 375.51 57.564C376.104 58.6489 378.125 60.4618 379.214 61.0142C380.611 61.7231 380.819 60.8986 381.908 60.1843C384.201 58.6809 388.052 58.6535 390.738 58.3829C390.792 58.9607 398.576 56.183 399.344 55.6732C400.78 54.7202 402.464 50.3338 400.935 49.0338C399.091 47.4646 394.283 50.5627 392.498 51.1211ZM340.156 30.2125C339.21 31.7201 337.952 33.3387 336.555 34.4666C334.976 35.7404 332.928 36.235 331.124 37.1066C329.489 37.8958 328.037 38.6865 327.017 40.2093C326.311 41.2626 325.017 42.7406 325.607 44.0981C326.211 45.4867 328.587 46.4606 329.62 47.6676C331.042 49.3291 331.044 49.003 333.173 48.5438C334.237 48.3142 335.248 48.2427 336.335 48.2807C336.775 48.2959 338.259 48.727 338.649 48.4377C339.148 48.0671 338.658 46.5283 338.721 45.9296C338.817 45.0188 339.141 44.0791 339.448 43.2203C340.664 39.8113 342.978 37.5632 345.227 34.9782C347.64 32.2048 350.946 30.2581 353.324 27.4717C354.637 25.9333 354.039 24.8457 352.238 24.1253C351.322 23.7596 350.249 23.7612 349.31 23.4696C348.338 23.1682 347.473 22.5744 346.432 22.5626C342.009 22.3851 341.868 27.4842 340.156 30.2125Z" fill="#264653"/>
</g>
</svg>
