<svg width="24" height="24" viewBox="0 0 24 24" fill="none" xmlns="http://www.w3.org/2000/svg">
<path opacity="0.4" d="M21.25 9.15004C20.76 8.37004 20.2 7.67004 19.62 7.04004L15.85 10.81C15.97 11.18 16.04 11.58 16.04 12C16.04 14.24 14.23 16.04 12 16.04C11.58 16.04 11.18 15.97 10.81 15.85L7.35001 19.31C8.81001 20.13 10.39 20.56 12 20.56C13.78 20.56 15.51 20.04 17.09 19.07C18.67 18.09 20.09 16.66 21.25 14.84C22.25 13.28 22.25 10.72 21.25 9.15004Z" fill="#325B6C"/>
<path d="M14.02 9.98014L9.98001 14.0201C9.47001 13.5001 9.14001 12.7801 9.14001 12.0001C9.14001 10.4301 10.42 9.14014 12 9.14014C12.78 9.14014 13.5 9.47014 14.02 9.98014Z" fill="#325B6C"/>
<path opacity="0.4" d="M18.25 5.75018L14.86 9.14018C14.13 8.40018 13.12 7.96018 12 7.96018C9.76 7.96018 7.96 9.77018 7.96 12.0002C7.96 13.1202 8.41 14.1302 9.14 14.8602L5.76 18.2502H5.75C4.64 17.3502 3.62 16.2002 2.75 14.8402C1.75 13.2702 1.75 10.7202 2.75 9.15018C3.91 7.33018 5.33 5.90018 6.91 4.92018C8.49 3.96018 10.22 3.43018 12 3.43018C14.23 3.43018 16.39 4.25018 18.25 5.75018Z" fill="#325B6C"/>
<path d="M14.86 12.0001C14.86 13.5701 13.58 14.8601 12 14.8601C11.94 14.8601 11.89 14.8601 11.83 14.8401L14.84 11.8301C14.86 11.8901 14.86 11.9401 14.86 12.0001Z" fill="#325B6C"/>
<path d="M21.77 2.22988C21.47 1.92988 20.98 1.92988 20.68 2.22988L2.23 20.6899C1.93 20.9899 1.93 21.4799 2.23 21.7799C2.38 21.9199 2.57 21.9999 2.77 21.9999C2.97 21.9999 3.16 21.9199 3.31 21.7699L21.77 3.30988C22.08 3.00988 22.08 2.52988 21.77 2.22988Z" fill="#325B6C"/>
</svg>
