<svg width="155" height="63" viewBox="0 0 155 63" fill="none" xmlns="http://www.w3.org/2000/svg">
<g opacity="0.7">
<g clip-path="url(#clip0_209_880)">
<path d="M92.9747 31.2547C100.995 31.3279 108.665 34.5845 114.33 40.3219C117.176 43.1914 119.433 46.6005 120.973 50.3537C122.512 54.1068 123.304 58.1302 123.301 62.1931V62.1931L92.9894 62.1931L92.9747 31.2547Z" fill="#E0E0E0"/>
<path d="M0.848703 62.198L31.4545 62.198L31.4545 31.2645L0.848706 31.2645L0.848703 62.198Z" fill="#F2F2F2"/>
<path d="M0.843813 31.2644L31.4496 31.2644L31.4496 0.330944L0.843816 0.330941L0.843813 31.2644Z" fill="#E0E0E0"/>
<path d="M123.414 62.178L154.123 62.178L154.123 31.1406L123.414 31.1406L123.414 62.178Z" fill="#F5F5F5"/>
<path d="M62.3836 46.6323L62.3836 31.2299L92.9894 31.2299L92.9894 31.2398L77.6179 31.2398L77.6179 46.6323L62.3836 46.6323Z" fill="#F5F5F5"/>
<path d="M77.6179 46.6323L92.9894 46.6323L92.9894 31.2398L77.6179 31.2398L77.6179 46.6323Z" fill="#F5F5F5"/>
<path d="M77.6179 62.1633L92.9894 62.1633L92.9894 46.6323L77.6179 46.6323L77.6179 62.1633Z" fill="#F2F2F2"/>
<path d="M77.6179 46.7759L92.9894 46.7759L92.9894 31.2448L77.6179 31.2448L77.6179 46.7759Z" fill="#E0E0E0"/>
<path d="M77.3094 15.9858L92.5781 0.558707L92.5781 15.9858L77.3094 15.9858Z" fill="#F5F5F5"/>
<path d="M0.83401 62.2029L31.4545 31.2645L31.4545 62.2029L0.83401 62.2029Z" fill="#E0E0E0"/>
<path d="M62.3591 31.2991C62.2765 23.0716 58.9865 15.2091 53.2031 9.41852C47.4198 3.62792 39.61 0.376654 31.4692 0.37056V0.37056L31.4692 31.2991L62.3591 31.2991Z" fill="#F5F5F5"/>
<path d="M154.118 31.1704C154.04 22.9814 150.77 15.1539 145.017 9.3873C139.264 3.62071 131.492 0.380633 123.39 0.370578V0.370578L123.39 31.1704L154.118 31.1704Z" fill="#F5F5F5"/>
<path d="M62.3591 31.2646C62.2765 39.4921 58.9865 47.3546 53.2031 53.1452C47.4198 58.9358 39.6099 62.187 31.4692 62.1931V62.1931L31.4692 31.2646L62.3591 31.2646Z" fill="#E0E0E0"/>
<path d="M0.843816 29.5569L16.1467 29.5569L16.1467 28.4086L0.843816 28.4086L0.843816 29.5569Z" fill="#F9F9F9"/>
<path d="M0.843816 26.3398L16.1467 26.3398L16.1467 25.1916L0.843816 25.1916L0.843816 26.3398Z" fill="#F9F9F9"/>
<path d="M0.843816 23.1228L16.1467 23.1228L16.1467 21.9746L0.843816 21.9746L0.843816 23.1228Z" fill="#F9F9F9"/>
<path d="M0.843816 19.9058L16.1467 19.9058L16.1467 18.7575L0.843816 18.7575L0.843816 19.9058Z" fill="#F9F9F9"/>
<path d="M0.843816 16.6836L16.1467 16.6836L16.1467 15.5353L0.843816 15.5353L0.843816 16.6836Z" fill="#F9F9F9"/>
<path d="M0.843816 13.4666L16.1467 13.4666L16.1467 12.3183L0.843816 12.3183L0.843816 13.4666Z" fill="#F9F9F9"/>
<path d="M0.843816 10.2495L16.1467 10.2495L16.1467 9.10126L0.843816 9.10126L0.843816 10.2495Z" fill="#F9F9F9"/>
<path d="M0.843816 7.02759L16.1467 7.02759L16.1467 5.87934L0.843816 5.87934L0.843816 7.02759Z" fill="#F9F9F9"/>
<path d="M0.843816 3.81055L16.1467 3.81055L16.1467 2.6623L0.843816 2.6623L0.843816 3.81055Z" fill="#F9F9F9"/>
<path d="M112.161 23.2663C112.16 22.7216 112.319 22.1889 112.618 21.7356C112.916 21.2823 113.342 20.9288 113.839 20.7199C114.337 20.511 114.885 20.4561 115.414 20.5621C115.942 20.6682 116.428 20.9303 116.809 21.3155C117.19 21.7006 117.449 22.1914 117.554 22.7257C117.659 23.26 117.605 23.8137 117.398 24.3167C117.191 24.8197 116.842 25.2495 116.393 25.5515C115.945 25.8535 115.418 26.0142 114.879 26.0132C114.158 26.0132 113.467 25.7238 112.957 25.2086C112.447 24.6935 112.161 23.9948 112.161 23.2663V23.2663Z" fill="#F9F9F9"/>
<path d="M112.161 8.90343C112.161 8.35896 112.321 7.82672 112.62 7.37407C112.919 6.92143 113.345 6.56873 113.843 6.36059C114.341 6.15246 114.888 6.09825 115.417 6.20483C115.945 6.31141 116.43 6.57399 116.811 6.95934C117.191 7.34469 117.45 7.83548 117.555 8.36961C117.659 8.90374 117.604 9.4572 117.398 9.95995C117.191 10.4627 116.841 10.8921 116.393 11.1939C115.944 11.4957 115.417 11.6562 114.879 11.6553C114.157 11.654 113.466 11.3635 112.957 10.8475C112.447 10.3316 112.161 9.63241 112.161 8.90343V8.90343Z" fill="#F9F9F9"/>
<path d="M98.3221 23.2663C98.3212 22.7218 98.48 22.1893 98.7786 21.7361C99.0772 21.2829 99.5021 20.9294 99.9995 20.7204C100.497 20.5114 101.045 20.4562 101.573 20.5618C102.101 20.6674 102.587 20.9291 102.968 21.3137C103.35 21.6984 103.609 22.1887 103.715 22.7227C103.82 23.2566 103.767 23.8102 103.561 24.3133C103.355 24.8164 103.006 25.2465 102.558 25.5491C102.11 25.8517 101.584 26.0132 101.045 26.0132C100.688 26.0138 100.334 25.9433 100.003 25.8055C99.673 25.6678 99.3728 25.4655 99.1199 25.2104C98.867 24.9552 98.6664 24.6522 98.5295 24.3186C98.3926 23.985 98.3221 23.6274 98.3221 23.2663Z" fill="#F9F9F9"/>
<path d="M98.3221 8.90343C98.3221 8.35917 98.4818 7.82713 98.781 7.37459C99.0801 6.92205 99.5054 6.56934 100.003 6.36106C100.5 6.15278 101.048 6.09829 101.576 6.20447C102.104 6.31065 102.589 6.57273 102.97 6.95759C103.351 7.34244 103.61 7.83277 103.715 8.36658C103.82 8.90038 103.766 9.45368 103.56 9.95652C103.354 10.4593 103.005 10.8891 102.557 11.1915C102.11 11.4939 101.583 11.6553 101.045 11.6553C100.323 11.6553 99.6302 11.3653 99.1196 10.8493C98.609 10.3332 98.3221 9.63327 98.3221 8.90343Z" fill="#F9F9F9"/>
</g>
</g>
<defs>
<clipPath id="clip0_209_880">
<rect width="153.289" height="61.8867" fill="white" transform="translate(154.123 62.2178) rotate(-180)"/>
</clipPath>
</defs>
</svg>
