<svg width="168" height="167" viewBox="0 0 168 167" fill="none" xmlns="http://www.w3.org/2000/svg">
<rect x="0.182007" y="0.0636597" width="166.861" height="166.861" rx="32" fill="#1B313A"/>
<path d="M83.5574 116.453H35.5869C33.525 116.453 32.0478 115.262 31.7316 113.339C31.6953 113.082 31.6809 112.823 31.6883 112.563V82.9685C31.6883 80.573 33.2131 79.0699 35.6216 79.0699H131.615C134.027 79.0699 135.539 80.5774 135.539 82.9685V112.494C135.539 114.929 134.032 116.423 131.58 116.423L83.5574 116.453ZM84.9393 99.5204C84.9609 99.2475 84.9609 99.0872 84.9826 98.9702L87.2698 84.8052C87.3046 84.6994 87.3116 84.5864 87.2901 84.4771C87.2687 84.3678 87.2195 84.2659 87.1473 84.1811C87.0751 84.0962 86.9823 84.0314 86.8778 83.9928C86.7734 83.9542 86.6607 83.9431 86.5507 83.9605C84.649 83.9605 82.743 83.9605 80.8414 83.9605C80.4862 83.9605 80.3692 84.0775 80.3216 84.3937C80.118 85.7972 79.8884 87.1964 79.6718 88.5955C79.0336 92.6732 78.3939 96.7509 77.7528 100.829L76.2323 110.554C76.2021 110.656 76.1979 110.765 76.22 110.869C76.2421 110.974 76.2899 111.072 76.359 111.153C76.4282 111.235 76.5165 111.298 76.6162 111.337C76.7158 111.376 76.8235 111.39 76.9297 111.377C78.8487 111.377 80.7677 111.377 82.691 111.377C82.9639 111.377 83.0679 111.312 83.1242 111.017C83.3062 109.717 83.5228 108.457 83.7307 107.179L84.2028 104.259C84.4411 104.385 84.4801 104.58 84.5624 104.74C85.6887 106.819 86.8077 108.903 87.9195 110.991C87.9666 111.116 88.0537 111.222 88.1673 111.293C88.2809 111.363 88.4146 111.394 88.5477 111.381C90.8002 111.381 93.0484 111.381 95.2966 111.381C95.4212 111.401 95.5491 111.381 95.6614 111.324C95.7737 111.266 95.8645 111.174 95.9204 111.06C95.9859 110.954 96.0153 110.829 96.0044 110.704C95.9934 110.579 95.9428 110.461 95.8598 110.367C94.192 107.768 92.5372 105.169 90.8608 102.57C90.8087 102.517 90.7689 102.453 90.7442 102.383C90.7195 102.313 90.7106 102.238 90.718 102.164C90.7255 102.09 90.7491 102.019 90.7873 101.955C90.8254 101.891 90.8772 101.836 90.9388 101.795C93.4773 99.2951 95.9984 96.774 98.5281 94.2659C98.6383 94.1886 98.7166 94.074 98.7485 93.9433C98.7804 93.8126 98.7636 93.6747 98.7014 93.5555C98.5758 93.2392 98.3895 93.2133 98.108 93.2133C95.9421 93.2133 93.7762 93.2566 91.6103 93.2133C91.2836 93.1912 90.9565 93.2514 90.6591 93.3884C90.3617 93.5253 90.1034 93.7347 89.9079 93.9973C88.3137 95.7777 86.6633 97.5754 84.9393 99.4987V99.5204ZM109.717 104.19C111.727 104.19 113.733 104.19 115.743 104.19C116.072 104.19 116.211 104.134 116.258 103.757C116.404 102.745 116.429 101.72 116.332 100.703C115.899 97.0989 114.075 94.5301 110.64 93.2133C109.198 92.7041 107.661 92.5178 106.139 92.6674C102.674 92.9144 99.91 94.4002 98.069 97.4021C96.6351 99.7283 96.3363 102.306 96.7434 104.952C97.1766 107.92 98.7318 110.107 101.543 111.294C103.276 111.967 105.142 112.224 106.993 112.044C109.425 111.956 111.758 111.053 113.616 109.479C114.127 109.046 114.149 108.704 113.677 108.236C112.836 107.387 111.994 106.541 111.151 105.698C110.419 104.961 110.419 104.961 109.635 105.607C108.539 106.512 107.335 107.149 105.862 107.071C104.268 106.988 103.406 106.204 103.237 104.684C103.198 104.333 103.237 104.173 103.67 104.177C105.689 104.203 107.699 104.19 109.717 104.19ZM59.7064 102.839C59.6972 103.524 59.745 104.21 59.8494 104.887C60.4818 108.245 62.3272 110.601 65.641 111.606C68.1665 112.373 70.6703 111.953 73.1221 111.125C73.382 111.039 73.395 110.835 73.4253 110.636C73.7141 108.932 73.9928 107.228 74.2614 105.524C74.3003 105.264 74.3263 105.048 74.0188 104.874C73.912 104.796 73.7813 104.756 73.6487 104.762C73.5161 104.768 73.3897 104.82 73.291 104.909C72.3352 105.642 71.1644 106.04 69.9598 106.04C68.4047 106.018 67.3045 105.139 67.0229 103.701C66.9275 103.102 66.9275 102.493 67.0229 101.894C67.0716 101.359 67.2322 100.839 67.4945 100.37C67.7567 99.9005 68.1147 99.4914 68.5451 99.1692C68.9756 98.847 69.469 98.6188 69.9933 98.4994C70.5176 98.3801 71.0611 98.3722 71.5886 98.4764C72.5659 98.7081 73.4469 99.238 74.1097 99.9925C74.1949 100.084 74.3068 100.147 74.4296 100.172C74.5524 100.197 74.6799 100.183 74.7942 100.131C75.0844 100.058 75.1494 99.8669 75.1927 99.6113C75.4223 98.1255 75.6259 96.6397 75.9074 95.1626C75.9729 94.9467 75.9596 94.7146 75.8699 94.5075C75.7803 94.3005 75.6201 94.132 75.4179 94.032C72.3164 91.996 67.3824 92.0653 64.1119 94.2745C61.0276 96.3365 59.7108 99.3341 59.6935 102.839H59.7064ZM48.8769 98.4807C49.3794 98.4807 49.7953 98.4807 50.2111 98.4807C50.4407 98.4807 50.5577 98.4201 50.5923 98.1818C50.8046 96.7827 51.0255 95.3835 51.2378 93.9843C51.3157 93.4602 51.0471 93.1743 50.523 93.1699C49.9988 93.1656 49.4097 93.1353 48.8596 93.1699C48.3095 93.2046 48.2531 93.0486 48.3398 92.5765C48.5564 91.3896 48.7383 90.194 48.9332 88.9984C49.0372 88.3486 48.799 88.0714 48.1275 88.0714C46.2432 88.0714 44.3545 88.0714 42.4702 88.0714C42.1669 88.0714 42.037 88.1537 42.0067 88.4613C41.8074 89.8994 41.5735 91.3333 41.3785 92.7671C41.3352 93.0573 41.2443 93.2003 40.9454 93.1743C40.2176 93.1483 39.4899 93.1743 38.7795 93.1743C38.5196 93.1743 38.4329 93.2566 38.3939 93.5165C38.1947 94.9027 37.9608 96.2845 37.7572 97.6664C37.7289 97.7686 37.7262 97.8763 37.7491 97.9798C37.7721 98.0834 37.8201 98.1798 37.8889 98.2605C37.9577 98.3413 38.0452 98.404 38.1438 98.4431C38.2424 98.4823 38.3491 98.4967 38.4546 98.4851C38.9917 98.4851 39.5289 98.5111 40.066 98.4851C40.4732 98.4591 40.4992 98.6064 40.4386 98.9616C39.8148 102.811 39.2025 106.665 38.6019 110.523C38.5152 111.069 38.7795 111.364 39.3296 111.364C41.2139 111.364 43.0983 111.364 44.987 111.364C45.3292 111.364 45.4505 111.281 45.5068 110.93C46.0656 107.296 46.646 103.666 47.2395 100.032C47.3175 99.5377 47.2395 98.8879 47.5254 98.589C47.8113 98.2901 48.4221 98.5327 48.8466 98.4807H48.8769ZM127.803 98.4807C128.236 98.4807 128.634 98.4807 129.046 98.4807C129.288 98.4807 129.384 98.3941 129.418 98.1688C129.631 96.7697 129.851 95.3705 130.059 93.9713C130.133 93.4558 129.86 93.1743 129.327 93.1699C128.795 93.1656 128.149 93.1353 127.564 93.1699C127.131 93.2046 127.092 93.0227 127.131 92.6674C127.343 91.4415 127.538 90.2156 127.733 88.9854C127.833 88.353 127.599 88.0714 126.966 88.0714C125.078 88.0714 123.193 88.0714 121.309 88.0714C120.95 88.0714 120.846 88.184 120.798 88.5262C120.607 89.9471 120.365 91.3636 120.179 92.7844C120.135 93.0833 120.018 93.1829 119.711 93.1743C119.005 93.1483 118.294 93.1743 117.584 93.1743C117.311 93.1743 117.198 93.2349 117.151 93.5338C116.96 94.9027 116.717 96.2628 116.523 97.6274C116.44 98.1732 116.691 98.4937 117.233 98.4937C117.774 98.4937 118.273 98.5197 118.788 98.4937C119.221 98.4634 119.26 98.5847 119.195 98.9832C118.571 102.815 117.962 106.652 117.367 110.493C117.272 111.104 117.519 111.359 118.156 111.359C119.988 111.359 121.825 111.359 123.657 111.359C124.09 111.359 124.229 111.221 124.294 110.809C124.883 106.967 125.494 103.129 126.087 99.2908C126.213 98.4764 126.2 98.4764 126.997 98.4764L127.803 98.4807ZM55.379 93.1743H52.7799C52.0435 93.1743 52.0565 93.1743 51.9438 93.8933C51.619 95.9899 51.2854 98.0909 50.9562 100.187C50.4161 103.636 49.8776 107.082 49.3404 110.528C49.3092 110.63 49.3042 110.738 49.3256 110.843C49.3471 110.948 49.3944 111.046 49.4633 111.127C49.5322 111.209 49.6204 111.272 49.72 111.311C49.8196 111.35 49.9274 111.364 50.0335 111.351C51.9568 111.351 53.8758 111.351 55.7992 111.351C56.1544 111.351 56.254 111.238 56.306 110.917C56.7392 107.946 57.2417 104.978 57.7138 102.011C58.1383 99.3514 58.56 96.6903 58.9787 94.0276C59.0653 93.4905 58.7924 93.1916 58.2336 93.1873L55.379 93.1743ZM56.1847 84.7662C55.7002 84.7588 55.219 84.8475 54.769 85.0272C54.319 85.207 53.9091 85.4742 53.563 85.8134C53.217 86.1526 52.9416 86.5571 52.7529 87.0034C52.5642 87.4497 52.4659 87.929 52.4637 88.4136C52.4556 88.9022 52.5451 89.3874 52.7269 89.841C52.9087 90.2946 53.1791 90.7073 53.5224 91.055C53.8657 91.4027 54.2749 91.6785 54.7261 91.8661C55.1773 92.0537 55.6614 92.1494 56.15 92.1476C56.6431 92.1581 57.1332 92.0696 57.5914 91.8874C58.0497 91.7053 58.4668 91.4331 58.8181 91.087C59.1694 90.741 59.4478 90.328 59.6368 89.8726C59.8259 89.4171 59.9217 88.9284 59.9187 88.4353C59.9266 87.9457 59.8349 87.4597 59.6493 87.0067C59.4636 86.5537 59.1877 86.1431 58.8385 85.8C58.4893 85.4568 58.074 85.1883 57.6178 85.0106C57.1616 84.8328 56.674 84.7497 56.1847 84.7662Z" fill="white"/>
<path d="M87.5515 66.9148C87.1529 69.4446 86.7458 71.97 86.3646 74.5041C86.2996 74.9373 86.1869 75.0802 85.7278 75.0716C84.1207 75.0369 82.5092 75.0716 80.9021 75.0716C80.261 75.0716 80.0921 74.8853 80.1874 74.2615C80.6119 71.5123 81.0451 68.7688 81.4869 66.0311C81.5086 65.8925 81.5303 65.7582 81.5432 65.6196C81.6775 63.8565 80.6336 63.0465 78.9442 63.5923C78.5993 63.7119 78.2845 63.9052 78.022 64.1588C77.7594 64.4124 77.5552 64.7202 77.4237 65.0608C76.9863 66.153 76.7091 67.3027 76.6006 68.4742C76.2844 70.5405 75.9639 72.6111 75.665 74.6817C75.6173 75.0153 75.483 75.1149 75.1625 75.0932C73.5207 75.0932 71.8746 75.0932 70.2329 75.0932C69.6871 75.0932 69.5008 74.8637 69.5874 74.3178C69.7347 73.4038 69.8777 72.4855 70.0206 71.5325C69.9426 71.5801 69.8863 71.5975 69.8647 71.6321C68.4568 73.915 66.3256 75.0672 63.7611 75.5308C61.0148 76.0073 58.381 75.7473 55.9639 74.2312C54.9479 73.5694 54.033 72.764 53.2478 71.84C53.2072 71.8039 53.1746 71.7595 53.1523 71.7099C53.1301 71.6602 53.1185 71.6064 53.1185 71.552C53.1185 71.4976 53.1301 71.4438 53.1523 71.3941C53.1746 71.3445 53.2072 71.3001 53.2478 71.2639C54.2138 69.8907 55.1668 68.5089 56.1285 67.1357C56.1704 67.0449 56.2357 66.9669 56.3177 66.9097C56.3997 66.8524 56.4955 66.8181 56.5952 66.8102C56.6948 66.8022 56.7948 66.821 56.8849 66.8645C56.9749 66.908 57.0518 66.9747 57.1075 67.0577C57.7735 67.7616 58.5328 68.3709 59.3644 68.8684C60.2063 69.3615 61.1701 69.6077 62.1454 69.5788C62.6344 69.5812 63.1118 69.4296 63.5099 69.1457C63.6723 69.038 63.8092 68.896 63.9109 68.7298C64.0126 68.5635 64.0766 68.3771 64.0985 68.1834C64.1204 67.9897 64.0996 67.7937 64.0376 67.6089C63.9756 67.4242 63.8738 67.2552 63.7395 67.114C63.1999 66.5485 62.565 66.0822 61.8638 65.7365C61.1101 65.3033 60.339 64.9265 59.6069 64.463C56.2065 62.3187 55.2751 58.7926 57.3068 55.2752C58.8835 52.5202 61.4133 51.3333 64.5192 51.2639C67.1957 51.2165 69.7943 52.1661 71.8097 53.928C72.0219 54.1056 72.0609 54.2312 71.9136 54.4781C71.1079 55.8297 70.3282 57.1985 69.5354 58.5544C69.2495 59.0395 68.9723 59.0915 68.5391 58.745C67.809 58.1063 66.9793 57.5912 66.083 57.2202C65.4886 56.9589 64.8179 56.9295 64.203 57.1379C63.0421 57.5711 62.8645 58.6237 63.8218 59.3991C64.3617 59.8085 64.9423 60.1613 65.5545 60.4517C66.3871 60.8756 67.1928 61.3501 67.9673 61.8725C69.3622 62.8255 70.4581 64.0038 70.8047 65.7712C71.0906 65.6282 71.0256 65.3857 71.0559 65.2124C71.8183 60.482 72.572 55.7517 73.3171 51.0214C73.3734 50.6618 73.4774 50.5275 73.8629 50.5362C75.47 50.5578 77.0815 50.5362 78.6886 50.5362C79.3037 50.5362 79.4726 50.7614 79.3687 51.4026C78.8922 54.2644 78.4185 57.1292 77.9478 59.9969C77.9478 60.0748 77.9478 60.1572 77.9175 60.3304C78.2121 60.0878 78.446 59.8972 78.6886 59.711C79.5395 59.0303 80.5534 58.5835 81.6299 58.4148C82.7065 58.2461 83.8084 58.3614 84.8267 58.7493C86.841 59.4251 87.7724 60.9932 87.9327 63.0508C87.9717 63.5316 87.9327 64.0211 87.9327 64.502C87.9062 64.5301 87.8914 64.5673 87.8914 64.6059C87.8914 64.6446 87.9062 64.6818 87.9327 64.7099L87.8547 65.3293C87.6942 65.8447 87.5925 66.3766 87.5515 66.9148Z" fill="white"/>
<path d="M114.157 60.0612C114.357 60.0612 114.409 59.9182 114.504 59.8316C115.108 59.2696 115.835 58.8557 116.626 58.6226C117.418 58.3896 118.253 58.3437 119.065 58.4887C119.611 58.5754 119.75 58.8006 119.629 59.3551C119.507 59.9096 119.356 60.555 119.195 61.2958C120.091 60.2628 121.23 59.4693 122.509 58.9869C125.719 57.8909 128.855 57.891 131.684 60.0265C132.556 60.6901 133.27 61.5399 133.772 62.5142C134.274 63.4884 134.552 64.5624 134.586 65.6579C134.633 66.4533 134.622 67.251 134.552 68.0447C134.521 68.4476 134.391 68.5862 133.958 68.5862C130.445 68.5645 126.932 68.5862 123.423 68.5602C122.903 68.5602 122.817 68.7118 122.886 69.1753C122.915 69.7189 123.145 70.2323 123.532 70.6152C123.919 70.9981 124.434 71.223 124.978 71.2459C126.373 71.4149 127.508 70.8561 128.535 69.9854C129.34 69.3053 129.345 69.3053 130.068 70.0503C130.792 70.7954 131.493 71.5102 132.204 72.2422C132.689 72.7447 132.676 72.9613 132.126 73.4205C130.021 75.1792 127.543 75.751 124.866 75.673C123.53 75.6654 122.212 75.3699 121.002 74.8067C118.602 73.6241 117.389 71.6228 117.064 69.0324C116.849 67.4316 116.998 65.8032 117.497 64.2674C117.575 64.0291 117.571 63.9468 117.294 63.8992C115.353 63.5786 114.066 64.3324 113.43 66.1907C112.949 67.6115 112.871 69.1103 112.62 70.5702C112.386 71.9347 112.186 73.3035 111.987 74.6724C111.94 74.9799 111.823 75.0666 111.519 75.0623C109.856 75.0623 108.197 75.0623 106.533 75.0623C106.044 75.0623 105.823 74.8197 105.892 74.3692C106.689 69.3529 107.482 64.3352 108.27 59.3161C108.331 58.9176 108.47 58.8136 108.855 58.818C110.363 58.8439 111.888 58.818 113.373 58.818C114.183 58.818 114.309 58.9652 114.188 59.7623C114.166 59.8619 114.166 59.9616 114.157 60.0612ZM126.061 64.6832C126.802 64.6832 127.547 64.6616 128.288 64.6832C128.756 64.6832 128.764 64.5273 128.621 64.1721C128.509 63.8717 128.332 63.5996 128.103 63.3751C127.874 63.1505 127.598 62.979 127.296 62.8725C126.593 62.6377 125.829 62.6609 125.142 62.9379C124.454 63.215 123.888 63.7277 123.544 64.3843C123.423 64.6312 123.484 64.6832 123.726 64.6832C124.506 64.6789 125.282 64.6832 126.061 64.6832Z" fill="white"/>
<path d="M44.74 57.792C45.5804 57.792 46.4424 57.792 47.3044 57.792C47.6076 57.792 47.6076 57.5494 47.6726 57.3588C48.3007 55.6521 48.9245 53.9497 49.531 52.2343C49.5584 52.0961 49.6381 51.9739 49.7536 51.8931C49.869 51.8124 50.0112 51.7794 50.1504 51.8011C51.242 51.8315 52.3163 51.8011 53.4209 51.8011C53.9754 51.8011 54.1877 52.113 53.9971 52.6328C53.4339 54.2096 52.8751 55.7907 52.2903 57.3632C52.156 57.727 52.2297 57.7964 52.5979 57.7964C53.5466 57.7964 54.4995 57.7964 55.4525 57.7964C55.9897 57.7964 56.1976 58.0952 56.0157 58.5934C55.6345 59.6504 55.2403 60.703 54.8678 61.76C54.8447 61.8673 54.7818 61.9618 54.6918 62.0245C54.6017 62.0873 54.4912 62.1135 54.3826 62.0978C53.2563 62.0978 52.1301 62.0978 51.0038 62.0978C50.7569 62.0978 50.5706 62.1282 50.4969 62.4054C50.263 63.1288 50.0075 63.8479 49.7389 64.5713C49.6133 64.8962 49.7389 64.9179 50.0118 64.9135C51.0168 64.9135 52.0217 64.9135 53.0441 64.9135C53.5942 64.9135 53.8065 65.2297 53.6202 65.7496C53.2563 66.7545 52.8751 67.7595 52.5416 68.7818C52.5074 68.9268 52.4183 69.053 52.2932 69.1337C52.168 69.2145 52.0164 69.2436 51.8702 69.215C50.7655 69.189 49.6566 69.215 48.5476 69.215C48.4228 69.1959 48.2953 69.2258 48.192 69.2984C48.0887 69.3711 48.0174 69.4809 47.9932 69.6049C47.3867 71.3376 46.7456 73.0703 46.1435 74.8334C46.113 74.9907 46.0219 75.1297 45.8898 75.2205C45.7577 75.3113 45.5952 75.3465 45.4374 75.3185C44.3848 75.2882 43.3278 75.3185 42.2708 75.3185C41.6731 75.3185 41.4738 75.0283 41.673 74.4522C42.2275 72.8711 42.7777 71.2856 43.3495 69.7132C43.4794 69.3536 43.4967 69.189 43.0246 69.2193C42.384 69.2562 41.7418 69.2562 41.1012 69.2193C41.0313 69.2062 40.9594 69.207 40.8897 69.2216C40.82 69.2363 40.7539 69.2645 40.6952 69.3048C40.6364 69.345 40.5862 69.3964 40.5474 69.4561C40.5085 69.5158 40.4818 69.5825 40.4688 69.6525C39.871 71.3853 39.2342 73.118 38.6364 74.8507C38.5152 75.1929 38.3809 75.3489 37.9867 75.3359C36.9124 75.3012 35.8208 75.3359 34.7681 75.3359C34.1703 75.3359 33.9711 75.0456 34.1703 74.4695C34.7335 72.8711 35.288 71.2726 35.8684 69.6785C35.9897 69.3406 35.9637 69.2453 35.5695 69.2453C34.6035 69.2713 33.6332 69.2453 32.6629 69.2453C32.1041 69.2453 31.8918 68.9378 32.0824 68.4266C32.4636 67.387 32.8578 66.356 33.2217 65.3121C33.2336 65.25 33.2577 65.191 33.2924 65.1383C33.3272 65.0856 33.372 65.0402 33.4243 65.0048C33.4766 64.9694 33.5353 64.9447 33.5972 64.932C33.6591 64.9193 33.7228 64.9189 33.7848 64.9309C34.8894 64.9309 35.9984 64.9309 37.1073 64.9309C37.2324 64.9524 37.3609 64.9242 37.4654 64.8521C37.5699 64.78 37.6419 64.6699 37.6661 64.5453C37.9 63.8349 38.1556 63.1375 38.4199 62.4444C38.5238 62.1758 38.4632 62.1152 38.1903 62.1195C37.1506 62.1195 36.1153 62.1195 35.0757 62.1195C34.4736 62.1195 34.2743 61.8336 34.4823 61.2531C34.8591 60.2308 35.2446 59.2172 35.6042 58.1862C35.6284 58.0616 35.7005 57.9515 35.8049 57.8794C35.9094 57.8074 36.0379 57.7791 36.163 57.8007C37.2893 57.8224 38.4155 57.8007 39.5375 57.8223C39.6952 57.8462 39.856 57.8075 39.9855 57.7144C40.115 57.6213 40.203 57.4813 40.2306 57.3242C40.811 55.6738 41.4348 54.045 41.9979 52.3946C42.0149 52.2988 42.0511 52.2075 42.1044 52.1261C42.1576 52.0447 42.2268 51.975 42.3078 51.9211C42.3888 51.8673 42.4799 51.8304 42.5756 51.8127C42.6712 51.7951 42.7694 51.7971 42.8643 51.8185C43.8823 51.8574 44.9046 51.8185 45.9269 51.8185C46.5203 51.8185 46.7239 52.113 46.5203 52.6848C45.9572 54.2616 45.3898 55.8384 44.831 57.4195C44.74 57.5148 44.6533 57.6188 44.74 57.792ZM43.5271 64.9265C43.9256 64.9265 44.3241 64.9265 44.7183 64.9265C44.8188 64.9457 44.9227 64.9247 45.0078 64.868C45.0929 64.8113 45.1523 64.7234 45.1732 64.6233C45.4244 63.8869 45.6713 63.1505 45.9529 62.4314C46.0958 62.0762 45.9529 62.0632 45.667 62.0675C44.9089 62.0675 44.1465 62.0675 43.3885 62.0675C43.2878 62.0518 43.1849 62.0747 43.1005 62.1318C43.0161 62.1889 42.9565 62.2758 42.9336 62.3751C42.6824 63.1115 42.4268 63.8436 42.1496 64.567C42.0456 64.8399 42.0803 64.9438 42.3878 64.9265C42.756 64.9049 43.1372 64.9265 43.5141 64.9265H43.5271Z" fill="white"/>
<path d="M87.9714 65.2597C88.42 63.086 89.6537 61.1537 91.4369 59.832C92.4682 59.0328 93.6922 58.5198 94.9851 58.3449C96.2781 58.17 97.5943 58.3392 98.8009 58.8356C99.682 59.224 100.468 59.7989 101.105 60.5207C101.192 60.0009 101.279 59.5677 101.335 59.1345C101.365 58.8963 101.456 58.814 101.695 58.8183C103.341 58.8183 104.982 58.8183 106.629 58.8183C107.062 58.8183 107.257 59.0956 107.187 59.5287C106.395 64.5493 105.589 69.5612 104.814 74.5818C104.749 75.015 104.575 75.0626 104.216 75.0583C102.747 75.0583 101.274 75.0583 99.8059 75.0583C99.0739 75.0583 98.9396 74.8937 99.0262 74.1529C99.0262 74.036 99.1042 73.919 99.0262 73.7977C98.8356 73.8194 98.7446 73.984 98.593 74.0836C97.8273 74.7261 96.9304 75.1934 95.9652 75.4531C95 75.7127 93.9897 75.7583 93.005 75.5868C90.4059 75.1536 88.9071 73.4555 88.0624 71.0773C87.8016 70.2701 87.6558 69.4301 87.6292 68.5822C87.6856 68.3079 87.6856 68.0249 87.6292 67.7505L87.6682 66.9188C87.7981 66.3643 87.8848 65.8142 87.9714 65.2597ZM93.8973 67.2567C93.8973 68.8681 94.5948 69.9381 95.838 70.289C96.4855 70.499 97.1829 70.4981 97.8299 70.2864C98.4768 70.0746 99.0398 69.663 99.4377 69.1107C99.8209 68.6057 100.088 68.0227 100.222 67.403C100.355 66.7833 100.351 66.1418 100.209 65.524C100.118 65.0156 99.8724 64.5476 99.5057 64.184C99.139 63.8204 98.669 63.5788 98.1598 63.4923C97.4567 63.3187 96.7158 63.382 96.0523 63.6727C95.3889 63.9633 94.8399 64.4648 94.4908 65.0994C94.1142 65.757 93.91 66.4991 93.8973 67.2567Z" fill="white"/>
<path d="M103.904 99.8189C104.216 99.0132 104.826 98.3581 105.607 97.9889C106.388 97.6196 107.281 97.5645 108.102 97.835C108.471 97.9603 108.805 98.173 109.075 98.455C109.345 98.7371 109.543 99.0801 109.652 99.455C109.735 99.7063 109.704 99.8276 109.388 99.8233C107.577 99.8146 105.762 99.8189 103.904 99.8189Z" fill="white"/>
<path d="M87.7332 66.7587C87.7332 66.7587 87.3564 68.591 87.8199 69.9382C88.2834 71.2854 90.276 70.1678 90.276 70.1678L90.7092 66.1436L87.7332 66.7587Z" fill="white"/>
<path d="M87.742 61.9938C87.742 61.9938 88.3398 63.4233 87.2308 68.9464C86.1219 74.4694 85.1646 67.2136 85.1646 67.2136L85.4288 63.6962L87.742 61.9938Z" fill="white"/>
</svg>
