<svg width="129" height="130" viewBox="0 0 129 130" fill="none" xmlns="http://www.w3.org/2000/svg">
<circle cx="64.5" cy="64.915" r="59.1701" fill="#FFB800" stroke="#E8EEF0" stroke-width="10"/>
<path d="M57.4875 93.57C58.395 93.57 59.2475 92.965 59.495 92.03C59.7975 90.93 59.1375 89.8025 58.01 89.5C46.845 86.5575 39.0625 76.4375 39.0625 64.8875C39.0625 50.8625 50.475 39.45 64.5 39.45C76.4075 39.45 84.2175 46.4075 87.875 50.615H79.79C78.6625 50.615 77.7275 51.55 77.7275 52.6775C77.7275 53.805 78.635 54.7675 79.79 54.7675H91.9725C92.11 54.7675 92.3575 54.74 92.55 54.685C92.7975 54.6025 93.0175 54.4925 93.21 54.355C93.4575 54.19 93.65 53.97 93.7875 53.7225C93.925 53.475 94.035 53.1725 94.0625 52.87C94.0625 52.7875 94.0625 52.7325 94.0625 52.65V40.165C94.0625 39.0375 93.1275 38.1025 92 38.1025C90.8725 38.1025 89.9375 39.0375 89.9375 40.165V46.7375C85.455 41.925 77.0125 35.3525 64.5 35.3525C48.1925 35.3525 34.9375 48.6075 34.9375 64.915C34.9375 78.335 43.985 90.105 56.965 93.515C57.13 93.5425 57.3225 93.57 57.4875 93.57Z" fill="white"/>
<path d="M66.4525 94.4225C66.5075 94.4225 66.5625 94.395 66.59 94.395C69.56 94.2025 72.475 93.5425 75.225 92.47C76.0225 92.1675 76.5725 91.37 76.545 90.5175C76.545 90.27 76.49 90.0225 76.4075 89.8025C75.995 88.7575 74.7575 88.235 73.74 88.62C71.3475 89.555 68.845 90.105 66.315 90.2975C65.2425 90.3525 64.39 91.2875 64.39 92.3875L64.4175 92.4975C64.4725 93.57 65.38 94.4225 66.4525 94.4225ZM81.605 88.51C82.0725 88.51 82.5125 88.345 82.8975 88.07C85.2075 86.2 87.2425 84.0275 88.8925 81.6075C89.14 81.25 89.2775 80.865 89.2775 80.4525C89.2775 79.765 88.9475 79.1325 88.37 78.7475C87.4625 78.115 86.1425 78.3625 85.51 79.2425C85.51 79.27 85.51 79.27 85.51 79.27C85.4825 79.2975 85.455 79.3525 85.4275 79.38C83.9975 81.4425 82.265 83.285 80.3125 84.825C79.845 85.21 79.5425 85.7875 79.5425 86.42C79.5425 86.8875 79.68 87.355 79.9825 87.74C80.395 88.235 80.9725 88.51 81.605 88.51ZM90.79 75.09C91.6975 75.09 92.495 74.5125 92.7425 73.66C93.6225 70.8275 94.0625 67.885 94.0625 64.915V64.8875C94.035 63.76 93.1275 62.8525 92 62.8525C90.8725 62.8525 89.9375 63.7875 89.9375 64.915C89.9375 67.5 89.5525 70.03 88.81 72.4225C88.755 72.6425 88.7275 72.835 88.7275 73.055C88.7275 73.935 89.305 74.7325 90.185 75.0075C90.3775 75.0625 90.57 75.09 90.79 75.09Z" fill="white"/>
<path d="M62.5 54.0637V66.6157L70.7431 74.8588" stroke="white" stroke-width="4" stroke-linecap="round" stroke-linejoin="round"/>
</svg>
