<svg width="244" height="56" viewBox="0 0 244 56" fill="none" xmlns="http://www.w3.org/2000/svg">
<path fill-rule="evenodd" clip-rule="evenodd" d="M54.0496 21.2615L54.0499 21.2607C54.2062 20.8515 54.3635 20.4396 54.5186 20.0234C54.8646 20.1717 54.8509 20.4151 54.8409 20.5912C54.8388 20.6289 54.8368 20.6634 54.8386 20.6934C55.1466 23.4846 56.4367 26.0755 58.4786 28.0034C60.3552 29.6726 62.4309 31.1034 64.6586 32.2634C66.8214 33.2704 68.8559 34.5327 70.7186 36.0234C71.6186 36.8234 72.3086 37.7434 71.8286 39.0234C71.6083 39.6067 71.222 40.1127 70.7172 40.4789C70.2125 40.845 69.6115 41.0551 68.9886 41.0834C67.0393 41.3354 65.0586 41.0267 63.2786 40.1934C61.1046 39.0968 59.1493 37.6124 57.5086 35.8134C56.1386 34.4234 55.4486 34.4234 54.3086 36.0334C52.76 38.1923 51.2559 40.368 49.7631 42.5272L49.7626 42.5278L49.7568 42.5362C49.2465 43.2742 48.7376 44.0104 48.2286 44.7434C48.0639 44.9283 47.9373 45.1439 47.8562 45.3778C47.7751 45.6118 47.741 45.8594 47.7559 46.1066C47.7707 46.3538 47.8343 46.5956 47.9429 46.8181C48.0514 47.0406 48.2029 47.2395 48.3886 47.4034C50.3632 49.6573 52.7108 51.555 55.3286 53.0134C60.8186 55.9934 66.6386 56.3234 72.6386 55.1434C82.2286 53.2234 88.0386 46.5234 88.2286 37.2234C88.3853 34.6837 87.8529 32.149 86.6876 29.887C85.5223 27.6251 83.7674 25.7201 81.6086 24.3734C79.7582 23.1375 77.8384 22.009 75.8586 20.9934C74.3701 20.3187 72.9887 19.4292 71.7586 18.3534C70.6386 17.2834 70.6586 16.3534 71.7586 15.3534C72.355 14.8474 73.0791 14.5153 73.8517 14.3936C74.6243 14.2719 75.4155 14.3652 76.1386 14.6634C78.3251 15.4259 80.3329 16.6271 82.0386 18.1934C83.2786 19.2034 84.0086 19.1034 84.8186 17.7334C85.6286 16.3684 86.4286 14.9984 87.2286 13.6283L87.23 13.6259C88.0295 12.2567 88.829 10.8876 89.6386 9.52337C90.7386 7.68337 90.6786 7.28337 88.9486 5.99337C83.933 2.05647 77.5784 0.233689 71.2386 0.913366C66.4503 1.27533 61.9964 3.50585 58.8386 7.12337C56.9656 9.3037 55.6724 11.921 55.0786 14.7334C55.0647 14.7982 55.0642 14.8755 55.0637 14.9549C55.0621 15.218 55.0603 15.5048 54.5686 15.4434C52.3787 15.2901 50.1821 15.2567 47.9886 15.3434C47.1386 15.3434 46.9586 15.1834 47.2686 14.3434C48.1117 12.0578 48.9208 9.76261 49.7298 7.46782L49.7302 7.46675L49.7305 7.46585L49.7308 7.46511L49.731 7.46453L49.7312 7.46395L49.7314 7.46337L49.7316 7.46279L49.7318 7.46238L49.7319 7.46197L49.7321 7.46155L49.7322 7.46114L49.7324 7.46072L49.7325 7.46031L49.7327 7.45989L49.7328 7.45948L49.733 7.45906L49.7331 7.45865L49.7333 7.45823L49.7334 7.45782L49.7336 7.4574L49.7337 7.45699L49.7339 7.45657L49.734 7.45616L49.7342 7.45574L49.7343 7.45533L49.7345 7.45491L49.7346 7.4545L49.7348 7.45408L49.7349 7.45367L49.7351 7.45325C50.0853 6.45959 50.4356 5.46602 50.7886 4.47336C51.3986 2.73336 50.9086 1.96337 49.0586 1.96337H41.9886C41.4919 1.90244 40.9905 2.02987 40.5832 2.32052C40.176 2.61116 39.8924 3.04391 39.7886 3.53337C39.0407 5.72365 38.2575 7.89631 37.4747 10.0681L37.4746 10.0683L37.4746 10.0685L37.4745 10.0686C36.9386 11.5555 36.4028 13.042 35.8786 14.5334C35.6986 15.1534 35.3886 15.3934 34.6986 15.3934C33.6195 15.3284 32.5376 15.3284 31.4586 15.3934C30.4286 15.4634 30.3686 15.1334 30.6986 14.2534C31.9186 10.9234 33.0786 7.59337 34.2386 4.25337C34.7586 2.78337 34.2486 1.98337 32.6886 1.98337H25.1386C24.7031 1.94369 24.2681 2.0639 23.9147 2.32153C23.5614 2.57917 23.3139 2.95661 23.2186 3.38337C22.5106 5.45713 21.7715 7.51847 21.0326 9.5795L21.0325 9.57983L21.0325 9.57985L21.0325 9.57986L21.0324 9.57988L21.0324 9.5799L21.0324 9.57991L21.0324 9.57993L21.0324 9.57995L21.0324 9.57997L21.0324 9.57998L21.0324 9.58L21.0324 9.58002L21.0324 9.58003L21.0324 9.58005L21.0324 9.58007L21.0324 9.58009L21.0324 9.5801L21.0324 9.58012L21.0324 9.58014L21.0324 9.58015L21.0323 9.58017L21.0323 9.58019L21.0323 9.58021L21.0323 9.58022L21.0323 9.58024L21.0323 9.58026L21.0323 9.58028L21.0323 9.58029L21.0323 9.58031L21.0323 9.58033L21.0323 9.58034C20.4458 11.2162 19.8593 12.8518 19.2886 14.4934C19.2326 14.7789 19.0678 15.0315 18.8288 15.1976C18.5899 15.3637 18.2957 15.4304 18.0086 15.3834H10.9386C10.4898 15.3461 10.0424 15.4694 9.67609 15.7313C9.30979 15.9932 9.04841 16.3767 8.93857 16.8134C8.40084 18.3567 7.81922 19.8854 7.23799 21.4131L7.23798 21.4132L7.23795 21.4132L7.23794 21.4132C6.98689 22.0731 6.73591 22.7328 6.48857 23.3934C5.81857 25.1734 6.29857 25.9234 8.29857 25.9234H14.2986C14.9486 25.9134 15.2586 26.0434 14.9486 26.7934C14.4748 27.9264 14.0642 29.0849 13.7186 30.2634C13.6981 30.408 13.6486 30.5469 13.5729 30.6718C13.4972 30.7967 13.397 30.905 13.2782 30.9901C13.1595 31.0751 13.0248 31.1352 12.8822 31.1667C12.7396 31.1982 12.5921 31.2005 12.4486 31.1734H5.72857C5.33238 31.1112 4.92679 31.1838 4.57682 31.3796C4.22685 31.5755 3.95278 31.8832 3.79857 32.2534C3.59569 32.7937 3.3919 33.3335 3.18818 33.8732C2.43792 35.8606 1.68851 37.8458 0.988568 39.8434C0.618568 40.8834 1.21856 41.6034 2.21856 41.6634C3.21856 41.7234 4.21856 41.7234 5.21856 41.7234H9.58857C9.55102 41.8569 9.52217 41.9677 9.49695 42.0647C9.46171 42.2002 9.43353 42.3085 9.39856 42.4134C8.16523 45.8934 6.9419 49.3734 5.72857 52.8534C5.21857 54.2434 5.75856 55.0934 7.21856 55.0934H14.8886C15.3084 55.1227 15.7249 55.0007 16.0624 54.7493C16.4 54.498 16.6363 54.134 16.7286 53.7234C17.6819 50.99 18.6586 48.2567 19.6586 45.5234C19.8217 45.122 19.9231 44.6621 20.0242 44.2035C20.2331 43.2563 20.4407 42.3143 21.1886 41.9034C21.9399 41.4905 22.9202 41.5586 23.9064 41.6272C24.3772 41.6599 24.8494 41.6928 25.2986 41.6734C26.1086 41.6734 26.2186 41.9034 25.9386 42.6734C24.8859 45.5617 23.8786 48.4652 22.8707 51.3707C22.72 51.8049 22.5694 52.2391 22.4186 52.6734C21.8286 54.3634 22.3186 55.1134 24.0886 55.1134H31.1586C31.6725 55.1888 32.1961 55.071 32.6283 54.7829C33.0604 54.4948 33.3705 54.0567 33.4986 53.5534C34.1829 51.5607 34.8972 49.58 35.6119 47.5981L35.6121 47.5977L35.6122 47.5974L35.6123 47.597L35.6124 47.5966L35.6126 47.5963L35.6127 47.5959L35.6128 47.5955L35.6129 47.5952L35.6131 47.5948L35.6132 47.5944L35.6133 47.5941L35.6134 47.5937L35.6136 47.5933L35.6136 47.5933L35.6136 47.5932L35.6136 47.5931L35.6137 47.5931L35.6137 47.593L35.6137 47.5929L35.6137 47.5929L35.6138 47.5928L35.6138 47.5927L35.6138 47.5927L35.6138 47.5926L35.6139 47.5925L35.6139 47.5925L35.6139 47.5924L35.6139 47.5923L35.6139 47.5922L35.614 47.5922L35.614 47.5921L35.614 47.592L35.614 47.592L35.6141 47.5919L35.6141 47.5918L35.6141 47.5918L35.6141 47.5917L35.6141 47.5916L35.6142 47.5916L35.6142 47.5915L35.6142 47.5914L35.6142 47.5914L35.6143 47.5913C36.2043 45.9552 36.7946 44.3184 37.3686 42.6734C37.4153 42.3877 37.5727 42.132 37.8067 41.9617C38.0407 41.7914 38.3324 41.7201 38.6186 41.7634H45.6186C46.0661 41.81 46.5153 41.6928 46.8831 41.4336C47.2508 41.1743 47.5121 40.7905 47.6186 40.3534C48.1008 38.8806 48.6383 37.4248 49.1756 35.9693C49.4628 35.1914 49.7499 34.4136 50.0286 33.6334C50.6186 32.0034 50.0786 31.2134 48.2986 31.2134C47.6449 31.2134 46.9967 31.2056 46.3489 31.1978C45.0545 31.1822 43.7615 31.1667 42.4286 31.2134C41.5086 31.2134 41.4786 30.9234 41.7486 30.2134C42.1686 29.1034 42.5686 27.9734 42.9086 26.8334C42.9315 26.6916 42.9825 26.5557 43.0586 26.4339C43.1347 26.312 43.2343 26.2066 43.3516 26.1237C43.469 26.0408 43.6016 25.9822 43.7419 25.9512C43.8822 25.9203 44.0272 25.9176 44.1686 25.9434H50.8786C51.3278 25.9918 51.7793 25.8741 52.1477 25.6125C52.5162 25.3509 52.7761 24.9635 52.8786 24.5234C53.2206 23.4318 53.6315 22.3561 54.0495 21.2615L54.0496 21.2615ZM29.3886 31.2834H27.3886C26.8721 31.2567 26.3546 31.26 25.8386 31.2934C24.8286 31.4134 24.4386 31.2634 24.9286 30.1334C25.2786 29.3262 25.552 28.4936 25.8255 27.6609C25.9349 27.3279 26.0443 26.9948 26.1586 26.6634C26.3086 26.2334 26.4586 25.9234 27.0486 25.9234H31.2286C31.9086 25.9134 31.9486 26.2034 31.7586 26.7234C31.2886 28.0334 30.8286 29.3334 30.3886 30.6434C30.3661 30.7517 30.3222 30.8544 30.2595 30.9455C30.1967 31.0366 30.1164 31.1142 30.0233 31.1739C29.9301 31.2335 29.826 31.2739 29.717 31.2927C29.608 31.3115 29.4963 31.3083 29.3886 31.2834ZM237.029 1.43337H169.569L101.979 1.41337C97.7786 1.41337 95.3686 3.81337 95.3686 7.98337V48.1234C95.3686 52.3034 97.7786 54.7034 101.979 54.7034H237.149C241.349 54.7034 243.759 52.3034 243.759 48.1234V8.12337C243.759 3.77337 241.409 1.43337 237.029 1.43337ZM215.109 37.5734H209.479V37.5034H200.989C200.832 37.5034 200.651 37.48 200.466 37.4563C199.979 37.3935 199.469 37.3278 199.339 37.6834C199.262 38.0738 199.281 38.477 199.394 38.8584C199.507 39.2398 199.711 39.5881 199.989 39.8734C200.394 40.3769 200.958 40.7291 201.589 40.8734C204.149 41.5034 206.159 40.4134 208.039 38.8734C208.162 38.7748 208.271 38.6493 208.38 38.5234C208.659 38.2022 208.94 37.8784 209.479 37.9934V38.0334L213.989 42.6434C215.069 43.7434 215.029 44.4834 213.809 45.4834C211.218 47.5784 208.035 48.8063 204.709 48.9934C202.402 49.2381 200.07 49.0585 197.829 48.4634C192.609 46.9234 189.649 43.4034 189.029 38.0534C188.289 31.7934 189.979 26.3734 195.479 22.7934C197.702 21.3156 200.267 20.4306 202.929 20.2223C205.591 20.014 208.262 20.4894 210.689 21.6034C216.019 23.8334 218.529 29.1634 218.179 34.7434C217.999 37.5734 217.919 37.5734 215.109 37.5734ZM130.61 47.9499L134.844 22.0847C134.722 21.4322 134.349 21.0434 133.749 21.0434C132.859 21.0434 131.969 21.0297 131.08 21.0161C128.861 20.982 126.643 20.948 124.425 21.1255L124.151 22.8018C124.155 22.8546 124.163 22.9096 124.171 22.9643C124.202 23.1698 124.233 23.3728 124.044 23.4516L121.94 36.3066C121.941 36.3062 121.942 36.3059 121.943 36.3056C121.951 36.3026 121.96 36.2993 121.969 36.2934C121.969 36.3708 121.948 36.4468 121.909 36.5134V36.4989L120.187 47.0179C120.188 47.0234 120.189 47.0289 120.191 47.0344C120.239 47.2176 120.327 47.388 120.448 47.5337C120.569 47.6794 120.72 47.797 120.891 47.8781C121.062 47.9592 121.249 48.002 121.439 48.0034C122.347 48.0034 123.257 48.0163 124.167 48.0293C126.317 48.06 128.469 48.0907 130.61 47.9499ZM123.352 21.4899C123.225 21.3479 123.071 21.232 122.899 21.1489C122.703 21.0538 122.487 21.004 122.269 21.0034H119.509C119.62 20.3414 119.729 19.696 119.837 19.0609L119.837 19.0587C120.031 17.9197 120.219 16.8136 120.399 15.7034C120.454 15.4738 120.454 15.2346 120.4 15.0048C120.346 14.775 120.239 14.5611 120.087 14.3802C119.936 14.1994 119.744 14.0566 119.527 13.9633C119.31 13.8701 119.074 13.829 118.839 13.8434H110.699C110.019 13.8434 109.699 13.9634 109.649 14.7234C109.561 15.5834 109.421 16.438 109.281 17.2984L109.281 17.2987L109.281 17.2991C109.151 18.0992 109.02 18.9043 108.929 19.7234C108.809 20.7234 108.479 21.2834 107.319 21.0934C106.603 21.0482 105.885 21.0482 105.169 21.0934C104.709 21.0934 104.469 21.1834 104.399 21.7234C104.254 22.7939 104.081 23.8415 103.908 24.8861L103.908 24.8864L103.908 24.8867C103.758 25.7935 103.609 26.698 103.479 27.6134C103.417 27.8534 103.416 28.1048 103.474 28.3455C103.533 28.5861 103.65 28.8087 103.815 28.9934C103.98 29.1782 104.188 29.3196 104.421 29.405C104.653 29.4904 104.903 29.5173 105.149 29.4834C105.481 29.5214 105.816 29.5214 106.149 29.4834C107.339 29.2834 107.369 29.8034 107.149 30.8134C106.45 34.9334 105.803 39.0598 105.155 43.1876C104.997 44.1994 104.838 45.2114 104.679 46.2234C104.611 46.4623 104.604 46.7143 104.657 46.9568C104.71 47.1994 104.822 47.4251 104.983 47.614C105.144 47.8029 105.35 47.9491 105.581 48.0397C105.812 48.1303 106.062 48.1625 106.309 48.1334H114.309C114.889 48.1334 115.309 48.1334 115.369 47.3734C115.696 45.2253 116.031 43.0771 116.367 40.9263L116.367 40.9253C116.915 37.4192 117.464 33.9059 117.979 30.3734C118.099 29.5734 118.389 29.4334 119.109 29.3734C119.422 29.3734 119.738 29.3946 120.055 29.4158C120.727 29.461 121.403 29.5064 122.066 29.3489L123.352 21.4899ZM172.991 28.5158C173.01 28.6888 173.067 28.8554 173.159 29.0034C173.772 28.3224 174.389 27.6517 175.004 26.9837C176.311 25.5622 177.607 24.1528 178.839 22.6834C179.255 22.0964 179.819 21.6306 180.475 21.3337C181.13 21.0367 181.853 20.9193 182.569 20.9934C184.455 21.0734 186.346 21.0467 188.238 21.0201H188.238H188.238H188.238H188.238H188.239H188.239H188.239H188.239H188.239H188.239H188.239H188.239H188.24H188.24H188.24H188.24H188.24H188.24H188.24H188.241H188.241H188.241H188.241H188.241H188.241H188.241H188.242H188.242H188.242H188.242C189.187 21.0067 190.133 20.9934 191.079 20.9934C191.366 20.9493 191.659 21.0099 191.905 21.1641C192.151 21.3184 192.333 21.5559 192.419 21.8334C192.556 22.091 192.593 22.3909 192.521 22.6741C192.448 22.9572 192.273 23.2031 192.029 23.3634C190.586 24.7892 189.15 26.222 187.714 27.6553L187.714 27.6557L187.713 27.6566L187.712 27.6581L187.709 27.6608L187.708 27.6616L187.708 27.6618L187.708 27.662L187.707 27.6623L187.707 27.6625L187.707 27.6627L187.707 27.6629L187.707 27.6631L187.706 27.6633C185.731 29.6351 183.755 31.6076 181.759 33.5634C181.621 33.6481 181.504 33.7626 181.417 33.8984C181.33 34.0342 181.274 34.1878 181.254 34.3481C181.233 34.5083 181.249 34.671 181.301 34.8242C181.352 34.9774 181.436 35.1172 181.549 35.2334C182.91 37.3117 184.246 39.4155 185.583 41.5205L185.583 41.5208L185.583 41.5215L185.584 41.5217L185.584 41.522L185.584 41.5223L185.584 41.5225L185.584 41.5228L185.584 41.5231L185.585 41.5233L185.585 41.5236L185.585 41.5238L185.585 41.5241L185.585 41.5244C186.467 42.9124 187.349 44.3011 188.239 45.6834C188.435 45.9004 188.558 46.1744 188.588 46.4656C188.619 46.7568 188.556 47.0502 188.409 47.3034C188.282 47.5669 188.073 47.7818 187.813 47.9154C187.553 48.049 187.256 48.094 186.969 48.0434H177.619C177.331 48.0748 177.041 48.0093 176.794 47.8571C176.548 47.7049 176.359 47.4749 176.259 47.2034C175.043 44.8859 173.809 42.5878 172.493 40.1372L172.491 40.1341C172.172 39.5403 171.848 38.9375 171.519 38.3234C171.375 39.2207 171.23 40.0875 171.089 40.9339L171.088 40.9411L171.088 40.9447L171.087 40.9464L171.087 40.9472L171.087 40.9476C170.757 42.9259 170.446 44.7923 170.209 46.6734C170.079 47.7634 169.709 48.0534 168.599 48.0534C166.978 48.0134 165.313 48.0267 163.651 48.0401H163.65C162.82 48.0467 161.991 48.0534 161.169 48.0534C159.869 48.0534 159.239 47.3934 159.439 46.1334C159.925 42.9401 160.43 39.7467 160.934 36.5534C161.186 34.9567 161.439 33.3601 161.689 31.7634C162.775 24.8567 163.859 17.95 164.939 11.0434C164.957 10.9292 164.985 10.815 165.013 10.7007C165.061 10.505 165.109 10.3092 165.109 10.1134C165.559 7.64336 165.559 7.64337 168.109 7.64337H174.229C175.739 7.64337 176.289 8.32337 176.049 9.77337C175.022 15.8467 174.022 21.9234 173.049 28.0034C172.991 28.1677 172.972 28.3428 172.991 28.5158ZM155.159 47.8234C153.048 48.5859 150.823 48.9849 148.579 49.0034H148.589C140.869 49.0534 135.469 43.8634 135.409 36.2234C135.349 28.5834 139.299 22.8534 146.109 20.9934C150.579 19.7734 154.959 19.9734 158.959 22.6634C159.234 22.8026 159.453 23.0334 159.577 23.3162C159.701 23.5991 159.723 23.9162 159.639 24.2134C159.444 25.3945 159.269 26.5844 159.094 27.7751C158.947 28.7822 158.799 29.7899 158.639 30.7934C158.587 31.0363 158.473 31.2615 158.307 31.4466C158.142 31.6316 157.931 31.77 157.695 31.8479C157.459 31.9259 157.207 31.9406 156.964 31.8907C156.72 31.8407 156.495 31.7279 156.309 31.5634C154.669 30.0934 152.889 29.0934 150.569 29.6534C147.229 30.4634 145.419 35.5134 147.509 38.2434C148.529 39.5934 150.499 40.0434 152.659 39.3934C153.475 39.2054 154.238 38.8325 154.889 38.3034C155.589 37.6634 156.099 37.9134 156.789 38.3034C157.386 38.6412 157.301 39.0915 157.216 39.5439L157.216 39.5445L157.215 39.5451C157.202 39.6146 157.189 39.6842 157.179 39.7534C157.038 40.6505 156.889 41.5538 156.738 42.4619L156.738 42.4636L156.738 42.465L156.738 42.4654C156.503 43.8843 156.266 45.3151 156.059 46.7534C156.05 47.0068 155.957 47.2502 155.794 47.4443C155.631 47.6384 155.407 47.7719 155.159 47.8234ZM234.329 15.7634C234.039 17.4734 233.749 19.1934 233.449 21.0034L235.959 20.9834C236.203 20.9616 236.45 20.9987 236.677 21.0916C236.905 21.1846 237.107 21.3306 237.267 21.5176C237.426 21.7046 237.539 21.927 237.595 22.1664C237.651 22.4057 237.649 22.655 237.589 22.8934C237.52 23.3125 237.45 23.7316 237.38 24.1508C237.143 25.5721 236.906 26.9947 236.729 28.4234C236.599 29.1934 236.369 29.4234 235.599 29.4234C235.266 29.4234 234.902 29.3868 234.536 29.35C233.603 29.2562 232.654 29.1607 232.159 29.6634C231.671 30.1582 231.618 31.0379 231.565 31.9138C231.543 32.2769 231.521 32.6393 231.469 32.9734L231.37 33.608L231.369 33.6137C230.662 38.1494 229.957 42.6773 229.279 47.2234C229.189 47.8834 228.919 48.0534 228.279 48.0534H220.129C219.892 48.0728 219.654 48.0357 219.434 47.9451C219.215 47.8546 219.02 47.7132 218.865 47.5325C218.711 47.3519 218.602 47.1372 218.547 46.9061C218.492 46.675 218.492 46.4342 218.549 46.2034C219.355 40.9834 220.195 35.7667 221.069 30.5534C221.209 29.7034 221.139 29.2634 220.139 29.4034C219.664 29.4683 219.183 29.4683 218.709 29.4034C217.799 29.3034 217.219 28.7634 217.329 27.8534C217.489 26.7175 217.674 25.5874 217.86 24.4583C218.022 23.4702 218.184 22.4829 218.329 21.4934C218.4 21.0055 218.699 21.0133 219.003 21.0213L219.051 21.0225L219.081 21.0231L219.119 21.0234H221.879C222.439 21.0534 222.609 20.8834 222.689 20.3134C222.805 19.43 222.953 18.5509 223.1 17.6722C223.268 16.6709 223.436 15.67 223.559 14.6634C223.679 13.9734 223.929 13.8334 224.559 13.8334H232.709C232.955 13.8099 233.204 13.8467 233.434 13.9406C233.663 14.0346 233.866 14.1829 234.026 14.3728C234.185 14.5627 234.296 14.7885 234.349 15.0307C234.401 15.2729 234.395 15.5244 234.329 15.7634ZM125.176 16.6146C124.916 15.9043 124.801 15.1489 124.839 14.3934L124.849 14.4034C124.852 13.6419 125.009 12.889 125.312 12.1904C125.615 11.4917 126.056 10.8619 126.61 10.3392C127.164 9.81639 127.818 9.41157 128.533 9.14928C129.248 8.887 130.008 8.77272 130.769 8.81337C131.526 8.80847 132.277 8.95794 132.975 9.25267C133.673 9.5474 134.304 9.9812 134.829 10.5276C135.354 11.0741 135.762 11.7217 136.028 12.431C136.295 13.1403 136.414 13.8965 136.379 14.6534C136.371 15.4236 136.209 16.1845 135.9 16.8903C135.592 17.5962 135.144 18.2325 134.584 18.7611C134.024 19.2896 133.362 19.6996 132.64 19.9663C131.917 20.2331 131.148 20.3511 130.379 20.3134C129.622 20.3009 128.876 20.1364 128.185 19.8297C127.493 19.5229 126.87 19.0802 126.354 18.5279C125.837 17.9755 125.436 17.3249 125.176 16.6146ZM121.249 40.8434C121.264 40.9092 121.264 40.9775 121.249 41.0434C121.244 40.9935 121.244 40.9433 121.249 40.8934C121.249 40.8934 121.229 40.8634 121.249 40.8434ZM120.769 43.9334C120.769 44.014 120.748 44.0933 120.709 44.1634L120.769 43.9334ZM207.189 29.5234C205.549 27.4334 202.069 27.9434 200.549 30.5234C200.656 30.5619 200.766 30.592 200.879 30.6134H206.719C206.799 30.6106 206.89 30.6248 206.982 30.6393C207.221 30.6769 207.47 30.716 207.579 30.4634C207.705 30.1686 207.491 29.9022 207.295 29.6581C207.258 29.6124 207.222 29.5675 207.189 29.5234Z" fill="white"/>
</svg>
