<svg width="16" height="16" viewBox="0 0 16 16" fill="none" xmlns="http://www.w3.org/2000/svg">
<path d="M6.35767 3.22949V4.5623" stroke="#264653" stroke-width="0.7" stroke-miterlimit="10" stroke-linecap="round" stroke-linejoin="round"/>
<path d="M9.91187 3.22949V4.5623" stroke="#264653" stroke-width="0.7" stroke-miterlimit="10" stroke-linecap="round" stroke-linejoin="round"/>
<path d="M4.3584 6.37939H11.911" stroke="#264653" stroke-width="0.7" stroke-miterlimit="10" stroke-linecap="round" stroke-linejoin="round"/>
<path d="M12.1332 6.11735V9.89365C12.1332 11.2265 11.4668 12.115 9.91181 12.115H6.35765C4.8027 12.115 4.13629 11.2265 4.13629 9.89365V6.11735C4.13629 4.78454 4.8027 3.896 6.35765 3.896H9.91181C11.4668 3.896 12.1332 4.78454 12.1332 6.11735Z" stroke="#264653" stroke-width="0.7" stroke-miterlimit="10" stroke-linecap="round" stroke-linejoin="round"/>
<path d="M9.77627 8.42721H9.78027" stroke="#264653" stroke-width="0.7" stroke-linecap="round" stroke-linejoin="round"/>
<path d="M9.77627 9.76022H9.78027" stroke="#264653" stroke-width="0.7" stroke-linecap="round" stroke-linejoin="round"/>
<path d="M8.13266 8.42721H8.13665" stroke="#264653" stroke-width="0.7" stroke-linecap="round" stroke-linejoin="round"/>
<path d="M8.13266 9.76022H8.13665" stroke="#264653" stroke-width="0.7" stroke-linecap="round" stroke-linejoin="round"/>
<path d="M6.48843 8.42721H6.49242" stroke="#264653" stroke-width="0.7" stroke-linecap="round" stroke-linejoin="round"/>
<path d="M6.48843 9.76022H6.49242" stroke="#264653" stroke-width="0.7" stroke-linecap="round" stroke-linejoin="round"/>
<rect x="0.796753" y="0.333984" width="14.676" height="14.676" rx="4.75" stroke="#EDEDED" stroke-width="0.5"/>
</svg>
