<svg width="16" height="16" viewBox="0 0 16 16" fill="none" xmlns="http://www.w3.org/2000/svg">
<rect x="0.796753" y="1.00732" width="14.676" height="14.676" rx="4.75" fill="white" stroke="#E0E0E0" stroke-width="0.5"/>
<path d="M6.72949 4.83203V5.88592" stroke="#264653" stroke-width="0.7" stroke-miterlimit="10" stroke-linecap="round" stroke-linejoin="round"/>
<path d="M9.53992 4.83203V5.88592" stroke="#264653" stroke-width="0.7" stroke-miterlimit="10" stroke-linecap="round" stroke-linejoin="round"/>
<path d="M5.14868 7.32275H11.1207" stroke="#264653" stroke-width="0.7" stroke-miterlimit="10" stroke-linecap="round" stroke-linejoin="round"/>
<path d="M11.2964 7.11537V10.1014C11.2964 11.1553 10.7694 11.8579 9.53988 11.8579H6.72951C5.49997 11.8579 4.97302 11.1553 4.97302 10.1014V7.11537C4.97302 6.06148 5.49997 5.35889 6.72951 5.35889H9.53988C10.7694 5.35889 11.2964 6.06148 11.2964 7.11537Z" stroke="#264653" stroke-width="0.7" stroke-miterlimit="10" stroke-linecap="round" stroke-linejoin="round"/>
<path d="M9.43269 8.94225H9.43585" stroke="#264653" stroke-width="0.7" stroke-linecap="round" stroke-linejoin="round"/>
<path d="M9.43269 9.99596H9.43585" stroke="#264653" stroke-width="0.7" stroke-linecap="round" stroke-linejoin="round"/>
<path d="M8.13307 8.94225H8.13622" stroke="#264653" stroke-width="0.7" stroke-linecap="round" stroke-linejoin="round"/>
<path d="M8.13307 9.99596H8.13622" stroke="#264653" stroke-width="0.7" stroke-linecap="round" stroke-linejoin="round"/>
<path d="M6.83296 8.94225H6.83611" stroke="#264653" stroke-width="0.7" stroke-linecap="round" stroke-linejoin="round"/>
<path d="M6.83296 9.99596H6.83611" stroke="#264653" stroke-width="0.7" stroke-linecap="round" stroke-linejoin="round"/>
</svg>
