<svg width="264" height="167" viewBox="0 0 264 167" fill="none" xmlns="http://www.w3.org/2000/svg">
<g clip-path="url(#clip0_324_880)">
<path d="M99.4194 100.635C90.6924 100.543 82.3534 96.9762 76.2126 90.7092C70.0719 84.4422 66.6249 75.9807 66.6198 67.1613L99.4194 67.1613L99.4194 100.635Z" fill="#ECECEC"/>
<path d="M99.7766 133.509C108.377 133.588 116.602 137.079 122.677 143.231C125.729 146.308 128.15 149.963 129.801 153.987C131.452 158.011 132.3 162.325 132.298 166.681V166.681L99.7923 166.681L99.7766 133.509Z" fill="#ECECEC"/>
<path d="M0.978729 166.686L33.7993 166.686L33.7993 133.52L0.978732 133.52L0.978729 166.686Z" fill="#F0F0F0"/>
<path d="M0.97348 133.52L33.7941 133.52L33.7941 100.354L0.973483 100.354L0.97348 133.52Z" fill="#ECECEC"/>
<path d="M33.815 34.0111L66.6356 34.0111L66.6356 0.845074L33.815 0.845071L33.815 34.0111Z" fill="#F0F0F0"/>
<path d="M132.413 166.665L165.344 166.665L165.344 133.387L132.413 133.387L132.413 166.665Z" fill="#F0F0F0"/>
<path d="M132.161 33.974C136.514 33.974 140.688 35.7211 143.765 38.831C146.843 41.9409 148.572 46.1589 148.572 50.557V50.557C148.572 54.9551 146.843 59.173 143.765 62.283C140.688 65.3929 136.514 67.14 132.161 67.14C127.809 67.14 123.635 65.3929 120.557 62.283C117.48 59.173 115.751 54.9551 115.751 50.557V50.557C115.751 46.1589 117.48 41.9409 120.557 38.831C123.635 35.7211 127.809 33.974 132.161 33.974Z" fill="#F7F7F7"/>
<path d="M0.97348 67.1719L33.7941 67.1719L33.7941 34.0058L0.973483 34.0058L0.97348 67.1719Z" fill="#F0F0F0"/>
<path d="M33.7993 0.839832L33.7993 34.0165L0.978727 34.0165C0.977347 29.6602 1.82525 25.3462 3.47402 21.3211C5.12279 17.296 7.54014 13.6386 10.5879 10.5577C13.6358 7.47681 17.2543 5.03287 21.237 3.36545C25.2196 1.69804 29.4884 0.839832 33.7993 0.839832V0.839832Z" fill="#F0F0F0"/>
<path d="M0.978638 34.0165L0.978638 0.839844L33.7992 0.839844C33.8006 5.19616 32.9527 9.51008 31.3039 13.5352C29.6552 17.5603 27.2378 21.2178 24.19 24.2986C21.1422 27.3795 17.5236 29.8235 13.541 31.4909C9.55831 33.1583 5.28958 34.0165 0.978638 34.0165V34.0165Z" fill="#F0F0F0"/>
<path d="M0.973406 100.338L17.3154 100.338L17.3154 67.1719L0.973409 67.1719L0.973406 100.338Z" fill="#F0F0F0"/>
<path d="M17.3208 100.338L33.7993 100.338L33.7993 67.1719L17.3208 67.1719L17.3208 100.338Z" fill="#F0F0F0"/>
<path d="M33.7993 67.1772L66.6199 67.1772L66.6199 50.5252L33.7993 50.5252L33.7993 67.1772Z" fill="#F7F7F7"/>
<path d="M66.9664 149.997L66.9664 133.483L99.787 133.483L99.787 133.493L83.3032 133.493L83.3032 149.997L66.9664 149.997Z" fill="#F0F0F0"/>
<path d="M83.3032 149.997L99.787 149.997L99.787 133.493L83.3032 133.493L83.3032 149.997Z" fill="#F0F0F0"/>
<path d="M83.3032 166.649L99.787 166.649L99.787 149.997L83.3032 149.997L83.3032 166.649Z" fill="#F0F0F0"/>
<path d="M83.3032 150.151L99.787 150.151L99.787 133.499L83.3032 133.499L83.3032 150.151Z" fill="#ECECEC"/>
<path d="M33.7626 50.5518L50.1361 50.5518L50.1361 34.0112L33.7626 34.0112L33.7626 50.5518Z" fill="#F0F0F0"/>
<path d="M99.4142 83.6807L115.788 83.6807L115.788 67.1401L99.4142 67.1401L99.4142 83.6807Z" fill="#F0F0F0"/>
<path d="M82.9724 117.139L99.3459 100.598L99.3459 117.139L82.9724 117.139Z" fill="#F0F0F0"/>
<path d="M0.962975 166.691L33.7993 133.52L33.7993 166.691L0.962975 166.691Z" fill="#ECECEC"/>
<path d="M50.2201 34.0111L66.5884 17.4758L66.5884 34.0111L50.2201 34.0111Z" fill="#ECECEC"/>
<path d="M165.307 166.675L181.681 166.675L181.681 150.135L165.307 150.135L165.307 166.675Z" fill="#F7F7F7"/>
<path d="M214.433 133.223L230.807 133.223L230.807 116.682L214.433 116.682L214.433 133.223Z" fill="#F7F7F7"/>
<path d="M115.735 50.4934L132.109 50.4934L132.109 33.9528L115.735 33.9528L115.735 50.4934Z" fill="#F0F0F0"/>
<path d="M115.956 100.338L132.329 100.338L132.329 83.7973L115.956 83.7973L115.956 100.338Z" fill="#F0F0F0"/>
<path d="M83.1089 33.9581C83.1089 31.7867 83.5321 29.6365 84.3545 27.6304C85.1768 25.6242 86.3821 23.8014 87.9015 22.2659C89.421 20.7305 91.2248 19.5125 93.2101 18.6816C95.1953 17.8506 97.3231 17.4229 99.4719 17.4229V17.4229L99.4719 33.9581L83.1089 33.9581Z" fill="#F0F0F0"/>
<path d="M33.8098 83.7284L50.1833 83.7284L50.1834 67.1878L33.8098 67.1878L33.8098 83.7284Z" fill="#F7F7F7"/>
<path d="M66.9454 133.557C66.8569 124.736 63.3288 116.306 57.1269 110.097C50.9251 103.889 42.5501 100.403 33.8203 100.396V100.396L33.8203 133.557L66.9454 133.557Z" fill="#F0F0F0"/>
<path d="M165.344 133.419C165.261 124.639 161.754 116.247 155.585 110.064C149.415 103.881 141.081 100.407 132.392 100.396V100.396L132.392 133.419L165.344 133.419Z" fill="#F0F0F0"/>
<path d="M66.9454 133.52C66.8569 142.341 63.3288 150.771 57.1269 156.98C50.9251 163.188 42.5501 166.674 33.8203 166.681V166.681L33.8203 133.52L66.9454 133.52Z" fill="#ECECEC"/>
<path d="M230.938 133.345C222.261 133.421 213.961 136.944 207.832 143.151C204.752 146.256 202.308 149.945 200.642 154.007C198.976 158.068 198.12 162.422 198.123 166.819V166.819L230.938 166.819L230.938 133.345Z" fill="#F0F0F0"/>
<path d="M230.896 133.345C239.573 133.421 247.873 136.944 254.002 143.151C257.083 146.255 259.527 149.944 261.194 154.006C262.86 158.067 263.716 162.422 263.711 166.819V166.819L230.912 166.819L230.896 133.345Z" fill="#F7F7F7"/>
<path d="M0.973495 131.689L17.3838 131.689L17.3838 130.458L0.973496 130.458L0.973495 131.689Z" fill="#F7F7F7"/>
<path d="M0.973495 128.24L17.3838 128.24L17.3838 127.009L0.973496 127.009L0.973495 128.24Z" fill="#F7F7F7"/>
<path d="M0.973495 124.791L17.3838 124.791L17.3838 123.56L0.973496 123.56L0.973495 124.791Z" fill="#F7F7F7"/>
<path d="M124.295 56.251L124.295 92.1447L125.513 92.1447L125.513 56.251L124.295 56.251Z" fill="#F7F7F7"/>
<path d="M127.708 56.251L127.708 92.1447L128.926 92.1447L128.926 56.251L127.708 56.251Z" fill="#F7F7F7"/>
<path d="M131.121 56.2563L131.121 92.1499L132.34 92.1499L132.34 56.2563L131.121 56.2563Z" fill="#F7F7F7"/>
<path d="M0.973495 121.341L17.3838 121.341L17.3838 120.11L0.973496 120.11L0.973495 121.341Z" fill="#F7F7F7"/>
<path d="M0.973495 117.887L17.3838 117.887L17.3838 116.656L0.973496 116.656L0.973495 117.887Z" fill="#F7F7F7"/>
<path d="M0.973495 114.437L17.3838 114.438L17.3838 113.206L0.973496 113.206L0.973495 114.437Z" fill="#F7F7F7"/>
<path d="M0.973495 110.988L17.3838 110.988L17.3838 109.757L0.973496 109.757L0.973495 110.988Z" fill="#F7F7F7"/>
<path d="M0.973495 107.534L17.3838 107.534L17.3838 106.303L0.973496 106.303L0.973495 107.534Z" fill="#F7F7F7"/>
<path d="M0.973495 104.084L17.3838 104.084L17.3838 102.853L0.973496 102.853L0.973495 104.084Z" fill="#F7F7F7"/>
<path d="M0.978671 67.14L0.978674 34.0164L1.96592 34.0164C6.19206 34.3192 10.1385 36.262 12.9795 39.4382C15.8205 42.6143 17.3357 46.7777 17.2081 51.0571C17.0806 55.3365 15.3201 59.4003 12.2952 62.3979C9.27021 65.3955 5.21518 67.0948 0.978671 67.14V67.14Z" fill="#ECECEC"/>
<path d="M66.5936 67.1454L99.4142 67.1454L99.4142 33.9794L66.5936 33.9793L66.5936 67.1454Z" fill="#ECECEC"/>
<path d="M181.287 144.361C181.288 144.14 181.354 143.924 181.476 143.741C181.599 143.557 181.772 143.414 181.975 143.331C182.177 143.247 182.4 143.225 182.615 143.269C182.829 143.313 183.026 143.42 183.18 143.577C183.335 143.733 183.44 143.933 183.482 144.15C183.525 144.367 183.502 144.592 183.418 144.796C183.334 145.001 183.192 145.175 183.01 145.298C182.828 145.421 182.614 145.486 182.395 145.486C182.249 145.486 182.105 145.457 181.97 145.4C181.835 145.344 181.713 145.261 181.61 145.156C181.507 145.052 181.425 144.928 181.37 144.791C181.315 144.655 181.286 144.509 181.287 144.361Z" fill="#ECECEC"/>
<path d="M181.287 138.508C181.285 138.286 181.348 138.069 181.469 137.883C181.589 137.698 181.761 137.552 181.964 137.466C182.166 137.38 182.389 137.356 182.605 137.398C182.82 137.44 183.019 137.546 183.175 137.702C183.331 137.858 183.437 138.058 183.481 138.275C183.525 138.493 183.503 138.718 183.42 138.924C183.336 139.129 183.194 139.304 183.012 139.428C182.829 139.551 182.615 139.617 182.395 139.617C182.103 139.617 181.823 139.501 181.615 139.293C181.408 139.085 181.29 138.803 181.287 138.508V138.508Z" fill="#ECECEC"/>
<path d="M175.642 144.361C175.642 144.138 175.707 143.921 175.83 143.736C175.953 143.551 176.127 143.406 176.33 143.321C176.534 143.236 176.758 143.214 176.974 143.258C177.19 143.302 177.389 143.41 177.544 143.568C177.7 143.725 177.805 143.926 177.848 144.145C177.89 144.364 177.867 144.59 177.782 144.795C177.697 145.001 177.554 145.176 177.37 145.299C177.186 145.422 176.97 145.487 176.75 145.486C176.456 145.485 176.174 145.366 175.966 145.155C175.759 144.944 175.642 144.659 175.642 144.361Z" fill="#ECECEC"/>
<path d="M175.642 138.508C175.639 138.285 175.702 138.065 175.822 137.878C175.943 137.691 176.116 137.544 176.319 137.457C176.523 137.37 176.747 137.345 176.965 137.387C177.182 137.429 177.382 137.536 177.539 137.693C177.696 137.85 177.803 138.051 177.846 138.27C177.89 138.489 177.868 138.716 177.784 138.923C177.699 139.129 177.556 139.305 177.372 139.429C177.187 139.553 176.971 139.618 176.75 139.617C176.458 139.616 176.179 139.499 175.972 139.291C175.764 139.084 175.646 138.803 175.642 138.508V138.508Z" fill="#ECECEC"/>
<path d="M192.703 144.361C192.704 144.14 192.77 143.924 192.893 143.741C193.015 143.557 193.188 143.414 193.391 143.331C193.594 143.247 193.816 143.225 194.031 143.269C194.245 143.313 194.442 143.42 194.597 143.577C194.751 143.733 194.856 143.933 194.899 144.15C194.941 144.367 194.919 144.592 194.835 144.796C194.751 145.001 194.609 145.175 194.426 145.298C194.244 145.421 194.03 145.486 193.811 145.486C193.517 145.485 193.235 145.366 193.028 145.155C192.82 144.944 192.703 144.659 192.703 144.361V144.361Z" fill="#ECECEC"/>
<path d="M193.811 137.394C193.199 137.394 192.703 137.895 192.703 138.513C192.703 139.132 193.199 139.633 193.811 139.633C194.423 139.633 194.919 139.132 194.919 138.513C194.919 137.895 194.423 137.394 193.811 137.394Z" fill="#ECECEC"/>
<path d="M187.064 144.361C187.065 144.14 187.13 143.924 187.253 143.741C187.375 143.557 187.549 143.414 187.751 143.331C187.954 143.247 188.176 143.225 188.391 143.269C188.605 143.313 188.802 143.42 188.957 143.577C189.111 143.733 189.216 143.933 189.259 144.15C189.301 144.367 189.279 144.592 189.195 144.796C189.111 145.001 188.969 145.175 188.787 145.298C188.604 145.421 188.39 145.486 188.172 145.486C188.026 145.486 187.881 145.457 187.746 145.4C187.612 145.344 187.489 145.261 187.386 145.156C187.283 145.052 187.202 144.928 187.146 144.791C187.091 144.655 187.063 144.509 187.064 144.361V144.361Z" fill="#ECECEC"/>
<path d="M188.172 137.394C187.56 137.394 187.063 137.895 187.063 138.513C187.063 139.132 187.56 139.633 188.172 139.633C188.783 139.633 189.28 139.132 189.28 138.513C189.28 137.895 188.783 137.394 188.172 137.394Z" fill="#ECECEC"/>
<path d="M158.47 144.361C158.471 144.139 158.537 143.923 158.66 143.739C158.783 143.556 158.957 143.413 159.16 143.33C159.364 143.246 159.587 143.225 159.802 143.27C160.016 143.314 160.213 143.423 160.367 143.58C160.521 143.738 160.625 143.939 160.667 144.157C160.708 144.374 160.684 144.599 160.598 144.804C160.513 145.008 160.369 145.181 160.186 145.303C160.002 145.425 159.787 145.488 159.568 145.486C159.275 145.483 158.995 145.363 158.789 145.153C158.584 144.942 158.469 144.657 158.47 144.361Z" fill="#ECECEC"/>
<path d="M158.47 138.508C158.468 138.286 158.532 138.068 158.653 137.882C158.774 137.696 158.947 137.551 159.149 137.465C159.352 137.379 159.576 137.356 159.792 137.399C160.008 137.442 160.206 137.549 160.362 137.706C160.517 137.863 160.623 138.063 160.665 138.282C160.708 138.5 160.685 138.726 160.6 138.931C160.515 139.136 160.371 139.311 160.187 139.433C160.003 139.555 159.788 139.619 159.568 139.617C159.278 139.614 159 139.497 158.795 139.289C158.59 139.082 158.473 138.801 158.47 138.508V138.508Z" fill="#ECECEC"/>
<path d="M152.825 144.361C152.825 144.138 152.891 143.921 153.013 143.736C153.136 143.551 153.31 143.406 153.514 143.321C153.717 143.236 153.941 143.214 154.157 143.258C154.374 143.302 154.572 143.41 154.727 143.568C154.883 143.725 154.989 143.926 155.031 144.145C155.073 144.364 155.05 144.59 154.965 144.795C154.88 145.001 154.737 145.176 154.553 145.299C154.369 145.422 154.154 145.487 153.933 145.486C153.639 145.485 153.357 145.366 153.149 145.155C152.942 144.944 152.825 144.659 152.825 144.361V144.361Z" fill="#ECECEC"/>
<path d="M152.825 138.508C152.822 138.285 152.885 138.065 153.005 137.878C153.126 137.691 153.299 137.544 153.503 137.457C153.706 137.37 153.931 137.345 154.148 137.387C154.365 137.429 154.565 137.536 154.722 137.693C154.879 137.85 154.986 138.051 155.03 138.27C155.073 138.489 155.051 138.716 154.967 138.923C154.882 139.129 154.739 139.305 154.555 139.429C154.371 139.553 154.154 139.618 153.933 139.617C153.641 139.616 153.362 139.499 153.155 139.291C152.948 139.084 152.829 138.803 152.825 138.508V138.508Z" fill="#ECECEC"/>
<path d="M169.886 144.361C169.888 144.14 169.953 143.924 170.076 143.741C170.198 143.557 170.372 143.414 170.574 143.331C170.777 143.247 170.999 143.225 171.214 143.269C171.428 143.313 171.625 143.42 171.78 143.577C171.934 143.733 172.039 143.933 172.082 144.15C172.124 144.367 172.102 144.592 172.018 144.796C171.934 145.001 171.792 145.175 171.61 145.298C171.427 145.421 171.213 145.486 170.995 145.486C170.7 145.485 170.418 145.366 170.211 145.155C170.003 144.944 169.886 144.659 169.886 144.361V144.361Z" fill="#ECECEC"/>
<path d="M170.995 137.394C170.383 137.394 169.887 137.895 169.887 138.513C169.887 139.132 170.383 139.633 170.995 139.633C171.607 139.633 172.103 139.132 172.103 138.513C172.103 137.895 171.607 137.394 170.995 137.394Z" fill="#ECECEC"/>
<path d="M164.247 144.361C164.248 144.139 164.314 143.923 164.437 143.739C164.559 143.556 164.734 143.413 164.937 143.33C165.14 143.246 165.363 143.225 165.578 143.27C165.793 143.314 165.99 143.423 166.144 143.58C166.298 143.738 166.402 143.939 166.443 144.157C166.484 144.374 166.46 144.599 166.375 144.804C166.289 145.008 166.145 145.181 165.962 145.303C165.779 145.425 165.563 145.488 165.344 145.486C165.051 145.483 164.771 145.363 164.566 145.153C164.36 144.942 164.245 144.657 164.247 144.361Z" fill="#ECECEC"/>
<path d="M164.247 138.508C164.245 138.286 164.308 138.068 164.429 137.882C164.55 137.696 164.723 137.551 164.926 137.465C165.129 137.379 165.352 137.356 165.568 137.399C165.784 137.442 165.983 137.549 166.138 137.706C166.294 137.863 166.399 138.063 166.442 138.282C166.484 138.5 166.461 138.726 166.376 138.931C166.291 139.136 166.147 139.311 165.964 139.433C165.78 139.555 165.564 139.619 165.344 139.617C165.054 139.614 164.776 139.497 164.571 139.289C164.366 139.082 164.249 138.801 164.247 138.508V138.508Z" fill="#ECECEC"/>
<path d="M60.5756 78.7402C60.5756 78.5187 60.6406 78.3022 60.7623 78.1181C60.8841 77.934 61.0571 77.7905 61.2596 77.7057C61.4621 77.621 61.6849 77.5988 61.8998 77.642C62.1147 77.6852 62.3121 77.7919 62.4671 77.9484C62.6221 78.105 62.7276 78.3045 62.7703 78.5217C62.8131 78.7389 62.7912 78.9641 62.7073 79.1687C62.6234 79.3733 62.4814 79.5481 62.2992 79.6712C62.117 79.7942 61.9027 79.8599 61.6836 79.8599C61.3897 79.8599 61.1079 79.7419 60.9001 79.5319C60.6923 79.3219 60.5756 79.0371 60.5756 78.7402Z" fill="#ECECEC"/>
<path d="M60.5756 72.887C60.5756 72.6656 60.6406 72.4491 60.7623 72.265C60.8841 72.0808 61.0571 71.9373 61.2596 71.8526C61.4621 71.7678 61.6849 71.7457 61.8998 71.7889C62.1147 71.8321 62.3121 71.9387 62.4671 72.0953C62.6221 72.2519 62.7276 72.4514 62.7703 72.6686C62.8131 72.8858 62.7912 73.1109 62.7073 73.3155C62.6234 73.5201 62.4814 73.695 62.2992 73.818C62.117 73.941 61.9027 74.0067 61.6836 74.0067C61.5381 74.0067 61.394 73.9778 61.2596 73.9215C61.1252 73.8652 61.003 73.7827 60.9001 73.6788C60.7972 73.5748 60.7156 73.4514 60.6599 73.3155C60.6043 73.1797 60.5756 73.0341 60.5756 72.887Z" fill="#ECECEC"/>
<path d="M54.9357 78.7402C54.9357 78.5187 55.0007 78.3022 55.1224 78.1181C55.2442 77.934 55.4172 77.7905 55.6197 77.7057C55.8222 77.621 56.045 77.5988 56.2599 77.642C56.4748 77.6852 56.6722 77.7919 56.8272 77.9484C56.9822 78.105 57.0877 78.3045 57.1304 78.5217C57.1732 78.7389 57.1513 78.9641 57.0674 79.1687C56.9835 79.3733 56.8415 79.5481 56.6593 79.6712C56.4771 79.7942 56.2629 79.8599 56.0437 79.8599C55.7498 79.8599 55.468 79.7419 55.2602 79.5319C55.0524 79.3219 54.9357 79.0371 54.9357 78.7402Z" fill="#ECECEC"/>
<path d="M54.9357 72.887C54.9357 72.6656 55.0007 72.4491 55.1224 72.265C55.2442 72.0808 55.4172 71.9373 55.6197 71.8526C55.8222 71.7678 56.045 71.7457 56.2599 71.7889C56.4748 71.8321 56.6722 71.9387 56.8272 72.0953C56.9822 72.2519 57.0877 72.4514 57.1304 72.6686C57.1732 72.8858 57.1513 73.1109 57.0674 73.3155C56.9835 73.5201 56.8415 73.695 56.6593 73.818C56.4771 73.941 56.2629 74.0067 56.0437 74.0067C55.8982 74.0067 55.7541 73.9778 55.6197 73.9215C55.4853 73.8652 55.3631 73.7827 55.2602 73.6788C55.1573 73.5748 55.0757 73.4514 55.0201 73.3155C54.9644 73.1797 54.9357 73.0341 54.9357 72.887Z" fill="#ECECEC"/>
<path d="M120.351 124.944C120.35 124.361 120.521 123.789 120.841 123.303C121.161 122.817 121.617 122.438 122.151 122.214C122.685 121.99 123.272 121.932 123.839 122.045C124.406 122.159 124.927 122.44 125.335 122.853C125.744 123.266 126.022 123.792 126.135 124.365C126.247 124.938 126.189 125.531 125.967 126.071C125.746 126.61 125.371 127.071 124.89 127.395C124.409 127.718 123.843 127.891 123.266 127.89C122.493 127.89 121.751 127.579 121.205 127.027C120.658 126.475 120.351 125.726 120.351 124.944V124.944Z" fill="#F7F7F7"/>
<path d="M120.351 109.545C120.351 108.961 120.522 108.39 120.844 107.905C121.165 107.42 121.621 107.042 122.155 106.818C122.689 106.595 123.276 106.537 123.842 106.651C124.409 106.766 124.929 107.047 125.337 107.46C125.745 107.874 126.023 108.4 126.135 108.972C126.247 109.545 126.189 110.139 125.967 110.678C125.745 111.217 125.37 111.677 124.889 112.001C124.408 112.324 123.843 112.496 123.266 112.495C122.492 112.494 121.751 112.182 121.204 111.629C120.658 111.076 120.351 110.326 120.351 109.545V109.545Z" fill="#F7F7F7"/>
<path d="M105.511 124.944C105.51 124.361 105.68 123.79 106 123.304C106.321 122.818 106.776 122.439 107.31 122.215C107.843 121.991 108.43 121.932 108.997 122.045C109.564 122.158 110.084 122.439 110.493 122.851C110.902 123.263 111.181 123.789 111.294 124.362C111.407 124.934 111.349 125.528 111.129 126.067C110.908 126.606 110.534 127.068 110.053 127.392C109.573 127.716 109.008 127.89 108.431 127.89C108.047 127.89 107.668 127.815 107.314 127.667C106.959 127.519 106.638 127.302 106.366 127.029C106.095 126.755 105.88 126.43 105.733 126.073C105.586 125.715 105.511 125.332 105.511 124.944Z" fill="#F7F7F7"/>
<path d="M105.511 109.545C105.511 108.961 105.682 108.391 106.003 107.906C106.324 107.42 106.78 107.042 107.313 106.819C107.847 106.596 108.434 106.537 109 106.651C109.567 106.765 110.087 107.046 110.495 107.459C110.903 107.871 111.182 108.397 111.294 108.969C111.407 109.542 111.349 110.135 111.128 110.674C110.907 111.213 110.533 111.674 110.053 111.998C109.573 112.322 109.008 112.495 108.431 112.495C107.656 112.495 106.914 112.184 106.366 111.631C105.819 111.078 105.511 110.327 105.511 109.545Z" fill="#F7F7F7"/>
</g>
<defs>
<clipPath id="clip0_324_880">
<rect width="262.749" height="166" fill="white" transform="translate(263.711 166.84) rotate(-180)"/>
</clipPath>
</defs>
</svg>
