<svg width="376" height="365" viewBox="0 0 376 365" fill="none" xmlns="http://www.w3.org/2000/svg">
<mask id="mask0_129_310" style="mask-type:alpha" maskUnits="userSpaceOnUse" x="0" y="0" width="376" height="365">
<rect x="0.689697" y="0.802734" width="375" height="363.961" fill="#D9D9D9"/>
</mask>
<g mask="url(#mask0_129_310)">
<path fill-rule="evenodd" clip-rule="evenodd" d="M197.508 23.0089C238.815 22.4126 271.205 60.5336 291.26 96.6501C307.031 125.053 289.106 157.942 290.457 190.402C291.932 225.816 318.002 262.124 299.404 292.298C278.854 325.639 235.988 348.501 197.508 341.204C161.09 334.297 154.73 285.594 128.098 259.812C100.512 233.107 46.8724 228.451 41.7342 190.402C36.5534 152.037 80.0513 127.658 106.424 99.318C134.475 69.1753 156.337 23.6031 197.508 23.0089Z" fill="#F4F6FF"/>
<path fill-rule="evenodd" clip-rule="evenodd" d="M193.655 60.9673C192.352 64.4154 191.05 67.8638 189.747 71.3119C188.912 73.5215 188.077 75.7307 187.242 77.9403C186.946 78.7237 186.782 79.5273 186.209 80.0712C184.859 81.3518 182.437 82.1667 180.815 83.0676C179.729 83.6712 178.642 84.2749 177.555 84.8785C176.995 85.1901 175.753 85.5811 175.36 86.0981C174.928 86.6676 175.132 87.7137 175.132 88.5013V95.3015V108.115C180.745 107.413 186.358 106.712 191.971 106.01C184.493 114.638 177.015 123.266 169.537 131.895C167.694 134.021 165.457 136.067 164.084 138.541C161.162 143.808 158.305 149.112 155.416 154.396C152.727 159.315 150.038 164.235 147.349 169.154L171.541 168.124C177.805 167.857 184.239 168.258 190.274 166.483C195.249 165.02 200.223 163.557 205.198 162.094C205.86 161.899 207.921 161.679 208.39 161.146C208.829 160.647 208.82 158.763 208.944 158.124C211.292 146.056 214.281 132.756 221.134 122.367C226.048 114.92 232.678 108.4 238.75 101.905C241.12 99.3709 243.531 96.8666 245.817 94.255C246.402 93.5861 247.248 92.8271 247.635 92.0146C247.885 91.4897 248.235 90.4895 248.079 90.0235C248.012 89.8214 246.45 89.0966 246.226 88.9526C244.643 87.9351 243.073 86.8962 241.501 85.8623C237.081 82.9569 232.666 80.0443 228.222 77.1775C224.757 74.9423 221.302 72.5723 217.647 70.6514C213.859 68.6603 209.687 67.2589 205.715 65.6858C201.702 64.0958 197.681 62.524 193.655 60.9673Z" fill="#FCC610"/>
<path fill-rule="evenodd" clip-rule="evenodd" d="M329.873 245.172C327.946 246.988 324.437 249.425 321.662 248.317C320.269 247.761 319.079 246.538 317.81 245.75C316.319 244.824 314.917 243.898 313.653 242.664C311.131 240.2 309.221 236.601 306.243 234.673C305.242 234.025 303.288 233.886 302.593 232.851C302.282 232.386 302.253 231.682 302.31 231.145C302.435 229.989 303.059 230.058 302.016 229.209H303.636C303.667 228.583 303.043 228.531 302.577 228.612C302.793 227.62 303.014 223.737 301.206 225.497C299.638 227.022 300.422 229.552 299.312 231.204C298.462 232.469 296.207 231.445 295.902 230.053C295.765 229.428 296.454 228.452 296.536 227.839C296.716 226.48 296.109 225.305 295.228 224.275C293.294 225.564 294.39 228.231 293.288 229.924C292.291 231.456 290.07 230.741 288.552 230.471C286.731 230.148 284.673 230.475 282.932 230.045C280.302 229.396 281.284 226.309 281.024 224.316C280.745 222.181 278.587 219.219 279.236 217.065C279.932 214.753 284.002 214.253 285.948 213.692C290.394 212.409 296.737 212.163 300.043 208.572C302.672 211.504 304.787 214.862 307.545 217.685C310.523 220.734 313.705 223.549 316.565 226.721C319.541 230.022 322.613 233.259 325.481 236.656C326.732 238.138 327.831 239.735 329.126 241.181C330.276 242.467 331.49 243.649 329.873 245.172ZM197.708 188.144C199.074 187.417 199.248 187.873 199.248 189.369C198.855 188.65 198.464 188.458 197.708 188.144ZM186.123 217.234V214.597C187.44 214.562 186.63 216.818 186.123 217.234ZM185.801 221.163C185.801 219.995 185.77 218.882 186.106 217.746C186.283 218.984 186.621 220.056 185.801 221.163ZM191.465 301.407C192.675 301.52 194.539 300.686 195.556 301.636C196.602 302.611 196.518 305.45 196.765 306.768C197.175 308.945 197.537 311.13 197.882 313.318C198.108 314.753 198.387 316.21 196.765 316.759C194.368 317.569 190.944 316.412 188.445 316.307C183.51 316.099 178.577 315.811 173.637 315.71C168.85 315.614 164.051 315.69 159.285 316.188C157.133 316.413 155.027 316.81 152.896 317.17C151.773 317.36 148.764 318.153 147.749 317.206C145.841 315.424 149.014 311.263 150.379 310.088C152.912 307.907 156.514 306.334 159.69 305.387C161.387 304.88 164.217 303.459 165.554 305.049C166.58 306.268 166.539 307.896 168.009 308.82C171.415 310.961 169.422 304.82 167.294 304.064C168.723 300.719 171.447 305.441 172.577 306.576C172.979 306.98 174.286 308.311 174.854 307.641C175.279 307.14 174.43 305.346 174.273 304.857C174.034 304.115 173.429 302.987 173.603 302.183C173.917 300.727 175.959 300.331 177.182 300.209C179.078 300.022 180.939 300.623 182.814 300.824C185.689 301.132 188.586 301.136 191.465 301.407ZM172.424 164.296C168.68 164.594 164.913 164.021 161.178 164.49C157.645 164.934 154.315 166.231 150.984 167.423C155.936 155.808 162.343 145.235 170.152 135.33C174.041 130.397 178.224 125.498 182.426 120.829C184.381 118.657 186.403 116.557 188.422 114.446C190.223 112.562 191.514 109.364 193.675 107.957C195.519 106.757 198.743 107.613 200.787 107.688C203.098 107.772 205.91 107.982 208.163 107.213C209.796 106.655 210.245 105.168 208.201 105.119C205.79 105.06 203.419 105.312 200.977 105.086C194.648 104.501 188.548 103.54 182.169 104.085C180.707 104.21 178.783 104.832 177.349 104.645C176.318 104.51 176.996 105.029 176.279 104.201C176.005 103.885 175.674 103.14 175.592 102.72C175.136 100.358 176.433 96.9826 176.743 94.6046C177.03 92.4038 176.776 89.985 177.313 87.8419C177.802 85.8916 179.293 85.6315 181.129 85.4231C186.153 84.8527 191.279 84.5492 196.325 84.1194C207.841 83.1385 219.722 81.6589 231.16 84.0827C235.29 84.9579 240.326 86.3113 244.015 88.4784C245.169 89.1557 246.333 89.9534 245.913 91.3569C245.478 92.8138 243.344 94.3529 242.287 95.3126C234.474 102.405 226.928 109.639 221.44 118.739C214.441 130.344 210.425 142.877 208.069 156.175C207.562 159.036 207.091 160.533 204.148 161.356C200.988 162.241 197.938 162.815 194.662 163.084C187.256 163.693 179.826 163.705 172.424 164.296ZM174.932 87.4458C174.365 91.6701 173.597 95.8852 173.521 100.143C173.492 101.751 173.34 102.556 171.63 102.915C169.614 103.338 167.564 103.653 165.539 104.091C155.765 106.21 146.175 108.811 136.613 111.739C127.319 114.586 118.179 117.788 108.677 119.897C104.589 120.804 99.8061 121.415 96.0831 123.423C92.0781 125.585 92.6052 129.128 92.2457 133.02C91.7654 138.219 90.2234 143.254 89.6812 148.451C89.4219 150.935 89.1857 153.434 89.2249 155.933C89.2581 158.063 89.5633 160.419 88.1312 162.212C85.2582 158.371 83.8964 153.54 83.3302 148.832C83.0549 146.544 83.1639 144.237 83.0852 141.938C83.0216 140.087 83.0629 137.143 81.8573 135.598C79.2364 132.238 75.8279 145.701 75.5037 147.138C74.9586 149.558 74.509 151.998 73.966 154.418C73.7252 155.49 73.4162 159.39 71.9791 159.778C69.0008 160.584 69.6545 152.215 69.6074 150.941C69.5131 148.369 69.4491 145.794 69.5093 143.219C69.5531 141.361 69.9126 139.345 69.6992 137.486C69.1751 132.921 66.6085 137.73 65.887 139.429C64.0638 143.719 63.2391 148.31 61.6041 152.667C61.3322 153.392 60.6932 155.833 59.6808 155.878C58.5543 155.928 58.5631 153.408 58.4987 152.672C58.1249 148.403 56.8625 144.165 57.2434 139.853C57.6282 135.499 59.1546 131.022 61.3145 127.235C65.8811 119.227 74.1276 114.63 82.0265 110.441C91.0661 105.649 100.61 101.863 110.357 98.7788C122.08 95.0693 134.117 92.0679 146.226 89.932C152.387 88.8455 158.643 88.0684 164.866 87.4454C167.054 87.2265 169.242 87.0985 171.401 86.6822C172.216 86.5247 175.156 85.7767 174.932 87.4458ZM181.229 73.7752C178.141 73.7996 174.986 72.3022 171.977 71.6834C168.394 70.9459 164.896 69.8788 161.32 69.1088C154.317 67.6014 147.311 66.1314 140.314 64.5907C137.277 63.9218 134.225 63.3396 131.2 62.621C127.963 61.8524 124.466 60.9953 121.153 61.8233C116.132 63.0786 114.01 68.5725 112.167 72.86C110.864 75.8884 109.844 79.264 107.813 81.8992C107.089 82.8388 106.062 83.9594 104.75 83.6551C102.314 83.0901 102.701 79.8664 103.011 78.0845C103.461 75.4986 104.098 72.9429 104.608 70.3688C104.813 69.3298 106.405 62.5301 103.563 63.5829C101.454 64.3638 100.339 69.5071 99.5405 71.3441C98.9473 72.7093 98.3188 74.0656 97.6533 75.3971C96.7651 77.1731 94.2309 83.1074 91.4252 82.3421C87.4101 81.2468 91.2615 70.6912 91.9455 68.4665C92.321 67.2453 96.4022 57.9838 92.9575 58.7406C91.4905 59.0635 90.0613 61.7884 89.3133 62.9178C87.9868 64.9212 86.6646 66.9388 85.416 68.9914C84.1317 71.1025 83.4758 73.5053 82.202 75.5857C81.5319 76.6806 80.1642 78.1397 78.8289 77.126C76.7473 75.547 77.9811 70.0543 78.3456 67.9773C79.0238 64.1159 80.7085 60.1572 83.02 57.0004C86.4933 52.257 93.0472 50.7243 98.5584 49.8029C105.672 48.6132 112.885 48.9386 120.028 49.6425C128.062 50.4343 135.974 51.2821 143.893 52.9011C151.874 54.5327 159.859 56.1513 167.717 58.3092C171.419 59.3258 175.174 60.227 178.823 61.4205C182.703 62.6888 186.489 64.2674 190.477 65.1813C189.074 68.6816 187.671 72.1818 186.268 75.6825C184.926 74.3544 183.094 73.76 181.229 73.7752ZM249.982 83.4206C251.212 82.7479 252.571 82.4305 253.019 80.9437C253.416 79.6299 252.738 78.1413 252.414 76.8802C251.507 73.3492 251.269 69.6914 252.071 66.1188C252.838 67.2895 255.709 71.7925 257.455 69.0663C258.508 67.4221 255.686 65.0567 254.862 63.9008C256.67 62.7852 259.252 59.7914 261.334 61.5968C262.681 62.7642 263.251 63.8881 265.065 64.4556C267.267 65.1447 269.34 64.9868 271.589 64.7965C273.163 64.6635 273.542 64.4535 274.157 65.6658C274.64 66.6189 274.89 67.7984 275.172 68.8218C275.727 70.8394 277.014 74.8149 275.49 76.705C274.156 78.3607 268.975 76.9412 268.256 79.0784C267.864 80.244 269.736 80.2857 270.452 80.8624C271.338 81.5764 272.071 82.7125 272.552 83.7275C272.909 84.478 273.451 85.7182 272.844 86.4856C272.005 87.5472 270.451 86.7419 269.775 85.9703C268.878 84.9453 268.586 83.5439 267.837 82.4275C266.463 80.3792 266.381 82.0087 266.007 83.4795C265.618 85.0076 264.699 84.9024 263.291 85.0985C260.82 85.4433 258.323 85.9295 255.918 86.5917C254.686 86.9309 253.491 87.3633 252.317 87.8684C251.561 88.1934 250.249 89.178 249.429 89.1874C247.908 89.2045 246.853 86.6607 246.068 85.5995C247.372 84.8716 248.672 84.1371 249.982 83.4206ZM331.66 239.185C327.861 234.625 324.571 229.671 320.823 225.071C317.127 220.535 312.85 216.568 308.702 212.459C306.744 210.52 304.868 208.392 302.707 206.674C301.095 205.392 299.854 205.372 297.915 205.94C292.405 207.554 286.794 209.496 281.579 211.905C276.723 214.147 272.3 217.027 267.034 218.278C261.659 219.555 256.07 219.965 250.56 219.648C244.91 219.324 239.58 218.148 234.206 216.42C229.116 214.783 223.81 213.354 219.457 210.11C214.894 206.71 211.368 201.818 208.102 197.218C206.448 194.889 204.806 192.444 203.692 189.804C202.725 187.514 202.093 184.81 200.358 182.944C199.932 183.547 199.403 184.064 199.186 184.773C199.088 185.095 199.668 185.085 199.609 185.34C199.496 185.822 198.855 186.314 198.482 186.576C197.142 187.519 197.134 186.769 197.485 188.532C197.69 189.56 197.303 191.879 195.626 191.121C196.243 191.86 195.263 192.793 194.943 193.401C194.722 193.148 194.448 193.06 194.121 193.137C194.734 194.357 194.372 194.39 193.778 195.359C193.669 195.536 193.285 196.464 193.34 196.386C192.733 197.25 192.032 197.468 191.678 198.545C191.387 199.429 191.461 200.401 191.137 201.285C190.745 200.743 190.353 200.201 189.961 199.66C190.041 200.086 190.201 200.716 190.387 201.103C190.504 201.344 191.006 201.909 191 202.04C190.972 202.533 190.358 202.415 190.182 202.839C189.854 203.636 190.329 203.754 190.15 204.531C189.944 205.424 189.393 205.067 189.13 205.827C189.081 205.972 189.468 206.54 189.407 206.851C189.32 207.292 188.921 207.538 188.78 207.929C188.422 208.925 188.552 209.655 188.054 210.61C187.861 210.98 187.58 211.227 187.445 211.648C187.325 212.018 187.582 212.807 187.352 213.138C186.241 214.738 186.398 211.983 186.482 211.3C187.189 205.563 189.456 199.643 191.532 194.281C192.563 191.617 193.567 188.87 194.86 186.319C195.38 185.291 195.981 184.231 196.841 183.445C197.928 182.451 199.472 182.053 200.457 180.942C200.301 181.117 201.525 179.96 201.329 180.34C201.504 180 201.198 179.54 201.307 179.21C201.442 178.802 201.698 178.716 201.982 178.358C202.494 177.716 203.101 177.396 202.298 176.577C203.49 176.314 204.06 175.927 204.298 174.65C204.472 173.716 204.121 173.777 204.734 173.155C205.349 172.529 205.661 173.017 206.048 171.934C206.512 170.638 206.82 168.876 207.097 167.519C207.34 166.335 206.751 164.594 207.749 163.757C209.014 162.699 210.145 163.147 209.918 161.018C209.697 158.942 210.342 157.685 210.99 155.721C212.284 151.799 212.784 147.659 213.918 143.691C216.339 135.223 220.616 127.588 225.214 120.134C229.463 113.247 235.404 107.379 241.14 101.727C242.711 100.179 244.264 98.6092 245.674 96.9123C246.889 95.4511 247.444 93.4617 248.612 92.0746C249.321 91.2323 250.642 90.872 251.632 90.4253C253.284 89.6802 255.252 88.7082 257.117 88.8589C256.376 91.3565 256.134 94.275 258.321 96.1478C260.973 98.4197 263.377 96.0594 265.809 94.7641C270.241 92.403 276.579 94.5705 280.443 91.0315C281.364 90.1887 281.621 88.8421 282.577 88.0549C283.279 87.4778 284.278 87.3313 285.069 86.9011C287.47 85.594 288.636 83.2013 287.701 80.5581C286.847 78.1418 285.519 77.3036 288.474 76.0791C290.874 75.0856 291.786 73.5887 290.7 70.9236C289.665 68.3827 287.768 68.0901 285.973 66.4273C284.234 64.8168 286.231 62.9422 287.534 61.7332C289.213 60.1736 289.534 58.768 287.587 57.1461C285.548 55.4479 282.637 55.5073 280.26 56.3471C277.572 57.2963 275.801 58.8745 274.663 61.4318C273.505 64.0355 270.633 63.3089 268.308 62.5832C266.084 61.8894 265.505 60.3925 264.045 58.7806C262.421 56.9878 259.111 58.5209 257.196 59.3401C252.478 61.3565 247.789 64.5389 247.602 70.176C247.49 73.5373 248.912 76.3944 249.651 79.5494C250.327 82.4347 245.692 82.2074 244.889 84.9983C236.326 80.4655 226.79 79.0784 217.218 78.7698C207.045 78.4415 196.725 78.1784 186.639 79.7831C188.98 75.704 190.217 71.2309 192.254 67.0403C192.84 65.8338 193.093 65.9369 194.387 66.3015C196.872 67.0015 199.34 67.7849 201.82 68.506C210.883 71.1404 219.767 74.3144 228.53 77.7907C229.381 78.1287 231.283 79.067 232.029 78.0466C232.89 76.8701 230.898 75.4194 230.091 74.8276C226.563 72.2391 222.19 70.6681 218.239 68.8521C209.6 64.8828 200.033 62.9986 191.018 60.0507C171.558 53.6854 151.425 48.8511 131.202 45.6581C126.266 44.8789 121.278 44.7648 116.322 44.1864C111.931 43.6741 107.532 43.6859 103.142 44.2151C95.0337 45.1929 85.6333 47.3028 81.0537 54.7251C76.9194 61.4268 74.1596 68.9615 75.2145 76.9109C75.5315 79.2986 76.5427 82.1261 79.489 81.5107C81.5327 81.0838 82.6179 79.3474 83.5668 77.6526C85.0006 75.0923 86.4167 72.5321 87.9704 70.0404C88.5467 73.7764 86.4524 77.4501 86.7816 81.256C87.0056 83.8386 88.4326 87.9189 91.7856 87.1877C96.3812 86.1859 98.2725 79.0064 100.482 75.5621C100.594 78.215 99.6642 80.8296 99.9488 83.4884C100.23 86.1147 102.282 88.5942 105.164 88.2342C107.883 87.8949 109.649 84.9823 110.804 82.7896C112.411 79.738 113.565 76.4664 115.134 73.3946C116.605 70.5153 118.348 67.0874 121.859 66.5465C124.993 66.0632 128.585 67.1817 131.681 67.6431C140.268 68.9228 148.682 71.1017 157.175 72.8621C166.282 74.7493 175.603 75.8955 184.429 78.9407C181.326 83.1646 173.205 82.252 168.582 82.7054C161.596 83.3907 154.52 83.9064 147.573 84.9175C140.712 85.916 133.995 87.6887 127.188 88.9755C120.416 90.2557 113.656 91.5379 107.104 93.721C94.939 97.7744 82.5708 102.904 71.8524 109.977C66.8653 113.268 62.4351 117.029 59.3545 122.224C56.2542 127.451 54.7644 133.361 54.1961 139.374C53.8425 143.118 54.4432 146.358 55.1685 150.002C55.6939 152.64 55.8639 157.057 57.9793 158.989C62.0167 162.676 65.3688 147.72 66.1143 145.914C66.651 148.874 65.7733 165.551 72.2514 164.194C75.1426 163.59 75.7984 159.621 76.2779 157.231C77.1526 152.874 77.936 148.429 79.4321 144.232C80.3923 149.887 80.7927 155.777 82.8613 161.178C84.2353 164.764 88.1556 171.128 90.8889 164.988C92.939 160.384 92.2356 155.098 92.4814 150.209C92.7538 144.792 94.3092 139.566 94.8598 134.201C95.0732 132.123 94.88 129.781 96.9684 128.647C98.7613 127.673 101.383 127.356 103.34 126.813C109.138 125.203 114.974 123.724 120.745 122.016C126.518 120.307 132.211 118.31 137.907 116.361C143.354 114.498 148.916 113.438 154.43 111.842C157.565 110.935 160.662 109.986 163.841 109.228C165.32 108.875 166.817 108.601 168.293 108.236C169.387 107.966 170.828 106.946 171.953 106.964C173.111 106.983 173.546 107.963 174.873 108.04C176.303 108.122 177.756 107.807 179.177 107.698C182.639 107.432 186.32 107.003 189.774 107.483C187.698 109.946 184.894 111.648 182.436 113.688C179.602 116.041 176.859 118.581 174.438 121.359C169.567 126.95 164.963 132.859 160.685 138.915C156.466 144.89 153.069 151.428 150.116 158.107C148.644 161.436 147.215 164.837 146.199 168.336C145.781 169.773 145.44 171.216 144.686 172.523C143.994 173.722 143.02 174.755 143.837 176.203C144.4 175.85 144.906 175.413 145.415 174.99C144.827 179.132 143.558 183.14 142.905 187.27C142.262 191.339 142.288 195.523 142.33 199.633C142.417 208.239 143.057 216.65 144.803 225.092C146.568 233.627 148.836 242.098 151.696 250.333C154.449 258.261 157.212 266.575 161.055 274.048C165.159 282.029 170.042 290.42 175.983 297.176C172.102 298.766 167.164 298.469 163.054 299.109C158.759 299.778 155.043 301.042 151.382 303.418C147.679 305.824 145.668 308.92 145.156 313.306C144.793 316.427 143.712 320.749 147.807 321.569C150.753 322.159 154.045 321.19 156.997 320.95C162.159 320.532 167.329 320.271 172.503 320.045C177.664 319.82 182.826 319.621 187.988 319.461C190.416 319.386 192.845 319.348 195.273 319.261C196.36 319.222 197.02 319.206 197.995 319.52C198.767 319.769 198.71 320.285 199.569 319.647C200.954 318.617 200.669 315.369 200.63 313.941C200.571 311.737 200.362 309.508 199.933 307.346C199.678 306.062 196.581 297.78 198.989 297.431C196.192 294.358 195.074 289.968 193.818 286.116C192.243 281.289 190.861 276.476 189.777 271.511C187.459 260.907 186.435 250.187 186.435 239.337C197.177 245.958 208.543 249.545 221.195 249.944C233.774 250.342 247.594 249.309 259.538 245.124C265.07 243.186 270.024 240.641 274.767 237.213C276.467 235.984 278.288 233.2 280.519 233.248C283.181 233.305 286.163 234.313 288.807 234.744C293.864 235.568 300.463 236.033 304.745 239.161C307.07 240.86 308.736 243.238 310.812 245.196C312.39 246.685 314.478 247.494 316.045 248.983C317.735 250.59 317.064 252.689 319.867 252.819C322.263 252.93 324.89 251.966 326.957 250.834C331.08 248.577 335.47 243.758 331.66 239.185Z" fill="#0F216F"/>
<path fill-rule="evenodd" clip-rule="evenodd" d="M292.032 131.803C298.066 136.089 304.986 139.017 311.291 142.877C312.87 143.843 317.786 145.849 317.739 147.641C317.711 148.688 316.233 150.002 315.586 150.728C314.478 151.972 313.435 153.229 312.412 154.545C307.73 160.571 303.321 166.654 298.247 172.377C297.483 173.238 295.182 177.349 294.439 175.307C294.102 174.381 294.379 173.341 293.502 172.478C293.05 172.034 291.304 171.789 291.813 170.835C292.152 170.988 292.491 171.141 292.83 171.292C292.567 170.531 292.586 169.696 292.191 168.976C291.946 168.528 291.466 168.316 291.3 167.812C291.07 167.116 291.46 166.307 291.395 165.589C291.33 164.874 290.96 164.197 290.738 163.522C289.425 159.52 288.954 155.485 288.282 151.355C287.617 147.269 286.581 143.311 286.174 139.179C285.744 134.815 285.218 130.46 284.515 126.13C285.769 126.306 286.733 127.669 287.62 128.439C289.014 129.65 290.528 130.735 292.032 131.803ZM287.302 174.054C287.014 173.827 286.789 173.55 286.627 173.22C289.584 171.756 287.799 174.255 287.302 174.054ZM285.504 170.929C284.215 171.284 283.289 171.356 282.295 170.826C282.201 170.776 282.309 170.388 282.139 170.309C281.991 170.24 281.764 170.325 281.637 170.26C281.204 170.04 280.446 170.523 280.372 169.68C282.018 169.176 283.635 168.247 285.372 168.091C287.786 167.873 287.674 170.331 285.504 170.929ZM279.856 166.071C278.098 166.483 276.649 167.443 274.78 167.192C273.026 166.957 271.502 166.048 270.118 165C273.579 164.02 277.209 163.843 280.668 162.895C281.794 162.586 283.274 161.773 284.487 162.1C285.836 162.465 285.921 163.728 286.325 164.877C284.167 165.265 281.993 165.572 279.856 166.071ZM268.856 161.195C267.167 161.599 265.439 162.481 264.027 160.958C263.798 160.712 263.599 160.958 263.626 160.2C263.654 159.402 264.379 158.887 265.002 158.606C266.468 157.945 268.523 158.372 270.08 158.275C272.563 158.121 275.09 157.605 277.547 157.207C279.247 156.932 281.004 156.322 282.742 156.442C284.084 156.535 285.703 157.679 283.747 158.513C281.966 159.274 279.296 159.157 277.366 159.486C274.514 159.973 271.671 160.522 268.856 161.195ZM267.206 153.246C267.315 153.357 267.425 153.469 267.534 153.58C267.516 153.576 268.182 153.037 268.358 153.021C269.215 152.947 270.077 153.006 270.935 152.957C272.911 152.846 274.904 152.501 276.845 152.122C278.427 151.813 280.038 151.281 281.666 151.414C283.075 151.529 283.223 151.818 283.315 153.178C279.718 153.178 276.012 153.102 272.477 153.864C270.175 154.359 267.638 155.835 266.485 153.175C266.725 153.198 266.965 153.222 267.206 153.246ZM269.455 147.487C270.347 148.167 272.779 147.037 273.848 146.924C275.009 146.801 276.101 146.674 277.227 146.384C278.224 146.128 281.525 144.845 282.29 146.072C283.464 147.95 278.713 148.295 277.96 148.388C274.801 148.778 271.524 149.124 268.451 149.953C268.786 149.131 269.12 148.309 269.455 147.487ZM273.787 141.106C274.018 141.974 281.161 138.774 281.291 141.1C281.391 142.885 274.224 143.774 272.935 143.617C273.237 142.795 274.04 142.059 273.787 141.106ZM276.186 135.647C276.338 133.896 276.572 133.906 277.977 133.741C279.049 133.615 280.521 132.987 280.242 134.896C280.004 136.531 276.033 137.415 276.186 135.647ZM278.739 129.621C279.077 128.68 279.837 129.946 279.853 130.424C279.896 131.697 278.931 131.421 278.002 131.421C278.261 130.827 278.507 130.226 278.739 129.621ZM290.495 122.562C290.305 122.333 289.242 122.246 288.939 122.136C288.195 121.863 288.301 121.281 287.349 121.855C287.301 121.807 287.391 121.376 287.34 121.356C287.314 121.346 286.646 121.094 286.43 120.955C285.906 120.62 285.435 120.292 284.954 119.872C284.443 119.425 283.931 118.777 283.347 118.421C283.101 118.271 282.9 118.059 282.603 118.013C281.833 117.894 282.054 118.43 281.381 118.537C280.966 118.602 280.664 118.118 280.122 118.327C279.653 118.507 279.381 119.164 279.173 119.555C278.414 120.979 277.828 122.511 277.085 123.949C273.286 131.304 268.967 138.381 265.287 145.805C263.514 149.381 261.664 152.982 260.417 156.783C259.517 159.525 257.485 163.529 259.233 166.268C260.504 168.26 263.049 169.12 265.079 170.082C268.134 171.53 270.95 173.423 274.039 174.827C277.722 176.501 281.298 178.252 284.888 180.122C286.419 180.919 287.801 182.067 289.327 182.823C290.26 183.284 291.701 182.496 292.005 183.555C293.175 182.138 295.069 183.083 296.422 182.085C297.218 181.498 297.8 180.342 298.464 179.619C299.46 178.536 300.541 177.531 301.557 176.466C305.59 172.238 309.314 167.833 312.984 163.292C316.489 158.955 320.583 154.857 323.544 150.109C324.72 148.225 324.933 146.248 324.157 144.166C323.59 142.648 322.225 140.354 320.276 141.36C321.015 140.132 318.164 138.821 317.298 138.582C317.285 138.578 317.115 139.521 316.874 139.498C316.96 139.506 316.149 137.408 315.793 137.139C314.735 136.339 313.449 135.405 312.295 134.747C311.237 134.143 310.12 133.843 309.095 133.167C307.852 132.348 306.711 131.376 305.464 130.563C304.26 129.777 302.917 128.849 301.586 128.308C300.432 127.84 299.396 127.748 298.357 126.98C297.072 126.03 295.952 125.386 294.47 124.731C293.188 124.165 291.412 123.67 290.495 122.562Z" fill="#0F216F"/>
<path fill-rule="evenodd" clip-rule="evenodd" d="M115.521 236.322C115.756 235.769 115.991 235.215 116.227 234.662C116.518 235.627 116.6 236.107 115.521 236.322ZM115.834 238.879C115.324 238.971 115.525 237.369 115.525 237.09C116.407 237.589 115.676 238.188 115.834 238.879ZM115.038 234.258C115.474 234.001 115.909 233.744 116.344 233.487C115.738 234.61 115.976 233.909 116.226 234.659C115.769 234.79 115.324 234.637 115.038 234.258ZM112.459 243.036C110.827 248.956 105.645 253.625 100.171 256.043C97.0255 257.433 93.9332 257.78 90.5364 257.625C89.2264 257.566 87.6849 257.14 86.4241 257.219C85.4534 257.28 85.4972 257.322 84.6931 258.144C84.3374 257.489 84.595 257.029 83.8815 256.648C82.9912 256.172 82.6216 256.726 82.18 257.385C81.602 256.786 81.3655 256.473 80.6166 256.118C80.6401 256.129 79.8997 256.101 79.93 256.11C79.7961 256.069 78.9908 255.551 78.7387 255.457C77.704 255.068 76.5076 254.909 75.5529 254.352C74.7177 253.866 74.0298 252.501 73.0743 253.55C73.0734 251.797 70.7123 251.07 69.6056 250.152C67.8763 248.717 66.5014 246.593 65.6393 244.538C64.7199 242.347 64.413 240.247 63.9828 237.989C63.6823 236.411 61.7139 234.13 62.8959 232.538C63.1775 233.206 63.0454 233.889 63.513 234.495C63.934 233.683 64.1655 232.776 64.3558 231.888C64.4492 231.453 64.9906 230.177 64.9291 229.798C64.8041 229.023 63.8443 228.98 64.3764 228.03C65.4802 229.231 66.3709 227.122 65.537 226.281C65.1253 226.746 64.9742 227.273 64.7843 227.848C63.6991 225.657 66.7026 226.363 66.0455 224.385C67.1417 224.174 67.7719 223.898 68.1886 222.815C68.6521 221.61 68.3111 221.347 69.3635 220.551C69.7255 220.277 70.7493 219.884 70.9366 219.433C71.2991 218.563 70.3768 218.305 71.1846 217.49C71.4574 217.968 72.5207 218.916 73.1029 218.014C73.2195 217.834 72.7299 217.707 73.086 217.293C73.6135 216.68 74.2037 216.078 75.0957 216.207C74.3893 214.441 78.9028 214.302 80.0588 213.885C81.2173 213.468 82.2002 213.194 83.4286 213.097C84.6557 213 84.7167 212.641 85.7556 211.902C85.8436 212.959 86.0979 212.726 86.8493 212.913C87.0299 212.603 87.2151 212.568 87.4045 212.808C87.5931 212.988 87.8238 213.072 88.0957 213.062C88.5083 213.083 88.9764 213.029 89.4087 213.038C90.4236 213.058 91.4706 212.974 92.4661 212.995C92.7229 212.952 92.9628 212.863 93.1876 212.727C93.2815 212.904 93.3758 213.081 93.4693 213.258C93.9967 213.324 94.0376 213.985 94.6862 213.262C94.8782 214.181 95.4297 213.703 96.0123 213.952C96.5435 214.18 96.6281 214.544 97.1185 214.798C97.441 215.059 97.7866 215.093 98.1562 214.902C98.5077 215.162 98.8647 215.415 99.2267 215.661C99.8939 216.038 100.68 216.268 101.383 216.566C101.851 216.759 102.316 216.96 102.777 217.168C102.791 217.724 103.04 217.921 103.525 217.757C103.963 218.124 104.087 218.109 104.512 218.733C105.475 220.148 106.33 221.247 107.546 222.512C112.834 228.01 114.458 235.782 112.459 243.036ZM114.081 219.659C111.694 216.462 108.315 212.801 105.279 210.782C103.74 209.759 101.579 207.921 99.6973 207.38C99.2511 207.251 98.7893 207.243 98.3507 207.108C98.0118 207.004 97.8274 206.657 97.441 206.594C97.1707 206.55 97.1409 207.155 96.8538 207.099C96.2535 206.982 95.8729 206.387 95.449 206.014C94.5385 207.583 94.0443 204.945 92.7073 206.718C91.1161 204.223 87.378 204.769 84.8371 204.895C84.0836 204.932 83.7296 205.2 83.0615 205.399C82.4397 205.584 82.3783 205.536 81.6993 205.531C80.0083 205.518 78.5071 205.731 76.9441 206.473C74.3182 207.72 71.9078 209.664 69.4136 211.167C66.626 212.847 64.1133 214.986 61.9808 217.443C54.2713 226.328 52.2099 239.296 58.3571 249.596C68.1213 265.955 93.3076 267.703 107.579 256.603C118.606 248.027 122.802 231.334 114.081 219.659Z" fill="#0F216F"/>
<path fill-rule="evenodd" clip-rule="evenodd" d="M234.934 173.624C234.66 174.278 232.101 174.058 232.045 173.287C231.962 172.135 235.41 172.488 234.934 173.624ZM237.652 173.196C239.102 173.314 241.485 174.299 242.882 173.704C245.015 172.796 242.776 171.401 241.631 170.985C240.467 170.561 238.733 170.786 238.134 169.569C237.684 168.653 238.797 166.097 237.416 166.508C235.967 166.939 236.388 170.6 234.115 169.366C233.03 168.777 233.473 165.19 231.656 167.023C231.159 167.524 231.116 168.445 230.457 168.818C229.786 169.2 228.943 168.802 228.234 168.836C226.356 168.924 225.757 170.68 227.66 171.377C228.364 171.635 231.019 171.95 229.411 173.101C228.398 173.826 226.147 172.304 225.277 173.566C224.081 175.3 227.284 175.339 228.145 175.858C229.603 176.736 228.399 178.787 228.515 180.248C228.693 182.48 229.989 182.013 230.46 180.124C230.86 178.522 230.365 176.215 232.781 176.852C236.715 177.889 230.593 182.884 233.475 184.162C235.312 184.977 235.573 180.572 235.715 179.813C236.244 177.013 237.816 177.666 240.199 177.752C242.982 177.853 243.654 175.794 240.707 175.204C239.766 175.016 238.472 175.254 237.656 174.655C237.173 174.3 236.508 173.104 237.652 173.196Z" fill="#0F216F"/>
<path fill-rule="evenodd" clip-rule="evenodd" d="M134.886 264.668C132.633 263.862 128.865 264.036 128.307 266.945C128.074 268.163 128.528 269.451 129.369 270.336C130.345 271.362 131.898 271.457 131.815 269.67C131.758 268.434 130.581 267.36 132.65 267.111C133.937 266.956 135.841 267.919 135.905 269.341C136.05 272.546 130.501 272.797 128.457 272.243C124.399 271.143 125.501 266.893 128.288 264.953C129.008 264.452 131.073 263.68 131.168 262.639C131.293 261.258 129.586 261.54 128.749 261.722C122.597 263.061 121.257 273.366 127.684 275.309C130.603 276.191 134.714 275.28 136.473 272.636C138.122 270.158 138.145 265.835 134.886 264.668Z" fill="#0F216F"/>
<path fill-rule="evenodd" clip-rule="evenodd" d="M53.3234 191.718C51.4005 192.643 49.4775 193.569 47.555 194.495C46.9194 193.135 45.8455 189.419 44.2332 188.944C41.6233 188.176 43.2852 192.227 43.7357 193.153C44.1057 193.913 44.964 195.092 44.7556 195.999C44.4761 197.221 42.7527 197.653 41.8506 198.283C39.6183 199.844 39.6359 203.12 42.8689 201.732C44.6984 200.946 46.9636 198.766 48.3658 201.241C49.0132 202.382 50.5472 208.761 52.1493 204.589C53.1407 202.007 48.3691 199.324 50.7215 197.139C51.4788 196.436 52.3653 196.377 53.1218 195.972C54.9487 194.996 53.9186 193.192 53.3234 191.718Z" fill="#0F216F"/>
<path fill-rule="evenodd" clip-rule="evenodd" d="M335.233 99.3006C334.087 98.8813 332.669 98.0626 331.395 98.3417C330.04 98.638 329.495 99.9944 328.511 100.81C325.834 103.027 324.275 99.7224 322.804 97.9115C321.415 96.2015 319.72 95.7865 317.76 96.8372C316.979 97.256 313.689 99.1752 314.263 100.405C314.675 101.29 316.301 100.495 316.855 100.302C318.059 99.8832 319.176 99.5166 320.407 100.127C322.716 101.272 323.315 104.412 326.109 104.902C328.997 105.408 329.092 102.659 331.153 101.625C332.535 100.931 333.498 102.159 334.831 101.914C336.102 101.682 336.69 99.8327 335.233 99.3006Z" fill="#0F216F"/>
<path fill-rule="evenodd" clip-rule="evenodd" d="M311.913 110.379C312.934 110.601 313.601 108.619 314.24 108.117C315.301 107.284 317.14 107.116 318.221 107.954C320.33 109.591 319.603 113.124 322.607 114.046C325.291 114.869 326.556 111.333 328.815 110.453C330.129 109.941 331.571 109.606 331.059 107.769C330.705 106.499 329.661 106.173 328.527 106.661C326.578 107.499 325.917 110.912 323.606 110.973C321.215 111.036 320.956 107.589 319.93 106.088C318.365 103.8 315.148 103.248 313.321 105.435C312.769 106.095 309.967 109.958 311.913 110.379Z" fill="#0F216F"/>
<path fill-rule="evenodd" clip-rule="evenodd" d="M264.657 71.3098C266.078 72.2822 268.91 72.2485 270.22 71.0425C271.552 69.8154 269.773 69.6268 268.688 69.6643C267.853 69.6933 266.291 70.1071 266.766 68.6653C267.189 67.3861 269.509 68.0373 269.703 66.633C267.956 66.3198 266.033 66.4326 264.741 67.8053C263.807 68.7975 263.327 70.3993 264.657 71.3098Z" fill="#0F216F"/>
</g>
</svg>
