<svg width="376" height="365" viewBox="0 0 376 365" fill="none" xmlns="http://www.w3.org/2000/svg">
<mask id="mask0_512_945" style="mask-type:alpha" maskUnits="userSpaceOnUse" x="0" y="0" width="376" height="365">
<rect x="0.5" y="0.0871582" width="375" height="363.961" fill="#D9D9D9"/>
</mask>
<g mask="url(#mask0_512_945)">
<path fill-rule="evenodd" clip-rule="evenodd" d="M222.853 18.5382C269.168 25.291 288.599 79.4464 312.1 119.923C328.07 147.429 334.351 177.375 333.538 209.17C332.753 239.883 328.661 271.552 307.65 293.967C286.062 316.997 253.816 321.103 222.853 327.247C179.66 335.819 132.916 360.07 96.0721 335.951C56.1656 309.828 41.1105 256.847 42.4775 209.17C43.8104 162.684 71.1766 123.237 103.14 89.4563C136.278 54.4333 175.142 11.5817 222.853 18.5382Z" fill="white"/>
<path fill-rule="evenodd" clip-rule="evenodd" d="M107.888 196.365C109.715 210.067 111.541 223.768 113.368 237.469L114.843 248.533C115.03 249.93 114.854 252.684 115.563 253.934C115.814 254.374 116.473 254.584 116.957 254.844C118.624 255.739 120.291 256.634 121.958 257.529C136.059 265.099 150.159 272.67 164.259 280.24C177.792 287.505 191.325 294.771 204.857 302.036C206.257 302.788 208.523 304.75 210.034 304.233C211.471 303.742 212.94 302.53 214.245 301.766C216.749 300.298 219.253 298.831 221.758 297.363C236.912 288.482 252.065 279.601 267.219 270.72C273.472 267.056 279.724 263.392 285.976 259.727C287.687 258.725 289.398 257.723 291.108 256.72C292.003 256.196 292.119 256.214 292.472 255.324C293.788 251.997 294.398 248.185 295.33 244.733C296.356 240.929 297.383 237.124 298.41 233.32C298.867 231.622 298.652 231.403 297.906 229.764C296.428 226.521 294.951 223.277 293.473 220.034C290.194 212.836 286.915 205.637 283.635 198.438C282.309 195.527 279.114 193.479 276.815 191.338L241.108 158.094C240.201 157.249 239.294 156.405 238.387 155.56C238.237 160.636 237.235 166.091 238.706 170.994C241.12 179.04 243.533 187.086 245.947 195.132C247.114 199.021 248.28 202.91 249.447 206.799C249.664 207.521 250.983 210.386 250.631 211.022C250.435 211.374 248.768 211.731 248.407 211.868C246.856 212.458 245.305 213.048 243.754 213.638C239.432 215.282 235.111 216.926 230.789 218.57C226.903 220.049 223.016 221.528 219.129 223.006C217.811 223.508 216.263 224.437 214.871 224.359C213.625 224.29 212.21 223.674 211.005 223.363C208.886 222.818 206.768 222.272 204.649 221.726C200.488 220.654 196.326 219.583 192.165 218.511C187.483 217.304 183.529 213.763 179.525 211.141C172.643 206.635 165.761 202.128 158.879 197.623C157.303 196.591 157.298 196.002 156.67 194.119C155.259 189.886 153.848 185.653 152.437 181.42C151.683 179.16 150.757 176.89 150.188 174.576C149.249 170.757 148.693 166.804 147.949 162.943C147.725 161.778 147.501 160.613 147.277 159.448C144.395 160.618 141.513 161.788 138.63 162.958C138.212 163.127 136.177 163.632 135.996 164.048C135.881 164.31 136.487 165.502 136.573 165.758C138.963 172.836 141.353 179.914 143.743 186.991C144.495 189.218 145.246 191.444 145.998 193.671C144.202 190.848 142.405 188.025 140.609 185.202C139.197 189.949 137.786 194.697 136.374 199.445C133.038 195.595 129.702 191.746 126.365 187.896C125.211 191.746 124.056 195.595 122.901 199.445C119.308 194.697 115.715 189.949 112.122 185.202C111.695 187.679 111.268 190.157 110.841 192.634C110.712 193.382 110.738 195.528 110.24 196.12C109.83 196.607 108.65 196.365 107.888 196.365Z" fill="#FE6D73"/>
<path fill-rule="evenodd" clip-rule="evenodd" d="M335.37 225.982C335.168 232.432 335.308 240.804 331.778 246.475C331.208 247.39 329.279 250.241 329.063 247.733C328.852 245.27 329.458 242.832 328.857 240.342C328.536 239.009 327.457 236.098 325.611 237.302C324.67 237.915 324.422 239.43 324.054 240.386C323.51 241.801 322.9 243.193 322.327 244.597C320.325 249.498 318.251 255.347 313.802 258.59C314.384 254.364 315.971 249.851 314.904 245.58C314.541 244.124 313.439 241.465 311.542 242.318C309.694 243.149 308.496 246.858 307.623 248.509C304.978 253.517 302.273 258.429 299.296 263.249C297.798 265.674 296.18 267.89 294.221 269.963C292.995 271.261 291.467 273.453 289.536 273.646C289.536 269.949 290.752 266.378 291.863 262.897C293.058 259.153 294.147 255.378 295.319 251.628C296.336 248.375 297.171 245.147 297.848 241.811C298.129 240.431 298.351 239.002 299.527 238.111C300.584 237.31 302.254 236.929 303.432 236.341C306.527 234.794 309.711 233.126 312.586 231.204C313.767 230.415 314.783 229.395 316.019 228.687C317.427 227.881 318.742 227.202 320.045 226.22C325.668 221.978 330.737 216.762 334.152 210.552C334.706 213.046 335.441 215.484 335.522 218.056C335.605 220.693 335.452 223.347 335.37 225.982ZM289.095 255.627C288.196 254.108 286.826 254.73 285.618 255.462C283.745 256.598 281.867 257.726 279.984 258.848C276.153 261.131 272.392 263.533 268.649 265.957C261.029 270.889 253.143 274.926 245.109 279.101C237.345 283.136 229.887 287.938 222.612 292.791C220.864 293.957 219.128 295.151 217.449 296.416C215.959 297.539 214.767 299.116 213.198 300.116C211.565 301.156 210.442 300.312 208.879 299.544C206.925 298.584 204.889 297.78 202.891 296.914C194.831 293.419 186.747 289.792 178.906 285.825C171.112 281.883 163.728 277.341 156.26 272.83C152.703 270.681 149.208 268.397 145.699 266.169C141.966 263.799 138.101 262.024 134.185 260.008C132.452 259.116 130.917 257.906 129.138 257.095C127.267 256.243 125.29 255.632 123.615 254.403C122.864 253.851 122.23 253.193 121.372 252.803C120.667 252.483 119.867 252.429 119.171 252.089C117.755 251.398 117.35 249.995 117.076 248.535C115.312 239.167 114.375 229.539 113.353 220.066C112.779 214.739 112.138 209.432 111.344 204.134C110.986 201.745 111.706 199.894 112.084 197.57C112.525 194.855 112.699 192.084 112.995 189.351C114.39 191.936 115.596 194.648 117.371 197.007C118.68 198.745 120.915 201.21 123.324 201.152C127.069 201.061 126.898 194.638 127.049 192.089C128.755 193.611 129.272 196.092 130.688 197.86C131.98 199.475 133.74 201.478 135.725 202.201C139.905 203.723 139.502 195.965 139.273 193.764C139.157 192.66 138.534 190.914 140.013 191.417C141.374 191.881 142.699 193.802 143.844 194.683C145.822 196.207 147.992 197.473 150.021 198.928C152.539 200.732 155.256 202.036 157.824 203.717C159.429 204.768 161.181 205.004 162.931 205.777C165.496 206.91 167.761 208.599 170.202 209.957C175.036 212.645 180.398 215.055 185.686 216.676C187.396 217.2 189.676 218.679 190.974 217.16C191.773 216.225 192.298 214.797 192.976 213.749C193.834 212.423 194.746 211.131 195.692 209.866C199.055 205.369 202.788 201.123 206.934 197.331C211.757 192.919 217.031 188.948 222.672 185.642C225.096 184.221 235.216 177.852 237.441 182.334C235.613 182.221 234.028 182.889 232.465 183.726C232.083 183.931 230.116 185.336 230.576 184.098C230.005 184.205 229.503 184.95 229.071 185.281C228.323 185.854 227.188 186.515 226.322 186.99C225.466 187.458 224.408 187.573 223.628 188.141C223.343 188.349 223.17 188.685 222.898 188.909L222.119 188.916C222.003 189.347 221.886 189.778 221.769 190.21C221.329 188.798 220.701 190.634 219.965 191.23C219.523 191.589 218.822 191.958 218.302 192.189C217.912 192.362 217.852 191.96 217.474 192.266C217.139 192.537 216.925 193.135 216.564 193.475C216.12 193.892 215.553 194.216 215.06 194.571C214.113 195.253 213.112 195.788 212.154 196.434C210.864 197.303 210.188 198.798 208.936 199.707C208.343 200.137 207.422 200.187 207.101 200.463C206.296 201.155 206.561 202.204 205.06 202.25C205.196 202.469 205.278 202.706 205.306 202.962C204.949 202.9 204.631 202.752 204.352 202.517C204.415 204.014 202.942 204.549 202.06 205.471C201.551 206.002 200.917 206.749 200.558 207.389C200.498 207.496 200.384 208.349 200.36 208.361C200.223 208.426 199.394 207.697 199.472 207.758C199.241 209.142 197.902 210.45 197.316 211.731C197.007 212.405 196.693 213.49 196.085 213.965C195.919 214.094 195.41 213.959 194.989 214.408C194.68 214.736 194.324 215.344 194.199 215.78C194.115 216.072 194.216 216.826 194.096 217C193.876 217.32 193.533 216.999 193.188 217.235C192.551 217.672 192.534 218.354 191.602 218.443C192.244 220.006 196.126 220.487 197.537 220.931C201.527 222.187 205.713 223.441 209.443 225.365C210.408 225.862 211.32 226.272 211.491 227.418C211.73 229.012 210.917 231.133 210.762 232.743C210.342 237.093 210.256 241.571 210.344 245.939C210.427 250.076 210.561 254.253 210.754 258.385C210.932 262.216 211.705 265.972 212.122 269.777C212.236 270.821 212.16 275.53 213.955 275.293C215.454 275.095 214.508 271.878 214.48 270.956C214.417 268.916 214.847 266.832 214.829 264.774C214.82 263.784 215.253 262.931 215.294 261.984C215.336 261.049 214.871 260.309 215.01 259.339C215.144 258.408 217.895 253.054 215.253 253.681C215.408 252.916 215.543 252.144 215.747 251.39C216.03 251.644 216.258 251.941 216.43 252.28C216.665 250.635 216.586 248.994 216.732 247.348C216.798 246.603 217.1 245.786 216.997 245.035C217.016 244.723 216.977 244.418 216.878 244.118C216.716 243.946 216.514 243.856 216.275 243.847C216.149 243.435 216.117 243.322 216.34 242.918C216.436 242.645 216.626 242.474 216.911 242.406C217.453 242.342 217.515 242.03 217.096 241.472C217.315 240.369 217.343 239.673 217.185 238.573C217.053 237.649 217.54 235.859 217.044 235.036C216.464 234.074 216.176 235.007 216.068 233.674C216.045 233.392 216.027 232.803 216.14 232.522C216.265 232.216 216.639 232.341 216.686 232.232C217.011 231.491 217.032 230.032 215.884 230.159C215.929 229.629 215.974 229.1 216.019 228.571C216.848 229.526 216.559 228.717 217.029 228.187C217.663 227.471 218.282 227.348 219.188 227.065C221.602 226.312 223.928 225.179 226.287 224.26C231.282 222.313 236.37 220.575 241.219 218.275C251.418 213.436 261.414 208.184 271.675 203.472C270.942 202.112 271.397 202.046 271.933 200.768C272.649 201.265 272.498 200.918 273.007 200.888C272.961 200.462 273.093 200.333 273.404 200.502C273.652 200.578 273.905 200.605 274.166 200.583C274.801 200.692 275.32 201.041 275.897 201.174C276.087 201.314 276.295 201.419 276.522 201.489C276.726 201.442 276.9 201.342 277.044 201.186C277.979 201.359 278.293 202.063 278.335 203.083C278.342 203.26 277.799 203.442 277.954 203.68C278.226 204.097 278.956 203.997 279.374 204.05C279.283 204.483 279.191 204.915 279.1 205.348C280.934 204.501 280.456 207.151 281.012 208.021C281.167 208.264 281.512 208.07 281.692 208.352C281.926 208.719 281.856 209.239 282.056 209.605C282.507 210.432 282.959 210.331 283.409 211.279C285.761 216.225 288.889 220.833 291.147 225.886C292.221 228.291 293.191 230.737 294.313 233.12C295.345 235.314 295.935 237.179 295.199 239.575C293.493 245.132 291.667 250.791 289.43 256.159C289.319 255.982 289.207 255.804 289.095 255.627ZM170.032 297.11C169.871 297.383 169.711 297.655 169.551 297.928C169.195 295.882 170.143 296.831 170.032 297.11ZM162.503 293.279C161.989 293.126 162.211 292.287 162.228 291.929C162.552 292.334 162.871 292.746 163.141 293.19C162.928 293.22 162.715 293.249 162.503 293.279ZM141.868 285.414C142.407 285.112 142.795 284.894 143.405 284.552C142.785 285.762 142.785 285.762 141.868 285.414ZM109.405 178.806C108.582 180.827 111.093 193.306 108.755 193.713C108.42 192.618 108.378 189.602 106.99 189.242C105.268 188.795 105.438 191.9 105.203 192.86C101.668 190.4 100.097 185.651 98.4087 181.887C96.256 177.089 94.5622 172.099 92.9447 167.1C91.5615 162.826 90.4178 158.476 89.0201 154.209C88.142 151.529 87.1954 148.842 86.6049 146.08C86.4767 145.48 85.972 143.958 86.4009 143.388C87.0241 142.558 89.2676 143.508 89.9905 143.726C94.6804 145.137 99.5455 145.745 104.364 146.565C109.717 147.475 115.059 148.416 120.445 149.122C121.791 149.299 123.137 149.466 124.485 149.628C125.358 149.734 126.681 149.628 127.511 150.02C129.191 150.813 129.549 153.846 130.173 155.42C132.501 161.291 135.24 166.977 137.691 172.795C139.899 178.036 141.573 183.612 144.747 188.384C142.38 187.335 139.38 181.787 136.735 184.985C135.598 186.36 135.885 188.172 135.976 189.817C136.107 192.196 136.148 194.593 136.148 196.976C133.56 196.303 131.821 193.365 130.462 191.283C128.606 188.441 127.436 185.762 126.615 182.503C126.259 181.091 125.315 181.056 124.476 180.212C123.937 179.669 123.666 178.938 122.893 179.727C121.921 180.72 122.568 183.468 122.735 184.64C123.134 187.428 124.441 191.719 123.17 194.339C121.456 197.875 116.861 188.978 116.323 187.693C116.05 187.039 111.161 174.495 109.405 178.806ZM106.196 118.211C106.485 118.255 106.774 118.299 107.064 118.343C106.83 118.549 106.345 119.271 105.948 119.081C106.031 118.791 106.113 118.501 106.196 118.211ZM121.528 114.92C121.438 115.02 121.347 115.119 121.256 115.219C120.841 114.7 120.988 113.944 120.988 113.344C121.536 113.675 121.67 114.338 121.528 114.92ZM122.767 120.678V122.374C121.618 121.876 121.595 121.619 122.767 120.678ZM124.163 122.834C123.358 122.613 123.262 122.435 123.375 121.197C123.709 121.891 123.928 122.348 124.163 122.834ZM128.799 135.395C128.461 136.264 126.488 134.194 126.561 133.575C126.63 132.984 126.933 132.808 127.351 133.188C127.489 133.313 127.284 133.768 127.372 133.926C127.69 134.497 128.332 134.964 128.799 135.395ZM128.821 140.627C128.326 141.862 127.445 139.918 128.737 139.865C128.822 140.113 128.85 140.367 128.821 140.627ZM127.862 138.682C127.671 138.426 127.485 138.168 127.304 137.904C127.969 138.039 128.497 139.008 129.199 138.361C129.116 139.348 128.415 139.375 127.862 138.682ZM84.8453 122.651C83.7755 121.483 90.7512 120.663 91.5927 120.463C97.6996 119.007 103.465 116.899 109.175 114.314C111.899 113.08 114.609 111.832 117.269 110.464C118.418 109.874 119.993 109.374 120.952 108.488C121.637 107.855 121.609 107.377 122.499 107C123.255 106.681 123.293 106.982 123.639 106.405C123.847 106.058 124.082 104.789 123.96 104.413C123.629 103.388 123.139 104.219 122.451 103.513C121.956 103.003 122.076 101.555 122.211 100.955C122.386 101.241 122.487 101.551 122.514 101.885C123.261 101.517 122.959 100.254 123.776 100.047C124.636 99.8286 124.547 100.499 124.772 101.184C125.422 100.229 124.901 99.4152 124.549 98.4828C126.338 98.1479 128.26 97.8234 130.033 98.4185C131.315 98.8485 132.413 99.906 133.767 100.11C135.092 100.31 135.347 99.6816 136.325 99.0437C137.118 98.5259 137.799 99.1357 138.208 98.7446C137.956 100.065 135.792 99.8844 136.058 101.534C136.178 102.277 137.088 102.944 137.502 103.522C138.022 104.247 138.437 105.049 138.791 105.866C140.169 109.045 140.758 112.734 141.336 116.134C142.763 124.525 142.943 133.082 144.285 141.5C144.925 145.509 145.565 149.521 145.898 153.57C145.981 154.583 146.599 156.879 146.093 157.853C145.666 158.675 144.714 158.678 143.879 158.877C142.244 159.265 140.709 159.793 139.141 160.378C137.736 160.901 137.327 161.223 136.425 159.901C135.552 158.621 135.121 157.096 134.497 155.693C133.701 153.906 132.74 152.181 131.818 150.457C133.63 150.457 134.673 149.479 134.625 147.637C134.572 145.598 132.895 145.114 132.204 143.438C131.531 144.312 131.475 144.336 130.995 143.507C130.447 142.559 130.077 140.824 129.742 139.748C129.982 140.004 130.222 140.26 130.461 140.516C131.066 139.684 130.119 138.372 129.802 137.588C129.313 136.378 129.227 135.069 128.763 133.862C128.51 133.204 127.924 132.685 127.781 131.998C127.685 131.538 128.069 131.1 127.978 130.633C127.819 129.82 126.899 128.948 126.613 128.121C126.173 126.849 125.696 125.729 125.15 124.49C124.411 122.813 124.583 121.053 124.448 119.268C124.308 117.417 123.715 115.646 123.505 113.804C123.361 112.531 123.814 110.928 122.851 109.908C122.738 111.603 123.224 111.577 121.631 111.882C119.818 112.228 118.503 113.579 116.789 113.982C116.435 114.065 116.178 112.522 116.316 114.627C115.493 114.02 113.738 114.774 114.393 115.134C113.897 115.665 112.92 115.298 112.756 116.093C111.07 114.454 108.366 120.034 106.357 117.123C106.026 119.096 104.597 120.263 102.679 120.524C101.715 120.655 101.121 120.976 100.265 121.265C100.091 121.323 100.027 121.573 99.8219 121.64C99.5077 121.743 99.0466 121.434 98.8202 121.494C98.3594 121.616 97.8471 122.222 97.2038 122.343C96.4662 122.481 95.6617 122.418 94.9233 122.332C94.0002 122.225 93.5941 122.116 92.6902 122.42C91.8772 122.694 91.0064 123.46 90.2519 122.626C89.0667 124.676 86.2407 124.175 84.8453 122.651ZM139.641 97.9046C138.744 97.7972 139.367 97.0258 139.782 96.794C140.911 96.165 140.61 98.0209 139.641 97.9046ZM89.9744 105.263C95.239 97.6683 104.244 92.4498 112.167 88.0591C116.495 85.6608 120.912 83.3361 125.456 81.3732C127.715 80.3977 130.001 79.46 132.308 78.6031C133.54 78.1454 134.786 77.7292 136.034 77.315C136.379 77.2007 137.006 76.8496 137.368 76.8839C137.305 76.8777 138.265 77.1387 138.076 77.2207C138.694 76.9516 138.989 76.2499 139.715 75.9692C140.532 75.6536 141.573 75.5231 142.448 75.4946C143.222 75.4692 143.892 75.7891 144.63 75.8141C145.114 75.8303 145.526 75.6001 146.001 75.5662C146.244 75.5492 146.222 75.9126 146.368 75.9338C146.432 75.943 147.079 75.7001 147.085 75.7044C147.32 75.8557 147.529 76.4462 147.742 76.6768C148.353 77.3381 149.249 77.7989 150.063 78.1469C151.054 78.5704 153.471 78.9961 152.351 80.5629C153.146 80.4485 153.517 81.1676 152.52 81.3497C151.981 81.4486 151.75 80.9544 151.349 80.6171C150.424 79.8395 148.176 78.7324 146.843 78.7825C146.092 78.8106 145.513 79.3799 144.821 79.5866C144.14 79.7899 143.803 79.4746 143.205 79.5246C142.507 79.5828 142.057 80.1737 141.392 80.2788C140.769 80.3773 140.421 79.9523 139.864 79.982C139.202 80.017 138.561 80.5921 137.929 80.7854C136.923 81.0926 136.185 81.302 135.203 81.8113C133.301 82.7987 131.176 83.1736 129.216 84.0236C127.648 84.703 125.871 85.0607 124.42 85.8121C122.807 86.6471 121.187 87.4789 119.608 88.3863C118.467 89.0418 116.147 89.2674 114.889 89.1007C114.871 91.4174 113.731 89.7933 112.582 90.808C112.853 91.0478 113.162 91.2241 113.507 91.3369C112.261 91.8343 111.11 92.4533 109.904 93.025C108.657 93.6162 107.327 93.7464 106.507 94.8647C105.753 95.8952 106.008 95.3636 104.882 95.7693C104.366 95.9556 103.917 96.5238 103.544 96.9053C102.905 97.5612 102.763 98.5544 102.398 97.2063C102.291 97.3707 101.871 98.4174 101.79 98.4439C101.332 97.9581 101.266 98.534 101.01 98.74C101.145 99.1877 100.952 99.481 100.433 99.62C100.17 99.8155 99.9035 100.007 99.6344 100.195C98.6581 100.872 97.4155 101.453 96.728 102.462C96.221 102.163 96.0332 101.646 96.3419 101.119C95.373 102.012 94.2169 102.93 93.9548 104.304C93.8343 104.188 93.6938 104.104 93.5344 104.053C93.141 104.318 93.6534 105.11 93.9028 105.288C94.9907 104.865 93.631 105.019 94.3621 105.087C94.5703 105.106 94.7844 105.262 95.0142 105.265C95.6882 105.273 96.3215 105.241 96.9898 105.138C98.4634 104.911 99.9116 104.488 101.338 104.064C102.892 103.602 104.446 103.141 105.965 102.574C107.216 102.108 108.447 101.587 109.677 101.069C110.168 100.862 110.659 100.652 111.151 100.447C112.085 100.057 112.578 99.4152 112.447 100.514C113.191 100.39 113.836 99.3386 114.407 98.9094C115.211 98.3061 116.115 97.8561 117.067 97.5482C117.453 97.4234 117.736 97.2648 118.135 97.2637C118.331 97.2633 118.448 97.8145 118.571 97.7845C119.426 97.5774 119.036 97.1039 119.42 96.4218C120.261 94.9309 122.524 94.1063 123.914 93.2594C124.796 92.7216 125.423 91.9983 126.237 91.4028C126.618 91.1244 126.895 91.0013 127.294 90.8835C127.6 90.793 127.975 91.4952 128.173 90.7895C127.462 90.4989 126.876 90.1405 126.192 89.9284C125.708 89.7779 126.289 89.2632 125.522 89.5696C125.214 89.6928 125.108 90.2887 124.995 90.5382C124.138 89.7733 121.73 90.5659 120.714 90.8862C120.644 90.9081 120.33 90.7426 120.182 90.7526C119.595 90.7918 119.187 91.5814 118.801 91.9217C117.774 92.8259 116.66 93.204 115.396 93.7202C115.733 91.882 118.205 91.1291 119.648 90.425C121.758 89.3956 123.722 88.0818 126.032 87.5282C127.57 87.159 129.608 86.8622 130.273 88.6507C130.67 89.7228 130.721 92.3863 129.375 92.881C129.233 92.3805 129.688 91.9529 129.825 91.5186C128.486 92.0299 128.265 93.6386 127.248 94.4782C126.677 94.9497 126.472 95.101 126.196 95.5568C125.921 96.0095 125.79 96.4318 125.146 96.9134C124.095 94.6803 124.273 97.7391 123.74 98.1229C123.954 97.9685 122.871 98.4193 123 98.3716C122.95 98.39 122.478 97.6255 122.172 97.6417C121.615 97.671 121.722 98.2842 121.454 98.5929C120.544 99.6377 119.369 100.323 117.905 100.159C117.871 100.902 118.1 101.79 117.085 101.858L116.952 100.21C116.399 100.769 115.672 101.3 115.223 101.947C114.711 102.683 114.766 103.137 113.917 103.627C113.03 104.14 111.143 105.151 110.087 105.239C110.348 104.868 110.302 104.534 109.95 104.236C109.419 104.783 108.635 104.837 108.07 105.332C110.032 106.151 106.563 106.109 106.123 106.202C105.828 106.264 105.571 106.532 105.273 106.593C104.877 106.673 104.825 106.257 104.484 106.389C103.986 106.582 104.188 107.127 103.666 107.401C103.291 107.599 102.655 107.596 102.232 107.783C101.224 108.229 99.0762 109.218 98.3948 108.019C98.0495 110.077 94.523 108.824 93.2176 108.686C91.4299 108.496 88.316 107.657 89.9744 105.263ZM97.4833 84.2072C97.7362 83.9913 97.9895 84.007 98.2428 84.255C97.8902 82.3926 100.618 81.4883 101.807 80.6964C103.386 79.6463 105.244 77.6087 107.309 77.77C106.957 78.031 106.605 78.292 106.253 78.553C106.756 78.6181 107.258 78.6831 107.759 78.7482C107.476 79.1639 107.193 79.5793 106.909 79.9947C106.446 77.4401 104.027 80.6653 103.328 81.1353C102.623 81.6084 101.92 81.961 101.294 82.5381C100.673 83.1097 100.113 84.1391 99.087 83.6248C98.9934 85.0838 97.8205 84.688 97.0094 85.496C96.9755 84.9891 97.2658 84.6307 97.4833 84.2072ZM108.198 76.9243C110.694 75.9892 112.868 74.2604 115.22 73.0255C117.467 71.8456 119.76 70.7862 122.044 69.6856C123.203 69.1271 125.325 67.6827 126.65 68.4188C128.437 69.4127 125.977 69.7334 125.338 70.0775C125.101 68.5469 124.273 69.9335 124.768 70.7851C123.404 70.1961 120.43 72.5004 119.128 73.136C118.834 73.2799 118.966 73.3631 118.631 73.5325C118.549 73.574 117.695 73.7684 117.45 73.8504C116.225 74.2604 115.418 73.9347 114.89 75.4133C114.78 75.0654 114.67 74.717 114.559 74.3686C113.792 76.0905 111.461 76.8442 109.971 77.8624C109.587 78.125 108.489 79.1432 108.002 78.9326C107.324 78.6393 107.596 77.1495 108.198 76.9243ZM153.233 82.1158C154.287 82.1854 153.27 82.677 153.56 83.0019C153.527 82.9654 154.195 83.5347 154.107 83.3784C154.225 83.5886 154.508 83.5809 154.653 84.0082C155.151 85.4776 152.974 86.9958 152.24 87.8296C150.813 89.4514 149.988 91.5052 148.5 93.075C147.829 93.7841 147.16 94.2737 146.229 94.5382C145.577 94.7234 144.888 94.5251 144.289 95.1518C143.807 95.6565 143.916 95.9433 143.383 96.2116C142.443 96.6847 142.03 96.2697 141.116 97.2922C140.329 95.1541 142.589 95.1576 143.768 93.9627C145.396 92.3132 147.179 90.649 148.706 88.8844C150.061 87.3165 150.604 85.9418 151.248 84.0371C151.451 83.4365 151.672 82.1489 152.231 81.772C153.102 81.1853 152.58 82.0723 153.233 82.1158ZM158.416 137.657C161.18 134.565 164.609 131.789 168.326 129.926C169.655 129.26 171.546 128.386 172.923 129.412C174.273 130.416 173.983 132.421 173.438 133.784C172.917 133.579 173.409 131.663 173.138 131.19C172.548 130.156 171.274 130.705 170.407 131.051C169.391 131.457 168.485 131.905 167.681 132.642C167.355 132.94 166.73 133.208 166.521 133.413C166.207 133.282 166.021 133.377 165.966 133.698C166.031 133.894 166.023 134.087 165.943 134.277C165.897 134.338 165.488 134.09 165.43 134.139C165.165 134.366 164.917 134.633 164.657 134.844C164.134 135.267 163.689 135.467 163.207 136.057C162.277 137.196 161.047 137.864 160.112 138.95C159.902 139.196 159.649 139.825 159.601 139.88C159.129 140.432 158.429 140.868 157.896 141.451C156.975 142.459 155.991 143.136 154.928 144.001C154.471 144.373 153.937 144.773 153.632 145.291C153.494 145.527 153.415 146.82 153.41 146.826C152.368 147.968 152.571 145.672 152.649 145.384C153.496 142.285 156.358 139.959 158.416 137.657ZM152.726 158.609C152.855 159.095 152.962 159.498 153.094 159.991C152.267 159.314 152.267 159.313 152.726 158.609ZM151.833 160.202C151.529 160.508 151.224 160.813 150.916 161.115C150.24 160.4 151.957 160.08 151.833 160.202ZM151.404 147.898C151.08 149.207 149.897 150.792 149.083 151.825C149.172 151.711 148.388 151.94 148.299 151.992C148.009 152.16 148.703 153.247 147.699 152.761C147.342 152.963 148.044 153.784 147.56 154.152C146.16 150.963 149.982 148.2 151.462 145.832C152.185 146.496 151.585 147.165 151.404 147.898ZM142.312 165.142C143.333 165.405 143.864 165.239 144.553 164.237C144.967 163.635 145.118 162.569 146.066 163.469L146.233 162.311C147.585 162.866 147.471 164.871 148.062 165.982C148.35 164.725 149.031 161.214 151.116 161.777C153.457 162.409 149.561 166.435 149.199 167.421C148.403 166.186 148.716 167.335 148.109 167.509C147.588 167.659 146.775 167.275 146.142 167.31C144.216 167.415 142.525 168.281 140.766 169.014C140.32 167.814 139.875 166.613 139.43 165.412C140.466 165.492 142.607 162.736 142.911 164.739C142.143 164.605 141.926 164.639 141.552 165.338C141.791 165.217 142.045 165.152 142.312 165.142ZM146.634 180.814C146.631 180.804 148.626 180.927 148.804 180.862C150.169 180.364 149.664 178.816 149.944 177.721C150.506 178.239 150.208 179.183 150.382 179.852C150.585 180.639 151.175 181.31 151.23 182.151C151.354 184.053 149.794 183.631 148.611 184.246C147.601 184.772 147.489 185.433 146.635 184.016C146.404 183.633 145.908 182.634 145.958 182.143C146.009 181.657 146.778 181.254 146.634 180.814ZM148.242 189.041L147.69 188.423C149.334 188.926 148.365 188.17 148.743 187.136C150.004 187.976 151.033 188.839 152.032 187.157L153.756 194.113C152.598 194.386 151.103 192.596 150.309 191.981C149.85 191.626 147.304 190.258 148.833 189.859C148.635 189.586 148.439 189.314 148.242 189.041ZM159.5 167.198C158.542 168.109 157.578 168.618 156.535 169.334C155.621 169.962 155.936 170.683 155.143 171.384C154.617 171.85 153.383 172.324 152.733 172.679C151.575 173.312 150.538 173.432 149.346 172.724C149.67 175.334 147.882 175.539 145.657 176.056C144.596 176.303 143.968 176.68 143.203 175.708C142.679 175.042 142.474 173.838 143.125 173.229C144.16 172.262 146.918 172.596 148.246 171.988C149.254 171.527 150.281 168.928 151.524 169.874C150.882 168.851 151.63 168.576 152.187 167.848C152.798 167.049 153.174 166.115 153.806 165.323C155.007 163.817 156.851 162.302 158.556 161.394C160.057 160.595 160.845 161.161 161.07 162.838C161.183 163.682 161.179 164.938 160.707 165.686C160.556 165.925 160.059 165.928 159.909 166.152C159.647 166.543 159.887 166.829 159.5 167.198ZM177.112 146.952C178.31 147.879 178.193 149.827 178.382 151.154C178.648 153.023 178.455 154.833 178.427 156.737C178.397 158.732 177.418 160.032 176.957 161.902C176.445 163.982 175.784 165.084 174.635 166.83C175.881 167.026 174.027 170.746 173.721 171.227C173.389 171.75 170.714 174.159 171.861 174.159C171.228 174.994 170.539 175.85 169.908 176.662C169.66 176.981 169.225 177.107 169.029 177.332C168.631 177.791 168.606 178.2 168.321 178.735C167.888 179.547 167.746 179.33 167.176 179.919C166.783 180.326 166.525 180.863 166.139 181.253C164.895 182.509 164.737 181.48 164.041 180.512C163.934 180.772 163.745 180.934 163.473 181C163.255 179.905 164.755 178.799 165.385 178.134C166.418 177.044 167.362 175.843 168.275 174.65C170.231 172.096 171.988 169.382 173.374 166.475C174.85 163.381 176.028 160.033 176.64 156.657C177.107 154.085 177.55 149.672 174.112 149.017C171.612 148.541 168.856 150.06 166.795 151.29C165.539 152.039 164.276 152.784 163.079 153.627C161.78 154.541 160.658 155.834 159.248 156.568C160.019 156.167 157.475 157.374 157.865 157.034C157.682 157.193 157.84 157.677 157.719 157.896C157.562 158.181 157.016 158.462 156.771 158.646C156.125 159.131 155.092 159.628 154.797 160.431C150.695 157.504 158.853 152.309 160.944 150.986C165.092 148.362 172.309 143.234 177.112 146.952ZM188.177 118.492C188.138 116.384 189.854 113.508 191.013 111.789C191.58 110.948 192.486 110.981 192.818 109.989C193.01 109.418 192.759 108.819 192.816 108.246C192.893 107.47 193.229 106.848 193.617 106.181C197.125 100.154 201.388 94.8192 205.927 89.5608C208.166 86.9685 210.288 84.2765 212.702 81.8413C213.711 80.8243 216.421 77.168 217.972 77.5337C218.793 77.7273 219.271 78.9803 219.641 79.6197C220.254 80.6772 220.928 81.6677 221.673 82.6401C223.639 85.2073 225.907 87.4608 228.585 89.2805C230.257 90.4177 231.947 91.5229 233.582 92.7143C234.928 93.6948 236.963 94.8158 237.925 96.1924C238.886 97.5693 237.474 98.7354 236.702 99.8787C235.503 101.657 234.4 103.499 233.195 105.275C232.717 104.931 232.84 104.232 232.512 103.791C232.221 103.401 231.81 103.242 231.408 103C230.637 102.539 229.881 101.974 229.186 102.748C227.968 104.101 229.642 107.301 231.447 106.949C231.659 108.285 228.056 110.485 227.153 111.221C224.381 113.476 221.522 115.436 217.861 115.64C216.379 115.723 214.837 115.61 213.43 115.114C212.755 114.877 212.01 114.551 211.493 114.033C210.874 113.413 210.716 112.491 210.115 111.877C209.594 111.345 208.879 111.263 208.359 110.729C207.837 110.194 207.58 109.349 207.369 108.657C206.955 107.304 206.877 105.877 206.48 104.52C206.241 103.705 206.044 102.614 205.265 103.398C204.133 104.537 204.701 108.117 204.991 109.481C205.406 111.428 206.378 112.997 207.396 114.671C208.5 116.488 208.908 118.173 209.105 120.275C209.476 124.209 210.605 127.985 212.362 131.525C213.101 133.015 213.987 134.417 214.785 135.873C215.158 136.553 215.994 138.871 217.009 138.859C218.629 138.839 216.321 134.113 216 133.319C214.225 128.925 212.529 124.306 212.149 119.548C214.694 120.204 217.468 120.826 220.103 120.411C218.402 124.215 220.179 128.002 219.962 131.918C219.853 133.882 219.774 135.693 219.815 137.651C219.851 139.368 219.075 141.084 218.405 142.637C217.074 145.72 215.398 149.523 212.926 151.885C210.859 153.859 208.095 154.013 205.394 153.559C199.251 152.524 195.215 147.802 192.637 142.439C190.98 138.993 189.714 135.316 188.928 131.574C188.018 127.243 188.258 122.884 188.177 118.492ZM196.155 89.3079C190.423 85.16 198.753 80.4497 202.993 81.091C203.988 81.2412 205.818 81.6523 205.725 82.9503C205.649 84.0113 203.879 85.1939 203.2 85.8487C201.262 87.7172 199.29 91.5756 196.155 89.3079ZM237.859 181.472C237.662 181.296 236.058 181.729 236.693 180.779C237.221 179.99 238.686 180.979 239.218 181.182C238.779 181.485 238.398 181.954 237.859 181.472ZM213.988 231.639C213.495 231.7 212.98 230.371 214.757 231.364C214.501 231.455 214.244 231.547 213.988 231.639ZM213.937 253.297C213.999 253.892 214.181 254.285 213.758 254.718C213.4 254.277 213.354 253.656 213.937 253.297ZM214.658 262.245C214.606 262.569 214.554 262.894 214.502 263.217C214.092 263.01 213.682 262.802 213.272 262.595C213.734 262.478 214.196 262.362 214.658 262.245ZM215.16 254.7C215.772 254.928 215.487 254.197 215.931 254.094C216.09 254.855 215.894 255.507 215.457 256.135C215.416 255.986 215.192 254.711 215.16 254.7ZM230.783 200.7C229.926 200.591 229.796 201.497 229.156 201.849C228.744 202.076 227.487 201.905 227.253 202.34C227.562 202.429 227.872 202.519 228.182 202.608C227.473 202.99 226.764 203.372 226.056 203.754C227.76 203.754 229.536 202.94 231.229 203.179C231.945 203.28 232.47 203.522 232.919 204.104C233.191 204.457 233.431 205.026 233.475 205.459C233.522 205.927 233.157 206.25 233.222 206.473C233.985 206.494 233.895 207.746 233.723 208.256C233.352 209.362 231.876 211.094 230.554 210.392C231.107 211.177 230.966 211.625 230.148 212.081C230.222 211.821 230.277 211.367 229.859 211.412C229.752 211.847 229.793 212.537 229.438 212.865C229.04 213.232 228.685 212.803 228.305 213.042C227.854 213.325 227.989 213.77 227.635 214.077C227.166 214.483 227.099 214.194 226.538 214.273C225.69 214.393 226.231 213.866 225.551 214.554C225.316 214.791 225.356 215.408 224.975 215.755C224.243 216.421 222.289 217.116 221.588 216.261C219.901 218.934 214.846 219.575 212.493 217.465C208.741 214.1 215.738 207.257 218.048 205.088C220.366 202.912 222.942 201.032 225.548 199.217C227.028 198.186 228.548 197.25 230.099 196.332C231.056 195.765 232.258 194.73 233.434 194.829C234.488 194.918 235.39 195.737 236.5 195.899C237.303 196.016 238.863 196.209 237.85 197.298C237.376 197.807 235.516 198.63 234.882 198.754C234.51 198.827 234.117 198.688 233.749 198.763C233.124 198.891 232.695 199.418 232.016 199.351C232.231 200.36 231.838 200.834 230.783 200.7ZM241.889 163.271C241.889 164.06 240.449 163.863 240.149 163.595C239.654 163.155 239.636 161.836 239.453 161.237C240.29 161.448 241.888 162.218 241.889 163.271ZM230.291 137.249C233.315 134.764 236.495 132.485 239.856 130.477C241.06 129.759 242.76 128.309 244.255 128.49C244.882 128.566 246.178 129.286 245.706 130.081C245.618 130.229 244.92 130.289 244.704 130.397C244.46 130.519 244.268 130.855 244.041 131.021C242.471 132.174 240.584 132.881 239.008 134.061C237.713 135.03 236.506 136.114 235.112 136.946C233.774 137.743 232.377 138.248 231.107 139.131C231.132 139.113 229.456 139.716 229.785 139.826C228.313 139.333 229.868 137.598 230.291 137.249ZM250.454 136.323C252.251 135.607 254.008 134.738 255.889 134.257C256.828 134.017 257.791 133.837 258.763 133.945C258.928 133.656 259.148 133.592 259.423 133.753C259.637 134.083 259.92 134.335 260.271 134.512C260.807 134.924 262.779 135.463 262.385 136.372C262.125 136.974 260.146 137.024 259.604 137.159C257.967 137.567 256.441 138.484 254.756 138.709C254.597 138.73 254.081 138.538 254.075 138.54C253.417 138.683 252.87 139.366 252.305 139.693C251.088 140.397 249.34 140.515 248.467 141.73C251.296 143.648 253.75 141.746 256.236 140.298C257.726 139.431 259.325 138.806 260.953 138.25C261.804 137.96 262.662 137.658 263.525 137.403C263.882 137.273 264.248 137.179 264.625 137.122C264.975 137.052 265.226 137.18 265.377 137.505C266.42 137.47 266.509 136.816 267.136 138.036C268.021 139.756 266.667 139.669 265.396 139.88C263.632 140.172 261.838 140.832 260.1 141.268C259.699 141.369 256.184 142.184 256.18 142.213C256.02 143.323 266.109 142.295 266.975 142.129C268.503 141.835 270.142 141 271.724 141.201C272.939 141.355 275.707 143.138 273.769 144.322C273.387 142.496 272.078 144.004 271.394 144.62C270.483 145.441 269.178 145.362 267.929 145.683C266.221 146.122 261.847 147.769 260.634 145.669C261.018 147.509 254.046 146.574 253.087 146.513C252.153 146.454 250.947 146.652 250.044 146.386C249.455 146.212 249.127 145.829 248.573 145.743C248.437 145.889 248.274 145.989 248.085 146.042C247.804 145.9 247.55 145.719 247.324 145.5C245.457 144.642 242.568 144.168 243.606 141.434C244.584 138.856 248.081 137.27 250.454 136.323ZM267.954 137.917C268 137.756 268.047 137.596 268.093 137.435C268.099 137.927 269.273 138.137 269.137 138.775C268.837 140.187 267.482 138.065 267.365 137.834C267.562 137.862 267.757 137.889 267.954 137.917ZM275.122 140.263C275.258 140.842 276.819 142.074 276.433 142.358C275.817 141.521 274.116 141.901 275.122 140.263ZM248.785 193.056C249.357 191.922 251.085 193.853 250.902 191.917C251.842 192.002 251.255 192.717 252.381 192.403C252.803 192.285 253.088 191.817 253.603 191.71C253.74 191.681 254.332 191.728 254.536 191.722C255.214 191.701 257.867 191.625 256.041 190.737C257.063 190.061 257.189 190.404 258.112 191.024C257.875 189.743 259.233 190.47 259.865 190.63C259.414 189.9 260.533 189.123 260.896 188.629C260.766 189.39 260.834 190.241 261.934 189.754C262.209 189.634 262.147 189.096 262.364 189.008C262.763 188.848 262.985 189.14 263.128 189.124C263.268 189.108 263.564 189.187 263.86 189.075C264.243 188.931 264.058 188.416 264.545 188.339C264.862 188.29 265.093 188.755 265.48 188.759C265.679 188.761 266.01 188.56 266.161 188.57C266.187 188.572 266.376 188.116 266.609 188.105C266.948 188.089 267.086 188.998 267.21 189.175C267.805 190.018 268.595 190.568 269.507 191.017C267.857 192.53 264.531 192.369 262.457 192.879C261.334 193.156 260.375 193.554 259.348 194.067C259.1 194.229 258.886 194.427 258.707 194.661C258.562 194.564 258.416 194.468 258.271 194.371C257.707 194.406 257.175 194.127 256.541 194.234C254.582 194.564 253.049 196.031 251.059 196.358C250.165 196.505 249.43 196.711 248.847 195.935C248.336 195.255 248.421 193.779 248.785 193.056ZM246.1 184.02C246.544 184.395 246.01 185.617 246.869 185.484C247.479 185.39 247.357 184.444 247.836 184.243C248.465 183.981 248.845 184.605 249.436 184.547C250.538 184.438 250.475 183.476 249.544 183.053C250.512 182.798 250.822 183.942 251.679 183.932C252.805 183.919 252.537 182.59 253.495 182.37C253.91 182.274 253.771 182.884 254.04 182.96C254.579 183.111 254.955 182.851 255.431 182.622C255.858 182.418 256.161 182.023 256.628 181.889C256.84 181.828 257.379 181.94 257.534 181.826C257.848 181.598 258.129 180.707 258.438 180.589C258.374 180.613 259.387 181.12 259.532 181.168C259.443 181.544 259.237 181.589 258.914 181.302C258.914 182.151 261.273 182.416 260.789 181.367C262.065 181.895 261.115 182.167 260.987 182.904C260.936 183.2 260.764 183.192 260.815 183.506C260.839 183.65 261.507 183.526 261.499 183.722C261.443 184.989 257.405 185.379 256.64 185.49C255.056 185.722 253.558 186.111 252.031 186.59C250.894 186.947 248.935 187.969 247.725 187.906C245.985 187.814 245.759 185.545 246.1 184.02ZM242.213 171.092C241.789 169.683 243.15 166.772 244.922 167.136C245.358 167.225 245.465 167.586 245.803 167.746C246.275 167.97 247.043 167.853 247.452 168.084C248.369 168.603 247.907 169.926 248.826 170.404C247.375 170.756 242.887 173.332 242.213 171.092ZM243.893 176.568C244.518 176.232 245.531 176.189 245.957 175.542C246.17 175.689 246.571 176.582 246.952 176.445C247.13 176.382 247.314 175.898 247.301 175.898C247.64 175.889 247.707 175.43 248.226 175.481C248.702 175.529 249.235 176.101 249.658 176.314C249.586 174.896 249.949 174.761 251.099 174.001C251.351 173.835 251.562 173.211 251.794 172.958C251.572 174.446 252.132 174.454 253.321 174.678C254.811 174.958 255.739 175.758 256.336 177.198C255.066 176.95 253.429 177.248 252.928 178.613C251.915 176.762 248.232 179.316 247.041 179.839C246.157 180.228 245.128 180.75 244.387 179.845C243.865 179.207 244.164 178.44 244.175 177.874C244.178 177.696 244.362 177.686 244.345 177.421C244.323 177.083 243.883 176.948 243.893 176.568ZM257.447 205.678C257.111 205.805 255.386 205.877 255.374 205.305C255.365 204.8 258.42 205.309 257.447 205.678ZM254.643 203.829C253.338 204.634 251.877 201.798 251.397 200.981C252.766 201.156 253.435 200.01 254.242 199.14C255.01 200.821 256.175 199.933 257.401 199.371C258.847 198.708 260.432 198.703 261.913 198.172C262.375 198.006 262.801 197.759 263.253 197.569C263.616 197.433 263.978 197.294 264.339 197.151C264.595 196.92 264.686 196.636 264.611 196.299C264.49 196.015 264.573 195.836 264.86 195.762C265.201 195.864 265.549 195.923 265.905 195.939C266.475 195.826 267.296 195.287 266.607 194.707C267.345 194.036 268.084 194.703 268.796 194.997C268.627 194.515 268.458 194.034 268.289 193.552C268.642 193.702 269.689 195.165 269.796 195.156C270.472 195.106 270.402 194.198 270.791 193.831C271.015 194.108 271.079 196.172 271.962 195.476C272.339 195.179 271.527 194.167 271.327 193.936C272.336 194.164 273.217 195.369 273.49 196.304C273.011 196.374 272.568 196.277 272.161 196.015C271.901 197.318 274.312 196.79 274.702 197.47C275.467 198.803 270.494 199.728 269.846 199.852C268.55 200.099 267.019 200.191 265.831 200.766C264.692 201.316 264.423 201.473 263.092 201.576C261.574 201.694 260.092 202.195 258.623 202.584C257.348 202.922 255.774 203.132 254.643 203.829ZM282.399 156.137C283.598 155.705 287.637 153.466 288.665 154.462C288.556 154.356 289.406 156.113 289.397 156.002C289.471 156.916 289.448 157.283 288.324 157.721C287.518 158.034 286.817 157.368 286.093 157.633C285.297 157.923 285.854 158.438 285.444 158.797C284.995 159.191 284.13 159.361 283.571 159.533C282.204 159.956 280.826 160.309 279.465 160.764C276.696 161.689 273.764 162.551 270.918 163.206C268.792 163.695 265.182 164.911 263.223 163.475C263.032 164.291 262.564 164.18 261.915 164.299C261.406 164.392 260.485 164.644 260.032 164.657C259.279 164.679 257.185 164.482 257.473 163.425C257.394 163.716 259.102 162.72 258.806 162.658C259.532 162.81 259.297 162.445 259.891 162.242C260.668 161.977 261.479 161.991 262.272 161.71C264.27 161.002 265.946 160.082 268.055 159.638C272.873 158.625 277.751 157.809 282.399 156.137ZM89.2688 265.307C88.8784 265.317 88.5747 264.208 89.7623 265C89.5979 265.102 89.4335 265.204 89.2688 265.307ZM79.8874 263.871C79.3566 264.007 79.1449 263.711 79.253 262.983C79.9933 262.69 80.2046 262.986 79.8874 263.871ZM72.6449 262.386C72.5091 261.737 72.9902 261.591 73.4264 261.299C73.3825 262.159 73.3825 262.159 72.6449 262.386ZM54.422 257.045C53.6879 256.884 52.7098 256.166 52.5415 257.371C52.4187 257.092 51.792 255.779 52.0611 255.476C52.2016 255.317 52.7336 256.052 52.677 255.979C53.3195 254.679 54.427 256.248 55.046 256.712C54.8382 256.823 54.6299 256.934 54.422 257.045ZM245.288 113.421C245.541 112.885 245.84 112.715 246.184 112.91C245.644 114.164 243.816 114.843 245.288 113.421ZM257.988 101.655C258.44 102.504 257.759 102.862 257.273 103.568C257.558 102.807 257.755 102.28 257.988 101.655ZM313.182 184.514C314.815 184.513 318.293 183.651 319.278 185.518C319.93 184.25 320.67 186.628 321.236 187.01C321.299 187.053 321.707 186.741 321.896 186.856C322.182 187.029 322.428 187.5 322.592 187.78C323.085 188.623 323.297 189.627 323.57 190.555C320.718 190.555 317.794 189.891 314.944 189.65C313.073 189.491 311.239 189.487 309.366 189.587C308.994 189.607 308.255 189.485 307.936 189.555C307.613 189.626 307.027 190.285 306.67 190.179C307.224 191.218 314.319 193.736 314.86 192.584C314.218 192.196 312.794 191.898 312.795 190.961C312.796 189.91 314.131 189.912 314.839 189.943C316.387 190.01 318.978 190.526 319.612 192.135C319.884 192.824 319.968 194.561 319.669 195.227C319.476 195.657 319.15 196.174 318.632 196.262C318.42 196.297 318.115 196.015 318.082 196.022C317.021 196.247 315.055 197.1 313.897 195.898C313.062 196.978 309.04 195.798 307.809 195.391C305.656 194.678 302.69 193.699 301.382 191.689C299.788 189.24 303.029 187.17 304.891 186.175C307.435 184.814 310.342 184.515 313.182 184.514ZM324.049 190.176C324.55 190.318 325.051 190.459 325.551 190.601C325.417 191.478 323.442 190.784 324.049 190.176ZM339.182 222.08C339.335 218.564 338.319 215.467 337.732 212.066C337.586 211.223 337.735 209.749 337.094 209.055C336.483 208.392 335.117 208.931 335.063 207.759C334.46 208.465 334.521 208.613 333.779 207.801C333.914 208.149 333.934 208.503 333.838 208.863C333.377 208.599 331.707 207.722 331.847 208.921C330.474 208.618 330.872 207.759 330.089 207.103C329.977 207.01 329.53 207.341 329.356 207.2C329.041 206.945 328.885 206.713 328.62 206.384C328.282 206.792 327.822 207.087 327.41 207.41C327.17 206.887 326.703 206.504 326.142 206.377C326.666 207.475 327.964 208.897 326.184 209.521C325.122 209.894 323.383 209.437 322.258 209.524C318.089 209.847 313.522 208.939 309.492 207.945C305.351 206.925 301.163 205.485 297.439 203.38C296.645 202.931 296.145 202.4 295.462 201.844C294.797 201.302 294.314 201.217 293.515 200.871C292.077 200.248 290.762 199.249 289.669 198.136C287.317 195.742 285.132 192.611 285.787 189.106C286.44 185.612 288.841 182.882 291.411 180.582C294.445 177.865 297.872 175.596 301.508 173.767C303.134 172.95 307.293 169.879 308.9 171.676C309.926 172.824 309.349 174.289 307.946 174.544C307.6 174.607 307.238 174.375 306.889 174.534C306.384 174.763 306.562 175.034 306.353 175.226C305.992 175.558 305.608 176.076 305.068 176.364C303.183 177.369 301.36 178.165 299.558 179.39C298.728 179.954 297.928 180.196 297.196 180.688C296.467 181.178 296.302 181.988 295.323 181.488C295.671 182.912 293.577 184.437 292.757 185.31C291.485 186.661 289.961 188.386 290.554 190.385C291.715 194.298 296.963 197.271 300.32 198.991C304.511 201.138 309.132 202.846 313.798 203.553C316.118 203.905 318.516 204.122 320.853 204.345C322.672 204.519 325.465 203.883 326.774 205.522C326.814 203.611 332.783 203.779 334.053 203.535C331.506 194.829 326.505 187.089 321.159 179.857C318.535 176.307 315.958 172.656 312.968 169.402C309.693 165.839 305.952 162.655 302.398 159.377C295.427 152.947 287.542 147.209 279.519 142.153C271.514 137.11 263.224 132.147 254.454 128.551C244.438 124.444 233.893 121.743 223.337 119.442C224.769 117.618 227.098 116.728 228.932 115.393C229.574 114.925 230.441 113.804 231.275 113.65C232.178 113.484 232.889 114.456 233.532 114.943C235.377 116.343 236.653 115.749 238.767 115.664C240.031 115.614 243.026 116.318 243.559 114.608C244.268 115.552 243.24 116.308 242.714 117.001C243.097 117.535 243.406 116.981 243.784 116.897C243.901 116.8 244.017 116.703 244.133 116.607C244.321 116.335 244.491 116.333 244.641 116.601C244.867 116.941 245.094 116.866 245.323 116.376C245.385 116.337 245.448 116.297 245.51 116.258C245.784 116.112 246.047 115.882 246.302 115.701C248.222 114.328 249.934 113.159 252.054 112.148C253.834 111.3 252.877 109.676 254.05 108.53C254.316 108.271 254.763 108.401 255.047 108.181C255.325 107.965 255.367 107.72 255.57 107.489C256.057 106.933 255.477 106.287 256.721 106.968L256.272 104.442C258.712 106.809 258.702 99.9984 259.035 98.9906C258.992 99.1238 259.254 98.0925 259.254 98.1013C259.326 96.0576 259.605 94.5763 257.211 94.4578C258.117 93.8876 258.394 95.0009 258.813 93.8484C259.022 93.2709 258.368 92.2785 259.411 92.6508C259.631 91.4236 259.413 90.4304 259.14 89.2378C258.86 88.0171 259.025 87.2025 259.037 85.9819C259.052 84.5972 258.403 83.2056 258.196 81.8421C258.033 80.7742 258.201 79.09 256.82 79.4823C256.626 79.1786 257.308 78.2443 257.28 77.7824C257.237 77.0648 256.459 76.3357 256.238 75.6466C255.913 75.9815 255.456 76.0932 255.015 75.9419C255.429 75.0057 255.04 74.6912 254.643 73.8839C254.416 73.4216 254.553 72.9112 254.066 72.5797C253.787 72.3895 253.311 72.7098 253.093 72.4869C252.624 72.0096 252.797 71.3763 252.474 70.7473C252.07 69.9586 251.145 69.3561 250.509 68.7641C246.928 65.4361 243.039 62.8927 238.277 61.5924C233.472 60.2805 227.871 59.8104 223.082 61.3237C221.168 61.9284 219.469 61.8665 217.746 62.9959C217.188 63.3624 217.128 63.2642 216.844 63.8751C216.779 64.0176 217.373 64.3968 217.009 64.6297C216.614 64.8826 216.177 64.3683 215.975 63.9414C213.483 65.7453 211.148 68.1501 209.728 70.9075C208.318 73.6476 208.188 76.8665 207.65 79.8442C205.166 77.0063 201.806 75.6459 198.153 77.0101C194.969 78.1989 192.502 80.8119 191.879 84.1972C191.499 86.2609 191.914 88.3509 192.852 90.2129C193.257 91.0174 193.748 91.9082 194.493 92.4498C195.082 92.8779 196.092 92.8179 196.369 93.5901C196.795 94.773 194.338 97.328 193.7 98.3635C192.546 100.237 191.474 102.173 190.658 104.219C187.732 100.086 184.931 95.5718 181.604 91.7608C178.464 88.1638 174.721 84.9379 171.049 81.8975C163.43 75.5873 155.506 69.6591 146.983 64.632C139.046 59.9509 129.459 57.3521 120.21 58.271C111.172 59.1691 104.253 64.8849 98.4306 71.4772C87.2354 84.1526 80.3786 102.219 79.7088 119.092C79.5075 124.16 79.8936 129.163 81.1455 134.079C81.7418 136.42 81.6552 138.722 82.0016 141.093C82.3927 143.768 83.0691 146.433 83.7231 149.053C86.2145 159.034 89.3889 169.007 92.9508 178.657C94.8028 183.675 97.0437 188.581 100.075 193.006C101.475 195.05 103.289 196.649 104.796 198.59C106.258 200.472 106.644 202.783 106.965 205.093C107.736 210.631 108.247 216.193 108.71 221.763C108.907 224.124 109.137 226.464 109.45 228.809C109.722 230.853 109.036 230.752 107.317 231.446C107.666 229.61 99.45 230.859 98.6743 230.985C97.8301 231.121 96.9363 231.123 96.2714 231.232C95.5281 231.352 94.8005 231.528 93.9444 231.503C92.686 231.467 90.3297 231.145 89.8493 232.752C89.5186 230.889 87.3344 232.926 88.9504 232.58C87.2916 232.766 85.599 232.457 83.9202 232.613C81.9962 232.792 80.0557 232.962 78.1451 233.251C76.8151 233.453 75.5459 233.965 74.2136 234.114C72.5087 234.304 70.7294 234.287 69.0079 234.438C62.6581 234.998 56.0766 236.383 49.9042 237.969C48.5061 238.329 46.8997 238.584 45.5639 239.16C45.2062 239.314 44.8844 239.659 44.5418 239.792C43.9675 240.014 44.046 239.86 43.5359 239.962C40.4798 240.573 37.327 241.571 34.2713 242.354C32.5763 242.788 29.8193 243.18 28.4365 244.363C27.8168 244.893 27.2751 245.832 28.2683 246.435C29.0617 246.915 30.1942 246.148 30.8363 245.733C30.2643 247.224 29.1853 247.967 29.7681 249.663C30.2281 251.003 31.2667 252.655 32.8646 251.79C33.0787 252.288 33.1653 253.278 33.7955 253.461C34.3617 253.625 34.7717 252.908 35.3264 253.077C35.5251 253.137 35.4496 253.513 35.6275 253.611C35.9339 253.779 36.2445 253.851 36.5956 253.97C36.8974 254.072 37.3832 254.283 37.6981 254.305C37.8979 254.319 38.3687 253.977 38.3672 253.977C38.826 254.047 39.0728 254.925 39.4031 255.179C39.8319 255.508 40.1861 255.583 40.7231 255.703C41.8394 255.951 43.2784 256.376 44.0152 255.233C43.8466 256.049 44.9564 255.969 45.4461 256.072C45.3918 255.642 45.1543 255.248 44.7878 255.012C45.8826 255.085 45.4388 256.173 46.2479 256.461C46.8246 256.665 46.7591 256.145 47.2003 256.088C47.7816 256.012 48.2227 256.434 49.1305 256.045C49.3272 256.919 49.3992 257.8 50.4728 257.931C51.103 258.007 52.5723 256.869 52.4892 257.816C53.8969 257.404 54.4313 257.683 55.1669 258.924C55.2912 258.162 55.8929 258.383 56.445 258.336C57.32 258.261 57.3423 258.332 58.0206 257.836C58.0825 257.791 58.6161 256.569 58.8532 257.328C58.9599 257.669 58.255 258.469 57.994 258.673C58.3181 258.837 59.3802 259.411 59.7887 259.305C60.142 259.214 60.1432 258.61 60.5678 258.579C60.4639 258.926 60.3603 259.274 60.256 259.621C61.0821 259.741 61.7723 259.188 62.4248 258.783C63.0469 260.356 64.825 259.47 65.792 260.654C66.3036 261.28 66.3275 261.756 67.3022 261.92C68.2996 262.087 69.1707 261.649 70.0184 262.472C69.7497 261.962 69.0803 261.538 69.7455 260.99C70.1982 261.632 70.4318 262.406 70.9538 263.003C71.0258 262.7 71.0978 262.396 71.1698 262.092C72.5306 263.547 74.2436 263.56 75.9867 264.367V263.302C77.2347 265.206 77.3013 264.001 78.7923 263.223C78.691 263.783 78.5894 264.343 78.4881 264.903C79.561 264.822 80.5634 266.093 81.4442 265.014C81.9762 265.906 82.621 265.467 83.4929 265.75C83.9887 265.911 84.3579 266.399 84.8403 266.576C85.5636 266.841 85.7795 266.829 86.4605 267.059C87.0661 267.264 87.4102 267.663 88.1682 267.791C88.6605 267.874 89.1071 267.868 89.5783 267.845C89.7603 267.836 89.7003 267.426 90.1049 267.522C90.7304 267.67 91.1962 268.455 91.6466 268.857C92.3241 267.154 94.2212 269.435 95.1381 269.739C95.2259 269.302 95.2101 268.776 95.5262 268.417C95.8973 269.23 96.0389 269.914 96.8092 270.437C97.2538 270.739 97.9067 270.956 98.4202 271.066C98.7448 271.136 99.3345 271.052 99.5385 271.152C99.8865 271.323 100.015 271.778 100.366 271.821C100.573 271.846 100.879 271.302 101.034 271.344C101.742 271.538 102.136 272.398 102.851 272.864C104.979 274.248 107.658 274.383 110.029 274.686C110.624 274.762 110.711 274.6 111.194 274.949C111.452 275.136 111.335 275.703 111.652 275.862C112.848 276.461 112.848 275.183 113.099 274.389C113.494 274.91 113.562 275.599 114.103 276.014C114.398 276.006 114.694 276.012 114.989 276.034C115.155 276.224 115.265 276.443 115.315 276.691C116.031 277.175 116.843 277.006 117.582 277.369C117.825 277.488 118.254 278.208 118.553 278.415C119.088 278.785 119.914 278.983 120.525 279.144C121.807 279.481 123.644 279.033 124.406 280.37C125.418 279.286 125.026 280.581 125.713 280.853C126.119 281.014 126.729 280.375 127.179 280.439C127.99 280.553 128.281 281.43 128.541 282.068C129.034 281.958 128.696 280.561 128.682 280.255C129.295 280.183 129.431 281.798 129.537 282.153C130.505 281.687 128.916 280.236 129.957 279.77C129.862 281.006 130.847 282.024 129.088 282.201C129.33 282.946 135.005 283.773 135.399 283.116C135.486 284.331 136.302 283.196 136.603 282.78C136.637 283.489 136.396 284.495 137.191 284.824C137.732 285.048 138.95 284.469 139.163 283.939C139.405 284.749 139.81 284.722 140.315 285.236C140.661 285.589 140.889 286.201 141.253 286.497C141.921 287.041 143.165 286.958 143.944 286.836C145.469 286.598 145.289 286.306 145.832 287.891C145.955 287.289 146.34 286.032 147.011 286.967C147.438 287.561 146.529 288.87 146.266 289.391C146.853 289.069 147.436 288.686 148.105 288.547C148.142 288.753 148.176 289.19 148.078 289.381C148.098 289.342 148.811 289.82 149.075 289.953C149.012 289.921 149.284 288.731 149.276 288.769C150.217 289.35 149.564 290.46 150.397 291.032C150.613 291.18 151.118 291.008 151.378 291.098C151.831 291.255 152.223 291.679 152.626 291.928C152.304 291.496 152.35 290.773 152.372 290.275C152.577 290.388 152.723 290.812 152.93 290.845C153.008 290.858 153.818 290.965 153.813 290.961C154.657 291.552 154.483 291.626 153.759 292.336C154.017 292.743 155.099 292.037 155.391 291.919C155.453 292.078 155.468 292.656 155.583 292.759C155.653 292.93 155.723 293.101 155.793 293.271C156.009 293.111 156.241 293.057 156.488 293.11C156.644 293.164 157.864 293.661 157.947 293.491C157.68 293.405 157.438 293.272 157.222 293.094C157.926 292.461 158.389 292.125 159.038 293.039C159.119 293.154 158.839 293.567 158.922 293.717C159.232 294.276 159.868 294.721 160.301 295.176C160.48 294.548 160.063 292.973 161.057 293.031C161.851 293.076 162.455 295 162.18 295.598C162.496 295.253 164.381 294.91 164.737 295.018C165.742 295.323 165.46 296.253 166.698 294.89C167.542 295.473 166.798 295.693 166.95 296.403C167.173 296.45 167.384 296.395 167.584 296.238C167.434 299.255 169.66 296.95 171.106 297.41C171.673 297.591 171.818 298.235 172.427 298.424C172.75 298.523 173.108 298.288 173.421 298.345C173.672 298.309 173.922 298.265 174.17 298.212C174.484 298.055 174.631 298.231 174.612 298.74C175.117 299.002 174.926 299.105 175.517 299.155C175.897 299.189 176.247 298.793 176.679 298.86C177.425 298.977 177.326 299.55 177.803 299.849C178.232 300.118 178.715 300.109 179.243 300.057C179.513 300.031 180.268 299.684 180.359 299.683C180.923 299.675 180.617 299.555 181.295 300.04C181.822 300.418 182.044 300.663 182.691 300.837C183.434 301.036 184.751 301.471 185.251 300.934C185.925 301.946 186.454 301.203 187.345 301.27C187.801 301.305 187.873 301.482 188.279 301.553C188.936 301.668 189.757 301.569 190.456 301.793C191.558 302.147 191.682 302.325 192.809 302.373C193.012 302.294 193.215 302.214 193.418 302.135C193.479 302.474 193.639 302.751 193.898 302.965C194.528 303.097 194.942 302.779 195.462 302.431C195.849 303.637 197.105 303.742 198.18 303.901C199.914 304.157 201.573 304.297 203.245 304.867C204.657 305.348 206.072 305.888 207.431 306.505C208.627 307.047 209.755 307.858 211.108 307.477C214.173 306.614 217.143 303.468 219.707 301.661C222.744 299.522 226.02 297.759 229.193 295.835C241.828 288.177 255.175 281.699 267.632 273.755C274.433 269.419 280.744 264.266 288.047 260.758C287.008 265.054 285.238 269.416 285.558 273.914C285.686 275.727 286.22 277.868 287.626 279.134C289.364 280.698 291.3 279.702 292.962 278.584C296.524 276.19 298.899 272.695 301.565 269.414C304.718 265.532 307.164 261.361 309.479 256.937C310.034 257.716 309.612 259.02 309.62 259.884C309.631 260.985 309.928 262.047 310.439 263.031C311.758 265.569 314.268 266.185 316.535 264.445C320.9 261.098 323.433 255.137 325.772 250.337C327.106 252.818 328.999 255.942 332.202 254.169C334.845 252.707 336.398 249.439 337.206 246.671C339.567 238.592 338.819 230.362 339.182 222.08Z" fill="#264653"/>
<path fill-rule="evenodd" clip-rule="evenodd" d="M335.173 173.55C334.872 172.818 334.739 172.938 335.294 172.228C335.725 172.653 335.38 173.005 335.173 173.55ZM348.531 217.863C347.683 215.454 348.207 212.837 347.692 210.365C347.456 209.231 347.083 208.131 346.948 206.976C346.889 206.464 346.433 204.157 346.743 203.794C345.787 203.215 345.784 202.787 345.563 201.652C345.904 201.29 345.861 200.982 345.434 200.726C345.156 200.389 344.877 200.051 344.597 199.714C345.817 200.31 345.096 198.784 344.971 197.904C344.873 197.209 344.807 196.484 344.575 195.817C344.29 194.998 343.655 194.584 344.975 194.584C344.541 194.09 343.891 193.58 343.675 192.976C343.364 192.105 343.877 190.955 343.242 190.186C342.889 189.758 341.065 189.59 341.385 188.663C341.548 188.192 342.287 188.544 342.516 188.213C343.415 186.913 340.761 186.375 340.631 185.822C340.462 185.105 341.42 184.945 341.479 184.275C341.537 183.619 340.517 182.541 340.248 181.955C339.88 182.044 339.478 182.625 339.057 182.347C338.978 182.295 339.097 180.024 339.002 179.723C338.908 179.426 338.716 178.64 338.647 178.495C338.375 177.917 337.596 177.635 337.473 176.953C337.399 176.546 338.995 175.929 337.164 175.91C337.822 174.751 336.617 174.047 336.179 173.057C335.615 171.784 335.283 170.409 334.704 169.129C334.141 167.885 333.512 166.705 332.701 165.605C331.966 164.609 331.648 163.652 331.061 162.6C330.944 162.507 330.827 162.415 330.709 162.323C330.219 162.393 330.062 162.171 330.238 161.654C329.863 161.099 329.585 160.507 329.255 159.927C328.871 159.254 328.353 158.705 327.957 158.05C327.43 157.182 327.275 156.203 326.68 155.333C325.949 154.261 325.127 153.317 324.449 152.205C323.6 150.813 322.659 149.948 321.591 148.869C321.082 148.356 321.021 147.073 320.398 146.344C319.719 145.55 319.049 145.335 318.578 144.292C317.966 142.936 317.068 142.289 316.194 141.116C315.473 140.149 315.12 139.038 314.326 138.103C313.643 137.299 312.867 136.565 312.137 135.803C311.217 134.841 310.537 133.672 309.578 132.757C309.716 132.89 308.744 132.119 308.793 132.143C308.578 132.034 307.883 131.946 307.985 132.005C306.538 131.155 304.725 128.043 302.548 129.692C301.403 130.559 301.952 132.15 302.752 133.013C303.095 133.385 304.88 135.214 305.265 134.442C305.681 135.032 306.963 137.883 308.028 137.066C307.92 138.041 308.484 137.717 308.857 138.376C309.102 138.81 308.983 139.024 309.161 139.702C309.653 141.567 311.528 143.388 312.527 145.014C315.014 149.061 317.757 152.899 320.245 156.951C322.617 160.812 325.273 164.476 327.549 168.39C330.137 172.84 333.361 177.041 335.311 181.838C335.377 181.999 335.918 182.254 336.053 182.497C336.287 182.917 336.237 183.645 336.388 184.121C336.911 185.774 337.759 187.4 338.725 188.769C339.573 189.969 339.634 191.601 340.217 193.01C341.04 194.995 341.909 196.959 342.708 198.954C343.952 202.06 344.795 205.036 345.654 208.278C346.211 210.379 346.654 212.479 346.832 214.649C346.995 216.644 347.035 218.723 347.773 220.612C348.277 219.834 348.87 218.826 348.531 217.863Z" fill="#264653"/>
<path fill-rule="evenodd" clip-rule="evenodd" d="M63.9978 260.617C63.104 260.436 62.2628 260.195 62.0734 259.169C61.9437 259.653 61.8144 260.137 61.6846 260.621C62.7729 260.867 63.8615 261.114 64.9498 261.36C64.6957 260.912 64.5102 260.72 63.9978 260.617Z" fill="#264653"/>
<path fill-rule="evenodd" clip-rule="evenodd" d="M66.3962 92.1837C66.4639 91.8942 66.5517 91.6105 66.6598 91.3337C66.7334 91.6035 67.0937 92.1871 66.8839 92.4416C66.6167 92.7646 66.3465 92.5817 66.3962 92.1837ZM70.7781 83.8463C71.0714 83.9757 71.7062 84.0007 72.0704 84.11C71.1257 84.9227 70.9594 84.6836 69.7379 84.5893C69.6837 83.767 70.0178 83.5118 70.7781 83.8463ZM62.5897 104.202C62.7164 104.205 62.8434 104.208 62.9708 104.212C62.9785 103.854 62.9693 103.496 62.9424 103.139C64.2304 103.42 63.5013 101.169 63.0967 100.703C64.3532 100.745 64.9653 96.7665 65.3633 96.0001C65.7167 95.3195 66.1171 95.0562 66.3754 94.2262C66.6013 93.4998 66.8458 92.8462 67.1718 92.159C67.921 90.5792 68.9037 89.1445 68.7224 87.3032C69.3572 88.6848 69.9154 87.3055 70.3181 86.645C70.9667 85.5806 72.5492 84.2224 72.7175 82.9583C72.8661 81.8454 72.0392 81.7865 72.5273 80.7544C73.0208 79.7096 73.4266 79.8143 74.2912 79.4802C74.8663 79.2577 74.9806 79.5279 75.3864 78.8019C75.6493 78.3319 75.5565 77.9816 75.8933 77.5962C76.0323 77.7171 76.1905 77.7672 76.3676 77.7464C76.6409 77.3857 76.8203 76.9838 76.9054 76.5407C77.1283 75.9425 77.2361 75.3932 77.5717 74.8234C77.8901 74.2837 78.4552 72.8398 78.7547 72.5795C79.0727 72.3031 80.8762 72.4436 80.8685 72.4537C81.6134 71.5167 80.2464 70.5832 82.1392 70.7806C81.7654 70.0847 83.0785 69.2208 83.4596 68.8336C84.4116 67.8669 84.4874 67.4196 84.6884 66.2039C84.7904 65.5842 84.1244 65.6558 85.0171 65.5145C85.3863 65.4564 85.7404 65.9283 86.0068 65.859C87.1829 65.5541 85.9525 65.6123 86.2771 65.133C86.3795 64.9809 86.9026 64.3673 86.8976 64.3739C86.8722 64.4047 87.0154 63.8399 87.134 63.6948C87.3588 63.6756 87.5801 63.6363 87.7976 63.577C87.9081 63.3537 88.0059 63.1251 88.0906 62.891C88.9417 62.1812 90.2151 61.8636 90.8037 61.0837C91.1844 60.5794 91.0705 60.0855 91.5625 59.5827C92.031 59.1039 92.6507 59.4507 92.7435 58.369C92.8617 56.9928 91.3835 56.3803 90.7787 57.7692C89.1388 55.7494 82.2843 63.1601 81.4925 64.1283C78.0529 68.3312 74.6723 72.638 71.8509 77.2856C69.102 81.8142 66.8458 86.5791 65.0823 91.5739C64.2319 93.9822 63.7142 96.3796 63.1949 98.8707C63.0205 99.7049 61.7174 103.422 62.2598 104.254C62.3695 104.237 62.4796 104.219 62.5897 104.202Z" fill="#264653"/>
<path fill-rule="evenodd" clip-rule="evenodd" d="M333.329 207.269C333.909 206.883 333.909 206.883 334.01 206.152C333.233 206.294 333.233 206.294 333.329 207.269Z" fill="#264653"/>
<path fill-rule="evenodd" clip-rule="evenodd" d="M47.7567 256.399C47.7639 256.398 47.7693 256.4 47.7735 256.404C47.7613 256.388 47.7171 256.342 47.7567 256.399Z" fill="#264653"/>
<path fill-rule="evenodd" clip-rule="evenodd" d="M47.3681 256.791C47.5471 257.178 47.8347 257.274 48.2312 257.079C48.3875 257.302 46.8754 255.685 47.3681 256.791Z" fill="#264653"/>
<path fill-rule="evenodd" clip-rule="evenodd" d="M73.5162 80.2146C72.6089 81.9935 73.7452 80.6996 73.6871 81.2775C73.7252 80.8979 73.8827 80.357 73.5162 80.2146Z" fill="#264653"/>
<path fill-rule="evenodd" clip-rule="evenodd" d="M221.027 107.747C221.42 110.937 225.784 109.428 226.766 107.499C227.481 106.094 229.286 100.543 227.343 99.3706C225.904 98.5014 225.596 102.248 225.241 103.085C224.646 104.486 224.182 103.493 222.86 103.853C221.4 104.25 220.865 106.424 221.027 107.747Z" fill="#264653"/>
<path fill-rule="evenodd" clip-rule="evenodd" d="M216.259 101.909C217.819 102.255 219.348 102.076 220.456 100.845C221.07 100.162 221.886 98.8093 220.781 98.1491C219.78 97.5513 218.645 98.9514 217.59 98.6619C216.156 98.2681 216.895 96.7306 216.403 95.7151C214.595 96.756 213.586 101.315 216.259 101.909Z" fill="#264653"/>
<path fill-rule="evenodd" clip-rule="evenodd" d="M217.876 109.963C216.373 109.96 216.36 111.809 217.145 112.602C217.896 113.36 219.796 114.127 220.814 113.538C222.823 112.374 219.093 110.083 217.876 109.963Z" fill="#264653"/>
<path fill-rule="evenodd" clip-rule="evenodd" d="M130.389 183.503C130.71 183.659 131.656 184.461 132.055 184.099C131.492 183.532 130.929 182.965 130.366 182.398C130.055 182.739 129.841 183.238 130.389 183.503Z" fill="#264653"/>
<path fill-rule="evenodd" clip-rule="evenodd" d="M123.283 102.37C123.123 102.489 122.963 102.608 122.803 102.727C123.342 103.176 123.329 103.31 123.872 102.885C123.711 102.672 123.515 102.501 123.283 102.37Z" fill="#264653"/>
<path fill-rule="evenodd" clip-rule="evenodd" d="M225.191 208.199C224.889 207.657 224.318 208.658 223.932 208.82C223.304 209.085 222.788 207.684 222.968 209.363C221.548 208.713 220.686 210.205 219.771 210.982C218.477 212.079 216.894 212.675 216.031 214.234C220.094 215.184 224.557 211.682 227.586 209.382C228.081 209.006 230.551 207.111 228.877 206.928C228.192 206.853 225.699 209.112 225.191 208.199Z" fill="#264653"/>
<path fill-rule="evenodd" clip-rule="evenodd" d="M223.986 204.911C224.782 204.284 223.066 204.227 222.794 204.161C222.818 204.659 222.841 205.158 222.864 205.656C223.248 205.423 223.622 205.174 223.986 204.911Z" fill="#264653"/>
<path fill-rule="evenodd" clip-rule="evenodd" d="M220.997 207.002C221.235 206.853 221.898 206.389 221.447 206.043C221.039 206.303 220.748 206.726 220.684 207.209C220.788 207.14 220.893 207.071 220.997 207.002Z" fill="#264653"/>
<path fill-rule="evenodd" clip-rule="evenodd" d="M155.204 166.578C154.695 166.778 154.467 167.093 154.521 167.525C155.302 167.365 155.153 166.627 155.204 166.578Z" fill="#264653"/>
</g>
</svg>
