<svg width="376" height="365" viewBox="0 0 376 365" fill="none" xmlns="http://www.w3.org/2000/svg">
<path fill-rule="evenodd" clip-rule="evenodd" d="M182.42 14.9228C210.702 25.2642 218.247 62.9269 243.415 79.4609C266.422 94.5752 300.125 86.7747 320.3 105.502C342.111 125.747 358.187 155.365 357.229 185.108C356.274 214.74 328.947 235.504 315.264 261.805C300.843 289.524 303.887 334.119 274.373 344.375C242.693 355.382 215.909 306.169 182.42 307.964C145.729 309.931 119.401 366.317 84.5935 354.548C52.825 343.806 55.8848 295.236 48.2193 262.588C42.2077 236.985 49.1339 211.05 44.8095 185.108C39.3845 152.563 11.0044 122.97 19.6375 91.1253C28.2553 59.3373 58.9507 36.8817 88.7796 22.9181C117.643 9.40621 152.488 3.97821 182.42 14.9228Z" fill="#F4F6FF"/>
<mask id="mask0_169_311" style="mask-type:alpha" maskUnits="userSpaceOnUse" x="0" y="0" width="376" height="365">
<rect x="0.142578" y="0.291016" width="375" height="363.961" fill="#D9D9D9"/>
</mask>
<g mask="url(#mask0_169_311)">
<path fill-rule="evenodd" clip-rule="evenodd" d="M233.416 206.028C232.744 215.88 219.376 221.002 211.268 223.104C212.894 213.439 214.992 203.421 213.687 193.62C213.257 190.391 212.693 187.18 212.087 183.98C211.863 182.797 211.632 181.615 211.392 180.435C211.334 180.148 210.864 178.892 211.014 178.606C211.282 178.094 213.549 178.175 214.127 178.197C215.616 178.254 217.078 178.63 218.44 179.226C221.304 180.476 223.717 182.629 225.704 185.005C230.392 190.608 233.922 198.6 233.416 206.028ZM217.939 139.062C210.179 143.657 200.831 146.124 191.98 147.326C178.496 149.157 164.729 147.049 151.546 144.127C148.309 143.41 145.079 142.637 141.89 141.73C141.747 151.072 144.375 159.956 149.508 167.748C153.752 174.189 159.29 179.573 164.132 185.54C168.638 191.094 172.273 197.36 172.453 204.691C172.529 207.751 172.277 210.55 169.715 212.533C167.141 214.525 163.664 215.264 160.514 215.718C152.626 216.855 144.365 216.241 136.527 214.989C135.005 214.746 133.486 214.469 131.984 214.124C130.278 213.731 129.681 213.268 128.256 214.548C125.183 217.311 123.773 221.454 123.077 225.417C121.772 232.84 122.214 241.5 124.095 248.823C125.907 255.878 134.458 259.788 140.793 261.493C159.902 266.635 180.984 259.533 195.646 246.891C195.966 246.615 196.283 246.336 196.592 246.048C197.634 248.217 198.771 250.347 200.014 252.407C200.879 253.84 201.789 255.28 202.879 256.555C203.273 257.016 203.735 257.638 204.273 257.939C205.275 258.501 206.294 258.088 207.429 257.891C215.797 256.438 224.146 254.527 232.104 251.517C244.201 246.942 255.05 239.405 260.784 227.499C263.68 221.484 265.19 214.895 265.921 208.287C266.76 200.699 266.941 192.943 264.806 185.547C260.894 171.995 250.911 161.007 239.979 152.534C233.214 147.29 225.778 142.551 217.939 139.062Z" fill="#FCC610"/>
<path fill-rule="evenodd" clip-rule="evenodd" d="M79.4018 183.82C84.4959 159.223 93.3007 137.124 109.368 117.816C127.632 95.8687 146.852 67.1512 175.372 68.4939C203.624 69.824 213.966 105.347 235.441 123.751C260.623 145.331 303.109 151.369 309.945 183.82C317.19 218.215 295.387 254.552 267.5 275.948C241.988 295.522 207.498 285.674 175.372 287.068C140.572 288.578 98.6027 309.819 74.8872 284.305C51.1567 258.776 72.3331 217.951 79.4018 183.82Z" fill="#F4F6FF"/>
<path fill-rule="evenodd" clip-rule="evenodd" d="M164.379 164.96C161.027 167.39 161.56 172.172 162.57 175.647C164.056 180.763 167.016 185.499 170.393 189.581C176.384 196.824 186.554 204.956 195.929 198.598C204.277 192.935 209.543 181.509 211.361 171.885C211.923 168.911 212.671 164.48 210.031 162.244C206.129 158.938 199.245 159.54 194.534 159.965C191.432 160.245 188.438 161.196 185.373 160.75C178.249 159.712 170.321 160.652 164.379 164.96Z" fill="#FCC610"/>
<path fill-rule="evenodd" clip-rule="evenodd" d="M308.809 202.859C302.017 211.474 290.47 212.836 280.215 212.751C274.057 212.7 267.887 212.237 261.849 210.982C258.594 210.305 255.361 209.409 252.216 208.332C250.139 207.62 247.047 207.265 246.163 205.039C243.831 199.166 245.546 191.801 246.507 185.84C246.995 182.808 247.362 179.758 247.837 176.724C248.141 174.782 248.286 172.634 249.1 170.818C250.053 168.69 251.256 169.115 253.271 169.703C256.047 170.513 258.897 170.85 261.751 171.286C268.717 172.35 274.794 174.494 281.124 177.535C287.384 180.54 293.455 183.507 299.039 187.687C301.867 189.805 304.305 192.104 306.576 194.803C308.33 196.889 310.948 200.145 308.809 202.859ZM279.12 241.126C279.066 242.053 268.421 239.253 267.021 238.939C257.83 236.877 248.457 234.53 239.78 230.805C231.681 227.328 224.545 223.351 218.172 217.174C215.202 214.295 212.53 211.264 209.973 208.035C208.692 206.416 206.941 206.604 205.512 205.235C204.226 204.003 203.241 203.041 203.642 201.198C206.854 202.045 212.785 207.365 216.115 204.678C218.013 203.147 215.38 201.547 214.165 200.66C211.881 198.992 209.928 196.933 208.112 194.773C211.23 195.377 214.132 196.545 216.845 198.17C218.051 198.892 222.183 201.511 223.144 199.015C223.736 197.478 220.935 195.547 220.061 194.697C217.916 192.61 215.6 190.173 214.462 187.367C217.277 186.714 219.931 188.89 221.849 190.663C223.977 192.63 226.587 194.696 228.371 196.963C229.292 198.133 229.493 199.514 230.212 200.776C231.021 202.195 232.316 203.411 233.553 204.462C235.937 206.485 238.725 207.975 241.587 209.207C248.127 212.023 255.136 214.016 262.107 215.414C265.527 216.099 268.863 216.415 272.334 216.532C275.032 216.622 276.225 217.429 277.255 219.914C280.042 226.64 279.536 234.039 279.12 241.126ZM199.07 189.879C197.511 191.338 195.484 192.254 193.854 193.657C192.419 194.891 190.764 196.209 189.163 197.207C187.454 198.272 186.177 197.525 184.638 196.561C182.831 195.43 180.754 194.972 178.893 193.959C172.46 190.458 164.589 181.878 165.79 173.999C166.299 170.66 168.025 167.375 171.16 165.86C174.007 164.484 178.145 163.721 181.191 164.871C182.909 165.519 184.139 166.952 185.239 168.36C186.523 170.001 187.015 169.742 188.322 168.159C190.661 165.327 194.519 162.843 198.332 162.902C200.227 162.932 202.11 163.332 203.817 164.118C204.048 164.225 204.177 164.548 204.409 164.657C204.694 164.792 205.163 164.512 205.361 164.638C205.861 164.954 206.36 165.943 206.648 166.444C207.805 168.457 209.888 172.405 207.789 174.099C207.788 174.1 207.883 176.392 207.854 176.653C207.706 178.021 207.233 179.15 206.624 180.4C204.795 184.157 202.095 187.05 199.07 189.879ZM202.18 221.666C200.703 222.125 199.111 217.495 200.528 216.756C201.88 216.051 203.518 221.251 202.18 221.666ZM178.974 216.13C178.462 217.879 178.246 219.864 176.995 221.287C175.849 219.928 175.736 217.419 176.847 216.022C177.482 215.224 179.534 214.219 178.974 216.13ZM226.255 185.485C226.247 185.529 228.033 186.383 227.162 187.317C225.971 188.593 226.135 186.11 226.255 185.485ZM233.636 171.23C233.616 172.998 229.872 172.571 229.899 170.793C229.931 168.604 233.658 169.355 233.636 171.23ZM229.167 156.449C229.538 154.83 236.05 152.578 235.873 155.4C235.784 156.815 228.381 159.892 229.167 156.449ZM162.409 211.36C161.679 212.237 160.642 212.583 159.767 213.257C158.849 213.963 158.193 214.879 157.392 215.708C155.191 217.983 152.542 219.853 150.168 221.943C145.802 225.785 141.621 229.916 136.781 233.175C128.133 238.998 118.103 242.183 108.147 244.972C107.322 245.203 104.946 246.135 104.13 245.44C103.25 244.691 103.698 242.056 103.738 241.059C103.903 236.973 104.38 232.839 104.328 228.759C104.307 227.083 103.816 224.701 104.691 223.168C105.667 221.455 108.392 220.954 110.079 220.31C115.203 218.351 120.14 215.047 124.667 211.986C130.232 208.224 135.853 204.4 141.58 200.888C147.19 197.447 153.379 195.143 159.638 193.178C159.928 193.787 156.941 195.748 156.6 196.023C154.963 197.341 153.181 198.708 151.966 200.448C151.105 201.679 150.223 204.467 152.599 204.538C153.751 204.573 155.453 203.459 156.498 203.099C158.223 202.503 160 202.085 161.805 201.814C160.253 203.522 154.995 206.59 155.952 209.43C156.88 212.187 162.249 208.97 164.097 208.97C163.794 209.931 163.033 210.609 162.409 211.36ZM98.9802 219.053C95.542 220.262 92.0177 220.95 88.469 221.73C85.0866 222.475 81.9601 223.036 78.4957 222.6C73.7122 221.998 68.4189 220.017 67.8124 214.582C67.0933 208.142 71.6414 202.224 75.5468 197.604C80.2997 191.982 85.6367 186.957 91.4209 182.407C97.1984 177.86 103.434 173.852 109.968 170.469C114.938 167.895 120.551 166.332 125.807 164.4C126.807 164.033 129.572 162.742 130.507 163.812C131.263 164.677 130.234 166.119 129.89 166.922C129.218 168.489 129.125 170.066 128.952 171.748C128.177 179.259 127.245 186.768 126.815 194.312C126.696 196.414 126.485 198.614 126.608 200.717C126.676 201.882 127.282 203.367 126.878 204.504C126.102 206.691 122.547 208.139 120.663 209.116C117.29 210.864 113.719 212.169 110.312 213.842C106.57 215.679 102.926 217.665 98.9802 219.053ZM146.665 170.247C147.609 170.118 149.023 169.861 149.864 170.472C150.961 171.269 150.674 172.379 149.66 172.957C148.86 173.414 146.987 173.539 146.196 173.124C144.849 172.418 145.077 170.466 146.665 170.247ZM151.892 187.64C151.129 188.91 148.342 189.744 148.585 187.373C148.793 185.343 153.297 185.301 151.892 187.64ZM150.857 151.856C152.083 152.331 154.308 152.738 154.672 154.315C155.01 155.783 153.619 155.686 152.616 155.282C151.79 154.95 148.112 151.831 150.857 151.856ZM342.948 207.852C342.232 205.065 342.777 201.98 342.382 199.126C341.999 196.359 341.309 193.817 340.319 191.209C338.127 185.437 335.616 180.241 332.064 175.175C325.373 165.635 317.61 157.232 308.236 150.263C298.982 143.384 288.734 137.794 277.879 133.875C266.368 129.72 254.781 128.274 242.642 127.477C239.017 127.24 235.395 126.958 231.791 126.5C229.156 126.165 225.854 125.753 223.249 126.56C221.613 127.067 220.699 128.494 222.481 129.431C223.745 130.095 225.4 130.174 226.796 130.351C225.11 135.708 222.366 141.083 218.018 144.772C213.773 148.373 208.093 149.607 202.736 150.521C199.831 151.016 196.578 151.399 193.628 151.185C191.763 151.051 190.307 150.187 189.555 152.108C189.033 153.443 188.785 154.907 188.097 152.892C187.283 150.509 186.883 150.525 184.35 149.848C179.17 148.464 173.231 147.201 168.712 144.209C164.023 141.103 162.392 136.08 159.775 131.403C159.127 130.247 157.175 127.907 158.173 126.582C159.085 125.371 162.052 125.492 163.411 125.365C164.845 125.232 166.287 125.226 167.726 125.171C168.559 125.138 170.236 125.48 169.901 124.235C169.395 122.359 163.975 122.599 162.629 122.569C160.126 122.513 157.588 122.57 155.098 122.846C142.749 124.211 130.29 126.737 118.34 130.104C95.1569 136.637 72.7033 148.674 55.784 166.017C39.5433 182.663 34.3979 210.365 44.3821 231.62C49.5707 242.667 60.8311 247.204 71.7467 250.869C77.5041 252.802 83.6009 254.314 89.7212 253.95C92.6582 253.774 95.445 252.984 98.3096 252.388C99.5587 252.128 100.98 251.713 102.263 251.818C103.235 251.897 104.168 252.789 105.079 252.315C105.726 251.979 106.007 251.014 106.797 250.602C107.746 250.109 108.896 249.931 109.921 249.682C112.769 248.99 115.527 247.868 118.312 246.948C121.191 245.996 123.908 244.771 126.67 243.532C128.065 242.907 131.293 240.363 132.202 242.223C132.616 243.071 132.44 244.708 132.541 245.599C132.717 247.156 132.925 248.709 133.152 250.259C133.653 253.673 134.252 257.071 134.865 260.466C135.974 266.591 137.401 272.455 139.789 278.217C141.695 282.818 143.368 288.032 146.908 291.692C148.453 293.289 150.561 294.008 152.778 293.506C155.298 292.935 156.553 290.645 158.084 288.794C161.451 284.72 167.009 281.598 172.143 280.474C178.428 279.098 184.551 281.111 190.551 282.821C196.898 284.631 203.358 286.355 209.588 288.531C215.393 290.558 221.66 293.552 227.956 293.291C233.446 293.064 238.573 288.596 242.533 285.191C246.509 281.77 251.481 276.762 257.199 277.165C260.038 277.365 262.626 278.734 265.391 279.291C268.427 279.902 271.658 279.989 274.745 280.217C278.577 280.5 287.151 279.501 288.569 274.89C288.779 274.206 288.781 272.798 287.877 272.524C287.046 272.273 286.622 273.244 285.835 273.199C284.233 273.109 282.982 270.317 282.102 269.236C278.552 264.872 273.682 261.617 269.698 257.674C265.199 253.223 261.358 247.83 257.968 242.511C259.501 242.113 261.154 242.774 262.637 243.088C264.44 243.47 266.196 243.932 267.972 244.42C269.929 244.959 271.914 245.33 273.901 245.741C275.383 246.047 277.35 246.139 278.688 246.882C279.856 247.532 280.508 248.229 281.958 248.417C283.432 248.608 284.946 248.447 286.427 248.437C290.434 248.41 294.432 248.336 298.419 247.912C312.509 246.415 327.444 240.456 335.916 228.628C338.221 225.411 340.077 221.847 341.25 218.065C342.166 215.113 343.745 210.952 342.948 207.852Z" fill="#0F216F"/>
<path fill-rule="evenodd" clip-rule="evenodd" d="M210.797 71.5792C214.5 71.6317 217.971 72.7296 221.421 73.9778C224.455 75.0754 227.689 76.0908 230.143 78.2815C234.555 82.2223 235.705 88.7472 236.427 94.3297C237.328 101.296 234.33 107.14 231.808 113.442C229.448 119.337 225.117 124.112 219.97 127.75C217.273 129.656 214.292 130.807 211.174 131.815C208.006 132.84 204.938 134.212 201.55 134.207C196.403 134.2 189.814 131.755 187.621 126.685C186.623 124.376 187.595 123.961 189.593 125.216C192.49 127.037 195.283 129.001 198.669 129.809C205.236 131.375 213.101 128.948 218.859 125.746C224.615 122.545 228.479 117.736 231.062 111.747C233.667 105.706 234.68 99.7536 233.675 93.2409C232.823 87.7217 231.129 82.6804 226.156 79.6843C215.419 73.2175 200.953 73.7385 191.405 82.1428C190.096 83.2949 188.801 84.416 187.452 85.5162C186.594 86.2154 185.584 87.0544 185.709 88.2637C185.815 89.2993 188.023 93.292 185.364 92.0656C183.209 91.0711 182.038 89.1272 179.427 88.8865C176.648 88.6302 173.333 90.765 172.502 93.4518C171.709 96.0155 173.123 99.523 175.338 100.994C176.709 101.904 178.218 101.763 179.776 101.727C180.549 101.708 182.7 101.457 183.212 102.274C184.117 103.72 180.924 105.239 179.894 105.558C177.386 106.336 174.423 105.421 172.981 103.182C171.516 100.907 170.513 98.2735 170.311 95.5626C170.118 92.9653 170.708 90.3356 172.24 88.203C173.87 85.935 177.192 83.3923 180.17 84.1802C181.463 84.5221 182.501 85.8577 183.77 86.1115C184.571 86.2713 184.234 86.3857 184.897 85.7922C185.318 85.4157 185.716 84.7209 186.105 84.2745C188.34 81.7082 190.55 78.9694 193.286 76.9154C198.192 73.2323 204.712 71.4928 210.797 71.5792ZM197.232 122.459C197.812 121.099 198.878 123.525 199.193 123.931C199.817 124.733 201.284 125.358 201.221 126.541C201.116 128.495 198.453 128.133 197.565 127.114C196.554 125.953 196.66 123.802 197.232 122.459ZM216.155 113.207C217.592 115.446 215.84 117.863 214.704 119.845C213.618 121.74 212.609 123.882 211.345 125.664C209.246 128.621 204.679 125.422 204.543 122.382C204.439 120.055 206.088 121.068 207.146 121.937C208.235 122.832 208.751 123.055 209.892 122.077C212.189 120.11 213.22 116.82 214.808 114.328C215.123 113.834 215.693 113.537 216.155 113.207ZM220.251 113.927C220.621 115.01 219.844 117.879 222.005 117.593C223.199 117.434 223.454 115.721 224.081 114.973C226.192 112.459 225.545 117.214 224.993 118.404C223.777 121.026 220.375 122.833 218.687 119.506C218.059 118.268 218.062 116.706 218.381 115.376C218.555 114.651 219.567 111.928 220.251 113.927ZM200.982 108.799C200.791 110.062 199.603 112.579 201.053 113.483C202.329 114.279 204.551 112.551 205.533 111.83C206.554 111.08 208.868 108.929 208.958 111.606C209.005 112.97 207.639 114.607 206.665 115.393C204.586 117.069 200.266 118.572 198.734 115.417C197.899 113.699 198.356 111.252 198.907 109.521C199.355 108.117 201.444 105.747 200.982 108.799ZM228.25 101.881C229.096 102.864 231.101 105.065 230.011 106.464C228.736 108.1 226.665 105.099 225.848 104.264C225.112 103.512 223.565 101.369 224.224 100.233C225.317 98.3525 227.507 101.019 228.25 101.881ZM214.952 97.6509C217.717 99.4525 214.081 100.75 212.506 100.911C210.6 101.105 208.162 101.234 206.411 100.299C203.929 98.973 204.756 96.97 207.162 96.4905C209.629 95.9992 212.806 96.2525 214.952 97.6509ZM179 91.9156C181.033 92.3113 183.356 92.8263 184.049 95.0434C184.764 97.3348 183.737 98.0953 181.659 97.5794C179.737 97.102 176.867 96.6215 175.78 94.7442C174.482 92.5013 177.114 91.5491 179 91.9156Z" fill="#0F216F"/>
<path fill-rule="evenodd" clip-rule="evenodd" d="M67.0994 141.152C66.4169 143.356 62.9627 144.817 61.2401 146.157C55.2149 150.845 49.3272 155.725 43.8801 161.075C41.0528 163.851 38.9128 167.21 36.4611 170.298C35.8629 171.052 34.8032 172.74 33.6299 172.581C32.3427 172.408 32.0825 170.191 32.1235 169.223C32.2641 165.921 35.2795 162.732 37.43 160.459C39.849 157.902 42.4352 155.411 45.0765 153.083C47.9845 150.521 51.1401 148.318 54.356 146.161C57.5138 144.044 60.5415 141.597 63.8255 139.679C65.3725 138.776 67.9412 138.432 67.0994 141.152ZM277.714 120.22C280.229 120.3 282.683 121.125 285.055 121.89C290.273 123.575 295.242 125.912 300.142 128.355C308.732 132.637 316.999 137.818 324.577 143.708C326.161 144.939 327.785 145.937 329.508 146.944C330.61 147.588 332.182 148.375 332.607 149.689C333.686 153.03 328.24 149.677 327.467 149.197L326.38 148.523C310.257 138.531 294.152 128.822 275.915 123.091C274.943 122.786 274.641 121.919 275.151 121.06C275.703 120.129 276.78 120.191 277.714 120.22ZM66.3656 127.212C66.2491 128.23 65.0969 128.461 64.3198 128.787C61.4203 130.005 58.4485 131.044 55.5569 132.282C50.19 134.58 45.2613 137.915 39.6595 139.659C38.3794 140.058 38.1905 138.766 38.5332 137.887C38.9149 136.905 40.0614 136.216 40.8906 135.649C43.2826 134.01 45.9954 132.832 48.6517 131.694C51.2852 130.565 53.9967 129.71 56.6968 128.764C59.2063 127.884 62.1189 126.246 64.8138 126.125L64.9315 126.119C65.7892 126.076 66.5015 126.018 66.3656 127.212ZM282.292 111.759C279.728 111.038 282.15 109.415 283.674 109.529C285.374 109.656 287.017 110.459 288.629 110.943C293.558 112.423 298.127 114.041 302.731 116.338C303.418 116.681 306.443 118.307 304.442 119.027C303.055 119.526 299.816 117.386 298.626 116.872C293.393 114.616 287.77 113.3 282.292 111.759Z" fill="#0F216F"/>
<path fill-rule="evenodd" clip-rule="evenodd" d="M180.079 117.014C180.399 116.073 184.363 105.794 182.812 105.484C181.168 105.155 178.971 111.119 178.495 112.197C176.734 116.176 175.691 120.447 174.874 124.715C174.305 127.688 173.805 130.733 174.005 133.771C174.158 136.107 175.122 136.46 176.712 137.891C176.712 130.798 177.79 123.728 180.079 117.014Z" fill="#0F216F"/>
</g>
</svg>
