<svg width="375" height="365" viewBox="0 0 375 365" fill="none" xmlns="http://www.w3.org/2000/svg">
<mask id="mask0_52_422" style="mask-type:alpha" maskUnits="userSpaceOnUse" x="0" y="0" width="375" height="365">
<rect y="0.655273" width="375" height="363.961" fill="#D9D9D9"/>
</mask>
<g mask="url(#mask0_52_422)">
<path fill-rule="evenodd" clip-rule="evenodd" d="M185.049 31.9946C209.039 40.0492 222.533 64.3908 244.126 77.5875C264.997 90.343 292.562 90.4146 309.504 108.058C328.064 127.386 345.915 153.349 342.384 179.912C338.82 206.717 302.774 216.826 291.759 241.521C278.794 270.593 297.16 312.02 273.814 333.657C251.672 354.178 215.213 341.628 185.049 340.422C155.956 339.259 124.95 342.199 100.288 326.721C75.8603 311.389 64.0168 282.964 51.8436 256.818C40.4732 232.396 31.3734 206.845 31.9369 179.912C32.4941 153.284 44.4396 129.282 55.0237 104.842C66.8152 77.6136 71.6743 42.8808 97.5604 28.3779C123.465 13.8644 156.899 22.5434 185.049 31.9946Z" fill="#F4F6FF"/>
<path fill-rule="evenodd" clip-rule="evenodd" d="M109.273 214.638C110.88 213.543 114.166 209.623 115.887 208.717C119.715 206.703 136.769 202.743 137.324 202.509C138.168 202.153 143.655 200.908 146.851 200.121C154.357 198.274 181.256 186.342 188.345 183.283C189.25 185.665 196.722 196.178 195.44 197.256C191.22 200.803 183.656 205.22 178.768 207.762C174.814 209.818 170.626 211.52 166.398 212.909C161.598 214.486 158.304 216.177 153.52 217.791C148.814 219.379 154.438 224.344 156.855 225.37C159.566 226.521 163.765 227.105 166.535 228.102C161.658 235.682 157.563 244.882 156.743 253.962C156.546 256.147 154.88 258.151 152.171 257.496C150.773 257.159 137.872 255.441 135.768 254.961C121.726 251.758 96.5161 234.988 103.008 217.791C104.495 218.478 107.891 215.581 109.273 214.638Z" fill="#FCC610"/>
<path fill-rule="evenodd" clip-rule="evenodd" d="M117.13 123.399C118.179 123.311 120.891 121.215 119.468 120.155C118.032 119.086 117 122.669 117.13 123.399ZM62.4814 131.436C62.7556 131.388 62.6359 129.887 62.2041 129.695C60.8414 129.09 60.7263 131.364 60.6931 131.973C60.6516 132.741 60.5555 134.904 62.2123 134.311C63.153 133.974 62.5694 132.012 62.4814 131.436ZM142.931 138.447C142.894 139.786 145.6 142.362 146.609 140.817C147.458 139.519 143.001 135.78 142.931 138.447ZM47.2538 108.237C48.0379 110.237 51.9154 107.511 52.0595 106.044C52.3554 103.039 47.2133 106.238 47.2538 108.237ZM79.6048 116.86C81.4106 116.712 83.7868 114.416 85.5281 113.558C86.7066 112.978 89.9129 112.286 90.2617 110.968C90.5652 109.823 85.1248 112.274 84.6603 112.492C82.526 113.492 80.6016 114.631 79.6048 116.86ZM215.17 101.028C216.609 99.9156 218.359 99.1976 220.204 99.2446C221.125 99.2682 223.047 99.8446 223.119 98.2512C223.237 95.6601 215.1 98.8201 213.828 99.3283C214.276 99.8954 214.723 100.462 215.17 101.028ZM125.378 202.001C124.323 200.248 122.423 199.234 120.995 197.738C121.518 200.194 120.338 202.379 119.528 204.621C121.478 203.748 123.428 202.875 125.378 202.001ZM308.75 239.382C309.332 237.434 309.915 235.498 310.595 233.58C311.357 231.433 311.735 231.247 309.913 229.745C308.401 232.604 306.888 235.462 305.376 238.321C306.452 238.779 307.576 239.224 308.75 239.382ZM152.223 98.4007C150.221 96.1436 140.836 96.0019 141.997 100.983C142.403 102.723 144.71 100.875 146.155 100.47C147.59 100.067 151.651 100.014 152.223 98.4007ZM151.879 130.356C151.636 129.78 151.152 127.701 150.432 127.537C149.732 127.378 146.967 129.558 146.447 129.891C143.854 131.552 141.327 133.339 138.801 135.101C139.768 135.101 140.646 134.756 141.608 134.749C142.751 134.739 143.57 135.208 144.684 134.94C147.078 134.366 149.856 131.713 151.879 130.356ZM154.473 78.8541C154.698 77.8217 166.431 80.9209 167.841 81.4884C168.609 81.797 172.573 83.8575 171.721 80.752C171.236 78.9833 166.656 77.635 165.188 77.1503C161.456 75.9185 157.522 75.0424 153.548 75.2456C152.777 75.2848 146.933 75.622 149.373 77.9708C150.214 78.7796 153.228 78.5247 154.473 78.8541ZM157.041 220.698C159.227 221.774 161.459 222.596 163.744 223.438C164.759 223.811 166.34 224.789 167.46 224.544C168.377 224.342 168.671 222.945 169.153 222.01C170.914 218.59 173.018 215.831 175.626 213.011C174.415 212.128 168.268 216.024 166.747 216.599C165.224 217.175 163.787 217.755 162.296 218.443C160.893 219.09 158.124 219.669 157.041 220.698ZM195.747 191.543C198.933 190.102 201.953 187.545 204.566 185.256C207.566 182.628 210.255 179.874 212.452 176.473C211.13 176.54 208.212 180.791 208.179 176.163C208.163 173.802 211.398 171.476 212.402 169.287C209.904 167.876 207.615 176.303 204.748 174.261C201.987 172.292 206.344 165.525 207.183 163.39C205.564 162.312 196.336 174.374 195 175.917C194.165 176.883 192.189 178.17 191.718 179.296C191.437 179.967 191.397 182.096 191.533 182.713C191.816 184.003 193.247 185.549 193.884 186.75C194.691 188.271 195.393 189.852 195.747 191.543ZM327.455 235.029C324.7 231.14 327.546 229.444 329.786 226.217C331.578 223.635 333.227 220.789 334.362 217.906C337.203 210.694 339.766 203.99 341.168 196.362C339.238 197.243 338.031 200.597 337.065 202.364C335.766 204.74 334.624 207.234 333.181 209.536C330.48 213.844 327.828 218.439 324.392 222.173C322.835 223.865 321.517 225.768 319.721 227.293C318.901 227.99 317.331 228.562 316.727 229.432C316.156 230.255 316.794 230.78 316.578 231.763C316.355 232.77 315.336 233.844 314.898 234.815C314.324 236.089 313.789 237.367 313.148 238.613C312.448 239.972 312.257 240.683 312.069 242.011C311.863 243.463 312.495 243.614 311.226 244.952C313.524 245.966 315.823 246.979 318.121 247.992C318.896 248.334 319.672 248.676 320.448 249.018C320.611 248.712 320.775 248.405 320.938 248.099C321.57 247.486 322.15 245.973 322.512 245.162C324.022 241.781 325.727 238.387 327.455 235.029ZM105.527 218.704C99.0018 235.885 121.933 250.35 136.049 253.55C138.004 253.992 139.912 254.573 141.858 255.048C143.98 255.567 145.865 255.464 147.983 255.681C149.668 255.853 150.471 257.156 152.059 257.514C154.713 258.114 154.551 256.12 154.741 253.983C155.546 244.923 160.17 236.181 165.064 228.622C162.828 227.822 160.613 226.949 158.407 226.073C156.518 225.324 153.627 223.217 151.597 223.105C150.095 223.023 147.808 224.305 146.349 224.868C143.921 225.805 141.485 226.604 138.954 227.242C134.528 228.36 129.603 229.883 125.023 229.999C123.703 230.032 120.081 230.647 119.131 229.831C117.319 228.275 119.834 226.978 121.351 226.423C130.39 223.113 139.988 221.705 149.053 218.312C153.717 216.565 158.334 214.615 163.028 212.894C167.074 211.411 171.313 210.098 175.223 208.273C180.387 205.865 185.573 202.865 190.045 199.33C190.94 198.622 192.815 197.572 193.429 196.547C193.969 195.644 193.901 196.544 193.789 195.45C193.709 194.664 192.747 193.599 192.352 192.857C190.878 190.089 189.546 187.245 188.427 184.316C181.293 187.375 174.507 191.54 167.479 194.809C160.405 198.1 152.426 200.422 144.858 202.274C141.637 203.062 137.934 203.311 134.98 204.869C133.725 205.53 132.484 206.295 131.14 206.678C130.743 207.44 130.352 207.589 129.967 207.126C129.726 206.855 129.414 206.741 129.031 206.783C128.209 206.922 127.37 207.31 126.601 207.609C122.709 209.117 118.983 211.007 115.287 212.935C113.536 213.848 111.74 214.748 110.063 215.791C109.165 216.35 108.36 216.914 107.625 217.682C106.744 218.602 106.954 219.359 105.527 218.704ZM252.368 116.698C254.017 116.725 255.52 115.832 257.239 115.881C259.944 115.96 262.084 118.056 263.654 120.078C266.759 124.079 265.968 128.905 264.407 133.382C263.661 135.522 262.636 137.576 261.355 139.449C260.222 141.107 258.195 142.675 257.404 144.521C256.099 147.566 258.732 146.272 260.344 145.621C262.37 144.803 264.27 143.786 265.99 142.416C273.657 136.31 279.49 127.822 281.443 118.075C282.396 113.319 282.323 107.76 279.01 103.878C275.982 100.329 270.753 99.1692 266.284 99.8272C261.453 100.539 257.075 102.585 253.141 105.219C251.998 105.985 250.952 106.82 249.879 107.676C248.471 108.799 247.628 108.829 247.98 110.589C248.242 111.897 248.954 113.253 249.414 114.509C250.273 116.86 249.96 117.469 252.368 116.698ZM257.625 157.241L257.291 157.811C259.592 157.921 261.734 155.892 263.694 154.901C266.24 153.613 268.501 151.857 270.732 150.084C274.667 146.955 278.653 143.43 281.581 139.324C288.147 130.118 294.111 118.448 292.319 106.776C290.388 94.1975 279.386 89.3554 267.663 91.0206C262.38 91.771 257.663 94.1297 252.935 96.5243C250.551 97.7315 248.54 99.2975 246.356 100.813C245.224 101.6 244.19 101.703 244.116 103.079C244.06 104.116 245.853 106.461 246.337 107.4C252.274 101.344 258.671 96.3344 267.636 96.0248C278.302 95.6566 284.609 105.769 284.562 115.453C284.516 124.951 280.42 134.086 273.89 140.911C270.923 144.013 268.094 146.502 264.45 148.766C262.633 149.895 261.293 150.908 259.262 151.657C257.826 152.188 257.975 151.908 257.609 153.238C257.298 154.367 257.616 156.069 257.625 157.241ZM199.671 286.271C199.532 287.982 199.185 289.667 198.798 291.337C198.658 291.936 197.876 293.829 198.013 294.503C198.24 295.617 197.938 294.9 198.914 295.482C199.932 296.088 201.117 296.052 202.232 296.236C202.92 296.35 205.441 297.536 205.865 297.349C206.606 297.021 206.583 295.866 207.396 295.408C208.504 294.784 210.137 295.319 211.183 295.807C213.977 297.111 215.897 299.809 218.602 301.287C223.404 303.909 229.103 305.361 234.46 305.96C237.363 306.285 240.333 306.855 243.2 306.175C245.458 305.639 248.393 305.688 249.621 303.265C238.711 300.264 222.058 296.593 217.744 284.072C215.399 286.198 211.48 285.053 208.646 284.759C205.529 284.437 202.743 284.512 199.891 283.09C199.683 284.208 199.619 285.135 199.671 286.271ZM103.072 208.725C108.208 209.035 113.077 206.605 116.237 202.504C117.015 201.494 117.813 200.463 118.28 199.266C118.381 198.963 118.482 198.66 118.584 198.356C119.074 197.519 118.859 197.124 117.94 197.171C117.422 196.461 116.109 196.222 116.482 194.934C116.764 193.963 117.802 193.947 118.704 193.642C118.255 192.887 117.986 192.508 117.343 191.836C115.671 193.34 112.637 196.291 111.463 192.837C110.899 191.178 111.892 189.593 111.646 187.993C111.544 187.332 110.706 185.641 110.22 185.246C107.63 183.138 103.901 184.01 101.154 185.251C99.2609 186.106 98.8536 186.507 98.5447 188.468C98.231 190.461 97.94 192.454 97.592 194.441C98.7281 193.849 98.9351 192.571 99.6759 191.65C99.9534 192.155 100.231 192.661 100.509 193.166C100.9 192.947 101.266 192.958 101.604 193.201C102.153 194.044 101.808 195.294 101.639 196.178C103.467 196.007 104.24 198.047 102.397 198.873C100.488 199.728 99.6267 197.395 99.562 195.884C98.8497 196.735 98.1181 196.28 97.6215 196.717C97.1253 197.154 96.9299 198.065 96.7532 199.063C96.4632 200.702 95.7209 203.067 96.4077 204.712C97.4274 207.154 100.679 208.425 103.072 208.725ZM251.896 130.274C250.197 132.637 247.3 135.731 246.694 138.586C248.565 137.488 252.523 132.202 253.543 136.413C254.128 138.829 251.126 141.709 250.389 144.049C253.34 143.078 255.443 140.036 257.285 137.688C259.633 134.695 262.031 130.75 262.631 126.944C263.116 123.864 260.979 120.993 257.804 120.691C256.183 120.537 254.49 120.794 252.923 121.17C252.208 121.342 251.143 121.554 250.505 121.937C249.705 122.418 249.595 123.543 248.841 122.607C247.839 124.495 246.837 126.384 245.835 128.272C246.832 127.91 248.867 126.374 249.957 126.533C251.548 126.765 251.875 129.077 251.896 130.274ZM92.7798 84.0421C88.3244 84.1734 83.6676 85.1222 79.45 86.5325C78.4026 86.883 73.9839 88.1296 74.9144 89.9368C75.5294 91.1313 78.8456 89.4434 79.8481 89.1619C84.1445 87.9553 88.5684 87.1596 92.9692 86.4335C94.0349 86.2577 97.6496 86.2751 97.8361 84.8783C98.0646 83.174 94.0378 84.0402 92.7798 84.0421ZM214.033 278.433C211.618 278.728 209.299 278.617 206.882 278.321C204.848 278.073 202.776 277.24 200.752 277.24C200.752 279.406 200.605 279.42 202.891 279.884C204.486 280.207 206.105 280.389 207.717 280.615C210.556 281.012 213.708 282.126 216.582 281.553C216.512 281.177 216.292 278.638 215.994 278.387C215.826 278.246 214.276 278.435 214.033 278.433ZM175.004 118.126C175.679 118.556 177.231 120.271 178.035 120.302C177.748 118.315 175.532 114.857 172.987 116.085C172.364 116.386 171.054 117.884 171.646 118.545C171.963 118.899 174.176 118.128 175.004 118.126ZM151.46 135.795C151.484 135.449 151.509 135.102 151.535 134.756C150.601 135.305 149.445 135.565 148.782 136.45C149.578 136.803 150.374 137.156 151.171 137.51C151.267 136.938 151.364 136.366 151.46 135.795ZM224.999 188.527C229.411 190.072 233.455 192.135 236.703 195.638C239.51 198.667 240.829 204.003 241.514 207.973C243.21 217.798 239.938 226.904 237.781 236.303C236.686 241.07 235.053 245.658 233.523 250.303C232.187 254.358 231.042 258.606 229.198 262.462C227.635 265.732 225.638 268.956 224.262 272.348C223.522 274.173 222.323 280.438 219.514 278.47C218.748 280.475 218.561 280.304 219.381 281.696C219.974 282.704 221.985 284.103 222.935 284.923C225.465 287.111 228.669 288.914 231.637 290.445C237.072 293.251 242.899 295.35 248.497 297.907C250.972 299.039 253.655 300.375 253.1 303.613C252.635 306.327 251.064 308.385 248.615 309.592C246.316 310.726 243.026 311.602 240.496 311.957C238.995 312.168 238.651 311.544 237.427 311.328C236.066 311.088 234.476 311.552 233.071 311.54C226.764 311.485 221.242 309.898 216.145 306.24C214.324 304.934 211.642 301.388 209.259 301.388C208.04 301.388 208.297 302.128 207.226 302.563C205.903 303.099 203.624 302.087 202.324 301.85C199.554 301.344 196.737 300.831 194.892 298.445C192.898 295.866 193.606 292.672 194.464 289.809C195.43 286.581 197.055 283.306 197.746 280.029C197.914 279.232 198.069 277.746 197.898 276.935C197.632 275.677 196.362 274.927 196.324 273.564C196.312 273.15 196.905 272.603 197.009 272.175C197.238 271.236 197.203 270.261 197.297 269.305C197.465 267.599 197.854 265.965 198.122 264.28C198.732 260.444 199.935 257.022 201.1 253.327C202.229 249.74 203.304 247.07 205.489 243.965C206.619 242.356 210.401 236.626 208.554 234.977C206.026 239.942 203.07 243.815 199.201 247.768C196.242 250.792 193.349 254.856 189.646 257.01C185.574 259.377 180.598 260.77 176.102 262.022C173.963 262.617 172.189 263.938 169.883 264.182C167.384 264.446 164.841 264.134 162.394 263.577C161.705 263.421 159.719 262.362 159.095 262.429C158.177 262.529 156.856 264.166 155.848 264.467C153.396 265.198 151.721 263.8 149.86 262.509C147.841 261.107 147.23 260.758 144.9 260.59C142.046 260.383 139.271 259.377 136.464 258.761C131.528 257.679 127.334 255.484 122.848 253.187C117.706 250.555 113.307 246.924 109.431 242.635C103.734 236.329 95.7987 218.857 105.106 212.74C99.6268 211.996 94.6084 209.603 93.9406 203.401C93.5916 200.156 94.2484 196.562 95.0644 193.434C95.4368 192.005 95.8809 190.586 96.3064 189.172C96.6267 188.695 96.7964 188.173 96.814 187.605C97.0105 186.87 96.727 186.503 95.9636 186.506C94.5204 184.819 93.4353 183.33 93.1437 180.934C93.0519 180.174 92.9697 179.01 93.5099 178.365C93.7599 178.105 94.0615 177.932 94.4138 177.845C95.2595 177.893 95.4985 177.476 95.1309 176.595C95.5415 175.346 94.9325 174.373 96.4799 173.852C96.9761 173.958 97.4699 174.073 97.9618 174.198C98.5895 174.484 98.9977 174.277 99.1875 173.578C100.645 173.007 99.9729 172.164 101.954 172.898C103.153 173.342 104.293 174.107 105.166 175.039C106.261 174.336 103.771 169.991 103.688 168.605C103.491 165.337 104.842 162.635 106.599 159.951C110.016 154.735 114.785 150.25 119.487 146.214C128.495 138.486 137.958 131.128 148.128 124.971C143.932 122.057 139.031 121.267 134.038 122.621C129.436 123.87 125.705 126.137 121.468 128.121C117.544 129.958 113.377 130.712 112.126 125.7C110.724 120.085 115.197 118 119.21 115.482C118.208 114.735 114.91 115.269 113.662 115.358C110.883 115.554 108.226 116.182 105.525 116.736C104.23 117.002 103.04 116.942 101.757 117.203C99.85 117.59 97.8586 118.024 95.9287 118.575C91.3377 119.888 86.7806 121.881 82.8134 124.566C79.3844 126.886 77.0057 130.161 74.2432 133.178C71.0924 136.617 68.0737 140.002 63.4028 141.261C61.2158 141.851 58.6502 142.386 57.0994 140.432C55.6567 138.616 55.5764 136.427 55.6237 134.206C55.7279 129.3 58.098 123.998 60.8549 119.99C63.8474 115.638 67.8552 113.146 71.6422 109.643C66.1687 110.035 60.8788 112.92 55.8451 114.914C54.7857 115.334 53.7164 115.806 52.6513 116.194C51.5155 116.609 50.7631 116.355 49.6751 116.545C47.1917 116.978 45.0587 118.025 42.6432 116.356C38.0732 113.2 42.6518 106.779 45.7982 104.808C50.1808 102.065 54.6395 99.754 59.4676 97.7967C56.8537 94.9615 59.0861 90.9155 61.4954 88.9041C64.5439 86.359 68.4255 84.9006 72.0987 83.5382C75.0037 82.4606 77.8566 81.426 80.8745 80.7776C84.0467 80.0961 87.7562 79.0549 90.9753 79.1547C93.9941 79.2484 96.6711 78.7165 99.7286 78.6315C102.273 78.5608 104.823 78.6219 107.366 78.556C114.21 78.3792 121.08 78.8408 127.768 79.333C122.469 63.8359 157.376 68.6217 164.824 70.6459C171.592 72.4857 179.346 74.6198 185.031 78.9851C187.439 80.834 189.727 82.9361 191.864 85.0932C195.016 88.2757 196.762 92.4437 198.429 96.5576C202.659 94.4856 206.703 92.2277 211.331 91.2003C215.734 90.223 220.245 88.8984 224.674 88.1601C228.042 87.5986 232.93 87.2177 235.764 89.5956C238.842 92.1784 240.446 96.1978 242.284 99.6398C251.108 91.2667 260.951 85.1581 273.532 85.5643C285.844 85.9619 293.94 96.5934 295.432 108.114C297.076 120.809 291.421 134.074 283.756 143.904C280.319 148.313 276.762 152.571 272.136 155.86C269.842 157.491 267.422 159.277 264.906 160.55C263.652 161.184 262.28 161.758 260.963 162.246C260.369 162.467 259.757 162.688 259.139 162.837C257.374 163.265 257.717 162.694 257.061 164.239C256.528 165.493 256.594 167.651 256.366 169.028C256.105 170.602 255.95 172.197 255.57 173.749C254.911 176.439 254.224 179.064 253.399 181.691C251.835 186.663 249.732 191.675 247.155 196.21C249.341 197.159 252.4 197.255 254.736 197.542C257.263 197.853 259.794 198.507 262.419 199.241C267.679 200.712 272.38 201.953 277.382 204.155C282.575 206.441 287.203 209.855 292.203 212.572C296.802 215.07 301.45 218.199 305.72 221.198C306.736 221.911 307.365 222.532 308.174 223.435C309.001 224.358 309.265 224.539 310.253 225.339C310.699 225.699 311.996 227.518 312.505 227.585C313.416 227.706 313.276 227.025 313.992 226.075C315.486 224.092 317.57 222.556 319.054 220.523C320.292 218.827 321.583 217.11 322.905 215.652C326.107 212.124 328.759 208.213 331.035 203.983C332.22 201.781 333.467 199.685 334.753 197.607C336.034 195.538 338.311 192.807 340.861 192.929C340.656 191.875 340.005 191.7 341.129 191.056C341.853 190.64 343.263 191.309 343.821 191.731C345.298 192.847 345.364 195.013 345.271 196.64C345.031 200.832 344.153 204.97 342.931 208.934C341.461 213.699 339.619 217.904 337.609 222.451C336.009 226.075 334.021 230.866 330.039 232.519C332.714 236.338 331.429 239.449 329.642 243.504C328.335 246.467 326.61 249.53 323.981 251.491C321.018 253.702 317.805 251.827 314.706 250.365C312.835 249.482 307.112 247.399 308.276 244.683C306.846 244.492 305.947 243.453 304.646 243.134C303.268 242.795 303.505 243.355 302.047 243.565C300.93 243.725 299.258 242.725 298.206 242.366C296.448 241.769 294.695 241.155 292.94 240.551C288 238.849 283.142 237.174 278.153 235.811C268.87 233.274 259.472 231.835 250.222 229.57C248.368 229.116 246.524 228.678 244.593 228.314C244.194 228.239 242.126 228.124 241.875 227.697C241.434 226.949 242.788 222.764 242.904 221.911C243.666 216.313 243.417 210.184 242.343 204.649C241.897 202.348 239.905 199.368 239.922 197.122C239.934 195.615 241.269 193.97 242.053 192.605C243.992 189.231 246.023 185.585 247.46 182.073C249.659 176.701 251.006 170.637 251.977 164.883C252.483 161.883 253.072 158.631 253.21 155.597C253.315 153.284 253.125 150.858 253.461 148.489C252.181 148.61 250.369 149.274 249.216 148.564C247.76 147.668 247.369 145.11 247.555 143.582C242.57 144.452 242.735 139.724 243.044 136.027C234.033 136.027 245.573 122.638 247.014 119.762C247.677 118.44 247.657 119.925 247.365 117.881C247.236 116.982 246.622 115.986 246.274 115.16C245.517 113.356 244.698 111.58 243.824 109.83C241.976 106.134 239.884 102.562 237.6 99.1185C235.543 100.551 233.69 102.247 231.973 104.067C233.074 101.186 236.44 97.6175 235 94.3465C233.666 91.3145 229.21 91.5247 226.579 92.0791C219.428 93.5867 212.571 95.7825 205.759 98.3247C207.869 99.5347 211.099 98.6 213.196 97.6748C215.792 96.5289 218.584 95.3266 221.382 94.7197C223.822 94.1903 227.027 94.3709 226.322 97.6576C225.75 100.321 223.145 102.885 221.427 104.877C217.64 109.264 212.891 112.66 208.227 116.053C203.214 119.702 198.383 123.665 193.305 127.207C184.128 133.61 174.259 139.175 164.777 145.153C159.85 148.258 154.266 150.757 148.923 153.059C143.044 155.591 137.408 158.302 131.31 160.302C127.923 161.413 124.566 162.327 121.238 163.591C119.152 164.383 115.519 165.97 114.141 163.619C111.342 158.842 121.472 152.561 124.247 149.641C126.162 151.5 116.719 158.431 117.458 161.139C118.039 163.267 120.285 160.519 121.37 159.939C123.123 159.002 125.199 158.53 126.96 157.461C130.574 155.267 134.858 152.737 135.683 148.202C135.109 147.596 135.116 147.037 135.705 146.524C135.967 146.213 136.174 145.871 136.327 145.498C136.585 144.785 136.688 143.892 136.826 143.137C137.232 140.903 136.211 138.812 137.165 136.626C131.597 140.846 126.244 145.612 120.958 150.18C116.216 154.277 111.268 159.642 109.526 165.756C109.303 166.539 108.932 167.428 108.972 168.255C109.052 169.878 109.214 169.528 110.521 170.05C111.829 170.572 113.733 170.527 115.139 170.582C115.941 170.613 119.521 169.764 118.809 171.523C118.399 172.537 115.917 172.499 115.029 172.593C112.799 172.829 111.589 172.587 112.646 175.004C113.119 176.088 114.079 176.822 114.832 177.66C116.926 179.993 118.064 183.571 119.712 186.312C121.59 189.435 123.653 192.404 125.846 195.312C126.751 196.512 127.96 198.767 129.215 199.624C130.386 200.423 129.008 200.357 130.953 200.032C131.801 199.891 132.57 199.339 133.381 199.142C138.231 197.96 143.217 196.629 148.233 195.17C154.649 193.305 161.382 191.714 167.503 189.027C172.986 186.62 178.429 183.754 183.97 181.316C185.588 180.604 187.205 180.133 188.462 178.823C189.981 177.243 191.237 175.173 192.638 173.475C195.019 170.585 197.213 167.646 199.776 164.907C201.684 162.869 205.065 159.081 207.757 158.268C212.872 156.723 210.134 164.513 209.473 166.482C210.675 166.755 211.307 165.213 212.718 165.656C214.408 166.188 214.583 168.435 214.794 169.842C214.85 170.217 214.342 170.918 214.497 171.253C214.549 171.367 215.652 172.019 215.864 172.321C216.636 173.419 216.484 174.753 216.192 175.937C214.678 182.068 209.298 186.545 205.342 191.068C207.112 190.733 208.424 189.724 210.095 189.224C211.663 188.755 213.24 188.779 214.821 188.645C216.476 188.504 218.066 187.885 219.759 187.853C221.536 187.82 223.237 188.326 224.999 188.527Z" fill="#0F216F"/>
<path fill-rule="evenodd" clip-rule="evenodd" d="M37.8707 133.38C36.895 134.018 36.62 134.643 36.5863 136.115C36.5728 136.718 36.6144 138.969 37.4578 138.884C38.2492 138.804 37.8707 134.154 37.8707 133.38ZM32.8305 137.046C33.2852 132.331 35.0103 127.536 39.0686 124.598C40.0723 123.872 41.2076 123.897 42.3076 123.439C42.9687 123.164 44.0131 121.883 44.7636 122.035C47.5264 122.594 44.3346 126.265 43.8671 127.23C42.4187 130.222 42.5165 132.851 42.5598 136.078C42.5927 138.531 43.1024 142.666 41.8658 144.886C40.5476 147.25 37.6885 145.715 36.0926 144.316C34.0784 142.55 32.5572 139.737 32.8305 137.046Z" fill="#0F216F"/>
<path fill-rule="evenodd" clip-rule="evenodd" d="M81.3293 150.98C81.3293 153.612 83.4651 151.83 83.3888 149.959C83.2771 147.203 81.2298 148.9 81.3293 150.98ZM92.6832 136.434C90.3457 138.536 88.5427 139.716 88.0922 142.948C87.7512 145.397 88.0903 147.822 88.1047 150.288C88.1292 154.422 84.7908 158.768 81.1983 154.029C78.5779 150.573 79.5178 145.138 81.6546 141.664C82.776 139.841 84.3768 138.038 86.2258 136.902C87.6167 136.048 91.5291 134.366 92.6832 136.434Z" fill="#0F216F"/>
<path fill-rule="evenodd" clip-rule="evenodd" d="M60.0398 200.147C59.7687 200.788 59.1326 203.406 60.4305 202.813C61.5764 202.29 60.834 200.555 60.0398 200.147ZM53.1815 192.065C52.9811 191.08 53.0628 184.91 54.7625 185.372C56.0975 185.735 56.3181 188.894 56.862 189.993C58.8874 194.087 63.536 196.636 65.139 200.862C66.9283 205.58 61.5186 205.727 58.648 203.816C55.2491 201.553 53.2824 196.013 53.1815 192.065Z" fill="#0F216F"/>
<path fill-rule="evenodd" clip-rule="evenodd" d="M49.0148 166.764C49.7524 165.768 49.827 165.236 49.4065 164.355C48.869 164.939 48.9645 165.775 49.0148 166.764ZM49.5485 171.219C45.703 171.65 45.5105 164.563 46.1692 162.129C46.6935 160.192 47.8211 158.109 48.9817 156.53C49.2162 156.212 51.4396 153.349 51.8754 153.342C53.5478 153.315 53.0882 155.205 52.9079 155.909C52.3397 158.125 52.1145 159.977 52.2674 162.435C52.4315 165.064 53.6765 171.306 49.5485 171.219Z" fill="#0F216F"/>
<path fill-rule="evenodd" clip-rule="evenodd" d="M224.153 109.845C218.655 114.456 213.434 119.449 207.455 123.482C204.529 125.456 201.471 127.203 198.551 129.209C197.065 130.231 195.547 131.146 193.898 131.897C192.441 132.56 191.488 132.646 192.697 131.072C193.505 130.019 195.317 129.286 196.417 128.538C198.112 127.387 199.711 126.109 201.494 125.087C204.635 123.285 207.758 121.83 210.654 119.619C213.224 117.658 215.876 115.743 218.329 113.659C219.381 112.765 222.869 108.661 224.153 109.845Z" fill="#0F216F"/>
<path fill-rule="evenodd" clip-rule="evenodd" d="M224.264 126.496C226.737 128.611 220.55 134.406 219.139 135.72C217.651 137.105 216.013 138.34 214.394 139.568C213.825 140 210.717 142.892 209.928 142.658C208.372 142.198 210.415 140.321 210.947 139.832C212.665 138.248 214.42 136.71 216.1 135.083C217.616 133.617 219.257 132.259 220.722 130.745C221.909 129.519 222.907 127.441 224.264 126.496Z" fill="#0F216F"/>
<path fill-rule="evenodd" clip-rule="evenodd" d="M41.0586 211.765C40.413 210.268 39.2567 211.929 39.8429 212.676C40.3973 213.384 40.9761 212.052 41.0586 211.765ZM37.2728 208.81C37.6189 206.61 38.4189 205.388 40.4826 207.265C41.9008 208.556 44.7529 212.225 44.4823 214.225C44.127 216.849 41.2374 216.104 39.7394 214.732C38.204 213.326 37.5262 210.761 37.2728 208.81Z" fill="#0F216F"/>
<path fill-rule="evenodd" clip-rule="evenodd" d="M41.7952 252.107C39.2671 251.915 37.1102 249.974 36.0366 247.699C35.1333 245.786 34.2783 242.703 37.4519 243.708C39.5202 244.364 47.4936 252.415 41.7952 252.107Z" fill="#0F216F"/>
<path fill-rule="evenodd" clip-rule="evenodd" d="M72.434 239.637C70.4804 240.082 68.5477 238.795 67.3462 237.344C66.5988 236.44 64.8589 233.272 65.7355 231.968C66.9573 230.149 68.8022 233.805 69.4385 234.529C70.4367 235.662 73.7004 237.83 72.434 239.637Z" fill="#0F216F"/>
<path fill-rule="evenodd" clip-rule="evenodd" d="M74.1935 190.167C72.6621 189.456 71.2402 188.601 70.6245 186.903C70.2327 185.822 69.9038 182.58 71.6431 182.595C73.6549 182.613 78.2619 189.842 74.1935 190.167Z" fill="#0F216F"/>
<path fill-rule="evenodd" clip-rule="evenodd" d="M63.4566 156.439C65.5072 156.402 65.9926 157.533 66.2778 159.158C66.4714 160.26 67.4108 164.004 66.4352 164.771C65.0414 165.866 62.8241 163.356 62.3759 162.37C61.452 160.341 62.7294 158.345 63.4566 156.439Z" fill="#0F216F"/>
<path fill-rule="evenodd" clip-rule="evenodd" d="M98.6916 268.683C99.69 269.138 101.962 270.145 101.093 271.708C100.186 273.343 97.5804 271.754 96.6071 271.04C96.1996 270.741 93.6107 268.783 93.719 268.127C93.9473 266.732 97.516 268.552 98.6916 268.683Z" fill="#0F216F"/>
<path fill-rule="evenodd" clip-rule="evenodd" d="M32.9113 166.594C33.5936 168.303 34.3616 174.172 30.7688 171.003C29.6724 170.035 29.5069 168.827 29.8847 167.499C30.4309 165.574 31.2258 165.956 32.9113 166.594Z" fill="#0F216F"/>
<path fill-rule="evenodd" clip-rule="evenodd" d="M223.306 144.737C222.51 143.111 224.474 142.063 225.524 141.015C226.209 140.331 229.091 136.62 230.036 136.829C231.979 137.261 224.261 144.012 223.306 144.737Z" fill="#0F216F"/>
<path fill-rule="evenodd" clip-rule="evenodd" d="M63.4307 262.469C65.3053 262.169 65.7427 264.251 66.9505 265.159C67.4684 265.548 69.2465 265.89 68.8888 266.717C67.9491 268.887 63.3388 263.929 63.4307 262.469Z" fill="#0F216F"/>
<path fill-rule="evenodd" clip-rule="evenodd" d="M79.2607 213.291C80.5492 212.752 84.2683 215.649 83.2005 216.901C81.6042 218.773 79.3517 214.316 79.2607 213.291Z" fill="#0F216F"/>
<path fill-rule="evenodd" clip-rule="evenodd" d="M106.421 255.208C105.482 255.302 101.518 254.056 102.987 252.387C104.018 251.216 106.758 254.148 106.421 255.208Z" fill="#0F216F"/>
<path fill-rule="evenodd" clip-rule="evenodd" d="M58.9552 247.204C58.0227 247.577 54.6596 246.81 55.717 245.349C56.7243 243.959 58.9566 246.049 58.9552 247.204Z" fill="#0F216F"/>
<path fill-rule="evenodd" clip-rule="evenodd" d="M86.4884 253.505C87.5786 253.392 88.3661 254.049 88.5534 255.162C87.1899 255.357 86.7693 255.032 86.4884 253.505Z" fill="#0F216F"/>
<path fill-rule="evenodd" clip-rule="evenodd" d="M228.283 91.9048C228.744 91.9069 229.204 91.9093 229.66 91.9113C229.199 91.9089 228.741 91.9069 228.283 91.9048Z" fill="#0F216F"/>
<path fill-rule="evenodd" clip-rule="evenodd" d="M221.056 187.755C220.367 187.756 219.679 187.757 218.991 187.758C219.679 187.757 220.368 187.756 221.056 187.755Z" fill="#0F216F"/>
<path fill-rule="evenodd" clip-rule="evenodd" d="M127.147 75.5605C127.116 76.2497 127.084 76.9388 127.052 77.6255C127.082 76.9358 127.115 76.2479 127.147 75.5605Z" fill="#0F216F"/>
<path fill-rule="evenodd" clip-rule="evenodd" d="M340.413 192.576C340.633 193.341 340.312 193.468 339.448 192.956C339.769 192.829 340.091 192.703 340.413 192.576Z" fill="#0F216F"/>
<path fill-rule="evenodd" clip-rule="evenodd" d="M320.863 252.628C321.208 252.63 321.554 252.633 321.895 252.635C321.549 252.633 321.206 252.63 320.863 252.628Z" fill="#0F216F"/>
<path fill-rule="evenodd" clip-rule="evenodd" d="M255.472 197.23C254.895 197.67 254.321 197.732 253.751 197.207C254.325 197.215 254.898 197.222 255.472 197.23Z" fill="#0F216F"/>
<path fill-rule="evenodd" clip-rule="evenodd" d="M242.588 138.542C242.574 139.116 242.559 139.69 242.544 140.262C242.558 139.687 242.573 139.114 242.588 138.542Z" fill="#0F216F"/>
<path fill-rule="evenodd" clip-rule="evenodd" d="M272.336 85.4368C271.762 85.4364 271.188 85.4357 270.615 85.435C271.189 85.2203 271.763 85.2908 272.336 85.4368Z" fill="#0F216F"/>
<path fill-rule="evenodd" clip-rule="evenodd" d="M104.041 78.4355C103.467 78.4693 102.893 78.503 102.32 78.5367C102.893 78.503 103.467 78.4693 104.041 78.4355Z" fill="#0F216F"/>
<path fill-rule="evenodd" clip-rule="evenodd" d="M118.151 78.5443C117.692 78.5054 117.233 78.4661 116.775 78.4272C117.233 78.4661 117.692 78.5054 118.151 78.5443Z" fill="#0F216F"/>
<path fill-rule="evenodd" clip-rule="evenodd" d="M125.723 79.0894C125.264 79.2604 124.805 79.3616 124.346 79.0918C124.805 79.0911 125.264 79.09 125.723 79.0894Z" fill="#0F216F"/>
<path fill-rule="evenodd" clip-rule="evenodd" d="M84.7674 80.0322C84.1934 80.1489 83.62 80.2656 83.0466 80.3812C83.6206 80.2656 84.194 80.1489 84.7674 80.0322Z" fill="#0F216F"/>
<path fill-rule="evenodd" clip-rule="evenodd" d="M242.934 220.108C242.918 220.453 242.902 220.798 242.887 221.141C242.903 220.796 242.918 220.452 242.934 220.108Z" fill="#0F216F"/>
<path fill-rule="evenodd" clip-rule="evenodd" d="M53.2668 192.231C53.2737 192.461 53.2803 192.691 53.2865 192.92C53.2792 192.689 53.2734 192.46 53.2668 192.231Z" fill="#0F216F"/>
<path fill-rule="evenodd" clip-rule="evenodd" d="M342.545 190.997L340.824 191.006C341.396 190.578 341.97 190.633 342.545 190.997Z" fill="#0F216F"/>
<path fill-rule="evenodd" clip-rule="evenodd" d="M224.842 188.559C224.382 188.483 223.923 188.408 223.465 188.332C223.923 188.408 224.383 188.483 224.842 188.559Z" fill="#0F216F"/>
<path fill-rule="evenodd" clip-rule="evenodd" d="M98.878 268.631C98.3042 268.52 97.731 268.407 97.1572 268.296L98.878 268.631Z" fill="#0F216F"/>
<path fill-rule="evenodd" clip-rule="evenodd" d="M214.705 169.861C214.694 169.517 214.683 169.172 214.673 168.829C214.683 169.173 214.694 169.517 214.705 169.861Z" fill="#0F216F"/>
<path fill-rule="evenodd" clip-rule="evenodd" d="M105.761 78.5494C105.417 78.507 105.073 78.4647 104.729 78.4224C105.073 78.4647 105.417 78.507 105.761 78.5494Z" fill="#0F216F"/>
<path fill-rule="evenodd" clip-rule="evenodd" d="M162.204 70.0379C161.86 69.9337 161.515 69.8294 161.172 69.7251C161.516 69.8294 161.86 69.9337 162.204 70.0379Z" fill="#0F216F"/>
<path fill-rule="evenodd" clip-rule="evenodd" d="M203.159 302.17C203.389 302.185 203.62 302.199 203.848 302.212C203.616 302.198 203.388 302.184 203.159 302.17Z" fill="#0F216F"/>
<path fill-rule="evenodd" clip-rule="evenodd" d="M45.1887 117.362C45.5342 117.371 45.8797 117.38 46.2212 117.389C45.874 117.38 45.5313 117.371 45.1887 117.362Z" fill="#0F216F"/>
<path fill-rule="evenodd" clip-rule="evenodd" d="M276.122 85.774C275.548 85.7337 274.975 85.6934 274.401 85.6528C274.975 85.6934 275.548 85.7337 276.122 85.774Z" fill="#0F216F"/>
<path fill-rule="evenodd" clip-rule="evenodd" d="M94.7482 84.1621C93.9433 84.1635 93.1393 84.1649 92.3391 84.1662C93.1457 84.1649 93.947 84.1635 94.7482 84.1621Z" fill="#0F216F"/>
<path fill-rule="evenodd" clip-rule="evenodd" d="M257.348 155.062C257.359 155.637 257.37 156.211 257.381 156.783C257.371 156.209 257.361 155.635 257.348 155.062Z" fill="#0F216F"/>
<path fill-rule="evenodd" clip-rule="evenodd" d="M215.205 278.283C214.744 278.276 214.285 278.268 213.828 278.261C214.29 278.267 214.747 278.275 215.205 278.283Z" fill="#0F216F"/>
<path fill-rule="evenodd" clip-rule="evenodd" d="M264.076 95.9323C264.764 95.8559 265.453 95.7795 266.141 95.7031C265.481 96.2875 264.767 95.8986 264.076 95.9323Z" fill="#0F216F"/>
<path fill-rule="evenodd" clip-rule="evenodd" d="M211.419 278.463C211.074 278.45 210.729 278.437 210.387 278.425C210.733 278.438 211.076 278.45 211.419 278.463Z" fill="#0F216F"/>
<path fill-rule="evenodd" clip-rule="evenodd" d="M199.52 284.467C199.537 285.042 199.554 285.616 199.572 286.188C199.555 285.612 199.537 285.04 199.52 284.467Z" fill="#0F216F"/>
<path fill-rule="evenodd" clip-rule="evenodd" d="M252.03 117.065C252.489 117.023 252.948 116.98 253.407 116.938C252.988 117.26 252.496 117.071 252.03 117.065Z" fill="#0F216F"/>
<path fill-rule="evenodd" clip-rule="evenodd" d="M101.631 208.625C102.09 208.71 102.55 208.794 103.008 208.878C102.549 208.794 102.09 208.71 101.631 208.625Z" fill="#0F216F"/>
<path fill-rule="evenodd" clip-rule="evenodd" d="M173.217 118.065C173.79 117.577 174.364 117.63 174.938 118.06C174.364 118.061 173.791 118.063 173.217 118.065Z" fill="#0F216F"/>
<path fill-rule="evenodd" clip-rule="evenodd" d="M151.682 135.444C151.698 135.215 151.715 134.985 151.732 134.756C151.716 134.986 151.699 135.215 151.682 135.444Z" fill="#0F216F"/>
<path fill-rule="evenodd" clip-rule="evenodd" d="M251.851 128.905C251.856 129.365 251.861 129.825 251.866 130.282C251.861 129.821 251.856 129.363 251.851 128.905Z" fill="#0F216F"/>
<path fill-rule="evenodd" clip-rule="evenodd" d="M100.008 200.846C100.764 201.102 102.282 201.875 103.162 201.773C103.867 201.69 104.447 200.834 105.127 200.835C106.956 200.837 106.617 202.952 105.733 204.087C103.343 207.157 98.0016 203.828 100.008 200.846Z" fill="#0F216F"/>
<path fill-rule="evenodd" clip-rule="evenodd" d="M107.474 189.822C109.969 190.466 108.726 195.953 106.629 196.33C104.16 196.775 103.73 192.313 104.218 190.701C105.489 191.456 104.702 194.149 106.303 193.405C107.321 192.931 107.167 190.74 107.474 189.822Z" fill="#0F216F"/>
</g>
</svg>
