<svg width="375" height="365" viewBox="0 0 375 365" fill="none" xmlns="http://www.w3.org/2000/svg">
<mask id="mask0_60_514" style="mask-type:alpha" maskUnits="userSpaceOnUse" x="0" y="0" width="375" height="365">
<rect y="0.655273" width="375" height="363.961" fill="#D9D9D9"/>
</mask>
<g mask="url(#mask0_60_514)">
<path fill-rule="evenodd" clip-rule="evenodd" d="M170.992 15.7784C200.885 21.9773 211.003 60.7762 236.577 77.4496C260.183 92.8402 294.27 88.1927 313.564 108.732C333.884 130.363 349.88 162.11 343.288 191.046C336.574 220.516 299.09 230.456 280.419 254.224C265.129 273.686 262.534 301.083 243.977 317.461C223.576 335.466 198.199 350.375 170.992 350.8C143.685 351.226 119.975 334.013 96.6789 319.76C73.8655 305.803 48.1755 292.742 36.651 268.608C25.3151 244.869 31.6588 217.111 35.2149 191.046C38.4008 167.694 48.241 146.97 56.2693 124.811C66.0056 97.9376 66.848 66.2401 87.5664 46.5492C109.423 25.7764 141.466 9.65574 170.992 15.7784Z" fill="#F4F6FF"/>
<path fill-rule="evenodd" clip-rule="evenodd" d="M98.8646 237.901C108.657 232.723 118.448 227.546 128.24 222.369C137.525 243.097 160.835 256.396 183.239 251.492C188.7 250.296 194.114 247.594 196.736 242.378C198.708 238.456 198.782 233.85 197.889 229.622C197.137 226.061 195.737 222.302 193.445 219.436C190.566 215.834 186.14 213.068 182.558 210.242C177.008 205.862 171.408 201.547 165.792 197.252C165.056 196.689 163.006 195.678 162.594 194.812C162.248 194.087 162.594 192.327 162.594 191.534V187.798C170.741 190.774 179.828 192.412 188.487 191.966C202.903 191.222 214.477 180.771 224.758 171.489C226.591 169.834 228.393 168.144 230.152 166.409C230.489 166.077 231.342 164.848 231.812 164.755C232.441 164.631 234.095 165.674 234.673 165.907C236.674 166.713 238.676 167.518 240.677 168.324C245.549 170.285 250.447 171.887 254.846 174.768C273.515 186.993 293.375 201.94 301.861 223.356C306.685 235.529 309.561 248.528 311.317 261.49C311.556 263.257 312.17 265.459 311.864 267.225C311.303 270.462 309.468 273.893 308.359 276.974C306.952 280.89 305.545 284.806 304.137 288.722C303.982 289.154 303.79 290.245 303.429 290.517C302.677 291.082 300.168 290.89 299.266 290.989C294.083 291.559 288.886 292.137 283.679 292.424C278.998 292.682 274.632 291.482 270.169 290.147C267.684 289.403 265.218 288.599 262.764 287.76C262.212 287.571 259.514 287.062 259.199 286.507C259.061 286.263 259.525 285.118 259.589 284.85C259.996 283.144 260.371 281.431 260.726 279.714C263.23 267.59 265.075 254.883 264.017 242.485C262.916 229.57 255.756 219.366 246.736 210.532C243.417 207.282 239.887 204.242 236.191 201.434C235.544 200.941 234.362 199.658 233.542 199.494C232.885 199.361 232.391 199.912 231.735 200.341C229.835 201.584 227.934 202.827 226.035 204.069C225.524 204.403 223.532 205.284 223.348 205.872C223.193 206.368 224.004 208.007 224.14 208.483C224.716 210.501 225.231 212.538 225.695 214.584C228.742 227.993 230.165 242.671 226.422 256.082C222.888 268.747 214.724 280.144 203.772 287.356C192.443 294.816 179.266 296.662 166.115 294.093C142.727 289.524 118.748 275.783 106.011 255.075C102.749 249.773 100.285 243.976 98.8646 237.901Z" fill="#FCC610"/>
<path fill-rule="evenodd" clip-rule="evenodd" d="M309.232 266.476C308.324 273.686 305.105 280.538 301.121 286.534C300.596 285.492 301.231 284.631 299.776 284.433C298.8 284.299 297.509 284.99 296.545 285.155C292.973 285.763 289.221 285.295 285.652 284.912C286.577 283.908 287.8 283.094 287.339 281.459C286.991 280.225 285.48 279.745 284.89 278.604C285.695 278.255 287.906 280.018 288.68 280.316C288.296 279.347 286.99 277.614 287.27 276.551C287.476 275.769 288.489 275.919 287.646 274.917C287.261 275.261 286.03 276.923 285.358 276.51C286.008 275.923 285.533 275.603 285.819 275.012C286.04 274.556 286.236 274.335 286.543 273.937C287.335 272.908 287.854 271.592 286.846 270.385C286.51 269.981 285.932 270.066 285.616 269.61C285.312 269.17 285.376 268.653 285.293 268.159C285.2 267.604 285.245 266.979 285.092 266.436C284.775 265.313 284.654 265.331 285.195 264.173C284.639 264.651 284.083 265.128 283.528 265.605C283.252 264.434 283.047 263.192 282.477 262.12C282.285 261.758 281.253 260.801 281.299 260.423C281.166 261.524 280.284 260.226 279.925 260.136C278.793 259.85 276.793 260.969 275.93 261.659C273.546 263.567 272.123 267.202 270.618 269.804C268.964 272.663 267.303 275.837 266.868 279.124C266.759 279.942 266.733 281.662 265.81 282.075C265.313 282.297 263.241 281.701 262.729 281.403C261.476 280.677 261.915 279.588 262.401 278.436C263.029 276.945 263.596 275.667 263.886 274.05C264.232 272.115 264.481 270.158 264.782 268.215C265.412 264.142 266.044 260.049 266.368 255.937C266.472 254.621 266.307 253.312 266.357 252.026C266.4 250.905 267.259 249.609 266.783 248.272C266.62 247.814 266.28 247.707 266.303 247.318C266.317 247.078 266.93 247.304 267.012 246.987C267.171 246.369 266.583 245.738 266.433 245.166C266.194 244.262 266.377 243.427 266.515 242.521C267.073 238.84 266.039 234.966 265.052 231.426C263.987 227.6 262.539 223.92 261.054 220.243C259.746 217.007 259.195 213.495 257.656 210.353C256.325 207.639 254.872 204.944 252.474 203.187C251.375 202.382 250.582 201.164 249.536 200.276C248.913 199.746 248.244 199.176 247.495 198.836C246.771 198.507 245.905 198.699 245.245 198.388C244.328 197.957 243.31 196.873 242.33 196.449C241.484 196.083 240.513 195.834 239.721 195.067C238.648 194.027 238.448 193.335 236.94 193.136C236.068 193.021 235.203 193.071 234.584 192.203C232.136 188.766 238.74 183.803 235.682 180.217C234.465 181.447 233.945 183.195 233.357 184.776C232.588 186.847 231.504 188.592 230.286 190.428C228.153 193.64 224.972 196.898 224.056 200.73C222.562 198.638 221.721 197.391 219.467 199.46C219.043 198.523 219.602 196.739 218.759 196.137C217.277 195.078 214.45 197.714 213.641 198.671C210.476 202.416 208.708 206.977 206.971 211.533C206.203 213.545 205.379 216.093 206.356 218.175C207.222 220.017 209.28 221.028 211.034 221.818C213.517 222.936 215.572 222.878 218.21 223.157C219.421 223.285 220.512 223.815 221.666 223.198C222.666 222.664 223.379 221.599 224.247 220.891C224.451 221.556 224.98 222.141 225.654 221.552C226.641 225.703 227.623 229.766 227.385 234.067C227.167 238.014 226.823 241.978 226.12 245.87C225.395 249.883 224.546 253.963 222.968 257.737C221.406 261.473 219.01 264.763 216.829 268.144C216.165 266.787 215.374 267.457 214.414 268.094C214.032 267.282 214.522 266.663 213.993 265.943C213.651 265.742 213.346 265.494 213.078 265.198C212.985 264.62 212.854 264.051 212.687 263.49C211.835 263.838 211.473 264.251 211.085 265.068C209.802 262.805 208.893 263.093 206.505 263.238C203.306 263.433 202.283 266.206 201.225 268.809C200.973 269.43 200.507 270.211 200.452 270.898C200.412 271.383 200.842 272.196 200.784 272.447C200.664 272.962 200.198 272.533 200.072 272.787C199.611 273.721 199.492 275.046 199.247 276.059C198.591 278.768 198.391 283.149 195.727 284.69C193.496 285.98 190.296 286.286 187.795 286.771C183.86 287.536 179.694 287.674 175.695 287.696C172.122 287.715 167.849 288.146 164.457 286.797C163.96 286.6 161.608 285.492 162.156 284.928C162.394 284.683 163.683 285.088 163.946 285.229C163.768 285.134 163.634 284.035 163.544 283.787C163.209 282.861 162.951 282.829 162.313 282.128C160.899 280.573 162.808 281.29 162.68 280.176C162.654 279.961 161.142 280.517 161.184 280.502C161.233 280.164 161.544 279.461 161.384 279.121C161.501 279.37 160.511 277.28 160.629 277.756C160.4 276.832 161.043 275.921 160.91 275.028C160.721 273.762 159.797 274.015 159.073 273.266C158.825 273.008 158.726 272.487 158.482 272.192C158.376 272.064 157.989 272.042 157.949 271.972C157.684 271.512 157.701 271.436 157.979 270.467C157.443 270.702 156.03 271.676 155.484 271.145C154.826 270.506 156.206 269.756 155.064 269.316C154.604 269.138 154.34 269.634 153.93 269.65C153.654 269.661 153.601 268.98 153.256 269.159C152.642 269.479 152.483 270.822 152.212 271.403C150.678 267.483 145.732 273.927 144.819 275.439C143.973 276.839 143.925 279.606 141.837 279.392C140.741 279.279 139.482 278.078 138.607 277.49C137.325 276.628 135.954 275.911 134.629 275.115C128.745 271.585 123.198 267.693 117.988 263.22C116.071 261.574 113.506 259.532 113.251 256.982C113.149 255.961 113.025 255.029 112.742 253.995C112.174 251.916 111.422 252.282 109.761 251.149C110.426 249.834 111.376 249.766 111.318 248.174C111.271 246.881 110.776 245.591 110.343 244.398C109.789 242.877 109.521 241.166 107.898 240.744C106.17 240.294 105.894 241.135 104.749 242.351C104.868 241.696 105.396 240.036 104.663 239.613C103.642 239.025 103.091 241.196 102.289 241.43C101.599 239.888 99.2641 237.486 100.898 235.952C101.723 235.179 103.325 234.882 104.347 234.414C105.867 233.718 107.342 232.92 108.817 232.136C115.376 228.653 121.745 224.851 128.251 221.272C129.398 223.932 130.422 226.655 131.743 229.236C132.846 231.39 134.817 233.429 134.738 235.978C134.655 238.632 133.456 241.242 133.169 243.897C132.98 245.654 133.242 246.347 135.173 245.736C135.34 246.947 137.289 248.702 138.328 249.318C140.001 250.309 141.667 248.493 142.834 247.368C143.658 248.153 143.832 249.312 144.513 250.188C144.856 249.82 144.804 248.775 145.022 248.605C145.23 248.441 145.96 248.8 146.11 248.796C146.338 248.789 146.145 248.141 146.329 248.133C146.918 249.587 148.278 247.156 149.586 248.152C149.429 247.389 149.644 247.127 150.297 246.762C150.636 248.342 152.022 247.599 153.218 247.773C155.344 248.082 157.42 249.276 159.509 249.817C163.814 250.932 167.88 251.549 172.313 251.477C174.087 251.449 174.833 251.719 175.878 253.106C176.276 253.634 176.469 254.295 177.16 254.544C178.171 254.91 178.229 254.229 179.049 254.036C179.884 253.84 179.445 253.629 180.231 254.043C180.714 254.298 181 255.106 181.395 255.484C182.513 256.553 183.701 256.959 184.635 255.493C184.812 256.029 185.014 256.193 185.433 256.548C185.373 255.702 185.248 254.01 186.641 254.41C187.683 254.708 187.198 256.208 188.676 255.948C189.505 255.802 190.194 254.603 190.69 253.999C191.369 253.171 191.399 254.307 191.532 252.893C191.611 252.055 191.064 251.013 190.733 250.281C191.974 250.537 192.196 251.853 193.43 251.969C194.812 252.099 195.518 250.26 196.858 250.613C196.728 250.304 196.228 249.273 196.447 248.968C196.786 248.498 197.271 249.612 197.799 249.507C198.375 249.392 199.013 247.825 198.892 247.298C198.652 246.246 197.432 246.512 196.968 245.678C196.544 244.916 196.918 243.519 196.898 242.694C196.871 241.569 196.61 240.428 196.805 239.304C197.011 238.122 197.605 237.145 198.417 236.273C198.981 235.667 200.552 234.728 199.176 234.031C201.615 233.129 200.174 230.606 200.365 228.508C200.483 227.204 201.007 226.254 200.717 224.852C200.371 223.175 199.477 221.614 198.553 220.196C197.633 218.783 196.685 217.471 195.316 216.472C194.945 216.221 194.574 215.97 194.202 215.72C193.946 215.36 193.624 215.255 193.235 215.407C192.606 214.927 192.491 214.537 192.026 213.851C190.857 212.124 188.785 211.273 187.066 210.247C185.415 209.263 183.978 207.908 182.247 207.062C182.256 207.067 180.43 206.278 180.583 206.483C179.954 205.64 180.595 204.597 180.563 203.689C180.529 202.756 179.97 202.345 179.71 201.54C179.399 200.583 179.957 199.395 179.395 198.539C179.176 198.205 178.746 198.112 178.479 197.818C178.025 197.317 177.823 196.644 177.341 196.151C176.869 196.71 176.396 197.268 175.924 197.827C175.367 196.468 175.256 196.115 174.113 197.406C172.367 199.376 171.378 198.526 169.956 196.695C169.486 196.091 168.939 195.971 168.587 195.527C168.027 194.82 168.629 193.582 167.83 192.965C167.364 192.605 166.712 192.969 166.32 192.35C165.837 191.589 166.625 190.459 166.18 189.606C172.863 191.725 179.683 193.414 186.746 192.899C193.606 192.399 200.613 190.714 206.909 187.923C217.833 183.081 228.488 175.115 232.782 163.563C233.858 164.827 233.633 167.134 234.82 168.294C236.585 170.019 236.426 166.572 236.426 165.474C237.84 165.853 239.858 166.453 239.973 168.179C240.089 169.923 238.523 171.74 237.973 173.326C237.419 174.92 237.143 176.764 237.278 178.447C237.345 179.289 237.5 180.161 237.921 180.905C238.434 181.814 239.004 181.768 239.693 182.183C239.58 182.115 240.555 182.775 240.526 182.768C242.578 183.262 244.225 184.806 246.43 184.247C247.85 183.887 249.223 182.846 249.747 184.928C250.734 184.263 250.856 183.749 250.829 182.768C250.817 182.344 250.215 181.981 250.818 181.847C251.019 181.802 251.767 182.712 252.06 182.796C252.869 183.028 253.18 182.703 253.571 182.093C253.796 181.741 253.811 179.367 254.08 179.317C254.652 179.211 255.846 181.655 256.164 182.093C256.164 175.084 263.465 183.207 265.736 184.756C267.585 186.015 269.593 187.132 271.142 188.776C273.116 190.87 272.545 192.087 271.213 194.351C269.738 196.856 268.671 199.776 267.329 202.389C266.655 203.7 265.848 205.274 265.866 206.798C265.873 207.311 266.169 207.842 266.141 208.341C266.101 209.063 265.752 209.369 265.462 210.001C264.628 211.82 265.376 213.993 267.139 214.893C268.269 215.471 269.43 215.836 270.522 216.503C271.676 217.208 272.816 217.969 274.221 218.017C275.129 218.048 275.63 217.804 276.506 218.077C277.101 218.262 277.597 218.798 278.286 218.73C279.663 218.595 280.674 217.072 282.088 216.759C283.135 216.527 284.494 216.662 285.162 215.633C285.99 214.356 284.414 213.084 285.671 211.909C286.018 212.557 286.248 213.296 286.33 214.027C286.702 213.046 286.851 212.258 287.399 211.379C287.971 210.461 288.296 209.862 288.286 208.703C288.268 206.624 287.264 204.685 286.761 202.706C288.52 202.804 289.969 205.839 290.736 207.112C292.151 209.46 293.615 211.777 295.022 214.13C296.789 217.083 299.034 220.33 300.169 223.592C301.194 226.535 298.714 228.428 297.348 230.821C295.732 233.652 295.243 236.363 294.36 239.399C293.654 241.827 293.574 244.525 295.554 246.367C296.438 247.19 297.561 247.668 298.662 248.114C299.974 248.648 300.32 249.625 301.729 249.906C302.852 250.13 304.097 250.241 305.247 250.205C307.215 250.144 306.5 249.493 307.591 248.249C307.25 249.418 308.402 250.526 308.722 251.597C309.171 253.097 309.273 254.753 309.458 256.303C309.863 259.702 309.658 263.091 309.232 266.476ZM282.887 297.603C281.118 297.202 278.483 297.443 276.894 296.563C275.791 295.952 276.291 295.364 276.748 294.211C277.986 291.085 281.437 290.737 284.491 291.588C283.956 293.594 283.422 295.599 282.887 297.603ZM286.07 321.078C291.677 324.121 297.795 327.382 302.307 331.952C303.367 333.026 306.233 335.412 305.851 337.17C305.452 339.005 301.849 338.649 300.517 338.6C294.072 338.364 288.035 336.745 282.26 333.909C276.738 331.196 271.415 328.421 267.397 323.632C265.769 321.692 262.788 318.699 263.126 315.93C263.462 313.181 266.281 311.098 267.775 308.942C269.241 306.827 271.059 302.201 273.795 301.501C274.988 301.196 276.186 301.87 277.299 302.209C278.361 302.532 279.968 302.53 280.876 303.242C282.522 304.532 281.863 307.507 280.135 308.339C278.985 308.892 277.647 309.131 276.44 309.532C275.084 309.983 268.238 312.049 270.788 314.389C272.562 316.017 275.722 314.029 277.624 313.575C278.6 313.343 280.17 313.042 280.75 314.158C281.315 315.244 280.29 316.374 279.399 316.879C278.075 317.63 276.382 317.513 275.233 318.616C274.296 319.517 274.053 320.587 275.34 321.131C278.759 322.576 282.502 319.142 286.07 321.078ZM215.714 269.032C215.517 268.264 216.021 267.828 216.818 268.164C216.643 268.665 216.275 268.954 215.714 269.032ZM160.109 285.65C159.388 285.552 159.679 284.641 159.976 284.188C160.454 284.562 160.499 285.049 160.109 285.65ZM109.901 254.034C108.984 253.01 110.369 251.238 111.746 252.067C111.297 252.742 110.394 253.248 109.901 254.034ZM106.576 211.17C105.092 208.524 104.987 202.777 101.13 202.427C99.7124 202.298 97.1895 204.077 95.9724 203.237C94.8689 202.475 95.8308 198.636 94.2242 198.694C91.9602 198.775 93.1228 203.218 92.101 204.319C91.5161 204.949 90.1964 205.201 89.3803 205.092C88.1398 204.927 88.033 204.365 88.0016 203.2C87.9777 202.337 88.6019 198.884 86.6655 199.458C85.2554 199.875 85.596 202.907 85.4565 203.983C84.9382 207.988 79.1207 207.801 76.0725 208.14C74.2228 208.346 65.5536 209.73 67.4799 205.902C68.2943 204.283 70.2919 202.936 71.6514 201.809C73.9652 199.89 76.6087 198.377 79.3671 197.202C84.4971 195.017 90.2773 193.854 95.8401 194.616C102.103 195.474 107.26 198.569 111.441 203.237C112.305 204.202 114.745 206.432 113.81 207.807C113.291 208.571 111.494 208.761 110.689 209.045C109.232 209.561 107.811 210.228 106.576 211.17ZM115.794 213.103C117.923 212.297 118.406 214.955 119.225 216.392C119.927 217.622 121.482 219.49 120.666 220.935C119.924 222.249 117.655 223.032 116.377 223.587C114.705 224.313 112.957 224.853 111.289 225.585C110.414 223.499 109.657 221.361 108.734 219.298C108.214 218.134 107.147 216.533 108.062 215.37C109.578 213.445 113.681 213.904 115.794 213.103ZM174.821 134.407C174.986 132.017 176.548 132.8 177.152 134.444C177.807 136.229 177.881 138.351 177.933 140.234C177.973 141.67 177.678 143.915 176.31 141.822C174.994 139.812 174.661 136.736 174.821 134.407ZM183.233 144.039C182.997 146.931 181.35 144.931 180.747 143.389C179.868 141.138 179.195 138.229 179.517 135.804C179.888 133.006 181.251 134.763 181.859 136.474C182.719 138.895 182.757 141.533 183.233 144.039ZM186.809 141.679C184.954 142.183 182.063 131.228 184.567 130.854C186.65 130.543 188.637 141.183 186.809 141.679ZM194.235 142.821C194.217 145.252 192.216 143.336 191.516 142.354C190.233 140.557 189.222 137.874 189.149 135.667C189.081 133.595 189.987 131.912 191.436 134.144C193.045 136.623 193.713 139.961 194.235 142.821ZM178.032 114.757C179.838 109.68 182.092 105.012 185.104 100.544C185.645 99.7417 186.187 98.8279 186.922 98.1899C187.518 97.673 188.377 97.5435 188.937 97.0396C190.066 96.0267 189.203 95.0104 188.105 94.4796C186.26 93.5873 182.977 93.7167 184.265 90.7515C186.045 86.6549 190.659 88.9384 192.475 91.7228C193.21 89.9841 194.502 90.4082 196.077 90.2892C198.431 90.111 200.645 88.9808 203.022 89.0208C205.227 89.0577 207.257 90.132 209.466 90.1711C211.927 90.2152 213.982 90.3174 216.375 91.0079C215.128 93.5381 213.58 96.0401 211.207 97.6524C211.634 96.8618 213.114 94.7393 211.787 94.153C210.889 93.7566 208.973 95.4168 208.21 95.8001C208.179 95.0768 207.915 94.3467 207.483 93.7676C205.152 95.4008 205.937 98.2042 207.926 99.74C206.187 100.648 204.368 101.446 202.416 101.741C200.49 102.033 198.554 101.578 196.638 101.904C193.275 102.477 190.763 105.496 190.228 108.808C189.937 110.605 190.917 115.128 192.375 111.622C192.667 110.922 192.816 110.096 193.278 109.48C194.04 108.465 194.624 108.823 195.74 109.066C196.666 109.268 198.288 109.47 198.639 110.497C198.954 111.418 198.132 112.656 197.667 113.357C196.073 115.763 193.689 117.843 190.809 118.388C189.178 118.697 176.747 118.373 178.032 114.757ZM181.911 81.8072C180.866 81.1049 181.651 79.2754 181.775 78.3398C181.96 78.6823 182.145 79.0244 182.331 79.367C182.201 77.1743 182.5 75.4028 182.967 73.2744C183.144 72.4662 183.08 71.779 183.116 70.9695C183.137 70.5063 183.051 70.1776 183.242 69.899C183.487 69.5413 183.78 70.582 183.766 70.4903C184.882 69.1433 183.976 68.8579 184.302 67.5025C184.306 67.4852 185.328 66.3908 185.441 66.1844C185.98 65.1997 186.088 64.8201 187.019 64.2485C187.963 63.669 187.645 64.2422 188.157 63.0028C188.65 61.8091 188.619 60.9849 188.904 59.735C189.345 60.0574 189.79 60.0666 190.24 59.7636C189.823 59.648 189.6 59.3744 189.572 58.9415C190.722 58.8238 191.741 57.7062 192.787 58.0916C192.523 57.639 192.341 55.0457 193.201 55.0508C193.229 55.4572 193.229 55.8632 193.201 56.2692C193.927 55.1723 195.065 53.5495 195.96 52.7207C196.636 52.0949 196.445 52.2777 197.271 52.1894C197.981 52.1138 197.991 52.3815 198.601 51.7422C198.361 51.0832 198.541 50.665 199.141 50.4889C199.326 50.4082 199.511 50.3275 199.696 50.2464C200.546 49.7286 200.861 49.1427 201.531 48.4568C202.051 47.9226 203.154 47.6948 203.545 47.1614C203.967 46.5881 203.655 45.31 204.216 44.8746C204.83 44.3971 204.87 45.0192 205.469 44.9624C205.555 44.9545 206.42 44.4917 206.596 44.4324C207.875 43.9995 209.059 43.8255 210.139 42.8391C210.502 42.5079 210.759 41.8737 211.109 41.6177C211.689 41.1936 212.382 41.2769 212.974 40.9036C213.162 40.7851 213.446 40.2568 213.668 40.0622C214.322 39.4881 215.219 39.2031 216.029 38.9505C217.707 38.4277 219.287 37.9086 220.91 37.205C224.395 35.6932 228.238 34.4122 231.936 33.5392C232.362 33.4388 233.456 33.4972 233.773 33.2908C234.006 33.1378 234.21 32.6179 234.267 32.5847C234.959 32.1817 236.073 31.7294 237.021 31.4588C239.805 30.6636 239.902 32.1821 238.128 33.7906C236.553 35.2183 234.651 36.2148 233.033 37.5795C230.396 39.805 228.684 43.0875 226.943 46.0065C229.28 47.1417 232.629 45.9917 235.001 45.4987C236.207 45.2487 237.487 45.2222 238.675 45.2226L239.057 45.004C239.361 44.7981 239.558 44.8822 239.65 45.2566C239.694 45.737 239.927 45.814 240.351 45.487C240.576 45.3319 240.81 45.194 241.054 45.0734C241.49 44.825 242.157 44.0285 242.715 44.1269C243.537 44.2719 243.044 44.675 243.575 44.8792C244.796 45.3478 245.388 44.2324 246.527 44.0538C246.918 43.9924 247.473 44.2958 247.903 44.2492C248.258 44.1193 248.587 43.9428 248.889 43.72C249.193 43.7129 249.406 43.8592 249.528 44.1576C250.457 44.1639 252.169 43.942 252.252 42.7656C252.905 44.0042 253.281 43.5826 254.303 43.0068C254.303 44.49 257.503 43.2258 258.38 43.2228C260.636 43.2157 262.586 42.3226 264.726 43.4738C260.943 45.1692 256.657 45.9211 252.993 47.8457C251.337 48.7161 249.205 51.1773 250.434 53.1763C251.164 54.3628 252.519 54.2955 253.717 54.1535C255.239 53.9732 256.504 54.5452 258.061 54.4817C261.22 54.3535 265.102 56.7589 267.829 54.1888C269.02 55.814 270.427 55.8077 272.214 55.9074C273.044 55.9536 278.221 56.856 278.008 57.8609C277.889 58.4262 275.414 59.3143 275.041 59.4803C273.637 60.1036 272.185 60.5928 270.698 60.9698C268.015 61.6511 265.375 61.6091 262.669 62.0298C260.7 62.3358 258.265 63.4596 258.803 65.9596C259.277 68.1606 261.881 67.6647 263.569 67.5109C265.415 67.3428 267.191 67.1305 269.047 67.2125C270.537 67.2784 273.619 67.1851 274.557 68.6545C270.422 71.6378 265.236 72.4115 260.307 73.0315C254.608 73.7476 248.952 74.6525 243.376 76.053C243.796 75.2098 245.645 72.1408 244.915 71.225C244.021 70.1028 241.339 74.6286 240.65 75.2372C234.783 80.4202 226.749 83.9369 219.559 86.8113C221.927 83.8772 225.494 81.8741 228.386 79.4952C230.377 77.8581 233.998 75.1842 232.681 72.1446C225.281 76.7691 219.055 85.0998 209.72 85.6454C213.055 83.211 216.898 81.339 219.642 78.162C220.283 77.4193 222.4 74.5815 221.087 73.5614C220.054 72.7587 218.227 75.5868 217.507 76.1996C212.439 80.5081 205.479 84.1558 199.167 86.1754C196.899 86.9008 193.782 88.1344 191.699 86.5503C188.904 84.4248 186.727 84.3563 183.575 86.0522C183.261 84.6694 183.22 82.6869 181.911 81.8072ZM248.596 179.591V181.345C247.648 181.252 248.073 180.25 247.503 179.789C247.868 179.723 248.232 179.657 248.596 179.591ZM247.403 177.558C247.692 178.581 247.692 178.581 246.482 178.466C246.903 178.051 247.128 177.829 247.403 177.558ZM251.975 178.991C252.667 178.61 252.077 180.892 250.979 179.711C251.311 179.471 251.643 179.231 251.975 178.991ZM254.421 175.695C254.292 176.448 254.164 177.201 254.035 177.954C253.631 177.619 253.227 177.285 252.823 176.95C253.356 176.532 253.889 176.114 254.421 175.695ZM306.96 245.663C307.829 245.138 308.004 247.148 308.097 247.529C307.526 247.214 305.595 246.49 306.96 245.663ZM134.841 92.8955C133.337 94.9747 131.837 97.0711 130.6 99.3243C129.913 100.576 129.411 102.406 128.163 103.243C127.051 103.988 125.22 104.102 123.973 104.414C121.471 105.039 118.989 105.75 116.555 106.607C108.25 109.533 100.364 114.51 94.5258 121.17C91.7134 124.379 89.3648 128.075 88.0435 132.157C86.5286 136.836 87.0397 141.741 86.4841 146.557C86.3509 147.714 86.1083 151.84 84.7451 152.361C83.0672 153.004 82.5921 148.938 82.3898 147.873C82.1359 146.538 81.4317 137.398 78.8011 138.243C77.1969 138.758 77.1869 144.089 77.0889 145.36C76.8656 148.246 76.5371 151.111 75.9891 153.957C75.5614 156.174 74.9937 158.374 74.4629 160.569C73.9966 162.498 73.4905 164.813 72.0339 166.267C70.9634 160.389 70.7892 153.786 72.7955 148.088C73.3443 146.529 76.7931 138.533 73.7432 137.759C71.922 137.296 70.4775 141.653 69.9844 142.803C68.3325 146.657 67.0212 150.652 65.5951 154.592C64.6587 157.179 63.7098 161.845 61.4148 163.643C60.5786 157.148 62.3478 150.673 64.5004 144.608C64.885 143.525 69.666 132.729 65.5255 133.899C63.2653 134.538 61.6838 139.369 60.7546 141.236C58.478 145.808 55.6803 150.562 51.8721 154.019C51.6928 150.399 54.0032 146.568 54.8621 143.091C55.8495 139.096 57.1529 135.379 59.2635 131.827C63.1715 125.25 68.2746 119.029 73.3146 113.295C78.5179 107.376 84.4497 102.106 90.9149 97.607C97.4052 93.0909 104.23 90.2257 111.91 88.466C120.509 86.496 129.84 85.3318 138.451 87.8704C137.248 89.5457 136.05 91.2248 134.841 92.8955ZM277.075 101.492C276.937 101.52 276.798 101.548 276.66 101.575C276.546 100.901 276.433 100.226 276.319 99.5517C277.178 100.056 276.449 100.92 277.075 101.492ZM241.079 95.6644C251.248 91.1765 261.965 87.8628 272.809 85.4777C280.179 83.8562 288.536 83.058 295.719 85.9009C304.012 89.1826 307.45 97.9836 307.814 106.397C308.239 116.203 304.911 125.503 300.116 133.909C298.965 135.928 292.811 148.127 290.225 146.769C291.098 144.379 297.215 130.9 293.163 129.707C290.833 129.021 289.026 135.654 288.224 137.147C287.68 138.159 283.964 145.243 282.724 144.636C283.895 140.859 285.324 136.963 285.211 132.946C285.126 129.912 283.545 128.484 281.876 131.627C278.231 138.489 274.396 145.527 269.092 151.264C268.591 147.01 270.865 142.313 272.247 138.387C273.332 135.305 274.785 132.235 275.131 128.951C275.318 127.171 275.264 123.656 272.613 124.273C270.305 124.81 268.443 127.457 266.616 128.827C267.997 126.217 269.328 123.573 270.911 121.078C272.269 118.94 273.895 116.99 275.242 114.847C275.842 113.892 276.175 112.965 276.556 111.957C276.931 110.962 277.495 110.41 278.134 109.505C278.609 108.831 278.869 108.261 279.013 107.519C279.067 107.243 278.876 106.83 278.905 106.517C278.957 105.967 279.532 105.821 279.341 105.19C280.351 106.593 280.072 103.834 280.053 103.323C279.986 101.524 280.711 99.5756 279.814 97.9024C277.924 94.3753 272.381 95.0596 269.104 95.3134C264.409 95.677 258.534 96.747 254.513 99.2928C253.485 99.9434 252.84 99.5719 251.724 100.072C250.704 100.529 249.667 101.003 248.62 101.448C245.9 102.605 243.304 104.04 240.621 105.279C240.764 103.266 241.219 101.302 240.902 99.2911C240.767 98.4291 239.911 96.1796 241.079 95.6644ZM312.594 251.817C311.705 245.857 310.697 239.96 309.11 234.142C308.351 231.362 307.753 228.527 306.957 225.76C306.325 223.561 304.393 222.446 303.439 220.398C301.193 215.581 299.135 210.809 296.428 206.198C293.6 201.381 290.224 197.136 286.209 193.262C278.067 185.405 268.66 179.402 259.555 172.79C254.881 169.395 250.036 166.438 244.819 163.951C242.717 162.948 240.697 162.148 238.472 161.495C236.167 160.819 235.016 160.03 234.163 157.711C232.411 152.949 229.125 151.39 224.638 149.58C222.608 148.762 220.761 147.628 218.761 146.758C216.681 145.853 214.481 145.159 212.546 143.95C203.743 138.45 215.496 127.002 220.17 122.881C221.991 121.275 224.052 119.627 226.372 118.829C228.775 118.003 232.052 117.516 234.596 117.29C236.323 117.136 238.769 117.943 240.203 116.569C241.36 115.461 240.913 113.688 240.771 112.287C240.373 108.358 243.594 108.051 246.839 107.357C251.907 106.272 256.645 103.99 261.721 102.849C264.961 102.121 273.955 99.9413 274.007 105.416C274.047 109.566 270.947 113.741 268.999 117.133C267.475 119.785 265.85 122.349 264.238 124.945C263.033 126.886 261.941 129.016 261.96 131.362C261.974 133.215 262.718 135.046 264.889 134.772C267.33 134.464 269.159 132.043 271.185 130.872C271.269 133.407 269.353 136.243 268.618 138.63C267.751 141.445 266.988 144.371 266.499 147.278C266.186 149.133 265.326 156.276 269.075 155.359C271.602 154.742 273.779 151.479 275.252 149.553C276.802 147.523 278.192 145.387 279.597 143.255C280.473 145.864 275.02 150.911 277.788 153.261C280.741 155.77 285.855 146.887 287.293 145.246C287.543 147.239 284.734 151.654 287.912 152.568C290.16 153.215 293.226 150.146 294.642 148.701C297.23 146.061 297.546 142.334 299.161 139.138C301.009 135.48 303.38 132.146 305.092 128.403C310.489 116.609 313.233 99.1364 304.723 88.0112C298.978 80.4997 289.012 79.1997 280.2 79.8945C270.171 80.685 260.362 83.7423 250.98 87.2467C244.681 89.5999 238.484 92.2348 232.322 94.9268C227.775 96.9135 223.25 98.9515 218.738 101.019C216.556 102.02 214.429 103.102 212.306 104.222C210.555 105.145 208.472 106.219 206.433 105.693C207.9 103.46 210.819 102.719 212.929 101.289C215.424 99.5971 216.807 96.7059 217.72 93.9084C218.704 90.8953 219.576 90.1757 222.599 89.3889C225.62 88.6026 228.448 87.3345 231.148 85.7664C237.479 82.0888 244.475 79.9865 251.671 78.8462C258.038 77.8375 264.769 77.3832 270.714 74.6849C275.139 72.6763 280.708 68.2313 275.321 63.7656C279.134 60.9879 285.895 56.3487 279.975 51.8053C275.387 48.2836 268.456 48.5564 262.984 48.5564C263.771 46.9647 266.291 46.4175 267.707 45.5521C269.454 44.4846 271.612 43.3292 272.219 41.2247C273.211 37.7838 269.461 36.7805 266.845 36.4355C256.902 35.1242 245.728 36.1098 236.309 39.5755C236.801 37.8401 239.25 36.5616 240.621 35.6306C242.448 34.3903 244.255 33.0336 245.588 31.2419C246.292 30.2966 246.816 29.2749 246.956 28.0939C247.106 26.8208 246.971 27.3588 246.588 27.0213C245.176 25.7747 243.19 24.99 241.273 24.9064C235.747 24.6647 230.837 27.2684 225.595 28.5465C223.277 29.1114 221.114 29.3434 218.894 30.3458C216.218 31.5546 213.46 32.6108 210.813 33.8746C209.583 34.4622 208.425 35.1641 207.183 35.7222C206.057 36.2283 205.796 36.8633 204.887 37.6329C204.054 38.339 203.129 37.9897 202.184 38.518C200.877 39.2481 199.631 40.5216 198.417 41.4299C193.688 44.9666 189.222 49.0275 185.473 53.6058C179 61.5091 172.569 73.7535 176.986 84.1117C178.018 86.5301 180.452 87.308 181.057 89.9471C181.586 92.26 181.67 94.556 182.351 96.8391C183.041 99.1524 180.275 101.322 179.094 103.205C177.246 106.152 176.442 109.485 175.401 112.766C175.077 111.883 174.967 110.395 174.06 109.875C172.961 109.246 172.946 110.559 172.156 109.967C171.227 109.271 170.474 106.555 169.934 105.474C169.214 104.031 168.474 102.597 167.645 101.213C164.262 95.5631 159.048 91.1975 153.39 87.9381C141.836 81.2827 127.924 80.5699 115.052 82.9878C102.124 85.4159 90.8982 91.8624 80.9008 100.264C75.3641 104.918 70.4804 110.073 66.0857 115.823C61.7688 121.471 57.3091 126.972 54.134 133.375C52.3509 136.97 50.7363 140.696 49.7388 144.595C48.9646 147.621 48.2121 151.295 49.1971 154.363C50.04 156.99 52.4762 158.4 54.935 156.693C57.0921 155.195 58.0549 152.49 59.5279 150.417C59.8237 153.851 55.6514 166.496 61.7307 167.091C66.2197 167.532 67.8658 157.18 68.8168 154.182C69.454 158.217 68.2508 162.575 69.7636 166.471C70.4972 168.361 72.7888 171.784 74.7289 169.068C75.5974 167.852 75.6615 166.118 75.9724 164.703C76.3632 162.92 76.8534 161.159 77.2409 159.374C78.2175 154.877 78.7617 150.31 79.5162 145.773C80.7852 148.72 80.546 154.088 83.6919 155.914C86.8821 157.765 88.3166 152.471 88.6807 150.328C89.2923 146.726 88.9999 143.035 89.527 139.42C90.0615 135.756 91.3632 132.453 93.3331 129.329C100.342 118.216 113.486 109.821 126.712 109.266C125.999 112.014 121.927 119.095 127.243 119.211C128.442 119.238 129.541 119.023 130.755 119.153C132.25 119.314 134.027 120.081 135.521 119.973C136.427 119.907 136.392 119.528 137.321 120.071C138.294 120.64 138.422 121.483 139.486 120.155C140.288 121.648 142.158 122.045 143.573 122.697C143.589 122.311 143.606 121.926 143.623 121.54C144.5 122.79 145.45 123.015 146.794 123.627C147.655 124.018 148.261 123.897 149.036 124.099C149.975 124.344 150.444 124.864 151.289 125.344C152.206 125.866 153.813 125.802 154.517 126.62C155.762 128.067 153.837 130.509 153.144 131.745C151.193 135.221 149.907 139.249 149.062 143.128C148.846 144.117 148.64 144.817 148.799 145.798C148.937 146.652 149.192 146.035 149.034 146.877C148.979 147.174 148.426 147.8 148.328 148.015C147.492 149.832 147.616 152.241 147.572 154.201C147.466 158.887 148.06 163.318 149.334 167.824C149.893 169.799 150.386 171.86 151.091 173.788C151.746 175.579 152.738 176.673 152.389 178.609C151.641 182.762 155.978 183.889 158.345 186.49C159.417 187.669 159.608 189.174 159.85 190.692C160.196 192.881 160.917 194.892 161.806 196.921C163.362 200.476 165.497 205.116 168.424 207.741C169.741 208.921 170.95 210.227 172.447 211.108C173.147 211.52 174.022 212.528 174.802 212.722C175.541 212.905 175.277 212.118 176.079 212.769C176.693 213.267 176.66 214.009 177.513 214.574C178.331 215.115 179.213 215.568 180.074 216.036C181.825 216.987 183.715 217.887 185.309 219.088C186.852 220.252 188.388 221.478 189.938 222.652C191.364 223.734 192.367 225.079 192.827 226.831C194.853 234.528 187.751 241.033 181.694 244.251C173.855 248.417 164.97 247.538 156.906 244.506C148.547 241.363 140.293 235.597 135.314 228.077C134.076 226.208 132.821 224.206 131.883 222.167C131.265 220.825 131.088 219.175 130.258 217.943C128.395 215.181 124.395 219.141 122.458 220.178C119.606 208.109 114.13 194.482 101.4 190.162C89.3326 186.067 74.2124 190.932 66.3718 200.898C64.5238 203.247 61.879 207.053 63.1237 210.198C64.2067 212.933 67.7711 213.552 70.3413 213.826C74.0054 214.218 77.8618 213.747 81.3981 212.751C82.3064 212.495 83.8624 211.766 84.826 212.048C86.3229 212.486 86.2663 214.668 87.0221 215.804C87.7866 216.954 88.896 216.833 89.1545 215.357C89.4008 213.948 88.1071 212.624 89.2018 211.372C89.811 210.676 91.8672 210.1 92.7231 210.643C93.4391 211.096 93.5032 212.521 94.0721 213.177C95.6406 214.984 95.8111 212.055 96.1325 210.819C96.6151 208.961 98.7241 207.516 100.771 208.347C102.052 208.868 102.372 210.839 102.704 212.031C103.382 214.464 103.849 216.814 104.767 219.185C105.467 220.994 108.436 226.033 107.012 227.798C106.133 228.888 103.913 229.499 102.637 229.919C100.858 230.505 98.7245 230.856 97.0923 231.778C96.3248 232.212 94.6318 233.395 94.3947 234.291C93.9933 235.81 95.8371 235.878 96.6951 235.108C99.3789 243.087 102.548 250.936 107.478 257.814C112.424 264.716 118.847 270.439 125.616 275.491C138.854 285.372 154.425 291.955 170.917 293.522C179.352 294.324 188.074 293.619 196.058 290.687C196.959 290.356 197.872 289.972 198.824 289.817C199.687 289.676 200.572 289.975 201.407 289.836C202.49 289.656 202.2 289.237 202.888 288.657C203.523 288.121 204.515 287.936 205.219 287.473C208.725 285.169 211.905 281.928 214.646 278.772C219.795 272.845 224.899 265.454 227.324 257.919C229.762 250.35 229.877 242.306 230.611 234.458C231.065 229.603 229.605 225.093 228.809 220.348C227.995 215.489 227.042 210.711 225.922 205.92C225.478 204.026 225.475 202.655 226.958 201.276C228.113 200.203 229.556 199.358 231.093 200.09C232.701 200.856 234.159 202.528 235.628 203.567C237.142 204.639 237.852 206.068 239.36 204.283C239.36 205.832 240.105 206.298 241.406 206.807C243.152 207.49 244.782 208.221 246.362 209.261C249.777 211.508 252.358 214.91 254.286 218.481C256.34 222.29 258.706 226.187 260.134 230.283C261.69 234.747 261.885 239.78 262.042 244.469C262.207 249.37 262.255 254.307 261.976 259.205C261.712 263.837 261.454 269.04 260.091 273.491C258.588 278.399 253.722 283.961 260.304 287.235C264.92 289.532 270.515 288.978 275.058 291.341C274.471 292.281 274.078 293.344 273.44 294.252C272.636 295.398 271.921 295.387 270.679 295.846C268.405 296.687 269.506 298.056 269.272 299.859C269.065 301.459 266.928 303.283 265.909 304.459C264.374 306.229 262.787 307.983 261.549 309.984C258.865 314.319 258.866 319.044 261.325 323.475C263.486 327.371 266.574 331.8 270.371 334.218C274.516 336.858 279.401 339.137 283.95 340.969C288.04 342.617 292.368 343.671 296.743 344.202C300.022 344.6 304.535 344.986 307.16 342.512C309.566 340.244 310.136 336.637 309.009 333.624C306.364 326.559 298.288 322.307 292.415 318.307C294.276 317.655 296.728 317.435 298.174 315.951C299.981 314.096 298.312 312.505 296.236 312.526C294.436 312.544 292.601 313.132 290.889 313.653C289.368 314.115 286.574 315.41 285.033 314.477C282.996 313.244 285.225 312.001 286.324 311.444C288.388 310.398 288.274 309.068 286.276 307.979C283.049 306.219 287.673 306.142 288.156 304.556C288.766 302.551 286.225 300.621 286.403 298.432C286.572 296.343 287.216 292.674 288.843 291.18C289.966 290.149 291.889 290.24 293.299 290.012C295.579 289.642 297.812 288.961 300.011 288.26C300.68 292.198 303.807 288.658 305.041 287.085C307.366 284.124 308.327 280.54 309.554 277.041C310.935 273.101 312.109 269.232 312.84 265.111C313.637 260.619 313.264 256.298 312.594 251.817Z" fill="#0F216F"/>
<path fill-rule="evenodd" clip-rule="evenodd" d="M158.307 299.019C157.667 299.741 154.606 298.742 153.766 298.637C151.272 298.325 148.934 298.405 146.465 297.781C144.575 297.303 141.804 296.247 139.962 296.529C139.808 296.553 139.988 297.068 139.725 297.065C139.383 297.06 139.2 296.809 138.857 296.677C138.045 296.364 137.405 295.659 136.552 296.274C136.148 294.365 135.453 296.038 134.495 296.024C133.486 296.009 133.855 294.805 132.797 294.649C131.956 294.526 131.606 295.049 130.676 294.689C129.389 294.191 128.476 293.468 127.062 293.122C125.464 292.731 124.407 292.17 122.936 291.516C121.65 290.945 120.224 290.764 118.92 290.226C115.545 288.835 112.241 287.113 109.035 285.371C102.937 282.059 96.917 278.942 91.4364 274.623C89.4304 273.042 88.0157 271.289 86.4261 269.321C85.347 267.984 83.49 265.419 81.4727 265.844C81.9447 264.535 80.6861 263.398 79.8576 262.589C78.578 261.342 77.4864 260.024 76.4277 258.574C75.4314 257.21 74.7318 255.832 74.1138 254.273C73.6452 253.091 73.3427 251.91 72.0572 253.093C69.4969 255.448 72.784 260.097 74.2042 262.167C76.5533 265.59 78.891 269.07 81.687 272.146C86.9006 277.882 92.8423 283.105 99.5284 287.031C102.983 289.06 106.623 290.853 110.372 292.267C113.72 293.53 117.027 294.193 120.463 295.096C122.51 295.635 124.458 296.346 126.547 296.721C127.359 296.867 128.159 297.064 128.985 297.106C129.198 297.118 129.552 296.835 129.688 296.848C130.016 296.878 130.267 297.179 130.748 297.285C131.321 297.411 131.888 297.356 132.335 297.548C132.517 297.626 132.965 298.192 133.44 298.368C134.212 298.654 134.81 298.786 135.602 298.546C136.274 298.341 136.819 297.639 137.572 297.71C137.467 298.16 137.361 298.612 137.256 299.062C138.022 298.768 138.379 299.035 139.082 298.899C138.946 298.925 140.554 298.554 140.392 298.511C140.504 298.541 140.918 299.301 141.317 299.491C142.964 300.273 144.975 299.691 146.716 299.822C148.502 299.957 150.256 300.22 152.056 300.35C153.382 300.446 159.609 301.25 159.745 298.976C159.262 298.864 158.783 298.878 158.307 299.019Z" fill="#0F216F"/>
<path fill-rule="evenodd" clip-rule="evenodd" d="M326.166 90.0819C326.681 85.6735 325.217 81.9932 324.079 77.8505C323.145 74.4557 321.988 71.0743 319.624 68.3513C317.477 65.8785 314.228 62.7174 310.747 62.5497C308.042 62.4193 306.193 64.5407 308.554 66.5045C310.908 68.4632 313.048 69.7294 314.911 72.2843C317.057 75.2276 318.674 78.5501 319.875 81.9806C322.061 88.23 323.302 95.5998 321.235 102.02C321.03 102.656 320.221 104.477 321.03 104.988C321.958 105.573 322.674 104.173 322.929 103.573C323.166 103.014 324.228 97.7254 325.172 98.4313C325.112 97.7036 324.799 97.363 324.844 96.6437C324.87 96.2279 325.228 95.6372 325.261 95.0987C325.368 93.3338 325.964 91.8132 326.166 90.0819Z" fill="#0F216F"/>
<path fill-rule="evenodd" clip-rule="evenodd" d="M163.433 67.0264C166.273 67.0879 166.371 60.7064 167.256 58.9752C167.671 58.1625 168.103 57.1846 168.563 56.4267C168.92 55.8386 169.356 55.7499 169.619 55.2827C170.491 53.7314 169.884 52.4983 169.493 50.9984C170.524 50.8324 170.874 50.8366 171.245 49.8039C171.355 49.4989 171.093 48.9456 171.31 48.7159C171.608 48.4002 172.113 48.5712 172.417 48.306C172.497 48.2366 172.467 47.5712 172.563 47.3214C172.78 46.7572 172.953 46.541 173.371 46.1097C173.934 45.5288 175.464 45.213 174.957 44.1966C175.335 44.1807 175.696 44.0924 176.039 43.9318C176.149 43.4245 175.118 43.6173 175.202 43.3258C175.38 42.7071 176.349 41.8932 176.962 41.7669C176.439 41.4938 175.916 41.2202 175.392 40.9467C176.707 40.6693 176.671 39.8872 178.01 40.7752C177.863 39.5358 179.55 38.3986 180.282 37.6005C181.657 36.1006 183.196 34.8283 184.717 33.4781C186.039 32.3044 187.261 31.053 188.495 29.7903C189.126 29.144 189.768 28.5074 190.493 27.967C191.234 27.4149 191.813 27.5233 192.494 27.146C193.582 26.5437 194.24 25.3219 195.334 24.7079C195.827 24.431 196.038 24.7443 196.396 24.3976C196.731 24.0734 197.034 23.0047 196.839 22.5911C196.019 20.8502 190.09 25.4679 189.159 26.0681C177.853 33.3618 168.751 43.4153 163.799 56.0297C163.126 57.7438 159.29 66.9352 163.433 67.0264Z" fill="#0F216F"/>
<path fill-rule="evenodd" clip-rule="evenodd" d="M160.193 300.117C160.964 299.949 161.739 299.78 162.879 299.531C160.841 298.412 160.674 298.469 160.193 300.117Z" fill="#0F216F"/>
<path fill-rule="evenodd" clip-rule="evenodd" d="M200.136 98.3962C201.652 98.2526 204.96 96.6853 204.46 94.5485C203.998 92.5764 202.211 94.7015 200.989 94.4791C199.683 94.242 199.076 91.4478 197.978 94.2976C197.389 95.8279 198.258 98.5742 200.136 98.3962Z" fill="#0F216F"/>
</g>
</svg>
