<svg width="375" height="365" viewBox="0 0 375 365" fill="none" xmlns="http://www.w3.org/2000/svg">
<path fill-rule="evenodd" clip-rule="evenodd" d="M182.277 15.2871C210.559 25.6284 218.104 63.2911 243.272 79.8251C266.279 94.9394 299.982 87.139 320.158 105.867C341.968 126.112 358.045 155.729 357.086 185.472C356.132 215.104 328.804 235.868 315.121 262.169C300.701 289.888 303.745 334.483 274.23 344.739C242.55 355.747 215.767 306.533 182.277 308.329C145.587 310.295 119.258 366.681 84.4509 354.912C52.6824 344.17 55.7423 295.6 48.0767 262.953C42.0651 237.349 48.9913 211.414 44.667 185.472C39.2419 152.927 10.8618 123.334 19.4949 91.4895C28.1127 59.7016 58.8082 37.246 88.637 23.2824C117.501 9.77047 152.345 4.34247 182.277 15.2871Z" fill="#F4F6FF"/>
<mask id="mask0_52_424" style="mask-type:alpha" maskUnits="userSpaceOnUse" x="0" y="0" width="375" height="365">
<rect y="0.655273" width="375" height="363.961" fill="#D9D9D9"/>
</mask>
<g mask="url(#mask0_52_424)">
<path fill-rule="evenodd" clip-rule="evenodd" d="M233.273 230.034C232.602 239.885 219.234 245.007 211.126 247.109C212.751 237.445 214.85 227.426 213.544 217.625C213.114 214.397 212.55 211.185 211.944 207.986C211.72 206.803 211.489 205.621 211.25 204.441C211.192 204.154 210.721 202.898 210.871 202.612C211.139 202.1 213.407 202.18 213.985 202.202C215.474 202.259 216.935 202.636 218.298 203.231C221.161 204.481 223.574 206.634 225.562 209.01C230.25 214.613 233.78 222.605 233.273 230.034ZM217.797 163.067C210.036 167.663 200.689 170.129 191.838 171.331C178.354 173.162 164.586 171.054 151.403 168.133C148.167 167.416 144.937 166.643 141.748 165.735C141.604 175.077 144.232 183.962 149.365 191.753C153.609 198.195 159.148 203.578 163.989 209.545C168.496 215.1 172.13 221.365 172.311 228.696C172.386 231.756 172.135 234.556 169.573 236.538C166.999 238.531 163.522 239.27 160.372 239.724C152.484 240.86 144.222 240.246 136.384 238.995C134.862 238.751 133.343 238.475 131.841 238.129C130.136 237.736 129.538 237.273 128.114 238.554C125.04 241.316 123.63 245.459 122.934 249.423C121.629 256.846 122.072 265.505 123.953 272.829C125.764 279.883 134.316 283.793 140.651 285.498C159.759 290.641 180.842 283.539 195.504 270.896C195.823 270.62 196.14 270.341 196.45 270.054C197.491 272.222 198.628 274.353 199.871 276.412C200.736 277.845 201.646 279.285 202.737 280.561C203.13 281.021 203.593 281.643 204.131 281.945C205.133 282.506 206.152 282.094 207.286 281.896C215.654 280.443 224.003 278.532 231.961 275.523C244.058 270.948 254.907 263.41 260.641 251.504C263.538 245.49 265.048 238.9 265.779 232.292C266.617 224.704 266.799 216.948 264.663 209.552C260.751 196 250.768 185.013 239.836 176.539C233.072 171.295 225.635 166.557 217.797 163.067Z" fill="#FCC610"/>
<path fill-rule="evenodd" clip-rule="evenodd" d="M354.535 73.3222C352.766 74.0251 350.862 74.2206 348.98 74.3582C347.504 74.4658 346.346 75.0576 344.955 75.091C341.083 75.1834 337.194 75.3573 333.34 75.9359C329.47 76.5175 325.905 75.7582 322.849 78.6663C321.761 79.7011 320.397 80.8908 321.051 82.5611C321.351 83.3261 321.773 83.8747 322.022 84.6958C322.304 85.6241 322.654 86.5009 323.061 87.3845C323.843 89.0797 327.755 95.3926 324.58 96.1648C321.138 97.0018 316.47 96.0235 313.154 95.066C311.22 94.5071 309.316 93.8524 307.409 93.2071C305.9 92.6963 303.917 92.4069 302.526 91.6066C301.604 91.0758 301.412 90.1698 300.803 89.3089C299.694 87.7429 298.657 86.4092 297.224 85.1061C294.251 82.4038 290.534 80.5688 286.868 78.9558C286.631 78.8512 286.199 78.6072 285.944 78.5833C285.668 78.5576 285.364 78.8417 285.186 78.8073C284.697 78.7122 284.527 78.4049 283.992 78.101C283.273 77.6929 280.343 76.3353 279.831 77.4027C280.31 76.0003 280.66 76.405 281.958 76.6085C282.529 76.6987 282.912 76.4368 283.425 76.463C283.899 76.4868 284.093 76.7562 284.488 76.829C285.213 76.962 285.887 76.862 286.643 76.8563C286.846 76.408 287.135 76.4114 287.508 76.8661C287.716 76.9336 287.925 77.001 288.133 77.0688C288.886 77.2753 289.691 77.2359 290.462 77.2966C291.619 77.3883 294.637 78.8001 295.217 77.3712C295.837 75.8454 293.955 75.4649 293.641 74.4002C293.335 73.3556 294.769 72.7425 295.344 72.1117C295.999 71.3944 296.4 70.7646 297.169 70.1326C297.619 69.7617 298.21 69.4158 298.544 68.9217C298.851 68.467 298.837 67.7319 299.236 67.353C299.711 66.9013 299.784 67.2139 300.216 66.9957C301.064 66.5672 300.689 66.5888 301.191 66.003C301.619 65.5021 301.935 65.5172 302.496 65.1334C303.317 64.5715 303.605 63.4734 304.403 62.8694C304.987 62.4273 305.916 62.428 306.428 61.9688C306.729 61.6982 306.636 61.2599 306.897 61.0045C307.398 60.5138 307.74 60.7131 308.365 60.5513C309.419 60.2785 309.76 59.6961 310.535 59.0217C311.244 58.406 311.694 58.4086 312.581 58.1532C313.793 57.8046 314.576 56.8915 315.669 56.3549C316.699 55.8502 317.762 55.4964 318.803 54.9587C319.556 54.5703 320.28 54.3293 320.967 53.933C321.199 53.7992 321.219 53.3093 321.518 53.243C321.861 53.1665 322.136 53.7375 322.502 53.7674C323.267 53.8303 324.139 52.9808 324.642 52.489C324.861 52.2753 325.156 51.6975 325.438 51.5781C326.026 51.328 326.377 51.8233 326.901 51.6277C327.637 51.3534 327.345 50.5501 327.796 50.1072C328.19 49.7207 329.027 49.7469 329.728 49.8693C332.549 50.3611 328.158 52.3541 327.333 52.7573C325.944 53.4363 315.84 58.3756 318.204 60.8389C319.454 62.1419 322.508 61.1621 323.867 60.8188C326.251 60.2167 328.735 59.0577 331.18 58.7917C331.482 58.7587 332.384 58.9751 332.63 58.8807C333.185 58.6682 333.047 58.243 333.498 58.0195C334.178 57.6838 335.567 57.7001 336.257 57.7755C336.796 57.8346 337.387 58.1566 337.936 58.1131C338.54 58.0649 339.124 57.7133 339.724 57.6C340.749 57.4068 341.811 57.5015 342.847 57.5314C344.337 57.575 347.316 57.8001 345.151 59.7795C343.399 61.3815 340.368 62.0749 338.158 62.774C334.889 63.8072 331.678 64.7473 328.45 65.9245C326.251 66.7263 321.561 68.1347 324.179 71.1401C324.437 70.8961 324.695 70.6525 324.953 70.4085C325.259 70.7173 325.574 71.3182 326.063 71.3357C326.47 71.3501 326.321 70.9128 326.705 70.776C327.915 70.3471 329.572 70.3797 330.847 70.299C334.041 70.0966 337.224 69.6734 340.422 69.5423C343.434 69.4188 346.478 69.5794 349.431 70.2111C350.191 70.3736 357.273 72.2337 354.535 73.3222ZM328.415 104.227C328.575 105.568 327.98 106.654 327.815 107.949C327.615 109.516 327.761 110.896 327.317 112.454C326.454 115.482 325.84 118.579 324.913 121.589C323.277 126.904 320.636 131.598 317.92 136.42C316.534 138.879 314.447 140.909 312.54 142.966C310.586 145.073 309.025 147.148 306.689 148.878C302.02 152.337 296.983 155.413 291.456 157.282C285.671 159.238 279.588 159.83 273.512 159.582C270.815 159.471 267.957 159.744 265.303 159.308C262.481 158.844 259.424 158.274 256.65 157.589C251.559 156.332 246.654 154.199 241.683 152.293C236.13 150.165 231.131 147.448 226.068 144.379C224.729 143.567 223.313 143.188 222.056 142.205C220.997 141.377 219.955 140.585 218.842 139.829C217.563 138.961 216.34 138.012 215.034 137.188C214.253 136.695 213.156 136.213 212.746 135.32C212.183 134.093 212.862 132.552 213.213 131.361C213.67 129.811 214.156 128.281 214.706 126.762C215.637 124.19 218.005 120.223 216.703 117.503C213.956 119.205 212.745 122.549 211.571 125.392C210.169 128.789 209.19 132.177 208.979 135.861C208.554 143.272 209.794 151.071 212.483 157.981C212.883 159.007 213.584 160.12 213.068 161.218C212.527 162.37 211.059 163.343 209.93 163.84C206.359 165.416 202.774 165.875 199.044 166.746C198.028 166.983 196.917 167.695 195.964 167.785C195.321 167.846 194.789 167.635 194.053 167.64C193.313 167.645 192.734 168.059 192.072 168.103C191.494 168.142 190.981 167.805 190.43 167.836C189.197 167.908 188.97 170.021 188.359 168.161C188.248 168.238 187.636 168.931 187.559 168.931C187.385 168.932 187.077 168.415 186.911 168.322C186.587 168.143 186.16 168.133 185.797 168.086C184.998 167.982 184.135 167.971 183.348 168.155C181.888 168.495 180.419 168.352 179.171 168.327C178.887 168.321 178.686 168.55 178.332 168.537C178.172 168.53 177.94 168.246 177.769 168.202C176.782 167.947 175.758 168.137 174.752 168.081C172.39 167.951 170.109 167.888 167.802 167.366C163.075 166.296 158.255 166.081 153.509 165.103C151.091 164.604 148.729 164.331 146.348 163.674C145.512 163.443 144.654 163.334 143.913 163.019C143.205 162.718 143.483 162.316 142.385 163.122C141.891 161.913 141.833 162.036 140.641 161.636C140.18 161.481 139.121 161.096 138.778 160.791C138.744 160.761 138.01 158.919 137.947 158.693C137.642 157.593 137.896 156.335 138.024 155.228C138.311 152.732 138.728 150.256 138.753 147.741C138.763 146.631 138.963 146.599 139.309 145.763C139.415 145.504 139.729 145.524 139.755 145.129C139.79 144.603 139.252 144.237 139.31 143.623C139.388 142.796 140.218 141.959 140.509 141.189C140.859 140.261 140.854 139.281 141.064 138.321C141.343 137.044 141.883 135.845 142.155 134.563C142.387 133.476 142.409 132.612 142.987 131.681C143.566 130.75 143.396 129.991 143.856 129.064C144.279 128.215 144.814 127.91 145.104 126.884C145.805 124.402 146.871 121.944 148.38 119.84C149.708 125.116 151.12 130.567 154.817 134.738C156.34 136.455 158.306 138.188 160.602 138.711C163.198 139.302 165.274 137.771 166.965 135.957C170.992 131.635 172.661 126.81 172.904 120.949C172.964 119.493 172.956 118.034 172.936 116.576C172.927 115.927 172.594 114.262 173.039 113.717C173.526 113.119 174.917 113.493 175.641 113.098C176.531 112.613 177.509 111.315 177.111 110.244C179.483 111.318 181.751 112.732 184.389 113.031C185.434 113.15 186.546 112.969 187.48 112.919C187.452 112.921 188.203 113.074 188.248 113.084C188.433 112.87 188.634 112.818 188.849 112.928C189.041 112.948 189.181 113.051 189.268 113.237C193.028 113.613 196.814 111.755 200.032 109.787C201.913 108.637 203.978 106.935 204.506 104.696C204.694 103.897 204.531 103.145 205.357 102.737C206.028 102.406 207.323 102.884 208.031 102.936C210.521 103.118 212.976 102.882 215.407 103.624C216.891 104.077 219.481 107.251 220.515 105.018C220.964 105.44 220.72 106.19 221.198 106.6C221.615 106.957 223.015 107.209 223.591 107.515C224.483 107.988 225.007 108.617 225.788 109.186C226.747 109.885 227.752 109.939 228.681 110.759C231.898 113.6 235.667 115.658 239.259 118.014C243.521 120.809 247.293 124.104 251.867 126.384C256.545 128.715 261.071 130.662 266.182 131.875C268.501 132.426 270.878 132.885 273.259 133.055C274.381 133.134 275.452 133.094 276.535 133.431C277.193 133.635 277.406 133.738 278.052 133.757C278.428 133.768 278.973 133.55 279.437 133.558C280.389 133.576 280.876 133.536 281.736 133.852C282.708 134.208 283.517 134.422 284.624 134.453C285.898 134.489 286.648 133.999 287.805 133.698C288.738 133.455 289.578 133.571 290.413 133.065C294.123 130.821 297.104 127.394 299.05 123.503C301.283 119.038 303.004 113.594 303.354 108.59C303.555 105.726 302.923 102.932 301.829 100.303C301.52 99.5609 299.668 96.4013 300.239 95.8272C300.886 95.1751 303.004 96.6699 303.601 96.9946C305.496 98.0241 308.917 98.3541 310.245 100.086C310.583 99.437 312.464 100.399 313.068 100.67C313.567 100.894 313.708 101.299 314.336 101.347C314.928 101.393 315.539 100.921 316.082 100.771C315.685 101.879 317.021 101.931 317.937 101.99C318.596 102.033 319.304 101.929 319.892 101.887C321.015 101.807 321.034 101.555 322.06 100.979C322.02 101.401 322.066 101.812 322.197 102.215C322.856 101.26 324.115 101.923 325.006 101.503C324.362 100.526 327.112 100.258 327.753 100.463C329.365 100.981 328.272 103.038 328.415 104.227ZM202.16 171.412C203.224 171.095 204.295 170.805 205.362 170.502C204.553 171.244 203.714 172.582 202.559 172.791C201.167 173.042 200.619 171.872 202.16 171.412ZM149.635 171.944C151.426 172.158 153.377 171.994 154.947 173.052C154.182 173.932 153.685 174.853 152.408 174.349C151.336 173.925 150.453 172.716 149.635 171.944ZM209.476 220.141C208.3 219.086 208.454 218.614 209.007 217.248C209.244 216.661 209.621 214.836 210.513 215.371C210.829 215.56 211.213 217.549 211.27 217.953C211.396 218.854 210.839 221.363 209.476 220.141ZM216.109 214.015C215.693 212.488 215.708 210.826 215.3 209.261C214.869 207.609 214.338 205.952 214.186 204.245C220.4 205.342 223.93 211.51 226.622 216.657C228.052 219.392 229.454 222.417 229.994 225.474C230.52 228.453 229.606 230.715 228.546 233.371C228.005 234.726 227.111 235.196 226.067 236.092C225.142 236.885 224.796 238.224 223.833 238.938C223.121 239.464 222.195 239.738 221.451 240.27C220.716 240.795 219.98 241.316 219.221 241.807C218.353 242.367 215.753 244.412 214.581 243.975C213.704 243.649 214.095 242.576 214.316 241.903C214.781 240.485 215.108 239.119 215.395 237.64C216.162 233.695 216.578 229.775 216.776 225.762C216.97 221.843 217.151 217.84 216.109 214.015ZM210.912 231.81C211.005 232.004 211.393 233.66 210.527 233.32C209.925 233.083 210.823 232.114 210.912 231.81ZM214.573 166.051C215.306 165.748 215.6 166.644 216.245 166.671C217.101 166.706 217.28 165.755 218.179 165.727C220.375 165.658 223.557 167.78 225.342 168.887C224.468 169.993 224.107 171.123 224.542 172.484C224.925 173.683 226.388 175.024 226.335 176.294C226.28 177.568 224.696 178.388 224.203 179.522C223.749 180.563 223.576 182.645 224.977 183.103C227.386 183.893 227.937 179.38 229.763 179.345C230.544 179.33 231.558 180.798 232.12 181.255C233.377 182.278 234.795 183.026 236.257 183.706C237.245 184.164 238.619 185.068 239.351 183.835C239.937 182.848 239.458 181.283 238.888 180.434C238.234 179.459 232.373 174.998 232.744 174.605C232.941 174.396 234.4 174.974 234.607 175.149C235.074 175.545 235.246 176.189 235.714 176.61C236.429 177.253 237.352 177.507 238.236 177.805C240.081 178.425 241.249 180.605 243.036 181.621C244.068 182.207 244.697 183.331 245.57 184.202C246.712 185.342 247.876 186.537 247.704 188.216C247.585 189.379 247.412 192.089 246.754 193.07C246.04 194.136 244.852 193.727 243.767 193.979C242.546 194.262 241.569 195.214 241.812 196.575C242.065 197.989 243.196 198.091 244.378 198.126C247.711 198.227 246.484 200.344 247.646 202.669C248.278 203.931 249.331 204.427 250.056 202.949C250.639 201.76 249.597 199.886 250.23 198.87C251.002 197.633 255.131 197.97 255.993 198.931C256.645 199.66 256.991 200.662 257.642 201.424C258.63 202.581 259.036 204.203 259.629 205.622C260.259 207.129 260.808 208.657 261.29 210.218C261.629 211.314 262.36 213.051 260.609 212.114C259.386 211.46 258.472 209.985 256.923 209.939C255.39 209.892 254.516 211.485 254.964 212.869C255.397 214.209 257.374 214.799 257.602 216.158C257.854 217.644 255.308 219.16 254.536 220.253C252.756 222.769 254.244 225.601 257.161 223.465C258.195 222.708 259.278 221.181 260.444 220.703C262.29 219.946 262.279 222.751 263.163 223.783C263.639 224.338 263.81 223.774 263.529 224.604C263.424 224.909 262.898 225.005 262.838 225.386C262.796 225.664 263.045 225.812 263.054 226.028C263.083 226.759 263.085 226.866 262.92 227.661C262.738 228.542 262.804 229.637 262.75 230.533C262.624 232.58 262.597 234.534 262.382 236.58C262.263 237.718 262.013 240.038 263.357 240.592C262.878 241.342 262.241 243.428 261.301 243.271C261.377 243.764 261.335 244.395 261.814 244.718C261.929 244.417 262.043 244.116 262.158 243.814C262.421 244.503 262.189 244.582 262.174 245.05C262.193 244.47 261.645 245.859 261.941 245.687C261.689 245.898 261.356 246.019 260.977 246.292C260.447 246.673 260.168 247.2 259.757 247.716C259.012 248.648 259.055 249.589 258.404 250.561C257.479 251.94 256.293 253.301 255.32 254.679C254.527 255.8 253.016 256.447 252.381 257.653C251.977 258.42 251.816 259.311 251.127 259.85C250.139 260.623 248.82 261.35 247.747 262.148C247.073 262.649 246.56 263.345 245.887 263.832C245.546 264.078 244.521 264.328 244.519 264.83C243.228 264.468 242.314 263.15 241.299 262.347C240.62 261.81 239.005 261.114 239.102 260.039C239.183 259.159 240.433 258.068 240.721 257.146C240.965 256.364 241.305 254.907 240.63 254.239C239.212 252.839 237.605 255.844 236.844 256.644C235.274 258.294 234.607 256.63 233.316 255.432C231.255 253.519 229.959 255.504 230.684 257.887C231.052 259.093 232.452 260.169 232.542 261.401C232.642 262.755 231.176 263.435 230.595 264.517C230.047 265.537 229.794 267.328 230.824 268.173C231.96 269.104 232.948 268.002 233.691 267.143C234.268 266.475 234.91 265.006 235.847 264.923C237.021 264.819 238.947 266.951 239.841 267.61C238.483 268.003 237.667 269.139 236.519 269.867C235.038 270.807 232.971 271.029 231.314 271.674C229.753 272.282 228.348 272.777 226.861 273.531C225.097 274.425 222.94 274.648 221.072 275.3C219.404 275.881 217.822 276.697 216.119 277.177C214.199 277.719 212.206 278.044 210.27 278.533C208.615 278.951 206.673 279.353 204.968 279.356C203.242 279.359 203.278 278.291 202.726 276.867C202.071 275.176 200.985 273.692 200.292 272.042C199.633 270.473 200.629 269.877 201.583 268.676C202.482 267.544 202.244 267.367 203.403 268.162C204.93 269.208 205.938 268.5 207.125 267.298C208.181 266.229 208.569 265.34 210.089 266.085C211.61 266.829 213.059 268.042 214.693 268.527C215.981 268.91 216.94 268.632 217.155 267.223C217.388 265.702 216.521 264.622 215.427 263.718C214.595 263.031 212.776 262.216 212.472 261.1C212.151 259.925 213.84 258.211 214.02 256.896C214.248 255.238 213.533 254.018 211.96 255.166C210.818 255.999 210.058 257.806 208.473 257.918C208.913 256.071 209.868 254.43 210.687 252.738C211.374 251.321 211.962 249.713 213.805 249.555C214.403 249.504 214.792 249.566 215.362 249.464C216.115 249.328 217.136 249.22 217.941 249.017C219.834 248.539 221.506 247.077 223.249 246.239C223.649 247.314 224.356 250.378 225.984 248.589C227.188 247.266 225.854 244.989 226.963 243.517C229.251 240.48 234.235 242.71 237.24 241.144C238.549 240.463 239.614 238.289 237.769 237.633C236.691 237.25 233.578 238.664 232.929 237.622C232.467 236.879 234.405 233.975 234.639 233.177C235.368 230.693 235.249 228.114 235.249 225.555C236.712 226.154 238.563 227.555 240.139 227.746C241.76 227.943 242.045 226.04 241.62 224.79C241.035 223.068 239.084 221.657 237.747 220.547C237.158 220.058 235.615 219.271 235.292 218.528C234.958 217.76 235.436 217.388 235.811 216.721C236.396 215.678 237.813 212.983 236.271 212.007C234.852 211.108 234.056 213.627 233.152 214.166C231.618 215.08 231.092 212.985 230.482 211.919C229.376 209.984 227.841 208.257 226.464 206.515C225.211 204.93 224.438 203.858 224.255 201.838C224.117 200.308 223.804 199.124 225.607 198.776C228.805 198.16 233.487 199.678 236.085 197.076C237.447 195.711 236.474 194.3 234.754 194.371C232.494 194.463 230.346 194.574 228.071 194.391C226.863 194.294 224.335 194.587 223.725 193.341C222.939 191.736 224.271 189.158 222.825 187.752C220.978 185.956 220.525 190.015 220.464 191.135C220.419 191.952 220.628 193.194 220.12 193.901C219.646 194.559 218.78 194.55 218.079 194.788C216.314 195.388 215.402 197.558 217.744 198.016C218.532 198.171 219.63 197.946 220.285 198.531C220.971 199.142 220.709 200.228 220.773 201.053C219.132 199.15 215.722 199.993 213.5 199.287C212.33 198.915 212.133 198.42 211.64 197.286C211.045 195.915 209.687 194.18 209.635 192.664C209.591 191.376 210.663 190.407 211.164 189.297C211.593 188.345 211.982 186.795 211.918 185.726C211.765 183.148 207.115 185.78 206.157 186.766C204.419 188.556 202.276 190.871 203.219 193.406C204.059 195.669 204.505 196.951 201.589 196.774C200.522 196.708 198.28 196.92 197.451 196.469C196.837 196.134 197.068 195.535 197.047 194.665C197.03 193.912 197.087 192.771 196.604 192.113C194.903 189.798 194.505 195.558 193.55 196.182C192.058 197.157 188.899 196.135 189.143 199.031C189.356 201.564 192.78 200.53 193.728 202.709C194.183 203.76 194.087 204.982 194.661 205.995C195.48 207.44 196.487 207.363 197.03 205.857C197.411 204.8 196.903 203.712 197.196 202.714C197.62 201.272 199.636 201.405 200.876 201.242C202.383 201.044 203.698 200.664 205.131 200.2C206.9 199.628 206.804 200.568 207.092 201.929C207.426 203.507 207.937 205.029 208.25 206.632C208.542 208.125 209.317 209.733 209.443 211.227C209.539 212.37 209.152 212.265 208.206 212.925C207.172 213.645 206.034 215.518 204.834 215.826C203.029 216.29 201.21 212.163 199.568 214.275C198.863 215.181 199.136 217.111 199.637 218.048C200.299 219.285 201.517 219.6 200.497 221.018C199.73 222.082 198.766 222.907 198.694 224.34C198.626 225.671 199.531 226.929 200.945 226.538C202.087 226.223 202.763 225.053 203.628 224.342C205.121 223.115 206.348 224.252 207.876 224.946C209.08 225.493 211.291 225.849 211.895 227.134C212.661 228.766 211.679 229.396 210.255 228.932C210.809 230.756 210.08 231.815 209.879 233.7C209.717 235.226 209.366 236.622 209.143 238.097C208.846 240.067 208.815 239.853 206.788 239.92C205.066 239.977 203.392 239.931 201.673 239.855C200.158 239.789 199.127 239.926 199.059 238.097C199.028 237.29 199.537 234.554 197.947 234.883C196.547 235.172 196.95 237.672 196.482 238.611C195.804 239.971 194.658 239.555 193.383 239.891C192.085 240.233 191.037 241.191 191.371 242.671C191.729 244.251 193.177 244.141 194.436 244.506C196.374 245.069 195.949 247.921 197.08 249.47C197.542 250.102 198.028 250.74 198.803 250.222C200.225 249.27 198.883 246.946 199.259 245.779C199.654 244.553 200.985 244.804 202.244 244.645C204.102 244.41 206.048 243.514 207.899 243.525C207.544 244.593 206.549 245.215 206.191 246.339C206 246.943 206.179 248.069 205.912 248.567C205.626 249.103 204.723 249.263 204.349 250.009C203.86 250.984 203.709 252.03 203.137 252.985C201.785 255.246 200.62 257.556 199.182 259.793C197.698 262.103 196.098 264.302 194.231 266.305C192.419 268.248 191.879 267.307 190.322 265.718C189.689 265.072 188.343 264.323 188.167 263.358C187.993 262.406 188.78 261.629 189.211 260.855C189.782 259.828 190.814 258.06 190.563 256.828C190.091 254.513 188.022 256.644 187.238 257.511C185.868 259.024 185.102 260.615 183.032 259.42C181.707 258.655 180.035 256.559 178.296 257.334C176.713 258.04 177.156 260.077 178.13 261.111C178.676 261.69 179.453 262.022 180.032 262.564C181.278 263.732 180.573 264.049 180.004 265.358C179.539 266.43 179.471 268.536 180.329 269.428C182.018 271.183 183.324 267.642 184.891 267.57C185.634 267.536 188.722 269.563 188.942 270.292C189.328 271.573 185.997 273.101 185.112 273.702C183.053 275.099 180.81 276.524 178.494 277.45C175.76 278.544 177.797 275.098 176.303 273.953C174.36 272.464 174.21 276.544 174.01 277.558C173.48 280.254 170.632 280.324 168.335 280.993C166.872 281.419 165.408 281.871 163.93 282.242C162.676 282.556 161.272 282.548 160.056 282.937C158.99 283.279 158.261 283.971 157.068 283.979C156.681 283.982 156.343 283.851 155.97 283.842C155.215 283.823 154.524 284.254 153.803 284.21C152.605 284.135 153.126 283.757 152.709 282.921C152.318 282.136 151.321 281.847 150.546 281.602C148.323 280.9 146.472 281.515 146.15 278.689C146.051 277.821 146.182 274.257 144.531 274.673C142.602 275.159 144.299 279.395 143.102 280.457C142.52 280.973 141.64 280.715 140.938 280.868C139.786 281.119 139.28 281.989 138.019 281.931C136.954 281.882 135.963 281.409 135.035 280.94C133.653 280.24 132.003 279.776 130.85 278.708C129.269 277.244 128.576 274.965 127.902 272.986C126.911 270.071 126.488 267.166 126.329 264.109C126.274 263.043 125.821 262.291 125.632 261.314C125.431 260.274 126.025 260.065 126.162 259.08C126.295 258.122 126.23 257.099 126.432 256.073C126.721 254.597 126.823 253.088 127.103 251.608C127.568 249.16 128.272 246.729 128.851 244.303C129.031 243.55 129.356 241.134 130.286 240.902C130.972 240.731 132.556 241.752 133.192 242.053C134.45 242.646 135.53 243.465 136.876 243.875C137.57 244.087 138.446 244.066 138.902 244.711C139.622 245.731 139.04 247.729 139.338 248.934C139.703 250.41 140.913 251.037 141.887 249.555C142.406 248.765 142.268 247.822 142.338 246.949C142.438 245.69 142.46 245.385 143.823 245.47C145.203 245.556 146.551 246.078 147.966 246.141C149.243 246.198 150.525 246.163 151.8 246.093C154.896 245.923 157.728 245.419 160.632 244.317C162.599 243.57 164.88 241.938 167.047 241.995C170.107 242.076 169.279 244.909 169.698 247.029C169.953 248.318 172.11 252.278 172.939 249.065C173.348 247.475 171.983 245.158 172.792 243.722C173.747 242.026 177.259 243.433 178.857 243.04C180.15 242.722 182.311 240.889 181.398 239.307C180.965 238.558 180.125 238.7 179.376 238.644C177.956 238.538 176.546 238.344 175.139 238.137C174.338 238.019 173.114 237.95 172.794 237.03C172.522 236.25 173.796 234.225 174.073 233.478C174.987 231.006 175.317 228.995 175.321 226.298C175.322 225.083 175.401 223.801 175.206 222.599C175.134 222.159 174.473 220.721 174.783 220.3C175.199 219.734 176.05 220.452 176.392 220.877C177.071 221.722 176.835 221.655 176.449 222.53C175.881 223.819 174.776 226.521 176.65 227.513C178.609 228.55 179.317 225.045 181.173 225.429C182.039 225.608 182.893 226.746 183.59 227.278C184.407 227.901 185.288 228.561 186.248 228.943C187.822 229.57 189.591 229.1 188.955 227.12C188.453 225.558 186.867 224.252 185.732 223.146C183.925 221.382 184.006 220.641 185.255 218.564C185.778 217.695 187.785 214.004 185.459 213.704C184.228 213.545 182.896 215.541 182.246 216.305C181.13 217.616 180.49 218.179 178.829 217.126C177.206 216.098 176.452 215.238 174.489 215.143C172.23 215.034 171.214 211.639 170.017 209.896C166.763 205.161 161.782 202.819 157.583 199.191C155.536 197.423 154.155 195.11 152.598 192.934C151.857 191.897 150.9 191.036 150.296 189.906C149.916 189.196 148.887 187.484 149.155 186.645C149.488 185.602 151.288 184.958 152.037 184.221C152.666 183.603 153.001 182.831 153.99 183.068C154.869 183.278 155.662 184.469 156.381 184.992C157.087 185.506 157.883 185.982 158.666 186.366C160.082 187.061 161.792 187.432 161.874 185.32C161.947 183.492 160.28 181.535 159.076 180.303C158.2 179.405 156.873 178.625 157.046 177.201C157.132 176.494 157.732 175.236 158.082 174.644C159.29 172.604 162.976 173.848 164.979 173.979C167.392 174.137 170.053 173.732 171.971 175.439C172.597 175.996 174.047 177.09 174.354 177.866C174.711 178.768 174.128 179.174 173.803 180.047C173.384 181.176 173.095 183.404 174.303 184.182C176.318 185.481 177.368 181.629 179.463 182.471C181.45 183.271 182.838 185.567 185.106 185.931C188.074 186.407 186.384 182.728 185.357 181.646C184.025 180.243 181.442 178.792 182.288 176.717C182.529 176.124 183.081 174.887 183.578 174.519C184.55 173.798 186.117 174.194 187.229 174.205C190.038 174.235 192.69 174.004 195.443 173.513C196.272 173.365 196.461 173.247 197.046 173.866C197.856 174.721 198.281 175.836 199.223 176.677C197.862 178.143 195.845 179.874 196.792 182.132C197.605 184.075 199.39 183.122 200.597 182.084C201.164 181.597 201.75 180.565 202.501 180.37C203.477 180.116 204.573 181.002 205.371 181.452C206.57 182.127 209.133 184.13 210.494 182.948C212.295 181.384 210.164 179.031 208.924 178.065C208.174 177.481 207.174 177.065 206.543 176.343C205.703 175.384 206.196 175.243 206.705 174.378C207.636 172.797 207.295 170.759 208.785 169.523C209.611 168.837 210.793 168.407 211.736 167.904C212.665 167.409 213.662 166.428 214.573 166.051ZM229.756 172.204C229.394 171.982 229.031 171.76 228.669 171.538C229.498 171.134 230.044 171.182 229.756 172.204ZM249.751 191.428C249.897 190.69 250.466 189.369 251.25 190.059C251.755 190.503 251.203 192.17 252.404 191.709C252.466 192.771 251.675 192.681 252.842 193.626C251.37 193.455 249.338 193.522 249.751 191.428ZM192.618 280.949C192.989 279.955 192.986 278.413 194.127 279.322C194.186 278.117 193.901 274.298 196.088 274.453C196.979 274.516 196.969 275.302 197.205 275.984C197.616 277.172 198.31 278.255 198.894 279.362C196.724 279.45 194.553 279.946 192.618 280.949ZM193.328 294.677C194.568 295.613 195.19 294.507 196.36 294.104C197.44 293.731 198.562 293.954 199.759 293.69C201.243 293.362 202.991 293.412 204.441 293.399C204.799 293.396 205.546 293.452 205.907 293.494C206.565 293.569 206.506 293.705 207.187 293.889C207.45 293.828 207.715 293.784 207.984 293.757C208.312 293.742 208.571 293.878 208.761 294.164C209.373 294.369 209.596 294.233 210.182 294.376C211.579 294.717 212.621 295.558 213.533 296.673C215.389 298.943 215.444 302.355 215.402 305.165C215.39 305.965 215.329 306.761 215.417 307.56C215.498 308.292 216.015 309.398 215.804 310.126C215.484 311.227 214.492 310.98 213.337 311.029C212.657 311.058 211.978 311.496 211.437 311.536C210.914 311.573 210.703 311.38 210.173 311.262C208.792 310.952 207.161 311.393 205.798 311.77C204.399 312.156 203.172 312.537 201.754 312.81C200.831 312.987 200 313.089 199.069 313.205C198.306 313.3 197.976 313.702 197.31 313.868C196.668 314.027 196.042 313.788 195.393 313.914C194.51 314.085 193.894 314.733 193.089 315.056C191.98 315.501 190.206 314.836 189.715 316.208C189.522 314.885 188.253 315.244 187.308 315.127C185.751 314.934 184.217 314.236 182.72 313.79C181.492 313.425 177.247 310.06 176.434 311.426C176.435 311.288 176.583 310.506 176.455 310.416C176.002 310.097 176.005 310.272 175.518 310.073C174.772 309.768 174.457 309.492 173.924 308.978C172.846 307.939 171.394 307.395 170.258 306.452C167.404 304.083 166.427 299.203 165.731 295.806C164.82 297.421 165.155 295.349 165.313 294.657C165.685 293.023 165.206 292.218 165.098 290.64C164.998 289.189 165.66 288.901 166.97 288.75C168.584 288.563 170.138 288.301 171.72 287.898C173.23 287.513 174.709 287.079 176.072 286.314C177.319 285.613 178.627 285.338 179.902 284.725C181.309 284.048 182.687 283.337 184.106 282.678C184.746 282.382 187.562 280.257 188.05 280.386C189.054 280.652 188.107 282.409 187.801 282.87C187.014 284.055 185.724 284.604 184.56 285.349C183.509 286.021 180.324 289.204 183.558 288.885C185.7 288.674 187.152 286.428 188.523 288.987C189.007 289.891 189.718 290.616 189.162 291.55C188.385 292.853 186.145 293.474 184.97 294.351C183.969 295.098 181.92 298.621 183.984 298.999C184.578 299.107 185.493 298.967 185.934 298.506C186.232 298.195 186.21 297.555 186.512 297.342C186.938 297.04 187.767 297.414 188.254 297.248C188.948 297.012 189.11 296.634 189.365 295.967C190.106 296.305 190.117 296.759 190.963 296.323C191.243 296.178 191.346 295.647 191.671 295.506C192.107 295.315 192.237 295.939 192.477 295.847C193.125 295.598 193.123 295.318 193.328 294.677ZM148.857 284.314C147.615 284.407 146.258 284.507 145.198 283.715C146.486 283.793 147.622 284.084 148.913 283.818C149.426 283.712 150.248 283.227 150.774 283.396C152.642 283.995 149.355 284.276 148.857 284.314ZM145.407 175.009C145.388 174.572 145.018 168.692 147.026 171.001C147.576 171.633 146.983 172.479 146.905 173.178C146.773 174.356 147.186 175.536 147.806 176.528C148.385 177.453 149.466 178.263 149.304 179.469C149.162 180.527 148.094 181.43 147.568 182.309C146.274 180.269 145.511 177.463 145.407 175.009ZM140.992 113.298C136.338 113.788 131.707 114.655 127.219 115.992C122.813 117.306 118.706 119.359 114.566 121.326C113.713 117.672 112.819 114.028 111.976 110.371C111.571 108.611 111.183 106.847 110.804 105.081C110.534 103.825 109.551 101.485 109.961 100.249C110.179 99.595 110.466 99.5924 110.934 99.1881C111.22 98.9414 111.718 98.3382 112.014 98.209C112.736 97.8953 114.589 97.6202 115.328 97.6649C116.001 97.7054 116.353 97.973 117.045 97.7793C117.635 97.6145 118.13 97.161 118.684 96.912C120.092 96.2789 121.849 96.0667 123.355 95.7317C124.804 95.4093 126.3 95.3377 127.753 95.0183C129.025 94.7383 129.63 93.8016 130.715 93.8353C133.539 93.9236 136.662 93.5928 139.465 92.918C142.609 92.161 146.029 92.3072 149.254 92.2261C150.539 92.1939 151.442 91.9048 151.449 93.3356C151.456 95.0819 150.759 97.042 150.403 98.7467C149.614 102.526 148.946 106.2 148.647 110.038C148.498 111.958 147.711 111.823 146.151 112.412C144.415 113.067 142.839 113.104 140.992 113.298ZM116.521 152.075C117.668 152.244 117.537 149.108 117.621 148.47C120.355 153.627 123.434 158.589 125.843 163.915C126.406 165.161 126.918 166.435 127.513 167.665C127.92 168.507 128.831 169.638 128.809 170.618C128.786 171.641 127.96 172.024 127.089 172.403C126.149 172.812 125.781 173.017 125.118 172.543C124.316 171.969 123.646 170.203 123.15 169.351C122.393 168.05 121.669 166.731 120.928 165.422C119.585 163.049 118 160.777 116.897 158.286C115.863 155.952 114.299 153.943 113.185 151.651C112.082 149.38 110.572 147.227 109.304 145.005C110.578 144.475 112.165 143.151 113.613 143.224C115.107 143.3 115.071 144.743 115.135 145.946C115.204 147.222 114.777 151.817 116.521 152.075ZM120.194 175.373C119.512 176.182 117.974 176.658 117.03 177.107C115.724 177.728 114.387 178.281 113.087 178.915C108.821 180.996 104.573 182.902 100.228 184.813C97.9817 185.801 95.7629 186.852 93.571 187.954C92.4227 188.532 89.8929 190.556 88.5716 190.608C87.0574 190.666 87.0218 187.608 86.6881 186.461C86.4077 185.501 85.8874 184.754 85.5374 183.844C85.3948 183.472 85.5057 183.191 85.2881 182.822C85.0406 182.403 84.3475 182.065 83.991 181.703C82.4776 180.166 81.2229 178.209 79.9444 176.477C78.7733 174.89 76.7759 172.904 76.214 170.96C75.1096 167.138 81.5267 165.023 83.982 163.487C88.2806 160.799 92.6001 158.038 96.6979 155.051C98.5644 153.69 100.392 152.276 102.268 150.927C103.143 150.298 105.57 147.85 106.693 148.722C107.111 149.047 107.119 149.946 107.294 150.417C107.676 151.446 108.255 152.344 108.842 153.267C109.363 154.085 110.104 154.93 110.429 155.843C110.818 156.93 110.799 157.546 111.51 158.522C112.802 160.297 113.412 162.344 114.614 164.153C115.772 165.897 116.885 167.184 117.643 169.133C118.077 170.25 118.763 171.242 119.369 172.269C119.654 172.754 119.953 173.231 120.209 173.733C120.667 174.63 120.828 174.619 120.194 175.373ZM83.5279 190.3C82.708 190.887 81.501 189.901 80.7057 189.887C80.3598 189.881 80.0163 190.151 79.7851 190.144C79.09 190.123 78.5221 189.656 77.8826 189.439C74.9291 188.434 71.408 188.396 68.885 186.355C63.8727 182.302 66.2625 174.169 67.1751 168.9C67.3613 167.825 67.6958 166.337 66.8278 165.457C65.8762 164.493 64.4452 165.068 63.5742 165.849C62.6805 166.648 62.0732 167.769 61.3305 168.704C60.1473 170.192 58.8559 171.598 57.5517 172.98C52.9174 177.888 48.0099 183.503 42.2772 187.104C39.8928 188.603 37.7349 190.633 35.1215 191.774C31.978 193.148 35.2051 187.846 35.7704 186.985C39.4701 181.347 44.8562 176.884 49.38 171.935C50.2336 171.001 51.4459 169.741 51.461 168.396C51.4841 166.375 49.6994 166.557 48.2884 167.118C46.9687 167.642 46.3073 168.948 45.2456 169.841C43.9235 170.952 42.379 171.853 40.9075 172.749C37.7342 174.683 34.3651 176.306 31.0067 177.888C29.4357 178.628 27.8572 179.352 26.2786 180.077C25.8454 180.276 23.2558 181.919 23.3795 180.51C23.3966 180.321 25.0485 178.315 25.2525 178.24C26.2695 177.868 26.7739 178.99 27.679 177.52C28.3222 176.475 28.4115 175.933 29.3196 175.14C29.474 175.006 29.5803 174.665 29.7055 174.443C29.69 174.527 30.3801 173.855 30.2481 173.972C30.4293 173.812 30.6927 173.518 30.8399 173.326C31.5497 172.399 32.9141 172.382 33.5312 171.323C33.7666 170.919 33.633 170.402 33.9168 170.001C34.3141 169.44 35.1885 169.201 35.655 168.707C36.0549 168.282 36.3845 167.936 36.6327 167.676C36.8037 167.498 37.1038 167.372 37.3062 167.168C37.8094 166.658 37.7701 166.207 38.4746 165.779C39.1073 165.395 39.3982 165.754 39.6169 164.802C40.3869 165.296 40.2904 164.574 40.603 164.057C41.0093 163.384 41.5254 163.084 42.0854 162.597C43.3174 161.525 44.4722 159.93 45.5206 158.581C48.1272 155.227 50.2359 151.304 51.0123 147.096C51.1981 146.089 51.3006 145.072 51.3744 144.052C51.4138 143.515 51.2386 142.208 51.5712 141.683C52.0869 140.867 53.0661 141.191 53.8115 140.834C54.0646 140.713 54.3143 140.355 54.552 140.274C54.8842 140.16 55.2909 140.271 55.6356 140.162C55.7695 140.119 55.8006 139.725 56.0223 139.675C56.4567 139.575 56.8884 139.733 57.3178 139.739C58.2577 139.752 59.1859 139.586 60.0871 139.286C60.9071 139.014 61.5934 138.389 62.4115 138.164C62.3278 138.187 63.76 138.301 63.6828 138.22C63.7513 137.868 63.8198 137.515 63.8882 137.162C64.432 137.542 66.286 138.043 66.8611 137.956C67.7855 137.817 67.5906 136.983 68.3742 138.078C68.818 137.691 69.2615 137.304 69.7049 136.917C70.0409 138.327 72.355 137.643 73.4042 137.721C74.8822 137.831 76.0464 137.553 77.3934 138.068C79.0318 138.694 80.4684 139.355 82.2328 139.526C83.4659 139.645 83.9786 140.224 85.1863 140.582C86.8095 141.063 86.9378 141.592 86.43 143.251C86.0184 144.596 85.6627 145.633 86.2639 147.013C87.3309 149.46 90.23 150.467 92.0991 152.158C87.7206 155.232 83.3974 158.255 79.1646 161.53C77.3911 162.901 75.505 164.276 74.4951 166.339C73.5635 168.244 73.035 170.533 72.4746 172.572C71.1889 177.247 74.8107 180.393 78.5315 182.449C79.3015 182.874 84.6044 189.53 83.5279 190.3ZM76.3064 195.951C76.0445 195.052 76.0789 194.812 76.9469 194.489C77.2754 194.367 78.5346 194.208 78.7381 194.659C79.1997 195.682 76.7748 195.668 76.3064 195.951ZM113.204 130.799C113.515 132.794 113.821 134.789 114.098 136.789C114.251 137.894 114.599 138.871 113.776 139.704C113.308 140.178 112.174 140.354 111.577 140.606C110.716 140.97 109.877 141.387 109.049 141.82C107.572 142.593 106.029 143.059 104.572 143.756C103.938 144.059 103.563 144.656 103.014 145.067C102.263 145.631 101.35 145.905 100.575 146.44C99.1909 147.399 97.9219 148.533 96.5382 149.498C94.9706 150.591 94.6441 150.24 93.7636 148.624C92.9732 147.174 92.0246 146.513 90.8865 145.376C90.4442 144.934 88.8599 142.415 90.2054 142.197C90.5501 142.142 91.7412 142.66 92.011 142.826C92.4211 143.077 93.0765 144.508 93.4098 144.532C94.0103 144.576 94.7795 142.866 95.1537 142.416C97.6063 139.463 100.304 136.543 103.147 133.96C104.62 132.621 106.167 131.402 107.837 130.321C109.025 129.553 110.062 128.476 111.233 127.748C111.48 127.533 111.761 127.38 112.076 127.288C112.687 127.01 112.916 127.25 112.764 128.006C113.114 128.746 113.076 129.982 113.204 130.799ZM59.5533 128.184C60.1496 127.577 60.9025 127.092 61.4224 126.415C61.7156 126.033 61.909 125.349 62.2446 125.102C62.8288 124.672 63.6646 124.871 64.3442 124.293C65.0006 123.736 65.5769 123.068 66.2179 122.489C67.6072 121.235 69.0413 120.083 70.4045 118.806C71.1791 118.081 71.9918 117.14 72.6801 116.661C72.8624 116.534 73.0667 116.345 73.2608 116.247C73.6755 116.038 73.8821 116.251 74.4875 116.056C74.8878 115.928 75.1735 115.421 75.4947 115.181C76.2579 114.611 77.2527 114.385 77.9874 113.837C78.7222 113.288 79.0756 112.436 80.087 111.978C81.3103 111.425 82.2271 111.862 83.1113 110.804C83.4719 110.373 83.5707 109.829 84.1367 109.557C84.8189 109.229 85.4179 109.577 86.0694 109.204C86.5083 108.952 86.8084 108.425 87.2621 108.15C88.0737 107.658 88.9715 107.607 89.7305 106.998C90.3711 106.486 90.0155 106.538 90.7741 106.322C91.1074 106.227 91.4775 106.186 91.8335 106.064C92.9739 105.675 94.8363 105.199 95.5117 104.117C95.8545 104.617 95.9721 104.719 96.5283 104.563C96.8205 104.326 97.0883 104.064 97.3324 103.779C97.5114 104.005 97.7036 104.019 97.9083 103.819C99.1119 103.406 100.216 102.695 101.401 102.3C101.569 102.391 101.737 102.482 101.905 102.572C102.139 102.585 102.233 102.471 102.189 102.23C102.656 102.144 103.193 101.939 103.623 101.752C104.447 101.393 105.357 100.54 106.328 100.845C107.949 101.355 108.027 104.662 108.306 105.973C108.996 109.203 109.69 112.432 110.382 115.661C110.664 116.975 110.911 118.299 111.282 119.591C111.524 120.435 112.127 121.68 111.909 122.577C111.642 123.678 110.569 124.036 109.671 124.545C108.434 125.246 107.238 126.024 106.067 126.832C101.096 130.261 97.3895 134.977 93.865 139.815C93.2119 138.866 91.4627 137.534 90.3726 137.106C89.6091 136.806 88.922 137.048 88.1618 136.682C87.6196 136.422 87.1697 135.912 86.6571 135.584C83.5272 133.579 79.7495 131.922 76.1217 131.127C68.6784 129.494 61.3914 132.022 54.174 133.222C55.6386 131.208 57.8283 129.939 59.5533 128.184ZM109.377 73.5447C110.651 69.393 112.796 65.3736 115.849 62.259C117.388 60.6888 119.197 59.3165 121.225 58.4435C122.989 57.6845 125.087 56.9566 125.06 59.3972C125 64.6954 123.776 69.9333 123.627 75.2399C123.481 80.44 124.352 84.614 127.499 88.8042C125.505 89.2673 123.512 89.7371 121.525 90.2297C120.017 90.6037 118.453 91.0235 117.025 91.2804C115.614 91.5339 114.317 91.6991 112.922 92.1761C111.982 92.4974 110.508 93.4799 109.491 93.2666C107.8 92.9123 108.2 86.8449 108.113 85.3869C107.869 81.2701 108.162 77.5069 109.377 73.5447ZM140.289 81.5384C142.599 78.7337 145 75.4615 148.888 74.9405C152.646 74.437 154.032 78.9452 153.793 81.9847C153.712 83.0135 153.559 85.6844 152.812 86.5176C151.985 87.4394 150.518 86.7445 149.468 86.6024C144.934 85.9886 140.286 87.0132 135.741 87.0132C137.256 85.1876 138.78 83.3693 140.289 81.5384ZM158.89 92.724C160.466 92.9498 161.726 93.1904 160.964 94.9853C159.44 98.5803 158.269 102.012 159.605 105.931C160.625 108.924 163.855 112.557 167.083 113.157C168.214 113.367 169.915 112.991 170.61 114.14C171.229 115.163 170.558 118.232 170.486 119.368C170.217 123.601 169.133 127.801 166.394 131.128C163.956 134.087 160.981 136.404 157.435 133.61C154.447 131.255 152.682 127.043 151.798 123.444C151.325 121.522 151.268 119.605 151.178 117.641C151.098 115.904 150.767 114.802 152.731 114.442C153.257 114.346 154.572 114.376 154.574 113.572C154.577 112.493 153.151 112.898 152.606 112.843C150.502 112.633 151.487 110.187 151.683 108.604C152.017 105.91 152.558 103.246 153.055 100.579C153.477 98.3071 153.5 95.3301 154.417 93.206C154.953 91.9658 157.838 92.5732 158.89 92.724ZM162.762 100.702C163.002 99.2377 163.129 97.4076 164.582 96.5983C166.179 95.709 166.978 97.1579 167.766 98.342C169.856 101.483 172.168 104.422 172.511 108.321C172.552 108.786 172.751 109.72 172.303 110.041C172.103 110.185 171.625 109.806 171.316 109.829C169.661 109.948 168.463 110.392 166.84 109.457C163.664 107.627 162.185 104.236 162.762 100.702ZM175.249 109.473C174.908 106.064 173.333 103.04 171.574 100.162C170.707 98.7421 169.023 97.1905 168.425 95.6912C168.104 94.8879 168.671 93.8933 169.838 94.2377C170.418 94.4094 171.537 95.9496 171.925 96.4827C172.922 97.8525 173.749 99.3802 174.538 100.876C175.381 102.474 177.778 108.341 175.249 109.473ZM164.795 75.5214C164.979 72.3136 164.998 68.6299 167.075 65.9677C168.685 63.9035 171.633 63.0047 174.025 62.2067C177.247 61.1314 181.117 60.9654 184.486 61.3129C187.452 61.6191 189.69 63.6382 191.52 65.8586C193.381 68.1165 194.823 71.0238 196.103 73.6511C196.423 74.3085 199.14 78.5261 197.303 78.428C196.574 78.3889 195.94 76.9658 195.382 76.5456C194.945 76.2163 194.427 76.2572 194.035 75.9939C193.614 75.7116 193.705 75.4505 193.379 75.102C191.135 72.705 189.07 74.0854 186.649 75.3479C186.536 74.5116 186.734 72.9581 186.035 72.3469C185.12 71.5471 184.165 72.8141 183.508 73.4355C182.911 74.0016 182.174 75.033 181.422 75.3392C180.445 75.7366 180.777 75.3141 179.928 74.9803C178.22 74.3082 176.906 76.2974 176.042 77.4542C175.719 77.8858 175.192 78.9751 174.615 79.0918C174.057 79.2043 173.984 78.8069 173.503 78.6599C172.143 78.245 171.766 79.2153 171.333 80.4202C170.845 81.7752 170.43 83.0805 169.708 84.3461C168.431 86.5854 167.882 87.322 168.892 89.7947C167.417 90.0137 167.107 90.1895 166.376 88.8804C165.622 87.5311 165.427 86.4118 165.474 84.861C165.573 81.6176 164.605 78.816 164.795 75.5214ZM199.042 90.8681C200.586 93.6576 201.568 97.5395 201.552 100.718C201.543 102.294 201.451 104.234 200.715 105.664C200.008 107.036 198.53 107.724 197.168 108.308C193.886 109.718 190.188 109.702 186.737 109.073C184.946 108.747 183.204 108.958 181.671 107.881C180.517 107.071 179.126 106.284 178.788 104.798C178.647 104.176 178.865 103.655 178.82 103.045C178.876 102.755 178.855 102.472 178.757 102.195C178.556 102.079 178.353 101.966 178.148 101.856C177.987 101.393 178.296 100.876 178.217 100.393C178.121 99.8084 177.636 99.3328 177.41 98.8031C176.785 97.3432 177.231 96.5263 178.4 95.5347C178.679 95.3146 178.961 95.0967 179.244 94.8807C179.498 94.4787 179.779 94.4772 180.086 94.8754C180.643 94.883 180.626 95.0546 181.212 94.8841C182.494 94.5105 183.57 93.1461 184.826 92.6668C185.314 92.4804 186.042 92.6388 186.439 92.2951C186.793 91.9878 186.565 91.3437 186.876 91.042C187.87 90.0785 189.433 90.992 190.352 89.5912C191.102 88.4485 190.943 86.8268 191.02 85.529C193.323 85.9693 194.32 88.176 196.212 89.2862C196.586 87.8358 196.641 87.879 198.085 87.4807C197.431 88.6913 198.489 89.8697 199.042 90.8681ZM200.804 75.4695C201.228 76.0159 201.552 77.3727 200.804 77.5038V75.4695ZM202.77 80.4047C206.286 80.4119 208.533 84.8568 209.559 87.6103C210.675 90.6048 211.851 94.5984 209.769 97.5149C208.97 98.633 207.99 98.7357 206.705 98.5906C205.157 98.4159 204.363 98.192 204.969 96.5373C206.104 93.4367 205.25 89.495 203.239 86.8995C206.006 86.3649 204.251 83.8266 202.863 82.8767C201.241 81.7676 199.93 80.3987 202.77 80.4047ZM122.502 241.096C121.674 243.29 120.834 245.477 120.14 247.738C119.482 249.88 119.863 252.294 119.045 254.354C118.542 254.105 118.398 253.663 117.96 253.394C117.691 253.228 117.221 253.162 116.989 252.979C116.592 252.665 115.627 251.496 115.365 251.043C114.462 249.475 115.064 246.925 115.547 245.313C116.145 243.317 117.166 241.4 118.537 239.827C119.5 238.724 120.03 239.075 121.316 239.618C122.077 239.939 122.86 240.144 122.502 241.096ZM116.235 258.406C115.575 259.743 114.354 260.845 113.628 262.192C112.867 263.606 112.291 265.201 111.32 266.494C110.332 267.813 109.444 267.592 108.083 268.161C107.595 268.365 107.389 268.743 106.996 269.038C106.259 269.591 105.451 269.93 104.676 270.422C104.125 269.07 102.442 262.283 100.3 262.428C98.438 262.554 99.3903 266.108 99.6306 267.156C99.8334 268.042 100.065 268.941 100.374 269.796C100.686 270.66 101.658 271.953 101.298 272.899C100.841 274.102 99.7048 274.023 99.1357 273.146C98.6597 272.412 98.4179 271.415 98.0672 270.616C97.7588 269.914 96.349 266.071 95.1303 266.667C93.9566 267.241 95.7822 270.966 96.0879 271.698C96.8257 273.465 98.2409 275.163 96.3706 276.579C93.532 278.729 90.0363 280.347 86.8557 281.897C84.9994 282.801 83.3304 283.991 81.3818 284.725C79.5721 285.407 77.4808 285.523 75.7312 286.307C75.3006 286.501 75.5893 286.741 74.9605 286.853C74.433 286.947 73.5117 286.695 72.946 286.7C72.0092 286.709 71.0705 286.78 70.1355 286.662C69.6088 286.596 68.4098 286.019 68.5993 286.972C67.8543 286.765 67.566 286.013 67.0223 285.543C66.538 285.124 65.9193 284.897 65.3786 284.568C64.2609 283.888 63.4247 283.112 63.0895 281.816C62.3021 278.772 63.9666 275.604 66.0211 273.482C67.2001 272.264 68.5834 271.252 69.6648 269.941C70.0443 269.481 70.3141 268.946 70.7958 268.573C71.3853 268.115 72.1942 268.058 72.7652 267.594C73.1901 267.249 73.3172 266.699 73.7626 266.383C74.4213 265.915 75.192 266.109 75.8141 265.495C76.169 265.144 77.3874 263.492 77.3018 263.034C77.6356 263.146 77.9697 263.258 78.303 263.37C78.5058 262.352 80.2615 261.096 81.1275 260.608C81.5657 260.362 82.4189 260.374 82.7447 260.108C83.1783 259.755 83.1427 259.015 83.4867 258.571C84.4731 257.301 86.5379 256.731 87.8444 255.846C89.5066 254.72 91.1211 253.444 92.6224 252.112C95.6573 249.418 98.3328 246.288 100.519 242.869C101.399 241.492 102.216 240.087 102.843 238.578C103.229 237.649 103.614 235.997 104.567 235.458C105.552 234.901 107.812 235.655 108.915 235.734C110.534 235.851 113.059 235.779 114.51 236.574C116.062 237.425 114.8 238.129 114.001 239.143C112.833 240.628 112.132 242.445 111.548 244.227C111.099 245.596 111.015 246.923 110.721 248.304C110.41 249.764 110.413 251.735 111.132 253.077C111.845 254.405 116.979 256.904 116.235 258.406ZM55.0272 285.326C51.5409 280.579 54.4271 273.63 57.8373 269.795C61.9521 265.166 67.8085 262.563 72.6188 258.8C78.1812 254.448 83.8942 250.405 88.8228 245.3C91.3212 242.713 93.4965 239.924 95.4689 236.918C97.1432 234.365 98.3585 230.964 101.742 230.595C99.746 233.083 99.6295 236.667 98.0865 239.437C96.4531 242.37 94.0447 244.809 91.5921 247.064C86.4134 251.824 80.8199 256.185 75.2261 260.44C72.3709 262.611 69.5948 264.881 66.7495 267.063C64.2012 269.018 61.5242 270.69 60.0557 273.668C57.5222 278.807 57.3708 286.419 62.9817 289.585C60.0905 289.009 56.8388 287.792 55.0272 285.326ZM358.99 71.2678C357.958 69.2039 356.025 68.4689 354.084 67.6614C352.184 66.8714 350.448 65.898 348.341 65.6453C347.404 65.5327 344.762 65.812 344.638 64.454C344.535 63.3226 347.296 62.187 347.933 61.325C348.876 60.0474 349.517 57.9729 349.151 56.3591C348.804 54.8287 347.316 54.3452 345.926 54.0679C341.604 53.2059 337.008 53.8398 332.675 54.1941C333.205 53.4522 333.953 52.8436 334.378 51.9551L335.065 53.3836C335.456 52.5667 335.88 51.7649 336.367 50.9999C336.696 51.3697 337.026 51.7399 337.355 52.1097C336.807 50.189 338.648 50.1989 338.454 48.5798C338.379 47.9501 337.952 47.6743 337.848 47.1681C337.642 46.1617 338.419 45.5323 337.535 44.5991C336.551 43.5598 334.941 43.972 333.795 44.069C333.651 44.0815 333.443 44.3661 333.257 44.3892C333 44.4218 332.851 44.0671 332.533 44.086C331.679 44.1364 330.926 44.7999 330.077 45.0015C326.142 45.9359 322.207 47.6023 318.43 49.1581C314.586 50.7419 310.812 52.586 307.46 55.0716C303.873 57.7319 301.282 61.1519 298.417 64.5215C297.07 66.1049 295.677 67.6254 294.652 69.4499C294.122 70.3926 293.643 73.3537 292.689 73.7841C291.654 74.2517 289.05 72.9297 287.991 72.6857C285.499 72.112 283.017 71.8726 280.462 71.9877C278.429 72.0787 276.284 72.0245 274.269 72.2731C273.098 72.4174 270.182 73.7159 269.995 75.1679C269.912 75.8132 270.651 76.3497 270.817 76.9544C271.068 77.8691 270.654 78.8379 270.942 79.7545C271.531 81.6233 274.264 82.311 275.874 82.8994C280.371 84.5431 284.928 85.8173 289.471 87.2886C291.445 87.9282 293.132 88.9463 294.92 89.9686C296.403 90.8158 297.756 91.6635 296.258 93.2545C294.839 94.7618 295.016 95.3699 295.439 97.4463C295.884 99.6375 296.039 101.853 296.62 104.023C297.198 106.184 298.279 108.248 298.068 110.534C297.858 112.813 296.915 115.154 296.033 117.242C295.142 119.352 294.159 121.437 293.191 123.513C292.296 125.433 291.327 127.38 289.256 128.2C285.301 129.764 280.249 129.516 276.128 128.948C271.45 128.303 266.618 127.21 262.194 125.54C257.94 123.936 253.262 121.474 249.744 118.566C247.865 117.013 245.829 115.862 243.835 114.472C241.814 113.063 240.279 111.163 238.508 109.476C235.038 106.17 230.766 103.892 226.368 102.075C221.425 100.032 216.321 100.244 211.083 100.023C211.907 98.4026 212.968 96.8541 213.358 95.0505C213.764 93.1719 213.47 91.1307 213.213 89.254C212.714 85.601 211.769 82.386 209.463 79.4359C208.408 78.0866 207.177 77.0347 205.421 76.8389C204.357 76.7199 202.39 77.5372 201.622 76.6358C201.284 76.2383 201.363 75.4024 201.15 74.9129C200.962 74.4783 200.582 74.041 200.377 73.5689C199.498 71.5509 198.4 69.7674 197.305 67.8528C196.869 67.0916 196.532 65.9677 195.937 65.327C195.614 64.9784 195.198 64.82 195.017 64.565C194.679 64.088 194.523 63.2158 194.241 62.6773C193.758 61.7558 193.143 60.8995 192.434 60.1391C191.301 58.9235 189.842 57.8509 188.288 57.2454C187.425 56.9089 186.792 56.8293 185.89 56.8786C185.626 56.893 185.333 57.0453 185.069 57.0252C184.436 56.9771 184.535 56.7505 184.029 56.6452C180.639 55.9393 176.094 56.9297 172.914 58.1456C169.565 59.4263 166.845 61.1151 164.809 64.1498C159.81 71.6028 160.975 81.2262 163.096 89.4351C161.813 89.0983 160.536 88.6997 159.241 88.4144C158.448 88.2393 157.365 88.2723 156.657 87.8536C155.081 86.9222 156.363 84.5321 156.372 82.9877C156.397 79.0638 154.545 72.9274 150.507 71.2701C146.299 69.5431 141.18 74.3908 138.579 77.1397C136.91 78.9031 135.393 80.8037 133.796 82.6308C132.68 83.9077 131.206 85.9435 129.25 85.6097C124.984 84.8822 126.285 76.765 126.474 74.0213C126.774 69.684 127.412 65.2774 127.416 60.9291C127.418 58.2858 126.961 54.72 123.715 54.41C119.248 53.9838 115.016 58.0471 112.411 61.1735C105.542 69.4173 104.024 80.3138 105.861 90.6586C106.131 92.1754 106.991 94.046 105.35 94.9876C103.194 96.2247 100.438 96.9738 98.1209 97.882C92.9399 99.9122 88.1422 102.621 83.2642 105.268C78.4351 107.888 73.6827 110.49 69.3258 113.867C64.9825 117.233 60.6831 120.8 56.7264 124.616C54.7544 126.518 52.8516 128.503 51.0562 130.574C49.3668 132.523 47.9982 134.735 46.162 136.556C44.9122 137.796 42.6129 139.459 42.3382 141.35C42.1161 142.877 44.6909 143.935 45.8528 144.641C46.6493 145.124 47.2014 145.11 47.2589 145.972C47.33 147.048 46.1964 148.772 45.7927 149.797C44.7643 152.413 43.4199 154.58 41.6529 156.758C37.7387 161.58 33.0087 165.669 28.5193 169.953C24.3478 173.934 20.2603 177.852 17.2026 182.791C16.4535 184.001 14.5889 186.486 16.3608 187.619C16.8194 187.912 18.2265 188.144 18.6934 187.829C19.272 187.439 18.9787 186.851 19.6624 186.46C19.491 187.775 25.4628 185.205 25.9275 184.967C27.1825 184.324 28.3177 183.57 29.6007 182.994C30.3533 182.655 30.4445 182.184 31.0272 181.807C31.3386 181.605 31.3423 181.876 31.7593 181.75C32.1347 181.637 33.0155 181.594 33.2955 181.232C33.3031 181.222 33.6088 180.347 33.3488 180.528C34.3663 179.82 34.9675 180.891 34.3568 181.897C32.5512 184.871 30.2682 187.059 29.5606 190.632C29.3037 191.93 28.8652 194.34 29.6575 195.523C29.6862 195.566 29.953 195.441 29.9855 195.487C30.0158 195.53 30.3064 195.934 30.4259 196.049C31.1259 196.719 31.0809 197.018 32.2493 196.99C32.7677 196.977 33.801 196.911 34.2755 196.677C34.6323 196.5 34.8067 196.067 35.081 195.912C35.3587 195.755 35.3258 195.674 35.5865 195.582C35.6399 195.563 35.7424 196.019 35.8438 196C36.4004 195.895 36.6403 195.563 37.1132 195.295C38.4761 194.523 39.8122 193.675 41.11 192.898C42.4161 192.116 43.3919 191.026 44.6931 190.118C46.0753 189.153 47.2059 188.413 48.2691 187.074C49.005 186.147 49.8832 185.809 50.3774 185.353C50.9639 184.811 51.9745 182.719 52.9197 182.47C53.3499 182.356 53.6942 182.737 53.9299 182.581C54.1955 182.406 53.9061 182.069 54.0393 181.872C54.2879 181.503 54.3189 181.441 54.7415 181.103C55.283 180.67 55.9481 180.553 56.4026 179.989C56.9077 179.361 56.9769 178.657 57.5986 178.069C59.0935 176.655 60.4246 175.164 62.0089 173.793C61.3971 177.205 60.7909 180.593 61.265 184.063C61.7243 187.426 63.1516 188.933 65.953 190.639C66.5698 191.015 67.2168 191.562 67.8789 191.828C68.2815 191.991 68.8876 191.894 69.1877 192.013C70.2036 192.416 69.8582 193.24 69.9974 194.169C70.2135 195.61 71.537 196.718 72.391 197.84C73.1095 198.784 74.405 200.931 75.6071 201.256C76.6923 201.55 77.7162 200.281 78.6201 199.74C79.983 198.925 81.4677 198.341 82.9048 197.675C85.7119 196.374 88.424 194.822 91.1998 193.446C92.4677 192.818 93.7485 192.562 95.0902 192.157C96.702 191.669 98.0774 190.737 99.6234 190.101C102.403 188.957 105.066 187.592 107.829 186.391C113.547 183.906 119.784 182.198 124.872 178.469C127.174 176.781 130.138 176.602 132.407 174.962C134.771 173.253 133.321 170.639 132.309 168.542C129.543 162.812 127.892 156.861 124.084 151.642C122.105 148.929 120.278 146.127 118.552 143.244C117.026 140.692 117.057 137.802 116.674 134.919C116.417 132.993 116.177 131.059 115.864 129.141C115.665 127.922 115.023 126.386 115.8 125.281C116.633 124.094 118.614 123.589 119.865 122.962C121.421 122.184 122.927 121.347 124.541 120.688C128.229 119.182 132.114 118.14 135.983 117.221C137.136 116.947 142.074 114.985 143.014 116.134C141.86 116.906 141.523 118.308 141.005 119.509C140.234 121.299 139.437 123.004 138.875 124.88C137.712 128.758 136.723 132.699 135.776 136.634C134.834 140.542 133.712 144.48 133.424 148.506C133.277 150.561 133.378 152.617 133.374 154.674C133.371 156.869 132.915 159.022 132.997 161.223C133.051 162.686 133.174 164.444 134.031 165.693C134.825 166.85 136.175 166.978 137.353 167.597C138.905 168.413 139.513 168.762 139.528 170.538C139.545 172.607 139.411 174.64 139.605 176.709C140.279 183.912 142.699 192.461 147.528 198.022C147.85 198.392 157.221 210.213 158.258 208.482C158.973 209.329 160.041 209.638 160.92 210.376C162.302 211.535 163.658 212.462 164.801 213.898C166.881 216.511 168.649 219.574 169.169 222.915C169.616 225.791 169.347 229.229 167.726 231.721C166.099 234.222 162.621 235.862 159.996 237.093C156.545 238.711 153.042 238.893 149.295 238.487C147.447 238.287 145.612 237.975 143.777 237.68C143.013 237.557 142.123 237.556 141.4 237.269C140.625 236.96 140.362 236.619 139.588 236.581C139.01 236.553 138.694 236.681 138.083 236.553C137.327 236.395 136.506 236.108 135.751 235.914C134.913 235.698 134.225 235.391 133.452 234.994C132.736 234.628 131.931 234.557 131.242 234.209C130.055 233.61 129.689 232.608 128.083 233.163C126.388 233.75 126.743 235.216 125.661 236.221C124.699 237.115 123.508 236.289 122.551 235.757C121.143 234.975 119.68 234.325 118.181 233.733C116.561 233.093 114.906 232.537 113.221 232.096C111.377 231.615 109.351 231.519 107.575 230.818C106.014 230.203 105.343 229.011 104.212 227.899C103.023 226.728 101.409 226.282 99.7604 226.386C96.758 226.576 94.7076 229.822 93.1215 232.077C88.6904 238.375 83.7924 243.74 77.8694 248.688C75.0396 251.051 71.8495 253.061 69.1128 255.513C67.9584 256.548 67.1203 257.518 65.7532 258.289C63.9575 259.301 62.3278 260.57 60.6112 261.711C53.8966 266.174 48.9714 272.675 50.8284 281.164C51.6642 284.985 53.3336 287.667 56.4529 289.966C57.8691 291.01 59.165 291.878 60.9691 291.818C62.6725 291.761 64.1754 291.702 63.172 289.675C64.4433 290.068 65.5073 291.04 66.8951 291.537C68.4941 292.11 70.5744 292.467 72.2722 292.502C74.9904 292.558 78.188 291.124 80.5683 290.517C81.2339 290.347 82.5162 290.069 83.2744 289.444C83.8775 288.946 83.7466 288.357 84.6593 288.121C85.8553 287.812 86.3108 288.173 87.4562 287.449C89.118 286.396 90.9201 285.772 92.644 284.802C94.9661 283.496 97.1984 282.023 99.4993 280.677C99.8058 281.523 101.608 286.547 102.722 284.125C103.691 282.016 100.545 280.211 102.457 278.076C104.281 276.041 104.663 278.181 106.432 279.126C108.888 280.438 108.52 277.987 107.806 276.536C107.52 275.955 106.92 275.08 107.096 274.403C107.438 273.095 108.495 273.863 109.327 273.996C110.636 274.206 111.695 273.846 112.678 272.967C113.498 272.234 114.854 271.602 115.35 270.636C115.598 270.152 115.641 269.488 115.848 268.975C116.12 268.298 116.313 268.462 116.412 267.623C116.317 267.189 116.28 266.749 116.299 266.304C116.514 266.261 116.729 266.217 116.943 266.174C116.95 266.143 116.965 265.296 116.878 265.422C117.079 265.131 117.51 265.007 117.758 264.603C117.985 264.231 117.773 263.518 117.865 263.079C118.05 262.19 118.556 261.472 118.969 260.68C119.844 264.38 119.591 268.238 120.426 271.94C121.113 274.979 122.675 277.704 124.498 280.196C125.343 281.351 126.462 282.17 127.346 283.268C128.095 284.196 128.469 285.015 129.574 285.564C130.308 285.928 131.135 286.116 131.893 286.431C132.377 286.632 133.479 287.56 133.934 287.544C133.538 287.558 134.678 287.593 134.413 287.548C134.433 287.552 134.278 287.052 134.416 287.06C136.068 288.625 137.794 288.629 139.706 289.601C140.582 290.046 140.909 290.019 141.843 290.184C143.053 290.397 144.071 291.087 145.229 291.161C147.012 291.274 149.021 291.513 150.88 291.448C151.386 291.429 152.336 291.104 152.733 291.546C152.995 291.838 152.498 293.95 152.467 294.433C152.14 299.504 152.818 304.828 154.957 309.468C156.731 313.315 158.622 317.867 161.76 320.805C165.237 324.061 170.109 326.356 174.76 327.234C179.91 328.206 185.015 327.479 190.181 327.176C195.422 326.87 200.271 326.126 205.326 324.607C210.027 323.194 214.479 321.352 218.977 319.409C222.036 318.089 225.915 316.187 224.311 312.178C223.923 311.208 222.42 308.512 221.089 309.842C219.912 311.019 221.88 313.246 222.77 313.994C216.058 318.676 207.912 320.224 200.057 321.883C195.743 322.793 191.494 322.755 187.106 322.768C183.388 322.778 179.67 322.885 175.976 322.366C172.634 321.896 168.743 321.015 166.256 318.571C163.655 316.015 161.193 312.962 159.417 309.773C157.469 306.273 156.996 302.488 156.839 298.541C156.756 296.463 156.663 294.359 156.88 292.286C157.038 290.781 157.806 290.602 158.187 289.413C159.068 290.647 159.647 290.191 160.729 289.47C161.427 291.421 161.116 293.449 160.996 295.461C160.879 297.421 161.14 299.409 161.38 301.355C161.787 304.665 163.373 308.116 165.384 310.781C166.293 311.985 167.656 312.494 168.889 313.325C170.461 314.386 172.091 315.374 173.731 316.326C176.821 318.118 180.193 319.65 183.675 319.921C184.896 320.015 185.782 320.651 187.236 320.562C188.099 320.509 188.968 320.214 189.83 320.237C190.693 320.261 191.434 320.537 192.32 320.473C196.004 320.206 199.802 318.999 203.449 318.336C207.398 317.618 211.372 316.845 215.142 315.429C216.776 314.815 218.124 314.023 219.036 312.48C219.687 311.377 219.517 309.401 220.731 308.741C219.936 307.716 220.231 307.535 220.918 306.618C221.238 306.19 222.273 305.059 221.018 305.079C221.4 303.427 220.762 301.83 220.49 300.213C220.372 299.516 220.404 298.458 219.972 297.857C219.72 297.507 219.302 297.501 219.076 297.242C218.843 297.237 218.661 297.14 218.531 296.952C218.515 296.676 218.644 296.508 218.918 296.448C218.855 295.901 219.259 296.097 218.855 295.243C218.303 294.078 217.258 293.062 216.267 292.27C215.423 291.594 214.802 290.395 213.828 290.035C212.56 289.566 211.231 289.056 209.899 288.621C206.879 287.633 203.886 287.256 200.718 287.803C199.266 288.054 197.837 288.361 196.436 288.81C195.616 289.073 194.361 289.782 193.635 289.017C193.386 288.755 192.865 286.527 192.897 286.287C193.028 285.321 195 284.931 195.72 284.594C196.82 284.078 198.856 283.527 199.554 282.505C199.847 282.076 199.516 280.255 199.564 280.223C200.026 279.912 201.962 284.333 202.49 284.635C203.253 285.071 205.395 284.495 206.184 284.408C208.536 284.149 210.927 284.002 213.231 283.441C217.649 282.365 221.987 280.701 226.287 279.23C234.466 276.432 242.362 272.744 249.715 268.163C253.149 266.024 256.561 263.289 259.174 260.182C260.352 258.781 261.185 257.119 262.388 255.745C263.777 254.16 263.339 252.73 263.962 250.745C265.222 246.727 266.751 243.076 267.437 238.865C268.143 234.529 268.435 230.102 268.239 225.713C267.852 217.037 267.431 208.811 263.619 200.84C260.125 193.534 255.598 186.397 250.216 180.348C248.965 178.942 247.643 177.603 246.106 176.51C244.451 175.332 242.63 174.409 241.132 173.018C239.903 171.877 238.875 170.532 237.59 169.449C236.012 168.119 234.134 167.532 232.286 166.683C230.514 165.869 228.898 164.812 227.086 164.071C225.984 163.621 224.867 163.205 223.717 162.891C222.868 162.658 221.739 162.644 220.962 162.202C219.733 161.504 218.476 159.472 217.673 158.324C216.501 156.65 215.867 154.701 215.309 152.754C214.631 150.386 214.001 148.002 213.338 145.629C213.111 144.818 212.265 141.996 213.953 142.681C214.447 142.881 214.911 143.772 215.292 144.152C216.013 144.874 216.903 145.52 217.798 146.011C219.242 146.803 220.745 147.756 222.129 148.302C223.349 148.783 224.603 149.726 225.741 150.404C225.913 150.507 225.964 150.862 226.186 150.961C226.71 151.193 227.06 150.552 227.555 150.709C228.231 150.924 228.342 151.561 228.717 152.068C229.261 152.803 229.543 152.861 230.374 153.239C231.299 153.66 231.977 154.492 232.879 154.904C233.974 155.405 236.383 155.017 236.548 156.742C238.25 155.63 240.384 157.789 241.446 158.909C242.515 157.267 244.408 159.189 246.026 158.645C245.131 159.889 245.294 159.765 246.706 159.919C247.898 160.049 248.612 160.841 249.791 161.301C250.607 161.62 251.509 162.156 252.357 162.38C253.159 162.592 253.767 162.116 254.465 162.235C254.947 162.317 255.404 162.734 255.863 162.848C256.444 162.992 257.271 163.168 257.927 163.324C258.726 163.513 259.52 163.339 260.317 163.49C261.247 163.666 262.049 164.22 262.992 164.399C264.045 164.6 265.139 164.466 266.185 164.721C267.138 164.954 267.718 165.221 268.705 165.231C270.178 165.245 271.822 165.44 273.277 165.274C274.051 165.185 274.48 164.792 275.357 165.176C275.942 165.433 276.292 166.224 277.089 165.861C276.248 165.524 276.986 164.211 277.913 165.217C278.133 164.653 278.275 164.338 278.885 164.153C278.854 164.705 278.764 165.259 279.468 165.375C279.521 164.99 279.576 164.607 279.63 164.222C281.16 165.387 281.522 165.799 282.966 164.377C282.928 164.842 282.731 165.369 283.204 165.699C283.507 165.195 283.81 164.692 284.113 164.189C284.624 165.813 287.066 165.252 288.25 164.964C288.709 164.853 289.977 164.676 290.276 164.3C290.484 164.039 290.459 163.835 290.535 163.675C290.604 163.533 289.826 163.183 290.488 162.979C290.986 162.825 291.375 163.919 291.961 163.875C292.483 163.837 292.694 162.952 293.07 162.773C293.106 162.756 293.361 163.13 293.537 163.048C293.812 162.921 293.968 162.586 294.271 162.467C294.928 162.21 295.777 162.274 296.513 161.97C297.445 161.583 298.385 161.399 299.337 161.081C300.544 160.677 301.092 159.885 302.071 159.236C302.301 159.084 302.54 159.173 302.765 159.065C303.069 158.92 303.388 158.58 303.75 158.42C304.884 157.917 305.853 157.575 306.929 156.881C307.889 156.262 309.155 155.804 310.01 155.061C310.72 154.443 311.104 153.54 311.819 152.911C312.846 152.007 315.499 150.874 315.069 149.109C316.786 149.371 317.207 148.259 317.837 147.033C318.437 145.866 319.666 145.516 320.469 144.452C320.817 143.992 321.376 143.355 321.568 142.83C321.682 142.518 321.396 142.192 321.473 141.978C321.829 140.998 323.204 140.57 323.84 139.686C324.65 138.561 324.91 137.138 325.585 135.983C325.718 135.755 326.045 135.62 326.172 135.378C326.253 135.222 326.084 134.836 326.182 134.683C326.418 134.32 326.788 134.195 327.025 133.858C327.597 133.044 327.702 131.886 328.216 130.962C328.343 130.735 328.784 130.099 328.84 129.964C329.026 129.509 328.97 129.211 329.065 128.705C329.094 128.552 329.388 127.672 329.448 127.546C329.637 127.153 329.82 127.095 330.108 126.664C330.831 125.584 331.279 123.889 331.339 122.579C331.364 122.023 331.179 121.448 331.381 120.917C331.554 120.459 332.089 120.176 332.291 119.696C332.82 118.437 332.734 116.657 332.879 115.31C333.037 113.841 333.507 112.394 333.637 110.937C333.7 110.232 333.368 109.607 333.393 108.943C333.421 108.181 333.816 108.039 333.968 107.406C334.141 106.683 333.887 105.85 334.042 105.075C334.187 104.354 334.397 103.686 334.457 102.947C334.612 101.02 334.393 99.0047 334.309 97.0772C334.277 96.3293 334.177 95.5491 334.375 94.8167C334.534 94.2275 335.184 93.5686 335.163 92.9294C335.096 90.9545 333.517 92.6638 332.609 92.5281C331.553 92.3709 331.359 90.002 331.081 89.1036C330.401 86.9086 329.721 84.714 329.041 82.5194C332.282 81.6756 335.651 81.9188 338.959 81.6911C342.209 81.4675 345.383 80.762 348.535 79.9678C351.196 79.2972 354.108 78.9084 356.499 77.4765C358.507 76.2747 360.163 73.6148 358.99 71.2678Z" fill="#0F216F"/>
<path fill-rule="evenodd" clip-rule="evenodd" d="M44.3375 113.756C45.6337 113.082 45.3067 112.151 46.2586 111.286C51.5856 106.445 57.8369 102.218 64.1022 98.7272C70.7031 95.0497 78.1095 93.4924 84.8565 90.2337C85.7639 89.7954 86.9431 89.1102 86.6044 87.889C86.2087 86.4621 84.8501 87.1188 83.8816 87.4553C80.6548 88.5777 77.2202 89 73.9473 89.986C66.9609 92.0902 60.4181 95.7189 54.4994 99.9658C51.0562 102.436 47.7576 105.168 44.8174 108.236C43.7344 109.365 42.2906 110.683 42.0089 112.31C41.66 114.323 42.8505 114.529 44.3375 113.756Z" fill="#0F216F"/>
<path fill-rule="evenodd" clip-rule="evenodd" d="M64.5148 240.333C64.4833 238.554 62.5456 239.201 61.5487 239.44C57.496 240.413 53.8732 241.158 50.2866 243.411C43.6302 247.591 38.5867 253.943 35.3238 260.972C34.8894 261.907 33.14 264.871 34.5421 265.753C35.4664 266.335 36.0271 264.641 36.3725 264.011C38.1299 260.809 40.4829 257.975 42.8489 255.192C48.1024 249.015 54.4172 245.094 61.9728 242.231C62.8994 241.88 64.5377 241.627 64.5148 240.333Z" fill="#0F216F"/>
<path fill-rule="evenodd" clip-rule="evenodd" d="M288.505 196.629C287.103 193.808 284.837 190.328 281.7 189.166C279.965 188.523 278.938 189.587 279.453 191.364C279.862 192.778 281.23 193.468 282.251 194.406C284.878 196.818 286.496 200.419 287.456 203.763C288.47 207.298 288.672 211.134 288.654 214.794C288.645 216.726 288.129 218.405 287.849 220.286C287.739 221.025 287.552 222.655 288.401 223.117C290.284 224.139 291.154 218.798 291.346 217.771C292.054 213.983 291.986 210.494 291.389 206.712C290.844 203.254 290.078 199.793 288.505 196.629Z" fill="#0F216F"/>
<path fill-rule="evenodd" clip-rule="evenodd" d="M283.12 61.0939C283.886 60.061 283.327 58.6151 283.555 57.4375C283.794 56.2032 284.506 54.9546 285.109 53.8749C286.41 51.5439 287.863 49.2548 289.41 47.0806C291.007 44.8354 292.956 42.9223 294.654 40.7652C295.228 40.0354 296.246 38.9923 295.998 38.1141C295.596 36.6919 294.721 37.3851 294.02 37.981C290.188 41.2398 286.813 45.2579 284.087 49.4781C282.794 51.4811 281.571 53.6746 281.143 56.0506C280.922 57.2777 280.92 58.5581 281.284 59.7595C281.513 60.5146 282.2 62.335 283.12 61.0939Z" fill="#0F216F"/>
<path fill-rule="evenodd" clip-rule="evenodd" d="M46.9563 234.923C48.8765 234.745 50.8078 234.682 52.7326 234.583C54.1572 234.51 55.7599 234.597 57.0676 233.912C58.3836 233.221 57.8116 232.187 56.7174 232.034C56.0885 231.946 55.0269 232.371 54.3528 232.4C53.6228 232.431 52.8891 232.409 52.1587 232.411C50.0235 232.419 47.7227 232.403 45.6642 233.113C44.992 233.345 43.9733 233.702 43.6968 234.471C43.1055 236.115 46.0656 235.005 46.9563 234.923Z" fill="#0F216F"/>
<path fill-rule="evenodd" clip-rule="evenodd" d="M63.7709 84.5004C66.5598 84.166 69.255 83.3303 72.0027 82.7976C74.6147 82.2914 75.0594 80.2318 71.9669 80.3243C70.9284 80.3553 60.9172 82.2546 63.7709 84.5004Z" fill="#0F216F"/>
<path fill-rule="evenodd" clip-rule="evenodd" d="M294.208 187.792C292.334 187.323 293.303 189.402 293.883 190.044C294.956 191.232 295.541 192.122 295.86 193.706C296.046 194.629 295.872 196.711 296.654 197.417C297.425 198.111 297.479 197.65 297.616 196.793C298.001 194.377 297.23 188.549 294.208 187.792Z" fill="#0F216F"/>
<path fill-rule="evenodd" clip-rule="evenodd" d="M273.64 56.2793C274.171 55.7167 273.601 53.2702 273.664 52.5532C273.741 51.6845 273.946 50.9493 274.205 50.134C274.331 49.7387 274.964 48.3434 274.623 47.9102C274.151 47.3096 273.366 48.3244 273.117 48.7239C272.309 50.024 272.121 52.1917 272.255 53.6556C272.303 54.1856 272.624 57.3556 273.64 56.2793Z" fill="#0F216F"/>
<path fill-rule="evenodd" clip-rule="evenodd" d="M163.325 262.586C163.414 261.2 164.748 260.239 164.752 258.766C164.757 257.11 163.643 256.393 162.255 257.469C161.419 258.118 160.767 259.699 159.636 259.906C157.366 260.322 156.475 256.245 154.24 256.717C152.304 257.125 153.321 260.45 153.905 261.571C154.524 262.76 155.648 263.595 155.283 265.057C154.848 266.794 153.357 267.795 153.937 269.778C155.014 273.462 157.353 270.017 158.76 268.86C159.762 268.035 160.368 268.181 161.341 268.99C162.674 270.099 163.693 270.851 165.31 271.598C166.735 272.257 168.111 272.716 168.155 270.506C168.19 268.769 166.878 267.039 165.726 265.86C164.77 264.882 163.228 264.128 163.325 262.586Z" fill="#0F216F"/>
<path fill-rule="evenodd" clip-rule="evenodd" d="M138.341 257.09C136.673 255.311 134.566 259.848 133.217 260.35C131.032 261.164 130.529 256.803 128.517 256.94C126.951 257.046 127.075 259.291 127.416 260.314C127.783 261.416 128.881 262.317 129.065 263.446C129.348 265.176 126.074 268.635 128.359 270.306C130.309 271.733 131.036 266.912 133.474 268.879C134.671 269.845 138.02 273.438 139.679 271.65C141.64 269.536 136.976 265.928 136.125 264.32C134.973 262.144 140.786 259.697 138.341 257.09Z" fill="#0F216F"/>
<path fill-rule="evenodd" clip-rule="evenodd" d="M178.757 195.291C178.279 195.08 177.505 195.429 176.988 195.407C176.432 195.383 175.853 195.13 175.305 195.037C174.113 194.833 172.018 195.128 171.173 194.066C170.31 192.983 170.966 190.808 170.597 189.49C170.397 188.774 170.165 187.889 169.2 188.209C168.08 188.579 168.107 190.636 167.973 191.538C167.776 192.869 167.618 193.884 166.28 194.358C165.29 194.708 164.247 194.531 163.447 195.345C162.86 195.941 162.464 197.03 162.924 197.809C163.613 198.979 165.107 198.373 166.143 198.743C167.723 199.307 167.347 201.888 167.671 203.371C167.878 204.323 168.335 206.99 169.702 206.947C171.567 206.889 170.843 203.142 170.739 202.048C170.635 200.939 170.385 199.998 171.623 199.653C172.669 199.362 174.13 199.902 175.211 199.895C176.575 199.887 178.183 199.544 179.006 198.322C179.476 197.622 179.774 195.74 178.757 195.291Z" fill="#0F216F"/>
<path fill-rule="evenodd" clip-rule="evenodd" d="M247.283 241.406C250.248 241.662 248.451 245.316 250.419 246.768C252.296 248.154 252.548 244.329 252.548 243.237C252.547 240.592 255.764 241.57 257.722 241.132C259.394 240.758 261.219 239.023 259.223 237.544C257.782 236.477 255.393 236.972 253.721 236.689C251.455 236.306 252.128 234.793 252.078 233.049C252.06 232.41 251.839 230.13 251.014 229.951C249.502 229.622 249.411 233.867 249.31 234.675C248.878 238.093 246.531 236.011 244.665 237.724C242.227 239.964 245.517 241.254 247.283 241.406Z" fill="#0F216F"/>
<path fill-rule="evenodd" clip-rule="evenodd" d="M106.27 177.679C101.638 181.476 96.3778 180.932 92.1383 176.845C90.3456 175.117 89.2626 173.375 89.4228 170.846C89.5668 168.57 90.235 166.055 92.0572 164.518C93.5918 163.222 96.4865 162.757 98.4295 162.576C101.153 162.323 103.59 163.805 105.474 165.658C107.115 167.272 109.032 169.328 109.285 171.723C109.552 174.243 108.115 176.166 106.27 177.679ZM106.974 162.571C102.819 158.569 95.4511 158.971 91.1613 162.62C86.3463 166.716 85.5231 174.411 90.1505 178.898C95.0272 183.627 101.464 183.117 106.627 179.194C109.396 177.09 110.898 174.39 111.284 170.926C111.648 167.652 109.247 164.759 106.974 162.571Z" fill="#0F216F"/>
<path fill-rule="evenodd" clip-rule="evenodd" d="M187.319 93.6943C186.853 95.2096 187.176 96.824 187.258 98.3678C185.941 97.5439 185.121 96.0742 183.707 95.3916C183.029 97.2654 186.408 102.625 188.536 100.868C190.482 99.2605 189.045 94.7743 187.319 93.6943Z" fill="#0F216F"/>
<path fill-rule="evenodd" clip-rule="evenodd" d="M194.231 102.935C193.182 103.326 192.207 103.218 191.173 103.418C190.491 103.55 190.403 103.162 190.315 103.943C190.126 105.61 192.816 106.255 194.027 106.231C195.505 106.203 197.126 105.208 196.983 103.59C196.835 101.904 195.371 102.51 194.231 102.935Z" fill="#0F216F"/>
<path fill-rule="evenodd" clip-rule="evenodd" d="M195.09 95.9285C194.614 95.4966 193.518 93.865 192.714 94.1442C192.097 94.358 192.533 95.0946 192.714 95.4633C193.391 96.846 194.72 98.0224 195.781 99.1314C194.995 99.4106 193.48 99.5903 193.88 100.8C194.248 101.912 195.914 101.741 196.713 101.273C199.448 99.6695 196.459 97.1711 195.09 95.9285Z" fill="#0F216F"/>
<path fill-rule="evenodd" clip-rule="evenodd" d="M197.851 93.3041C198.038 94.0675 198.139 94.7883 197.726 95.504L195.448 91.4182C193.616 92.1704 196.829 98.0571 198.701 97.4054C199.996 96.9548 199.374 94.1881 199.17 93.3177C199.06 92.8516 198.8 91.3698 198.154 91.2193C196.883 90.9235 197.712 92.7411 197.851 93.3041Z" fill="#0F216F"/>
<path fill-rule="evenodd" clip-rule="evenodd" d="M103.869 175.716C102.812 174.937 101.062 176.762 99.9442 176.768C97.6866 176.78 98.9161 174.132 97.503 173.274C96.7661 172.826 93.6812 173.277 94.1685 171.424C94.4616 170.309 95.6079 171.114 96.2361 170.432C97.0241 169.579 95.9006 168.897 95.2015 168.547C95.5083 168.138 97.276 167.958 97.7202 168.241C98.4868 168.73 98.4426 170.198 99.1459 170.954C100.058 169.788 99.5633 168.325 100.535 167.278C100.913 166.872 102.017 166.566 101.587 165.841C101.339 165.42 100.248 165.559 99.8751 165.225C99.5496 164.932 99.5656 163.99 99.0402 163.912C98.1811 163.784 98.2021 165.096 97.9442 165.476C97.1684 166.614 93.7586 166.222 95.1718 168.532C94.2303 168.062 91.6621 167.691 92.1605 169.331C92.2879 169.75 92.7733 170.007 92.8939 170.485C92.9985 170.899 92.7684 171.49 92.7466 171.906C92.7058 172.694 92.6428 173.616 93.2263 174.25C94.0281 175.122 95.0996 174.488 95.9598 174.867C97.1317 175.383 96.7093 176.457 97.3275 177.396C98.1369 178.624 99.3813 178.247 100.527 177.875C101.894 177.432 102.11 177.392 103.11 178.53C103.567 177.939 104.819 176.417 103.869 175.716Z" fill="#0F216F"/>
<path fill-rule="evenodd" clip-rule="evenodd" d="M105.706 170.92C104.604 170.716 105.038 167.431 103.696 168.858C103.193 169.393 103.709 170.437 103.147 171.01C102.77 171.396 102.292 171.168 101.915 171.421C101.576 171.648 101.49 172.082 101.291 172.414C102 172.733 102.548 172.775 103.305 172.635C103.305 173.206 102.926 174.885 103.899 174.762C104.805 174.648 104.549 172.962 105.01 172.439C105.478 171.906 107.363 172.153 107.539 171.404C107.756 170.477 106.188 171.009 105.706 170.92Z" fill="#0F216F"/>
</g>
</svg>
